<?xml version="1.0" encoding="utf-8"?>
<!-- Generator: Adobe Illustrator 24.2.3, SVG Export Plug-In . SVG Version: 6.00 Build 0)  -->
<svg version="1.1" id="Capa_1" xmlns="http://www.w3.org/2000/svg" xmlns:xlink="http://www.w3.org/1999/xlink" x="0px" y="0px"
	 viewBox="0 0 512 512" style="enable-background:new 0 0 512 512;" xml:space="preserve">
<style type="text/css">
	.st0{fill:#16385D;}
</style>
<g>
	<g>
		<path class="st0" d="M437,75C388.7,26.6,324.4,0,256,0C187.6,0,123.3,26.6,75,75C26.6,123.3,0,187.6,0,256s26.6,132.7,75,181
			c48.4,48.4,112.6,75,181,75s132.7-26.6,181-75c48.4-48.4,75-112.6,75-181S485.4,123.3,437,75z M378.3,195.1L235.2,338.1
			c-2.9,2.9-6.8,4.4-10.6,4.4c-3.8,0-7.7-1.5-10.6-4.4l-80.3-80.3c-5.9-5.9-5.9-15.4,0-21.2c5.9-5.9,15.4-5.9,21.2,0l69.7,69.7
			l132.5-132.5c5.9-5.9,15.4-5.9,21.2,0S384.2,189.2,378.3,195.1z"/>
	</g>
</g>
</svg>
