<svg xmlns="http://www.w3.org/2000/svg" viewBox="0 0 117.98 91.54"><defs><style>.cls-1{fill:#39a2a3;}</style></defs><g id="Layer_2" data-name="Layer 2"><g id="Layer_1-2" data-name="Layer 1"><path class="cls-1" d="M118,69.91c-.26,1.2-.45,2.41-.79,3.58-2.73,9.55-8.93,15.64-18.64,17.57-7.64,1.51-14.61-.56-20.63-5.63-6.7-5.65-10.26-13-11.28-21.52a59.31,59.31,0,0,1-.44-10.73,52.32,52.32,0,0,1,10.7-28.8c6.45-8.55,14.94-14.51,24.43-19.17,3.32-1.62,6.78-3,10.18-4.44.43-.18.89-.31,1.57-.54,0,2.11,0,4,0,5.95,0,.26-.49.6-.82.73a47.47,47.47,0,0,0-12.9,7.27c-8.6,7-14.39,15.71-16.14,26.79A36,36,0,0,0,83,48.53c.14,2.52,1.72,3.23,3.77,1.79A18.81,18.81,0,0,1,97.18,47c6.24-.21,11.23,2.46,15.25,7.07a20.68,20.68,0,0,1,5.25,12.11,2.11,2.11,0,0,0,.3.6Z"/><path class="cls-1" d="M47.34,0c0,1.73-.14,3.47-.08,5.2A1.61,1.61,0,0,1,46,7,46.24,46.24,0,0,0,29.18,17.89C23,24.27,18.7,31.69,17.25,40.53a53.36,53.36,0,0,0-.33,7.81,3.52,3.52,0,0,0,.4,1.38c.63,1.44,1.52,1.74,2.9,1a37.49,37.49,0,0,1,4-2.24c12.72-5,23.95,3.34,26.86,14.19,2.32,8.64-.23,16.06-6.55,22.27C39.3,90,33,92,25.82,91.38a25.12,25.12,0,0,1-16-7.93,33.33,33.33,0,0,1-9.22-20C.38,61.69.19,60,0,58.26V55.11c.08-.47.19-.94.25-1.42.27-2.27.41-4.57.82-6.81,2.56-14,9.86-25,21.07-33.6A90.82,90.82,0,0,1,44.05,1.34c1-.41,2-.89,3.05-1.34Z"/></g></g></svg>