<svg xmlns="http://www.w3.org/2000/svg" viewBox="0 0 88.51 76.41"><g id="Layer_2" data-name="Layer 2"><g id="Layer_1-2" data-name="Layer 1"><path d="M43.18,38.63c.09,1.78.09,3.57.3,5.33a3.23,3.23,0,0,1-1.31,3.24c-1.91,1.5-3.36,3.23-2.68,5.95.25,1-.26,1.42-1.33,1.42-5.19,0-10.39,0-15.59,0-.57,0-1.3.1-1.26-.79s.77-.82,1.31-.72c2,.36,2.59-.71,3-2.46,1.05-4.41,2.34-8.77,3.45-13.17a2.82,2.82,0,0,1,2.42-2.35c5-1.2,9.92-2.55,14.85-3.92a2.53,2.53,0,0,1,2.91.68C52.94,35.59,56.7,39.29,60.49,43a2.67,2.67,0,0,1,.86,3.1c-.57,1.74-.93,3.54-1.47,5.29-.38,1.24-.09,1.8,1.27,1.68a17.94,17.94,0,0,1,2.2,0c.56,0,1.28-.1,1.25.8s-.77.71-1.31.71c-3.81,0-7.62,0-11.42,0H48.35c-3.06,0-4.5-2.39-2.88-5a4.94,4.94,0,0,0,.34-5.13c-.89-1.88-1.51-3.89-2.25-5.84Z"/><path d="M41.64,24.7a6,6,0,0,1-.18.65c-.56,1.56,0,1.86,1.43,1.33.14-.05.29-.07.42-.13,4.54-2.21,7.89-1,11.1,2.9,3.38,4.12,7.45,7.67,11.28,11.41,1.09,1.07,1.1,1.79,0,2.87S64,44.57,63,43.6c-4.37-4.45-8.84-8.79-13.19-13.25a2.71,2.71,0,0,0-3.08-.79c-5.93,1.64-11.9,3.15-17.83,4.79-1.37.37-2.17.29-2.59-1.29S26.6,31,28,30.69c1.71-.38,3.38-1,5.1-1.32a2.58,2.58,0,0,0,2.47-2.56,5.57,5.57,0,0,1,.26-1.07c.91-3.44,2-3.9,5.27-2.24A.91.91,0,0,1,41.64,24.7Z"/><path d="M29.06,66.92c0-1.17-.08-2.34,0-3.5.08-.89-.57-2.23,1.15-2.32s3.13,0,3.66,1.95a4,4,0,0,1-.16,2.8c-1.5,3,.33,5.49,1.1,8.11a1.23,1.23,0,0,0,2.1.61c.46-.35,1-.55,1.29.05s-.21.92-.62,1.22a2.66,2.66,0,0,1-4.16-1.22c-.72-1.74-1.13-3.62-1.69-5.43-.14-.44-.1-1.17-.85-1-.49.12-.37.74-.4,1.13-.06.8,0,1.6,0,2.41,0,.42,0,1-.55,1s-.85-.47-.85-1C29.05,70.14,29.06,68.53,29.06,66.92Zm1.25-2.45c.05.74-.28,1.76.92,1.8,1,0,1.34-.7,1.28-1.62s0-1.9-1.2-1.91S30.31,63.7,30.31,64.47Z"/><path d="M66.32,11.58C68,11.19,68.08,9.7,69,8.92c.38-.35.74-.89,1.27-.49s.2.91-.1,1.35Q67.55,13.67,65,17.54c-.29.43-.57.94-1.19.63s-.5-.89-.29-1.5c.37-1.14.62-2.32,1-3.81C63,13.6,62.62,14.8,62,15.76c-.25.37-.55.78-1.05.51s-.55-.83-.24-1.31q2.59-4.07,5.23-8.09A.91.91,0,0,1,67,6.41c.59.23.61.77.46,1.3C67.12,8.94,66.75,10.16,66.32,11.58Zm-2,.95c0,.05-.09.11-.07.13.08.2.19.2.28,0a.16.16,0,0,0-.07-.13S64.33,12.53,64.29,12.53Z"/><path d="M82.37,53.78c1.29.89,2.72.65,3.91,1.19.43.19.86.37.76.9s-.62.62-1.05.52c-3.26-.71-6.51-1.47-9.77-2.16-.61-.13-.65-.46-.63-.92s.42-.5.78-.48c1.59.1,3-.84,5.09-.45-1.55-1.5-3.06-1.14-4.27-1.65-.44-.19-.86-.38-.78-.89.11-.68.67-.67,1.2-.55,3,.69,6.11,1.4,9.17,2.08.53.12,1.09.26,1,.89s-.6.78-1.14.86C85.29,53.31,83.83,53.12,82.37,53.78Z"/><path d="M54.06,11.08c1-2.55,2.07-5.4,3.18-8.25.17-.44.45-.8,1-.54s.4.7.24,1.13c-.67,1.84-1.36,3.69-2,5.54-.2.55-.42,1.1-.58,1.66s-.36,1.23.36,1.52,1.05-.46,1.23-.92C58.29,9.11,59,7,59.82,4.85c.24-.62.28-1.73,1.25-1.46s.48,1.22.24,1.87c-.89,2.39-1.79,4.78-2.76,7.14a2.21,2.21,0,0,1-2.85,1.39C54.61,13.47,54.1,12.58,54.06,11.08Z"/><path d="M52,3.78c-.28,2.18-.5,4-.75,5.8-.22,1.55-1,2.74-2.67,2.57-1.84-.19-2.28-1.61-2.09-3.25s.47-3.48.69-5.21S47.84.24,50,.49,52.31,2.37,52,3.78Zm-1.44-.34c0-.41.22-1.14-.63-1.24a1.11,1.11,0,0,0-1.22,1c-.29,2-.57,4-.77,6a1,1,0,0,0,1,1.22c.55,0,.84-.55.91-1.07C50.11,7.46,50.33,5.52,50.59,3.44Z"/><path d="M82.49,46.51a31.4,31.4,0,0,1-3.5,0,2.26,2.26,0,0,1-2.27-2.25A2.22,2.22,0,0,1,79,41.82c2.34-.06,4.68-.08,7,0,1.32.06,2.5.63,2.47,2.21A2.4,2.4,0,0,1,86,46.54c-1.16.08-2.34,0-3.5,0Zm0-1.41v0c1,0,2,0,3,0,.53,0,1.09,0,1.18-.67a1,1,0,0,0-1-1.18c-2-.06-4,0-6.07,0-.57,0-1.26.35-1.22,1s.62.88,1.28.86C80.65,45.08,81.59,45.1,82.52,45.1Z"/><path d="M46.83,71.51c.56-3.05,1.12-6.22,1.71-9.38.09-.5.31-1,1-1s.68.49.77.93q.95,4.73,1.9,9.47c.11.56.06,1.12-.54,1.25a.88.88,0,0,1-1-.86c-.1-.75-.12-1.57-1.13-1.59s-1,.81-1.16,1.55c-.1.56-.45,1-1.07.81S46.81,72.06,46.83,71.51Z"/><path d="M70.78,25.11c0-.57.4-.76.81-.92l8.94-3.56c.5-.2,1-.28,1.3.35s0,.92-.45,1.3c-2.33,2.11-4.64,4.25-6.94,6.39-.39.37-.83.76-1.31.31s-.31-1.06.26-1.48,1.15-.95.54-1.8-1.1-.45-1.73-.16S71.05,25.88,70.78,25.11Z"/><path d="M58.14,68c-.87,1.3-.26,2.64-.42,3.9-.06.46-.09.93-.67.92a.79.79,0,0,1-.79-.87c0-3.29,0-6.58,0-9.87,0-.81.52-1,1.16-1,1.35,0,2.69-.08,3.42,1.37a3.32,3.32,0,0,1,.16,3c-1.07,2-.57,3.92,0,5.87.16.49.64,1.23-.21,1.49s-.9-.48-1.16-1C59.1,70.55,59.36,69,58.14,68Zm1.56-3.62c-.08-.63,0-1.65-1.14-1.58s-.82,1-.76,1.72-.33,1.68.75,1.73S59.77,65.39,59.7,64.35Z"/><path d="M7,36c1.54,0,3.07,0,4.61,0,.52,0,1.09,0,1.11.69s-.45.84-1,.86c-.73,0-1.61-.08-1.79.85s.65,1.16,1.34,1.42c.51.2.94.53.65,1.16s-.83.44-1.32.26L1.72,38c-.5-.18-1-.37-.88-1s.7-.8,1.33-.79c1.61,0,3.21,0,4.82,0Z"/><path d="M77,15a4.26,4.26,0,0,1-1,2.36c-1.42,1.37-2.8,2.79-4.27,4.1-1.68,1.51-3,1.38-4.54-.29-.45-.5-1-1.07-.18-1.59.52-.32,1.3-.78,1.58.53a1,1,0,0,0,1.77.45c1.53-1.36,3-2.76,4.49-4.18.43-.42.72-1,.2-1.56s-1.06,0-1.47.35c-1.08,1-2.12,2-3.18,3-.35.33-.82.56-1.16.24s-.17-.9.24-1.28c1.26-1.22,2.51-2.45,3.79-3.65.55-.52,1-1.44,2-.93A3.9,3.9,0,0,1,77,15Z"/><path d="M6.18,47.79c-1.38,0-2.77,0-4.15,0-.65,0-1.57.35-1.81-.71a5.73,5.73,0,0,1,0-3.23A.55.55,0,0,1,1,43.55a.94.94,0,0,1,.67,1c-.06,1.14.21,1.83,1.57,1.72,1.12-.09,2.08-.19,1.89-1.7a.77.77,0,0,1,.77-.89.81.81,0,0,1,.88.8c0,1.37.67,1.77,2,1.62s1.63-.71,1.32-1.9a.91.91,0,0,1,.65-1c.76-.29.77.52,1,.88,1.12,2.08.33,3.45-2,3.48-1.17,0-2.34,0-3.51,0Z"/><path d="M4.22,52.71c-.51.83-1.76.64-1.62,1.73a.57.57,0,0,0,.58.52c.89.11,1.77.18,2.38-.68S6.62,52.69,7.21,52a4.69,4.69,0,0,1,4.12-1.63c.86,0,1.19.7,1.46,1.43a2.19,2.19,0,0,1-1.29,3.05c-.55.28-1.11.58-1.5-.13s.23-.86.68-1.11,1-.55.63-1.17-1.11-.61-1.74-.31a4.94,4.94,0,0,0-1.87,2.1,4,4,0,0,1-4.14,2.25c-.93-.09-1.7,0-2.07-1.09-.26-.79-.53-1.5.06-2.25S3.09,52.15,4.22,52.71Z"/><path d="M35.56,67c0-1,0-2.05,0-3.08,0-2.91.46-3.33,3.3-2.87.45.08.93.11,1,.65.1.7-.44.89-1,.88-1.2,0-2,.22-1.93,1.68,0,1.28.32,2,1.73,1.82a.76.76,0,0,1,.79.86.78.78,0,0,1-.88.78c-1.51-.13-1.6.79-1.63,1.94,0,1.34.68,1.61,1.8,1.55.55,0,1.09.19,1.11.81,0,.82-.7.78-1.27.88-2.69.42-3.08.09-3.06-2.6,0-1.1,0-2.2,0-3.3Z"/><path d="M30,14.82a24.8,24.8,0,0,1-3.05,2.06c-.76.37-1.09-.48-1.4-1-1.46-2.61-2.9-5.22-4.35-7.83-.37-.66-.43-1.33.36-1.64,1-.39,1.74-1.69,2.88-1.18.78.34.37,1.12-.31,1.51s-1.58.89-.81,2c.6.87,1,2.15,2.45,1.06a.76.76,0,0,1,1.15.23.81.81,0,0,1-.31,1.15c-1.48.68-1,1.73-.52,2.71s1.37.78,2.23.3C29,13.78,29.44,14.26,30,14.82Z"/><path d="M46.07,64.9A2.65,2.65,0,0,1,44,68.22c-1.54.35-1.39,1.12-1.26,2.16a9.34,9.34,0,0,1,.1,1.29c0,.47.12,1.14-.62,1.16s-.8-.56-.8-1.08c0-1.6,0-3.2,0-4.8,0-1.09,0-2.18,0-3.27s-.54-2.63,1.55-2.62c1.79,0,2.94.67,3.12,2.57C46.1,64,46.07,64.36,46.07,64.9Zm-1.42-.24c-.27-.58.27-2-1-1.79s-.67,1.67-.94,2.55c-.19.61,0,1.11.86,1C44.67,66.39,44.68,65.63,44.65,64.66Z"/><path d="M38.69,3.35C38.55.58,40-.46,42.1.19a.74.74,0,0,1,.61.78.88.88,0,0,1-.87.83c-1,.13-1.91.31-1.66,1.7.2,1.08.35,2.09,1.86,1.76a.57.57,0,0,1,.76.55c0,.38-.06.85-.45.89-2.54.29-1.56,2.11-1.6,3.51,0,.63.61,1.69-.54,1.77s-.77-1-.84-1.67C39.12,7.77,38.87,5.22,38.69,3.35Z"/><path d="M14.42,31.76c-.34,1.12-1.05.77-1.56.42-1.93-1.31-4.37-1.29-6.37-2.46-.78-.46-1.71-.95-2.45.22a.62.62,0,0,1-1,.14.91.91,0,0,1-.32-1.16c.3-.67.57-1.34.88-2S4,25.49,4.87,25.65s.62.85.59,1.43A.79.79,0,0,0,6,28c2.3.49,4.08,2.27,6.44,2.64A3,3,0,0,1,14.42,31.76Z"/><path d="M24,18.65c-.42,1.21-1.51,1.66-2.33,2.36s-1.17-.2-1.57-.63q-3-3.24-5.87-6.53c-.34-.39-1.07-.93-.51-1.47s1.21.16,1.61.58c1.45,1.55,2.83,3.17,4.25,4.75.82.92,1.65,1.79,2.84.41A.79.79,0,0,1,23.6,18,2.79,2.79,0,0,1,24,18.65Z"/><path d="M17.84,25.58c-3-.89-4.88-2.67-7-4.17-.7-.5-1.37-1.16-2.32-.39-.5.42-.94.2-1.3-.27s0-.82.2-1.17c.43-.59.88-1.16,1.32-1.74.31-.42.63-.86,1.23-.72s.54.74.46,1.25c-.22,1.34.94,1.67,1.71,2.27C14,22.09,16.32,23,17.84,25.58Z"/><path d="M77.14,33.08c-.48.16-1,.21-1.15-.28-.22-.68.41-.54.8-.68,1.7-.58,3.39-1.17,5.06-1.83,1-.37,2.23-.4,2.18-2,0-.59.57-.81,1.15-.65s1.68,3.67,1.27,4.12c-.17.18-.63.38-.73.3-2.49-2.19-4.51.46-6.76.69C78.38,32.82,77.74,33.06,77.14,33.08Z"/><path d="M77.56,39.38c-.53.1-1.11.16-1.22-.53s.49-.85,1-.93c3.08-.52,6.16-1,9.24-1.5.52-.08,1.09-.24,1.29.42s-.35.91-.86,1C83.85,38.37,80.71,38.87,77.56,39.38Z"/><path d="M54.69,67.05v4.59c0,.52,0,1.14-.67,1.2-.84.07-.85-.62-.85-1.21q0-4.6,0-9.21c0-.61,0-1.29.87-1.19.69.08.59.73.59,1.22,0,1.54,0,3.07,0,4.6Z"/><path d="M64.29,12.53s.11,0,.14,0a.16.16,0,0,1,.07.13c-.09.19-.2.19-.28,0C64.2,12.64,64.26,12.58,64.29,12.53Z"/></g></g></svg>