<svg xmlns="http://www.w3.org/2000/svg" width="750" height="500" viewBox="0 0 750 500"><g style="isolation:isolate"><path d="M118.56,400.61s-30.89-46.44,0-113.46,108.71-52.64,159.68-126.89c59.06-86,172.52-72.24,218.62-27.57s27.56,80.93,70.81,118.65,59.88,101.39,27.09,150.34Z" fill="#fce9e1"/><path d="M503.57,283H469.15a1.56,1.56,0,0,1-1.52-1.19l-1.92-8a1.55,1.55,0,0,1,1.51-1.92h38a1.56,1.56,0,0,1,1.53,1.87l-1.64,8A1.56,1.56,0,0,1,503.57,283Z" fill="none" stroke="#fff" stroke-miterlimit="10"/><path d="M549.16,283H514.74a1.56,1.56,0,0,1-1.52-1.19l-1.92-8a1.56,1.56,0,0,1,1.52-1.92h38a1.56,1.56,0,0,1,1.53,1.87l-1.64,8A1.56,1.56,0,0,1,549.16,283Z" fill="none" stroke="#fff" stroke-miterlimit="10"/><path d="M523.7,294.08H489.28a1.56,1.56,0,0,1-1.52-1.2l-1.92-8a1.56,1.56,0,0,1,1.52-1.93h38a1.56,1.56,0,0,1,1.53,1.88l-1.64,8A1.56,1.56,0,0,1,523.7,294.08Z" fill="none" stroke="#fff" stroke-miterlimit="10"/><path d="M422.78,355.23H457.2a1.56,1.56,0,0,1,1.52,1.19l1.92,8a1.56,1.56,0,0,1-1.52,1.92h-38a1.55,1.55,0,0,1-1.52-1.87l1.64-8A1.56,1.56,0,0,1,422.78,355.23Z" fill="none" stroke="#fff" stroke-miterlimit="10"/><path d="M377.18,355.23h34.43a1.55,1.55,0,0,1,1.51,1.19l1.93,8a1.56,1.56,0,0,1-1.52,1.92h-38a1.56,1.56,0,0,1-1.53-1.87l1.65-8A1.54,1.54,0,0,1,377.18,355.23Z" fill="none" stroke="#fff" stroke-miterlimit="10"/><path d="M402.65,344.12h34.42a1.54,1.54,0,0,1,1.51,1.2l1.93,8a1.57,1.57,0,0,1-1.52,1.93H401a1.57,1.57,0,0,1-1.53-1.88l1.65-8A1.55,1.55,0,0,1,402.65,344.12Z" fill="none" stroke="#fff" stroke-miterlimit="10"/><path d="M172.29,338.05H137.87a1.55,1.55,0,0,1-1.52-1.19l-1.92-8a1.56,1.56,0,0,1,1.51-1.93h38a1.56,1.56,0,0,1,1.53,1.88l-1.64,8A1.56,1.56,0,0,1,172.29,338.05Z" fill="none" stroke="#fff" stroke-miterlimit="10"/><path d="M192.42,349.16H158a1.57,1.57,0,0,1-1.52-1.2l-1.92-8a1.56,1.56,0,0,1,1.52-1.93h38a1.56,1.56,0,0,1,1.53,1.88l-1.64,8A1.56,1.56,0,0,1,192.42,349.16Z" fill="none" stroke="#fff" stroke-miterlimit="10"/><path d="M364.8,179.83H330.38a1.56,1.56,0,0,1-1.52-1.19l-1.92-8a1.56,1.56,0,0,1,1.52-1.93h38A1.56,1.56,0,0,1,368,170.6l-1.64,8A1.56,1.56,0,0,1,364.8,179.83Z" fill="none" stroke="#fff" stroke-miterlimit="10"/><path d="M384.93,190.94H350.51a1.57,1.57,0,0,1-1.52-1.2l-1.92-8a1.56,1.56,0,0,1,1.52-1.93h38a1.56,1.56,0,0,1,1.53,1.88l-1.64,8A1.56,1.56,0,0,1,384.93,190.94Z" fill="none" stroke="#fff" stroke-miterlimit="10"/><path d="M166.25,336.21s-9-12.12-5.88-27.8-2.62-17.11,1.18-26.62,10.7-9.77,12.84-18.43,17.26-15.72,29-11.71a18.83,18.83,0,0,0-10.19,16.69c0,12,.07,13.69-7.11,22.25s-4.27,13.31-6.2,26.14S172.13,331.93,166.25,336.21Z" fill="#89abce"/><path d="M165.37,351.55c-.33-15.49.33-31.12,3.59-46.32a112,112,0,0,1,7.12-22.11,89.29,89.29,0,0,1,12.09-19.76,88.86,88.86,0,0,0-11.63,20,111.11,111.11,0,0,0-6.6,22.11c-2.91,15.15-3.23,30.66-2.57,46.05Z" fill="#15385d"/><path d="M218.67,302.86h0c-9.24-2.73-15.67,10-22.71,12.33s-5.4,7.3-7.74,13.53c-2.24,5.94-11.27,16.33-12,17.2l-.05.06s-3.81-6.21-2.37-16.85,6.43-15.76,10.58-22.95,8.5-9.35,17.55-9.54C210.68,296.47,218.67,302.86,218.67,302.86Z" fill="#a2bee0"/><path d="M175,351.55a99.25,99.25,0,0,1,1.24-15.24,73.07,73.07,0,0,1,3.83-14.75,45.81,45.81,0,0,1,3.33-6.87,29.54,29.54,0,0,1,4.76-6,20.28,20.28,0,0,1,6.31-4.21,22.66,22.66,0,0,1,7.38-1.65,22.66,22.66,0,0,0-7.27,1.87,20.31,20.31,0,0,0-6.07,4.34,29.63,29.63,0,0,0-4.46,6,46.06,46.06,0,0,0-3,6.85,71.54,71.54,0,0,0-3.29,14.61,98.7,98.7,0,0,0-.72,15Z" fill="#15385d"/><path d="M155.52,333.55a.17.17,0,0,1-.05-.05c-.88-.6-12.38-8.79-16-15.58-3.74-7.05-6.09-10.92-11.75-15.06s-9.41-12.86-11.07-23.5c-1.26-8.06-2.91-10.18-3.63-10.72a.78.78,0,0,0-.37-.19s.23,0,.67-.05h0c4.14-.2,25.5-.57,31.22,12.9,6.37,14.93,10.79,13,12.72,25.57S155.52,333.55,155.52,333.55Z" fill="#d4e5f4"/><path d="M156.33,351.53a144.71,144.71,0,0,0-1.44-17.22,136,136,0,0,0-3.48-17,88.14,88.14,0,0,0-6.11-16.2,51.83,51.83,0,0,0-10.08-14,51.56,51.56,0,0,1,10.52,13.82,89.36,89.36,0,0,1,6.63,16.14,136.08,136.08,0,0,1,4,17,146.49,146.49,0,0,1,2,17.41Z" fill="#15385d"/><path d="M176.41,399.77H156.22c-2,.15-5.7-17.7-7.5-31.73a.68.68,0,0,0,0-.15c-1.14-8.93-1.52-16.29-.21-16.38h35.93C188.17,351.85,180.15,400.1,176.41,399.77Z" fill="#225582"/><rect x="112.05" y="400.24" width="497.58" height="3.27" fill="#15385d"/><path d="M410.27,116.7V269.87h-228a16.64,16.64,0,0,1-16-12.12,15.91,15.91,0,0,1-.5-2.49,16.9,16.9,0,0,1-.12-2V123.65a7,7,0,0,1,6.95-7Z" fill="#fafdff"/><rect x="178.35" y="125.61" width="204.89" height="136.5" rx="5.46" fill="none" stroke="#1b4b7c" stroke-miterlimit="10" stroke-width="0.75"/><rect x="386.27" y="125.61" width="18.39" height="121.27" rx="3.88" fill="#c7dbea" stroke="#1b4b7c" stroke-miterlimit="10" stroke-width="0.75"/><path d="M191.28,155.69l33.72-5,4.21-2.1H233l50.58-10.54,31.8,66.09,7.66,29.12s-71.45,10.92-117.43,1.34Z" fill="none" stroke="#1b4b7c" stroke-miterlimit="10" stroke-width="0.75"/><polygon points="194.73 161.91 197.12 175.13 221.84 171.01 219.44 157.6 205.49 160.03 194.73 161.91" fill="none" stroke="#1b4b7c" stroke-miterlimit="10" stroke-width="0.75"/><path d="M205.69,160l-.35-2.24a2.41,2.41,0,0,1,2-2.75l1-.14A2.41,2.41,0,0,1,211,156.6h0l10.11-1.75,3.4,17.17-16.77,2.87-.24-1.49" fill="none" stroke="#1b4b7c" stroke-miterlimit="10" stroke-width="0.75"/><polyline points="211.68 158.95 211.43 157.92 220.3 156.45 222.94 170.82 221.61 171.05" fill="none" stroke="#1b4b7c" stroke-miterlimit="10" stroke-width="0.75"/><path d="M222.94,172.29l1.06,3.4a1.81,1.81,0,0,0,2.18,1.21h0a1.8,1.8,0,0,0,1.28-2.21l-1.38-5.15,38.76-12.15" fill="none" stroke="#1b4b7c" stroke-miterlimit="10" stroke-width="0.75"/><path d="M262,158.34l1.6,4.85a1.45,1.45,0,0,0,1.83.92h0a1.45,1.45,0,0,0,.94-1.82l-3.53-11.14,21.76-6.24,2.35,6.37,2.59-.88" fill="none" stroke="#1b4b7c" stroke-miterlimit="10" stroke-width="0.75"/><line x1="228.84" y1="168.68" x2="230.49" y2="173.89" fill="none" stroke="#1b4b7c" stroke-miterlimit="10" stroke-width="0.75"/><line x1="231.62" y1="167.8" x2="233.27" y2="173" fill="none" stroke="#1b4b7c" stroke-miterlimit="10" stroke-width="0.75"/><line x1="234.4" y1="166.91" x2="236.05" y2="172.12" fill="none" stroke="#1b4b7c" stroke-miterlimit="10" stroke-width="0.75"/><line x1="237.18" y1="166.03" x2="238.83" y2="171.24" fill="none" stroke="#1b4b7c" stroke-miterlimit="10" stroke-width="0.75"/><line x1="239.96" y1="165.15" x2="241.61" y2="170.36" fill="none" stroke="#1b4b7c" stroke-miterlimit="10" stroke-width="0.75"/><line x1="242.74" y1="164.27" x2="244.39" y2="169.48" fill="none" stroke="#1b4b7c" stroke-miterlimit="10" stroke-width="0.75"/><line x1="245.52" y1="163.39" x2="247.17" y2="168.59" fill="none" stroke="#1b4b7c" stroke-miterlimit="10" stroke-width="0.75"/><line x1="248.3" y1="162.51" x2="249.96" y2="167.71" fill="none" stroke="#1b4b7c" stroke-miterlimit="10" stroke-width="0.75"/><line x1="251.09" y1="161.62" x2="252.74" y2="166.83" fill="none" stroke="#1b4b7c" stroke-miterlimit="10" stroke-width="0.75"/><line x1="253.87" y1="160.74" x2="255.52" y2="165.95" fill="none" stroke="#1b4b7c" stroke-miterlimit="10" stroke-width="0.75"/><line x1="256.65" y1="159.86" x2="258.3" y2="165.07" fill="none" stroke="#1b4b7c" stroke-miterlimit="10" stroke-width="0.75"/><line x1="259.43" y1="158.98" x2="261.08" y2="164.19" fill="none" stroke="#1b4b7c" stroke-miterlimit="10" stroke-width="0.75"/><line x1="210.73" y1="174.38" x2="211.43" y2="180.08" fill="none" stroke="#1b4b7c" stroke-miterlimit="10" stroke-width="0.75"/><line x1="220.39" y1="172.73" x2="221.1" y2="178.23" fill="none" stroke="#1b4b7c" stroke-miterlimit="10" stroke-width="0.75"/><line x1="213.89" y1="173.89" x2="214.68" y2="179.73" fill="none" stroke="#1b4b7c" stroke-miterlimit="10" stroke-width="0.75"/><line x1="217.18" y1="173.27" x2="217.91" y2="179.2" fill="none" stroke="#1b4b7c" stroke-miterlimit="10" stroke-width="0.75"/><line x1="266.18" y1="150.2" x2="268.2" y2="156.99" fill="none" stroke="#1b4b7c" stroke-miterlimit="10" stroke-width="0.75"/><line x1="269.31" y1="149.3" x2="271.29" y2="156.07" fill="none" stroke="#1b4b7c" stroke-miterlimit="10" stroke-width="0.75"/><line x1="272.12" y1="148.62" x2="274.11" y2="155.39" fill="none" stroke="#1b4b7c" stroke-miterlimit="10" stroke-width="0.75"/><line x1="275.43" y1="147.64" x2="277.41" y2="154.4" fill="none" stroke="#1b4b7c" stroke-miterlimit="10" stroke-width="0.75"/><line x1="278.37" y1="146.82" x2="280.36" y2="153.58" fill="none" stroke="#1b4b7c" stroke-miterlimit="10" stroke-width="0.75"/><line x1="281.38" y1="145.92" x2="283.37" y2="152.69" fill="none" stroke="#1b4b7c" stroke-miterlimit="10" stroke-width="0.75"/><polyline points="199.34 199.97 225.95 195.53 280.36 178.23 278.83 171.28 293.1 167.17 296.65 165.15" fill="none" stroke="#1b4b7c" stroke-miterlimit="10" stroke-width="0.75"/><polyline points="225.95 195.53 231.62 213.06 224.78 237.39" fill="none" stroke="#1b4b7c" stroke-miterlimit="10" stroke-width="0.75"/><polyline points="293.1 167.17 295.21 174.27 300.01 172.12" fill="none" stroke="#1b4b7c" stroke-miterlimit="10" stroke-width="0.75"/><polyline points="296.06 173.88 300.96 190.46 307.64 187.98" fill="none" stroke="#1b4b7c" stroke-miterlimit="10" stroke-width="0.75"/><polyline points="304.14 189.28 308.91 205.97 290.04 211.43 286.78 201.85 276.42 204.44 274.85 198.46 231.62 213.06" fill="none" stroke="#1b4b7c" stroke-miterlimit="10" stroke-width="0.75"/><line x1="290.04" y1="211.43" x2="292.81" y2="236.27" fill="none" stroke="#1b4b7c" stroke-miterlimit="10" stroke-width="0.75"/><path d="M287.77,237.1s-2.24-8,4.72-8.74l1,5.87,34.1-9.26-1.79-6.19,6.19-1.92-15.51-55.24-14.05,4.16.76,2.36-4.47,1.37" fill="none" stroke="#1b4b7c" stroke-miterlimit="10" stroke-width="0.75"/><polyline points="283.62 138.06 291.66 135.95 308.91 128.87 337.58 230.59 323.08 233.27" fill="none" stroke="#1b4b7c" stroke-miterlimit="10" stroke-width="0.75"/><path d="M199.34,174.76l1.13,8.13-2.17.32L200.47,195l5.62-1.16.32,1.67L201,196.87l8.87,32.19,11.5-2.43,9.45,4.15,6.77-.64,1.78,1.6,7.92-2.11-.6-2.13a1.37,1.37,0,0,1,.94-1.69h0a1.37,1.37,0,0,1,1.66.86l1.82,5.07,12.35-3.93-1.29-7.37s7.95-2.49,11.16,1.39,3,16,3,16" fill="none" stroke="#1b4b7c" stroke-miterlimit="10" stroke-width="0.75"/><line x1="198.89" y1="186.4" x2="203.89" y2="185.35" fill="none" stroke="#1b4b7c" stroke-miterlimit="10" stroke-width="0.75"/><line x1="199.44" y1="189.4" x2="204.59" y2="188.31" fill="none" stroke="#1b4b7c" stroke-miterlimit="10" stroke-width="0.75"/><line x1="199.94" y1="192.11" x2="205.01" y2="191.09" fill="none" stroke="#1b4b7c" stroke-miterlimit="10" stroke-width="0.75"/><line x1="202.47" y1="202.27" x2="207.63" y2="201.09" fill="none" stroke="#1b4b7c" stroke-miterlimit="10" stroke-width="0.75"/><line x1="203.21" y1="204.95" x2="208.36" y2="203.75" fill="none" stroke="#1b4b7c" stroke-miterlimit="10" stroke-width="0.75"/><line x1="203.95" y1="207.62" x2="209.1" y2="206.41" fill="none" stroke="#1b4b7c" stroke-miterlimit="10" stroke-width="0.75"/><line x1="204.69" y1="210.29" x2="209.84" y2="209.07" fill="none" stroke="#1b4b7c" stroke-miterlimit="10" stroke-width="0.75"/><line x1="205.42" y1="212.97" x2="210.58" y2="211.73" fill="none" stroke="#1b4b7c" stroke-miterlimit="10" stroke-width="0.75"/><line x1="206.16" y1="215.64" x2="211.32" y2="214.39" fill="none" stroke="#1b4b7c" stroke-miterlimit="10" stroke-width="0.75"/><line x1="206.9" y1="218.32" x2="212.05" y2="217.05" fill="none" stroke="#1b4b7c" stroke-miterlimit="10" stroke-width="0.75"/><line x1="207.64" y1="220.99" x2="212.79" y2="219.71" fill="none" stroke="#1b4b7c" stroke-miterlimit="10" stroke-width="0.75"/><line x1="208.37" y1="223.67" x2="213.53" y2="222.37" fill="none" stroke="#1b4b7c" stroke-miterlimit="10" stroke-width="0.75"/><line x1="209.11" y1="226.34" x2="214.27" y2="225.04" fill="none" stroke="#1b4b7c" stroke-miterlimit="10" stroke-width="0.75"/><polyline points="231.21 214.51 252.2 207.77 252.46 208.63 230.89 215.66" fill="none" stroke="#1b4b7c" stroke-miterlimit="10" stroke-width="0.5"/><polyline points="275.45 200.75 254.47 207.44 254.67 208.25 275.7 201.68" fill="none" stroke="#1b4b7c" stroke-miterlimit="10" stroke-width="0.5"/><line x1="233.8" y1="214.71" x2="235.84" y2="220.7" fill="none" stroke="#1b4b7c" stroke-miterlimit="10" stroke-width="0.75"/><line x1="235.98" y1="214" x2="238.01" y2="220" fill="none" stroke="#1b4b7c" stroke-miterlimit="10" stroke-width="0.75"/><line x1="238.15" y1="213.3" x2="240.18" y2="219.3" fill="none" stroke="#1b4b7c" stroke-miterlimit="10" stroke-width="0.75"/><line x1="240.33" y1="212.59" x2="242.35" y2="218.6" fill="none" stroke="#1b4b7c" stroke-miterlimit="10" stroke-width="0.75"/><line x1="242.5" y1="211.88" x2="244.52" y2="217.9" fill="none" stroke="#1b4b7c" stroke-miterlimit="10" stroke-width="0.75"/><line x1="244.68" y1="211.17" x2="246.69" y2="217.19" fill="none" stroke="#1b4b7c" stroke-miterlimit="10" stroke-width="0.75"/><line x1="246.85" y1="210.46" x2="248.86" y2="216.49" fill="none" stroke="#1b4b7c" stroke-miterlimit="10" stroke-width="0.75"/><line x1="249.03" y1="209.75" x2="251.03" y2="215.79" fill="none" stroke="#1b4b7c" stroke-miterlimit="10" stroke-width="0.75"/><line x1="256.69" y1="207.62" x2="258.57" y2="213.48" fill="none" stroke="#1b4b7c" stroke-miterlimit="10" stroke-width="0.75"/><line x1="258.61" y1="207.02" x2="260.46" y2="212.87" fill="none" stroke="#1b4b7c" stroke-miterlimit="10" stroke-width="0.75"/><line x1="260.52" y1="206.42" x2="262.35" y2="212.27" fill="none" stroke="#1b4b7c" stroke-miterlimit="10" stroke-width="0.75"/><line x1="262.44" y1="205.82" x2="264.25" y2="211.67" fill="none" stroke="#1b4b7c" stroke-miterlimit="10" stroke-width="0.75"/><line x1="264.35" y1="205.22" x2="266.14" y2="211.06" fill="none" stroke="#1b4b7c" stroke-miterlimit="10" stroke-width="0.75"/><line x1="266.27" y1="204.62" x2="268.03" y2="210.46" fill="none" stroke="#1b4b7c" stroke-miterlimit="10" stroke-width="0.75"/><line x1="252.46" y1="225.04" x2="253.97" y2="230.83" fill="none" stroke="#1b4b7c" stroke-miterlimit="10" stroke-width="0.75"/><line x1="255.79" y1="224.08" x2="257.18" y2="229.81" fill="none" stroke="#1b4b7c" stroke-miterlimit="10" stroke-width="0.75"/><line x1="258.81" y1="223.07" x2="260.15" y2="228.86" fill="none" stroke="#1b4b7c" stroke-miterlimit="10" stroke-width="0.75"/><line x1="292.97" y1="210.59" x2="294.54" y2="217.85" fill="none" stroke="#1b4b7c" stroke-miterlimit="10" stroke-width="0.75"/><line x1="296.36" y1="209.61" x2="297.7" y2="217.09" fill="none" stroke="#1b4b7c" stroke-miterlimit="10" stroke-width="0.75"/><line x1="298.98" y1="208.85" x2="300.52" y2="216.03" fill="none" stroke="#1b4b7c" stroke-miterlimit="10" stroke-width="0.75"/><line x1="301.95" y1="207.99" x2="303.59" y2="214.98" fill="none" stroke="#1b4b7c" stroke-miterlimit="10" stroke-width="0.75"/><polyline points="290.28 213.59 311.3 207.31 305.82 188.66" fill="none" stroke="#1b4b7c" stroke-miterlimit="10" stroke-width="0.75"/><line x1="297.41" y1="233.17" x2="296.12" y2="226.9" fill="none" stroke="#1b4b7c" stroke-miterlimit="10" stroke-width="0.75"/><line x1="300.45" y1="232.35" x2="299.13" y2="226.07" fill="none" stroke="#1b4b7c" stroke-miterlimit="10" stroke-width="0.75"/><line x1="303.49" y1="231.52" x2="302.14" y2="225.24" fill="none" stroke="#1b4b7c" stroke-miterlimit="10" stroke-width="0.75"/><line x1="306.53" y1="230.7" x2="305.15" y2="224.41" fill="none" stroke="#1b4b7c" stroke-miterlimit="10" stroke-width="0.75"/><line x1="309.57" y1="229.87" x2="308.16" y2="223.58" fill="none" stroke="#1b4b7c" stroke-miterlimit="10" stroke-width="0.75"/><line x1="312.62" y1="229.04" x2="311.16" y2="222.75" fill="none" stroke="#1b4b7c" stroke-miterlimit="10" stroke-width="0.75"/><line x1="315.66" y1="228.22" x2="314.17" y2="221.92" fill="none" stroke="#1b4b7c" stroke-miterlimit="10" stroke-width="0.75"/><rect x="349.65" y="213.35" width="29.76" height="6.07" fill="none" stroke="#1b4b7c" stroke-miterlimit="10" stroke-width="0.75"/><rect x="349.65" y="220.95" width="29.76" height="12.32" fill="none" stroke="#1b4b7c" stroke-miterlimit="10" stroke-width="0.75"/><rect x="351.24" y="214.28" width="9.87" height="1.37" fill="#c7dbea"/><rect x="351.24" y="221.84" width="9.87" height="1.37" fill="#c7dbea"/><rect x="351.24" y="216.83" width="16.06" height="0.89" transform="translate(718.55 434.55) rotate(180)" fill="#c7dbea"/><rect x="351.24" y="224.46" width="9.87" height="0.89" transform="translate(712.35 449.82) rotate(180)" fill="#c7dbea"/><rect x="351.24" y="226.38" width="9.87" height="0.89" transform="translate(712.35 453.65) rotate(180)" fill="#c7dbea"/><rect x="351.24" y="228.29" width="9.87" height="0.89" transform="translate(712.35 457.48) rotate(180)" fill="#c7dbea"/><rect x="351.24" y="230.21" width="9.87" height="0.89" transform="translate(712.35 461.31) rotate(180)" fill="#c7dbea"/><rect x="363.82" y="224.46" width="6.23" height="0.89" transform="translate(733.87 449.82) rotate(180)" fill="#c7dbea"/><rect x="363.82" y="226.38" width="11.37" height="0.89" transform="translate(739.01 453.65) rotate(180)" fill="#c7dbea"/><rect x="363.82" y="228.29" width="10.35" height="0.89" transform="translate(737.99 457.48) rotate(180)" fill="#c7dbea"/><rect x="363.82" y="230.21" width="12.96" height="0.89" transform="translate(740.61 461.31) rotate(180)" fill="#c7dbea"/><rect x="327.78" y="236.54" width="49.91" height="4.41" fill="#1b4b7c"/><rect x="329.12" y="242.95" width="50.29" height="13.7" fill="none" stroke="#1b4b7c" stroke-miterlimit="10" stroke-width="0.75"/><line x1="349.65" y1="242.95" x2="349.65" y2="256.65" fill="none" stroke="#1b4b7c" stroke-miterlimit="10" stroke-width="0.75"/><rect x="355.17" y="246.88" width="20.5" height="3.83" fill="#c7dbea"/><rect x="245.93" y="249.94" width="35.59" height="4.89" transform="translate(-12.05 13.23) rotate(-2.81)" fill="#c7dbea"/><rect x="188.21" y="239.6" width="18.31" height="2.87" fill="#1b4b7c"/><rect x="192.33" y="244.05" width="29.89" height="1.44" fill="#c7dbea"/><rect x="191.38" y="248.84" width="29.89" height="2.35" fill="#1b4b7c"/><rect x="191.38" y="255.5" width="29.89" height="2.35" fill="#1b4b7c"/><line x1="178.35" y1="157.79" x2="191.28" y2="155.69" fill="none" stroke="#1b4b7c" stroke-miterlimit="10" stroke-width="0.75"/><line x1="267.19" y1="141.48" x2="261.08" y2="125.61" fill="none" stroke="#1b4b7c" stroke-miterlimit="10" stroke-width="0.75"/><line x1="238.01" y1="125.61" x2="246.35" y2="145.92" fill="none" stroke="#1b4b7c" stroke-miterlimit="10" stroke-width="0.75"/><line x1="219.06" y1="125.61" x2="229.21" y2="148.6" fill="none" stroke="#1b4b7c" stroke-miterlimit="10" stroke-width="0.75"/><line x1="194.73" y1="125.61" x2="205.79" y2="153.54" fill="none" stroke="#1b4b7c" stroke-miterlimit="10" stroke-width="0.75"/><line x1="178.35" y1="141.48" x2="184.81" y2="156.45" fill="none" stroke="#1b4b7c" stroke-miterlimit="10" stroke-width="0.75"/><rect x="250.32" y="193.28" width="19.65" height="1.48" transform="translate(-45.4 84.65) rotate(-17.02)" fill="#c7dbea"/><rect x="201.44" y="166.09" width="14.6" height="1.48" transform="translate(-21.5 31.21) rotate(-8.13)" fill="#c7dbea"/><circle cx="346.71" cy="145.92" r="4.53" fill="none" stroke="#1b4b7c" stroke-miterlimit="10"/><line x1="333.64" y1="147.64" x2="342.18" y2="146.82" fill="none" stroke="#1b4b7c" stroke-miterlimit="10"/><line x1="351.24" y1="145.92" x2="359.07" y2="145.28" fill="none" stroke="#1b4b7c" stroke-miterlimit="10"/><polygon points="357.11 143.14 359.07 145.28 357.55 148.66 363.4 144.56 357.11 143.14" fill="#1b4b7c"/><path d="M172.6,116.7h14.2V248.8h-8.59a12.42,12.42,0,0,0-11.93,8.95,14.84,14.84,0,0,1-.5-2.49V122.32Z" fill="#c7dbea" opacity="0.51" style="mix-blend-mode:multiply"/><path d="M181.54,107.1h0V243.25h-4.95a10.94,10.94,0,0,0-11,10.94h0V123A15.9,15.9,0,0,1,181.54,107.1Z" fill="#c7dbea"/><path d="M410.18,125.91v38.33a34.12,34.12,0,0,1-29.4-47.7h20A9.36,9.36,0,0,1,410.18,125.91Z" fill="#c7dbea" opacity="0.51" style="mix-blend-mode:multiply"/><circle cx="413.16" cy="126.14" r="28.81" fill="#15385d"/><polyline points="396.69 125.07 410.94 136.83 429.62 115.45" fill="none" stroke="#fff" stroke-linejoin="round" stroke-width="6"/><polygon points="508.62 379.34 509.69 390.76 495.7 391.22 494.49 379.81 508.62 379.34" fill="#ea8c8c"/><path d="M488.93,393.6c-4.34,1.95-4.64,7.24-4.64,7.24h27.86s0-8.19-2.67-13.1a27.76,27.76,0,0,1-14.14,0S496.06,390.37,488.93,393.6Z" fill="#78c8ef"/><polygon points="467.9 378.39 465.88 391.04 451.93 391.21 454.11 375.71 467.9 378.39" fill="#f4b3b3"/><path d="M442.76,393.36c-7.67,1.6-8.32,7.48-8.32,7.48h32.91a61.32,61.32,0,0,0-.9-13.1,27.76,27.76,0,0,1-14.14,0S450.42,391.75,442.76,393.36Z" fill="#428bc1"/><path d="M495.57,262s-.36,16-7.48,24.95l-17.21,94.89s-12.15,3.28-20.37,0l10-125,5.56-2.44Z" fill="#102b44"/><path d="M506.44,259.87s1.9,14.26,0,23.17l3.95,96.3a22.64,22.64,0,0,1-20.68,1.72L473.13,256.84Z" fill="#15385d"/><path d="M489.63,161.83s1.95-6.56.6-10.13-3.79-3.64-3.79-3.64.73-4.87-6-6.81a17.73,17.73,0,0,0-16,2.84,9.42,9.42,0,0,1-8.1,1.37,5.41,5.41,0,0,0,3.64,5.11s-4.21-.89-5.83,2.67a5.45,5.45,0,0,1,5.51,2.11s.24,6.49,4.22,7.86,18.64,3.41,18.64,3.41h5.35Z" fill="#15385d"/><path d="M444.92,215l-4.23,10.64-21.3-15.06-5,9.37s24.31,24,31.76,22.83c5.33-.82,14.44-21.55,14.44-21.55Z" fill="#ea8c8c"/><path d="M507.71,208.62c0,.17,0,1.71-.13,4.15h0c-.49,12.09-2.15,46.28-2.15,46.28-2.86-.91-17.82,5.07-30.81,4.84-5.61-.1-10.85-1.36-14.59-4.84-2.82-5.82,1.83-8.28-.13-33.85a20.6,20.6,0,0,1-4.68-1,15.71,15.71,0,0,1-5.81-3.25c-4.12-3.83-6.26-4.8-6.26-4.8,2.27-3.24,7.94-20.49,12.26-24.71,2.89-2.82,9-4.61,11.43-5.32,1.23-.36,2-.51,2-.51l17.87-1.92a38.08,38.08,0,0,0,4.44,1.52c1.89.55,4.39,1.19,7.53,1.8,8.11,1.56,12.07,9.51,12.07,9.51S506.29,196.93,507.71,208.62Z" fill="#75aed8"/><path d="M507.58,212.77h0c-.49,12.09-2.15,46.28-2.15,46.28-2.86-.91-17.82,5.07-30.81,4.84l2.24-1.54c11.76-8.08,19-21.27,21.09-37.09l.74-22.55,8.42,9Z" fill="#376c9b" opacity="0.21" style="mix-blend-mode:multiply"/><path d="M459.9,225.21a20.6,20.6,0,0,1-4.68-1,114.9,114.9,0,0,1,4.67-27.55C458.09,208.23,459.9,225.21,459.9,225.21Z" fill="#376c9b" opacity="0.21" style="mix-blend-mode:multiply"/><path d="M476.75,199.12c7.66-1.3,13.55-11.63,14.43-13.85a39.15,39.15,0,0,1-4.43-1.53l-17.87,1.92s-.81.15-2,.51C464.53,194,467,200.77,476.75,199.12Z" fill="#376c9b" opacity="0.21" style="mix-blend-mode:multiply"/><path d="M473,195c7,1.74,15.59-10.37,15.59-10.37l-1.88-.89A48.05,48.05,0,0,1,486,173h0c.07-2.72.29-4.59.29-4.59s-14.61,7.13-14.82,11.85a0,0,0,0,1,0,0,2,2,0,0,0,.08.64.28.28,0,0,1,0,.05,4.77,4.77,0,0,1,.19,2.73c-.55,1.95-2.83,2-2.83,2S466.05,193.26,473,195Z" fill="#f4b3b3"/><path d="M471.42,180.25a0,0,0,0,1,0,0c.05.31.07.55.08.64a.28.28,0,0,1,0,.05,4.77,4.77,0,0,1,.19,2.73,5.47,5.47,0,0,0,3.1,4.41c3.26,1.28,9.71-4.75,11.15-15.1h0c.07-2.72.29-4.59.29-4.59S471.63,175.53,471.42,180.25Z" fill="#ea8c8c"/><path d="M463.48,155.48s-1.41,15,3,23.29a4.34,4.34,0,0,0,4.11,2.27c4.55-.31,13.73-2.19,15.53-12.25,0,0,4.05.62,4.09-4.48,0-4.88-5-4.8-4.89,0l-3.43.44-.73-4s-3.36-1.65-2.9-6.74a28.3,28.3,0,0,1-14.49,1.4" fill="#f4b3b3"/><path d="M503.91,221.43a2.58,2.58,0,0,1-2-1.33,9.26,9.26,0,0,1-.89-2.81c-.54-3.27-6.75-22.42-2.5-27.3s12.12,1.23,16.68,10.88,6.41,15.36,5.8,16.49S515.67,222.64,503.91,221.43Z" fill="#75aed8"/><path d="M520.13,216.58s-1.09,1.76-7.54,3.4a16.25,16.25,0,0,1-5.66.56c-2.78-.27-3.75-1.47-3.75-1.47l2.86-1.34h0C506.4,217.57,513.83,214.4,520.13,216.58Z" fill="#376c9b" opacity="0.21" style="mix-blend-mode:multiply"/><path d="M419.39,210.53s-1.57-4.46-3.47-6.69-5.67-5.16-6.36-5.08-.08,3.19.95,4.39,2,4.73,2,4.73-5-1.89-7.65-4.82-4-4.27-5-4.18-.31,2.87-.31,2.87-1.63-3.16-2.67-1.7.83,6.45.83,6.45-1-2.89-1.74-3.09-.61,2.12.17,4.5a16.1,16.1,0,0,0,3.58,5.67A27.27,27.27,0,0,0,410,218.74c4,.8,4.33,1.16,4.33,1.16Z" fill="#ea8c8c"/><path d="M524.81,238.37c0,4.33-17.83,20.95-17.83,20.95s-2.86,7.6-5.47,9.48-5.8,4.66-6.87,4,.43-2.51.57-2.69c-.21.2-2.89,2.82-4,2.2s1.14-3.27,1.14-3.27-2,1.47-2.69,1,.32-1.8,2-3.92,5.08-9.26,5.08-9.26a7.58,7.58,0,0,0-3-.47,20.08,20.08,0,0,1-2.7.17c-1.21-.14-.94-2.26,3.41-3.32a29.82,29.82,0,0,1,6.92-.43h0l9.57-16.66-3.54-15.82-.88-2.79,0,.1c.33-.14,7.39-3.15,13.38-1.08C519.88,216.54,524.82,233,524.81,238.37Z" fill="#f4b3b3"/></g></svg>