<svg xmlns="http://www.w3.org/2000/svg" width="750" height="500" viewBox="0 0 750 500"><path d="M118.56,400.61s-30.89-46.44,0-113.46,108.71-52.64,159.68-126.89c59.06-86,172.52-72.24,218.62-27.57s27.56,80.93,70.81,118.65,59.88,101.39,27.09,150.34Z" fill="#fce9e1"/><path d="M503.57,283H469.15a1.56,1.56,0,0,1-1.52-1.19l-1.92-8a1.55,1.55,0,0,1,1.51-1.92h38a1.56,1.56,0,0,1,1.53,1.87l-1.64,8A1.56,1.56,0,0,1,503.57,283Z" fill="none" stroke="#fff" stroke-miterlimit="10"/><path d="M549.16,283H514.74a1.56,1.56,0,0,1-1.52-1.19l-1.92-8a1.56,1.56,0,0,1,1.52-1.92h38a1.56,1.56,0,0,1,1.53,1.87l-1.64,8A1.56,1.56,0,0,1,549.16,283Z" fill="none" stroke="#fff" stroke-miterlimit="10"/><path d="M523.7,294.08H489.28a1.56,1.56,0,0,1-1.52-1.2l-1.92-8a1.56,1.56,0,0,1,1.52-1.93h38a1.56,1.56,0,0,1,1.53,1.88l-1.64,8A1.56,1.56,0,0,1,523.7,294.08Z" fill="none" stroke="#fff" stroke-miterlimit="10"/><path d="M422.78,355.23H457.2a1.56,1.56,0,0,1,1.52,1.19l1.92,8a1.56,1.56,0,0,1-1.52,1.92h-38a1.55,1.55,0,0,1-1.52-1.87l1.64-8A1.56,1.56,0,0,1,422.78,355.23Z" fill="none" stroke="#fff" stroke-miterlimit="10"/><path d="M377.18,355.23h34.43a1.55,1.55,0,0,1,1.51,1.19l1.93,8a1.56,1.56,0,0,1-1.52,1.92h-38a1.56,1.56,0,0,1-1.53-1.87l1.65-8A1.54,1.54,0,0,1,377.18,355.23Z" fill="none" stroke="#fff" stroke-miterlimit="10"/><path d="M402.65,344.12h34.42a1.54,1.54,0,0,1,1.51,1.2l1.93,8a1.57,1.57,0,0,1-1.52,1.93H401a1.57,1.57,0,0,1-1.53-1.88l1.65-8A1.55,1.55,0,0,1,402.65,344.12Z" fill="none" stroke="#fff" stroke-miterlimit="10"/><path d="M172.29,338.05H137.87a1.55,1.55,0,0,1-1.52-1.19l-1.92-8a1.56,1.56,0,0,1,1.51-1.93h38a1.56,1.56,0,0,1,1.53,1.88l-1.64,8A1.56,1.56,0,0,1,172.29,338.05Z" fill="none" stroke="#fff" stroke-miterlimit="10"/><path d="M192.42,349.16H158a1.57,1.57,0,0,1-1.52-1.2l-1.92-8a1.56,1.56,0,0,1,1.52-1.93h38a1.56,1.56,0,0,1,1.53,1.88l-1.64,8A1.56,1.56,0,0,1,192.42,349.16Z" fill="none" stroke="#fff" stroke-miterlimit="10"/><path d="M364.8,179.83H330.38a1.56,1.56,0,0,1-1.52-1.19l-1.92-8a1.56,1.56,0,0,1,1.52-1.93h38A1.56,1.56,0,0,1,368,170.6l-1.64,8A1.56,1.56,0,0,1,364.8,179.83Z" fill="none" stroke="#fff" stroke-miterlimit="10"/><path d="M384.93,190.94H350.51a1.57,1.57,0,0,1-1.52-1.2l-1.92-8a1.56,1.56,0,0,1,1.52-1.93h38a1.56,1.56,0,0,1,1.53,1.88l-1.64,8A1.56,1.56,0,0,1,384.93,190.94Z" fill="none" stroke="#fff" stroke-miterlimit="10"/><path d="M566.57,336.21s-9-12.12-5.88-27.8-2.61-17.11,1.19-26.62,10.69-9.77,12.83-18.43,17.26-15.72,29-11.71a18.83,18.83,0,0,0-10.19,16.69c0,12,.08,13.69-7.1,22.25s-4.28,13.31-6.21,26.14S572.45,331.93,566.57,336.21Z" fill="#89abce"/><path d="M565.69,351.55c-.33-15.49.33-31.12,3.6-46.32a110.73,110.73,0,0,1,7.12-22.11,88.87,88.87,0,0,1,12.08-19.76,88.82,88.82,0,0,0-11.62,20,110.46,110.46,0,0,0-6.6,22.11c-2.92,15.15-3.24,30.66-2.58,46.05Z" fill="#15385d"/><path d="M619,302.86h0c-9.24-2.73-15.67,10-22.71,12.33s-5.4,7.3-7.73,13.53c-2.25,5.94-11.28,16.33-12,17.2l0,.06s-3.82-6.21-2.38-16.85,6.44-15.76,10.58-22.95,8.5-9.35,17.55-9.54C611,296.47,619,302.86,619,302.86Z" fill="#a2bee0"/><path d="M575.34,351.55a100.52,100.52,0,0,1,1.24-15.24,73.1,73.1,0,0,1,3.84-14.75,45.81,45.81,0,0,1,3.33-6.87,29.15,29.15,0,0,1,4.75-6,20.33,20.33,0,0,1,6.32-4.21,22.55,22.55,0,0,1,7.37-1.65,22.66,22.66,0,0,0-7.27,1.87,20.31,20.31,0,0,0-6.07,4.34,29.63,29.63,0,0,0-4.46,6,46.06,46.06,0,0,0-3,6.85,72.19,72.19,0,0,0-3.28,14.61,98.71,98.71,0,0,0-.73,15Z" fill="#15385d"/><path d="M555.85,333.55a.14.14,0,0,1-.06-.05c-.87-.6-12.38-8.79-16-15.58-3.74-7.05-6.09-10.92-11.75-15.06S518.68,290,517,279.36c-1.25-8.06-2.9-10.18-3.63-10.72a.78.78,0,0,0-.37-.19s.24,0,.68-.05h0c4.14-.2,25.5-.57,31.23,12.9,6.36,14.93,10.78,13,12.71,25.57S555.85,333.55,555.85,333.55Z" fill="#d4e5f4"/><path d="M556.65,351.53a144.71,144.71,0,0,0-1.44-17.22,132.47,132.47,0,0,0-3.48-17,88.14,88.14,0,0,0-6.11-16.2,51.4,51.4,0,0,0-10.08-14,51.56,51.56,0,0,1,10.52,13.82,88.64,88.64,0,0,1,6.63,16.14,136.08,136.08,0,0,1,4,17,144.44,144.44,0,0,1,2,17.41Z" fill="#15385d"/><path d="M576.73,399.77H556.55c-2,.15-5.7-17.7-7.51-31.73a.68.68,0,0,0,0-.15c-1.14-8.93-1.51-16.29-.21-16.38h35.94C588.49,351.85,580.48,400.1,576.73,399.77Z" fill="#225582"/><rect x="147.47" y="82.84" width="180.32" height="250.71" rx="5.82" fill="#eff5f9"/><rect x="147.47" y="94.49" width="180.32" height="27.09" fill="#93afce"/><circle cx="165" cy="149.11" r="5.27" fill="#c7dbea"/><rect x="177.99" y="145.49" width="91.66" height="7.25" fill="#c7dbea"/><rect x="284.81" y="135.89" width="25.19" height="25.19" rx="2.76" fill="none" stroke="#a2bee0" stroke-miterlimit="10" stroke-width="2"/><polyline points="288.61 145.49 297.4 152.74 315.82 130.6" fill="none" stroke="#78c8ef" stroke-linejoin="round" stroke-width="5"/><circle cx="165" cy="188.25" r="5.27" fill="#c7dbea"/><rect x="177.99" y="184.62" width="91.66" height="7.25" fill="#c7dbea"/><rect x="284.81" y="175.03" width="25.19" height="25.19" rx="2.76" fill="none" stroke="#a2bee0" stroke-miterlimit="10" stroke-width="2"/><polyline points="288.61 184.62 297.4 191.88 315.82 169.74" fill="none" stroke="#78c8ef" stroke-linejoin="round" stroke-width="5"/><circle cx="165" cy="228.2" r="5.27" fill="#c7dbea"/><rect x="177.99" y="224.58" width="91.66" height="7.25" fill="#c7dbea"/><rect x="284.81" y="214.98" width="25.19" height="25.19" rx="2.76" fill="none" stroke="#a2bee0" stroke-miterlimit="10" stroke-width="2"/><polyline points="288.61 224.58 297.4 231.83 315.82 209.69" fill="none" stroke="#78c8ef" stroke-linejoin="round" stroke-width="5"/><circle cx="165" cy="268.16" r="5.27" fill="#c7dbea"/><rect x="177.99" y="264.53" width="91.66" height="7.25" fill="#c7dbea"/><rect x="284.81" y="254.93" width="25.19" height="25.19" rx="2.76" fill="none" stroke="#a2bee0" stroke-miterlimit="10" stroke-width="2"/><polyline points="288.61 264.53 297.4 271.79 315.82 249.65" fill="none" stroke="#78c8ef" stroke-linejoin="round" stroke-width="5"/><rect x="200.92" y="294.8" width="73.43" height="19.01" rx="1.56" fill="#15385d"/><path d="M449.19,218.79s4.42,12.51,4.55,16.25-6.18,10.1-14.62,5.35-11.76-22-11.76-22Z" fill="#ea8c8c"/><path d="M436,188s5.29,3.06,10.1,16.6,6.07,16.85,6.07,16.85S443.93,230.82,434,229,436,188,436,188Z" fill="#5d91c1"/><path d="M310.11,147.35l7.1,9.55,8,10.78,8.91,2.06,5.66-7.94-5-8.06L322.63,150h0l-11.84-3.62A.61.61,0,0,0,310.11,147.35Z" fill="#d4e5f4"/><path d="M452.35,269.21l23,18.34c10,6.72,25.21-15.89,15.21-22.61l-22.47-16.05C465.85,247.2,450.16,267.52,452.35,269.21Z" fill="#d4e5f4"/><path d="M325.22,167.68l123.17,98.37,4,3.16c-2.19-1.69,13.5-22,15.7-20.32l-4.15-2.95-.16-.12-129-92.08,1.44,5.06-7.71.46,1.27,7.22Z" fill="#a2bee0"/><polygon points="336.19 158.8 458.51 250.65 450.56 260.98 329.75 166.48 328.48 159.26 336.19 158.8" fill="#d4e5f4" opacity="0.5"/><path d="M448.39,266.05l4,3.16c-2.19-1.69,13.5-22,15.7-20.32l-4.15-2.95-.16-.12C459.35,243.27,444.3,262.89,448.39,266.05Z" fill="#8aacce"/><path d="M310.11,147.35l7.1,9.55c-1-6.69,5.09-6.87,5.41-6.87l-11.84-3.62A.61.61,0,0,0,310.11,147.35Z" fill="#a2bee0"/><polygon points="437.73 379.34 438.79 390.76 424.81 391.22 423.6 379.81 437.73 379.34" fill="#ea8c8c"/><path d="M418,393.6c-4.33,1.95-4.63,7.24-4.63,7.24h27.86s0-8.19-2.67-13.1a27.76,27.76,0,0,1-14.14,0S425.17,390.37,418,393.6Z" fill="#428bc1"/><polygon points="403.48 381.54 403.08 391.04 389.31 391.21 389.7 377.14 403.48 381.54" fill="#f4b3b3"/><path d="M379.66,393.36c-7.66,1.6-8.32,7.48-8.32,7.48h32.92a62.07,62.07,0,0,0-.9-13.1,27.75,27.75,0,0,1-14.14,0S387.32,391.75,379.66,393.36Z" fill="#78c8ef"/><path d="M435.2,259.87s1.9,14.26,0,23.17l6.06,96.3a22.62,22.62,0,0,1-20.67,1.72l-18.7-124.22Z" fill="#102b44"/><path d="M424.33,262s-.36,16-7.48,24.95l-8.65,94.89s-12.15,3.28-20.38,0l1.89-121.38,5.14-6.07Z" fill="#15385d"/><path d="M372.62,210.21l-7.93,6.95-15.39-23-7.13,4.42s10.52,33.19,16.58,35.13,14.89-3.44,23.57-9.18C381.42,219.18,377.4,212.82,372.62,210.21Z" fill="#f4b3b3"/><path d="M397.4,163.68s-3.25-2.62-2.23-5.76c0,0-1.57-2.13-3.38-1.74,0,0,1.33-4.16,5.25-2.62,0,0-3-1.88-2.05-6.76a12.38,12.38,0,0,0,6.78.94,21.75,21.75,0,0,1,17.87-3c10.69,2.66,8.44,11.65,8.54,11.83s2.46,1.8,2.12,7.44-3.42,12.08-6.54,16.95L413,182.25,406,176.52Z" fill="#15385d"/><path d="M399.6,183.91a9,9,0,0,0,8,.27h0l.24-.09.06,2.81,3.27.23,12.66.9-.1-7.05s-5.88.71-10.13-1.06-4.3-8.27-4.3-8.27,1.52-.34,2-2.94-3.58-6.12-4.32-1.26l-2.36-.08-.57-3.62s-3.73.3-3.26-3.9l-3-1S395.55,175.26,399.6,183.91Z" fill="#f4b3b3"/><path d="M407.63,184.17l.24-.09.06,2.81,3.27.23c1.72-2.08,1.3-6.2,1.3-6.2Z" fill="#ea8c8c"/><path d="M417.14,184.9a111.56,111.56,0,0,1,13.61.85c5.11.55,8.52,4.86,9.05,10,.87,8.31.51,16-2.28,30.3s-1.66,27.32-1.28,32.19-5.32,6.53-15.3,8.43-19-1.9-24.23-4.63-7-1.54-7-1.54-2.51-.55,1.17-11.8,1-27.77,1-27.77l-11.53,7.69c-1.86-3.43-6.86-3.56-10-16.76,0,0,1.56-2,4-4.59,5.05-5.35,7.25-8.26,12-11.76S399.56,185.73,417.14,184.9Z" fill="#75aed8"/><path d="M349.3,194.14s3.09-3.48,2.85-7.1,0-7.88-1.42-8.2-2,5.17-2,5.17l-.76,1.84L336.83,177a23.55,23.55,0,0,0,1.78,8.6c2,4.25,3.56,13,3.56,13l6.18-1.6Z" fill="#f4b3b3"/><rect x="112.05" y="400.24" width="497.58" height="3.27" fill="#15385d"/></svg>