<svg xmlns="http://www.w3.org/2000/svg" width="750" height="500" viewBox="0 0 750 500"><g style="isolation:isolate"><path d="M122,399.77s-30.89-46.44,0-113.46,108.72-52.65,159.69-126.89c59-86,172.51-72.24,218.61-27.57s27.56,80.93,70.81,118.65S631,351.89,598.23,400.84Z" fill="#fce9e1"/><path d="M523.71,274.31H489.29a1.57,1.57,0,0,1-1.52-1.2l-1.92-8a1.56,1.56,0,0,1,1.52-1.93h38a1.56,1.56,0,0,1,1.53,1.87l-1.64,8A1.56,1.56,0,0,1,523.71,274.31Z" fill="none" stroke="#fff" stroke-miterlimit="10"/><path d="M569.3,274.31H534.88a1.55,1.55,0,0,1-1.51-1.2l-1.93-8A1.57,1.57,0,0,1,533,263.2h38a1.57,1.57,0,0,1,1.53,1.87l-1.65,8A1.55,1.55,0,0,1,569.3,274.31Z" fill="none" stroke="#fff" stroke-miterlimit="10"/><path d="M543.84,285.41H509.42a1.56,1.56,0,0,1-1.52-1.19l-1.92-8a1.56,1.56,0,0,1,1.52-1.92h38a1.55,1.55,0,0,1,1.52,1.87l-1.64,8A1.56,1.56,0,0,1,543.84,285.41Z" fill="none" stroke="#fff" stroke-miterlimit="10"/><path d="M442.92,346.56h34.42a1.56,1.56,0,0,1,1.52,1.2l1.92,8a1.56,1.56,0,0,1-1.52,1.93h-38a1.56,1.56,0,0,1-1.53-1.88l1.64-8A1.56,1.56,0,0,1,442.92,346.56Z" fill="none" stroke="#fff" stroke-miterlimit="10"/><path d="M397.33,346.56h34.42a1.54,1.54,0,0,1,1.51,1.2l1.93,8a1.57,1.57,0,0,1-1.52,1.93h-38a1.57,1.57,0,0,1-1.53-1.88l1.65-8A1.55,1.55,0,0,1,397.33,346.56Z" fill="none" stroke="#fff" stroke-miterlimit="10"/><path d="M422.79,335.45h34.42a1.57,1.57,0,0,1,1.52,1.2l1.92,8a1.56,1.56,0,0,1-1.52,1.92h-38a1.56,1.56,0,0,1-1.52-1.87l1.64-8A1.56,1.56,0,0,1,422.79,335.45Z" fill="none" stroke="#fff" stroke-miterlimit="10"/><path d="M248.37,250H214a1.56,1.56,0,0,1-1.52-1.2l-1.92-8a1.56,1.56,0,0,1,1.52-1.93h38a1.56,1.56,0,0,1,1.53,1.88l-1.64,8A1.56,1.56,0,0,1,248.37,250Z" fill="none" stroke="#fff" stroke-miterlimit="10"/><path d="M268.5,261.11H234.08a1.57,1.57,0,0,1-1.52-1.2l-1.92-8a1.56,1.56,0,0,1,1.52-1.93h38a1.56,1.56,0,0,1,1.53,1.87l-1.64,8A1.56,1.56,0,0,1,268.5,261.11Z" fill="none" stroke="#fff" stroke-miterlimit="10"/><path d="M384.94,171.16H350.52A1.56,1.56,0,0,1,349,170l-1.92-8a1.56,1.56,0,0,1,1.52-1.92h38a1.56,1.56,0,0,1,1.53,1.87l-1.64,8A1.56,1.56,0,0,1,384.94,171.16Z" fill="none" stroke="#fff" stroke-miterlimit="10"/><path d="M405.07,182.27H370.65a1.56,1.56,0,0,1-1.52-1.19l-1.92-8a1.57,1.57,0,0,1,1.52-1.93h38a1.56,1.56,0,0,1,1.52,1.88l-1.64,8A1.56,1.56,0,0,1,405.07,182.27Z" fill="none" stroke="#fff" stroke-miterlimit="10"/><path d="M168.78,336.21s-9-12.12-5.88-27.8-2.61-17.11,1.19-26.62,10.7-9.77,12.83-18.43,17.27-15.72,29-11.71a18.83,18.83,0,0,0-10.19,16.69c0,12,.08,13.69-7.1,22.25s-4.27,13.31-6.2,26.14S174.67,331.93,168.78,336.21Z" fill="#89abce"/><path d="M167.91,351.55c-.34-15.49.33-31.12,3.59-46.32a112,112,0,0,1,7.12-22.11,89.29,89.29,0,0,1,12.09-19.76,88.86,88.86,0,0,0-11.63,20,111.11,111.11,0,0,0-6.6,22.11c-2.91,15.15-3.24,30.66-2.58,46.05Z" fill="#15385d"/><path d="M221.21,302.86h0c-9.23-2.73-15.67,10-22.7,12.33s-5.4,7.3-7.74,13.53c-2.25,5.94-11.27,16.33-12,17.2l-.05.06s-3.81-6.21-2.37-16.85,6.43-15.76,10.57-22.95,8.51-9.35,17.56-9.54C213.22,296.47,221.21,302.86,221.21,302.86Z" fill="#a2bee0"/><path d="M177.56,351.55a99.25,99.25,0,0,1,1.24-15.24,72.41,72.41,0,0,1,3.83-14.75,45.81,45.81,0,0,1,3.33-6.87,29.84,29.84,0,0,1,4.75-6,20.44,20.44,0,0,1,6.32-4.21,22.6,22.6,0,0,1,7.37-1.65,22.8,22.8,0,0,0-7.27,1.87,20.43,20.43,0,0,0-6.07,4.34,29.58,29.58,0,0,0-4.45,6,45,45,0,0,0-3,6.85,71.54,71.54,0,0,0-3.29,14.61,97.43,97.43,0,0,0-.72,15Z" fill="#15385d"/><path d="M158.06,333.55l-.06-.05c-.87-.6-12.37-8.79-16-15.58-3.73-7.05-6.08-10.92-11.75-15.06s-9.4-12.86-11.06-23.5c-1.26-8.06-2.91-10.18-3.63-10.72a.78.78,0,0,0-.37-.19s.23,0,.67-.05h0c4.15-.2,25.51-.57,31.23,12.9,6.36,14.93,10.78,13,12.72,25.57S158.06,333.55,158.06,333.55Z" fill="#d4e5f4"/><path d="M158.87,351.53a144.71,144.71,0,0,0-1.44-17.22,134.24,134.24,0,0,0-3.49-17,87.42,87.42,0,0,0-6.11-16.2,51.4,51.4,0,0,0-10.08-14,51.59,51.59,0,0,1,10.53,13.82,88.6,88.6,0,0,1,6.62,16.14,136.12,136.12,0,0,1,4,17,148.6,148.6,0,0,1,2,17.41Z" fill="#15385d"/><path d="M178.94,399.77H158.76c-2,.15-5.7-17.7-7.5-31.73a.66.66,0,0,0,0-.15c-1.14-8.93-1.51-16.29-.21-16.38H187C190.71,351.85,182.69,400.1,178.94,399.77Z" fill="#225582"/><polygon points="372.16 400.24 377.66 400.24 371.98 318.09 364.41 318.09 372.16 400.24" fill="#a2bee0"/><polygon points="348.63 379.34 347.56 390.76 361.55 391.22 362.75 379.81 348.63 379.34" fill="#f4b3b3"/><path d="M368.32,393.6c3.68.69,4.63,7.24,4.63,7.24H345.09s0-8.19,2.67-13.1a27.75,27.75,0,0,0,14.14,0S360.63,392.14,368.32,393.6Z" fill="#78c8ef"/><polygon points="394.75 384.21 396.54 391.22 410.08 391.22 408.54 379.81 394.75 384.21" fill="#ea8c8c"/><path d="M419.35,393.36c7.66,1.6,8.32,7.48,8.32,7.48H394.76a61.7,61.7,0,0,1,.89-13.1,27.75,27.75,0,0,0,14.14,0S411.69,391.75,419.35,393.36Z" fill="#428bc1"/><polygon points="284.94 400.24 279.45 400.24 286.02 318.09 293.59 318.09 284.94 400.24" fill="#a2bee0"/><polygon points="318.59 400.24 313.1 400.24 315.96 318.09 323.53 318.09 318.59 400.24" fill="#a2bee0"/><path d="M382.71,326.79h-77a30.84,30.84,0,0,1-30.08-24.08l-13.7-61.07a9.14,9.14,0,0,1,8.92-11.14h19.24s15.68,59.67,15.76,61S377.39,313,377.39,313l3,7.75Z" fill="#d4e5f4"/><path d="M380.38,320.73H309.25a30.82,30.82,0,0,1-30.08-24.08l-13.7-61.07a9.36,9.36,0,0,1-.15-3.24,9.05,9.05,0,0,1,5.5-1.84h19.24s15.68,59.67,15.76,61S377.39,313,377.39,313Z" fill="#a2bee0"/><path d="M306.47,187.81s-2.14-7.21-.65-11.13,4.16-4,4.16-4-.8-5.35,6.6-7.49a19.5,19.5,0,0,1,17.55,3.12,10.34,10.34,0,0,0,8.91,1.51,6,6,0,0,1-4,5.62s4.64-1,6.42,2.94a6,6,0,0,0-6.06,2.32s-.27,7.12-4.63,8.64-20.5,3.74-20.5,3.74h-5.88Z" fill="#15385d"/><path d="M355.62,246.21l8,20.2L387,270v10.54H356c-5.94,0-14.18-26.86-14.18-26.86Z" fill="#ea8c8c"/><path d="M352.54,291.89l28,2.9a21.14,21.14,0,0,1,18.73,17.88l10.37,69.16c-5.41,3.33-8.86,4.06-16.43,2.24a2.83,2.83,0,0,1-2.09-2.11l-13.66-58.64a2.9,2.9,0,0,0-1.93-2.1L316.43,317l-2.22-25.46Z" fill="#102b44"/><path d="M339.7,257.29a141.24,141.24,0,0,0,.29,23.23H287.31s-1.89-23.72-1-37.62c.08-1.32.19-2.54.32-3.65,1.56-12.85-3.38-13.25-3.38-13.25s4.36-8.74,13.27-10.46c3.46-.67,6.21-1.37,8.28-2a41,41,0,0,0,4.88-1.68L329.29,214s.88.16,2.23.56c2.71.78,9.39,2.74,12.57,5.84,4.75,4.64,11,23.61,13.48,27.17,0,0-2.36,1.07-6.89,5.28S339.7,257.29,339.7,257.29Z" fill="#75aed8"/><path d="M340,280.52H287.31s-1.89-23.72-1-37.62L300.51,238s7.78,19.44,15.62,22.15,15.68,2,18.3-1.68,6.77-30.2,6.77-30.2.56,19.8-1.5,29A141.24,141.24,0,0,0,340,280.52Z" fill="#376c9b" opacity="0.21" style="mix-blend-mode:multiply"/><path d="M320.64,228.8c-8.43-1.42-14.9-12.78-15.87-15.23a41.14,41.14,0,0,0,4.87-1.68L329.29,214s.88.16,2.23.55C334.06,223.14,331.39,230.61,320.64,228.8Z" fill="#376c9b" opacity="0.21" style="mix-blend-mode:multiply"/><path d="M324.71,224.28c-7.68,1.92-17.14-11.4-17.14-11.4l2.07-1a53.13,53.13,0,0,0,.88-11.81v0c-.08-3-.32-5-.32-5s16.06,7.84,16.29,13c0,0,0,0,0,0a2.07,2.07,0,0,1-.09.7.28.28,0,0,0,0,.06,5.2,5.2,0,0,0-.21,3c.61,2.14,3.11,2.17,3.11,2.17S332.4,222.36,324.71,224.28Z" fill="#f4b3b3"/><path d="M326.49,208.05s0,0,0,0c-.05.34-.08.6-.09.7a.28.28,0,0,0,0,.06,5.2,5.2,0,0,0-.21,3c-.34,1.84-1.22,4-3.4,4.85-3.59,1.4-10.68-5.23-12.26-16.6v0c-.08-3-.32-5-.32-5S326.26,202.87,326.49,208.05Z" fill="#ea8c8c"/><path d="M335.22,180.83s1.56,16.48-3.32,25.6a4.76,4.76,0,0,1-4.51,2.5c-5-.34-15.1-2.41-17.08-13.47,0,0-4.46.68-4.49-4.93,0-5.36,5.53-5.28,5.37,0L315,191l.8-4.34s3.7-1.81,3.19-7.4a31.19,31.19,0,0,0,15.93,1.54" fill="#f4b3b3"/><path d="M303,254.31a2.83,2.83,0,0,0,1.21-2.34,9.87,9.87,0,0,0-.66-3.18c-1.23-3.43-5.53-25.14-12.22-27.54s-11,7.67-10.18,19.37,2.08,18.18,3.27,18.94S292.32,261.77,303,254.31Z" fill="#75aed8"/><path d="M298.93,251.9s-9.14.85-14.14,6.43c0,0,2,1.13,9.06-.76,7.88-2.11,8.55-5.92,8.55-5.92Z" fill="#376c9b" opacity="0.35"/><path d="M286.54,256.68c.2-.45,6.11-4.86,15.86-5L307,263.72l35.48,7.07s12.71-1.25,14.69-.94,9.68,8.68,8.14,9.37-4.2-1.73-4.2-1.73,2.39,2.44.85,2.8-5.15-2.88-5.15-2.88,2.31,2.21,1.22,2.62-5.75-2.7-5.75-2.7-1.56.59-3.4,1.38a8.92,8.92,0,0,1-4,.58c-4,0-5.84-.07-5.84-.07s-31.11,1.78-40.59-.73S286.54,256.68,286.54,256.68Z" fill="#f4b3b3"/><polygon points="253.75 400.84 247.49 400.84 253.89 283.69 260.14 283.69 253.75 400.84" fill="#a2bee0"/><polygon points="222.09 400.84 215.83 400.84 228.49 283.69 234.74 283.69 222.09 400.84" fill="#a2bee0"/><polygon points="441.06 400.84 447.31 400.84 440.92 283.69 434.66 283.69 441.06 400.84" fill="#a2bee0"/><polygon points="474.83 400.84 481.08 400.84 468.43 283.69 462.17 283.69 474.83 400.84" fill="#b2c9ea"/><rect x="225.96" y="286.31" width="245.67" height="5.19" fill="#a2bee0"/><path d="M364.41,381.72,369,318.09a20.58,20.58,0,0,0-15.71-19.75l-28.06-6.84h-37.8v5.82a23.59,23.59,0,0,0,10.74,19.78,17.59,17.59,0,0,0,8.92,2.73l33.49,1.3,3.63,59.74a3.29,3.29,0,0,0,1.93,2.84C352.61,386.56,361.25,386.42,364.41,381.72Z" fill="#15385d"/><rect x="221.64" y="279.29" width="251.84" height="7.47" fill="#b2c9ea"/><polygon points="473.48 286.31 473.48 286.76 471.63 286.76 471.63 291.5 263.51 291.5 263.51 286.31 473.48 286.31" fill="#b2c9ea"/><rect x="259.19" y="279.29" width="214.29" height="7.47" fill="#d4e5f4"/><path d="M343.14,276.92H361v2.37H340.1L341,278A2.61,2.61,0,0,1,343.14,276.92Z" fill="#a2bee0"/><path d="M422.21,244.78H373.34a2.35,2.35,0,0,0-2.26,1.43l-11.72,32.38c-.13.35.17.7.6.7h48a3.48,3.48,0,0,0,3.34-2.11l11.48-31.69A.57.57,0,0,0,422.21,244.78Z" fill="#15385d"/><ellipse cx="392.81" cy="263.2" rx="3.93" ry="2.46" transform="translate(-41.39 450.4) rotate(-57.15)" fill="#d4e5f4"/><rect x="498.78" y="293.35" width="59.08" height="106.42" fill="#a2bee0"/><rect x="528.31" y="293.35" width="62.48" height="106.42" fill="#d4e5f4"/><rect x="524.98" y="326.79" width="65.81" height="1.78" fill="#a2bee0"/><rect x="524.98" y="363.52" width="65.81" height="1.78" fill="#a2bee0"/><rect x="548.15" y="298.49" width="27.45" height="4.63" fill="#eff5f9"/><rect x="548.15" y="333.42" width="27.45" height="4.63" fill="#eff5f9"/><rect x="548.15" y="370.49" width="27.45" height="4.63" fill="#eff5f9"/><rect x="112.05" y="400.24" width="497.58" height="3.27" fill="#15385d"/><rect x="510.42" y="121.84" width="71.16" height="104.64" rx="2.07" fill="#eff5f9"/><rect x="575.24" y="125.93" width="4.67" height="33.17" rx="0.67" fill="#c7dbea"/><path d="M526.37,138.57a9.38,9.38,0,0,1,2.19.19c.34.21-.95,2-.95,2s-1.14,7.69-.6,7.69,1.28-.48,2.09-.48.81,1.08,0,2.09-.41,2-.2,2.9-.81,3.78-1.62,4.05-.34,2.56.91,2.56.23,1-.71,1l-8.16-7.1Z" fill="#9ad98f"/><path d="M543.71,133.08s-2.86.24-3.54-.5-.44-1.21-1.58-1.35-2.06-1.28-2.43-.71,1.21,2.16,2.39,2.43,3.51.71,2.77,2.46-.31,3.51.37,3.91Z" fill="#9ad98f"/><path d="M540,144.23a6.67,6.67,0,0,0-1.28-1.76c-.54-.33-.85,1.89-1.35,2.36s-1.62,2.26-.51,2.3,1.59-2.6,2.12-2.7.41,1.55.41,1.55Z" fill="#9ad98f"/><rect x="513.03" y="125.93" width="60.86" height="40.45" rx="1.98" fill="none" stroke="#15385d" stroke-miterlimit="10" stroke-width="0.5"/><polygon points="532.2 126.29 519.32 153.39 532.87 165.19 543.79 132.9 532.2 126.29" fill="none" stroke="#15385d" stroke-miterlimit="10" stroke-width="0.5"/><polygon points="519.32 153.39 532.2 141.73 527.82 155.96 519.32 153.39" fill="none" stroke="#15385d" stroke-miterlimit="10" stroke-width="0.5"/><polyline points="519.32 153.39 523.06 154.52 524.72 153.39 529.97 152.99 531.05 152.52 536.82 153.52" fill="none" stroke="#15385d" stroke-miterlimit="10" stroke-width="0.5"/><polyline points="543.79 132.9 538.27 140.92 532.94 139.37 532.2 126.29" fill="none" stroke="#15385d" stroke-miterlimit="10" stroke-width="0.5"/><polyline points="527.27 136.67 532.94 139.37 532.33 141.53 537.59 143.12" fill="none" stroke="#15385d" stroke-miterlimit="10" stroke-width="0.5"/><polyline points="529.48 137.72 532.94 138.02 538.77 140.18" fill="none" stroke="#15385d" stroke-miterlimit="10" stroke-width="0.5"/><line x1="541.54" y1="136.18" x2="532.57" y2="132.83" fill="none" stroke="#15385d" stroke-miterlimit="10" stroke-width="0.5"/><polyline points="536.14 128.53 532.57 131.28 531.56 136.18 531.56 138.71" fill="none" stroke="#15385d" stroke-miterlimit="10" stroke-width="0.5"/><polyline points="529.84 137.72 530.38 132.29 532.38 129.47 534.62 127.67" fill="none" stroke="#15385d" stroke-miterlimit="10" stroke-width="0.5"/><polyline points="538.27 140.92 536.51 146.59 533.85 145.74 533.95 144.94 531.41 144.28" fill="none" stroke="#15385d" stroke-miterlimit="10" stroke-width="0.5"/><line x1="534.35" y1="142.14" x2="533.94" y2="145.07" fill="none" stroke="#15385d" stroke-miterlimit="10" stroke-width="0.5"/><line x1="534.35" y1="139.78" x2="533.61" y2="141.91" fill="none" stroke="#15385d" stroke-miterlimit="10" stroke-width="0.5"/><line x1="531.89" y1="164.34" x2="533.51" y2="159.61" fill="none" stroke="#15385d" stroke-miterlimit="10" stroke-width="0.5"/><line x1="535.65" y1="153.37" x2="538.85" y2="144.02" fill="none" stroke="#15385d" stroke-miterlimit="10" stroke-width="0.5" stroke-dasharray="6.59 6.59"/><line x1="539.92" y1="140.91" x2="541.54" y2="136.18" fill="none" stroke="#15385d" stroke-miterlimit="10" stroke-width="0.5"/><line x1="521.8" y1="151.15" x2="530.38" y2="132.29" fill="none" stroke="#15385d" stroke-miterlimit="10" stroke-width="0.5" stroke-dasharray="10 10"/><line x1="533.75" y1="130.38" x2="542.38" y2="134.95" fill="none" stroke="#15385d" stroke-miterlimit="10" stroke-width="0.5" stroke-dasharray="10 10"/><polyline points="573.89 143.75 560.65 140.18 543.79 132.9" fill="none" stroke="#15385d" stroke-miterlimit="10" stroke-width="0.5"/><polyline points="573.89 140.45 557.75 134.95 545.21 129.73 539.08 125.93" fill="none" stroke="#15385d" stroke-miterlimit="10" stroke-width="0.5"/><line x1="571.91" y1="125.93" x2="569.97" y2="139.11" fill="none" stroke="#15385d" stroke-miterlimit="10" stroke-width="0.5"/><line x1="559.17" y1="125.93" x2="557.75" y2="134.95" fill="none" stroke="#15385d" stroke-miterlimit="10" stroke-width="0.5"/><line x1="546.63" y1="125.93" x2="545.21" y2="129.73" fill="none" stroke="#15385d" stroke-miterlimit="10" stroke-width="0.5"/><line x1="555.83" y1="138.1" x2="547.84" y2="166.38" fill="none" stroke="#15385d" stroke-miterlimit="10" stroke-width="0.5"/><line x1="513.03" y1="147.19" x2="519.32" y2="153.39" fill="none" stroke="#15385d" stroke-miterlimit="10" stroke-width="0.5"/><line x1="513.03" y1="157.78" x2="517.93" y2="152.02" fill="none" stroke="#15385d" stroke-miterlimit="10" stroke-width="0.5"/><line x1="547.03" y1="132.9" x2="562.34" y2="138.71" fill="none" stroke="#15385d" stroke-miterlimit="10" stroke-width="2"/><rect x="558.46" y="160.94" width="6.3" height="0.94" fill="#1b4b7c"/><rect x="558.46" y="162.9" width="8.56" height="0.47" fill="#1b4b7c"/><rect x="558.46" y="164.34" width="11.7" height="0.86" fill="none" stroke="#15385d" stroke-miterlimit="10" stroke-width="0.5"/><rect x="557.75" y="155.15" width="15.03" height="3.96" fill="none" stroke="#15385d" stroke-miterlimit="10" stroke-width="0.5"/><rect x="564.76" y="147.46" width="8.02" height="6.06" fill="none" stroke="#15385d" stroke-miterlimit="10" stroke-width="0.5"/><circle cx="534.16" cy="150.14" r="0.54" fill="#82f57f"/><circle cx="527.72" cy="157.24" r="0.54" fill="#82f57f"/><circle cx="526.75" cy="154.52" r="0.54" fill="#82f57f"/><circle cx="527.87" cy="152.02" r="0.54" fill="#82f57f"/><circle cx="526.59" cy="149.75" r="0.54" fill="#82f57f"/><circle cx="522.74" cy="152.72" r="0.54" fill="#82f57f"/><circle cx="522.2" cy="151.21" r="0.54" fill="#82f57f"/><circle cx="524.12" cy="155.06" r="0.54" fill="#82f57f"/><circle cx="527.72" cy="146.16" r="0.54" fill="#82f57f"/><circle cx="534.8" cy="148.65" r="0.54" fill="#82f57f"/><circle cx="541.58" cy="140.85" r="0.54" fill="#82f57f"/><circle cx="536.74" cy="134.15" r="0.54" fill="#82f57f"/><circle cx="529.93" cy="147.84" r="0.54" fill="#82f57f"/><rect x="513.03" y="125.93" width="60.86" height="40.45" rx="1.98" fill="#eff5f9" stroke="#1b4b7c" stroke-miterlimit="10" stroke-width="0.5"/><rect x="524.4" y="200.66" width="43.22" height="10.79" rx="1.62" fill="#a2bee0"/><rect x="528.05" y="172.48" width="35.9" height="4.34" rx="2.16" fill="#c6d9e5"/><rect x="532.76" y="183.81" width="32.25" height="2.85" rx="1.42" fill="#c6d9e5"/><rect x="527" y="183.81" width="2.85" height="2.85" rx="1.42" fill="#c6d9e5"/><rect x="532.76" y="190.41" width="32.25" height="2.85" rx="1.42" fill="#c6d9e5"/><rect x="527" y="190.41" width="2.85" height="2.85" rx="1.42" fill="#c6d9e5"/><rect x="359.74" y="121.84" width="71.16" height="104.64" rx="2.07" fill="#eff5f9"/><rect x="362.43" y="125.93" width="60.86" height="40.45" rx="1.98" fill="none" stroke="#1b4b7c" stroke-miterlimit="10" stroke-width="0.5"/><rect x="424.64" y="125.93" width="4.67" height="33.17" rx="0.67" fill="#c7dbea"/><polygon points="381.6 126.29 368.72 153.39 382.27 165.19 393.2 132.9 381.6 126.29" fill="none" stroke="#1b4b7c" stroke-miterlimit="10" stroke-width="0.5"/><polyline points="423.29 143.75 410.05 140.18 393.2 132.9" fill="none" stroke="#1b4b7c" stroke-miterlimit="10" stroke-width="0.5"/><polyline points="423.29 140.45 407.15 134.95 394.61 129.73 388.48 125.93" fill="none" stroke="#1b4b7c" stroke-miterlimit="10" stroke-width="0.5"/><line x1="421.31" y1="125.93" x2="419.37" y2="139.11" fill="none" stroke="#1b4b7c" stroke-miterlimit="10" stroke-width="0.5"/><line x1="408.57" y1="125.93" x2="407.15" y2="134.95" fill="none" stroke="#1b4b7c" stroke-miterlimit="10" stroke-width="0.5"/><line x1="396.03" y1="125.93" x2="394.61" y2="129.73" fill="none" stroke="#1b4b7c" stroke-miterlimit="10" stroke-width="0.5"/><line x1="405.23" y1="138.1" x2="397.24" y2="166.38" fill="none" stroke="#1b4b7c" stroke-miterlimit="10" stroke-width="0.5"/><line x1="362.43" y1="147.19" x2="368.72" y2="153.39" fill="none" stroke="#1b4b7c" stroke-miterlimit="10" stroke-width="0.5"/><line x1="362.43" y1="157.78" x2="367.33" y2="152.02" fill="none" stroke="#1b4b7c" stroke-miterlimit="10" stroke-width="0.5"/><line x1="396.43" y1="132.52" x2="411.74" y2="138.71" fill="none" stroke="#1b4b7c" stroke-miterlimit="10" stroke-width="2"/><rect x="407.86" y="160.94" width="6.3" height="0.94" fill="#1b4b7c"/><rect x="407.86" y="162.9" width="8.56" height="0.47" fill="#1b4b7c"/><rect x="407.86" y="164.34" width="11.7" height="0.86" fill="none" stroke="#1b4b7c" stroke-miterlimit="10" stroke-width="0.5"/><rect x="407.15" y="155.15" width="15.03" height="3.96" fill="none" stroke="#1b4b7c" stroke-miterlimit="10" stroke-width="0.5"/><rect x="414.16" y="147.46" width="8.02" height="6.06" fill="none" stroke="#1b4b7c" stroke-miterlimit="10" stroke-width="0.5"/><rect x="382.68" y="139.77" width="5.87" height="3.02" transform="translate(73.66 -125.82) rotate(20.45)" fill="none" stroke="#1b4b7c" stroke-miterlimit="10" stroke-width="0.5"/><rect x="362.43" y="125.93" width="60.86" height="40.45" rx="1.98" fill="#eff5f9" stroke="#1b4b7c" stroke-miterlimit="10" stroke-width="0.5"/><rect x="373.71" y="200.66" width="43.22" height="10.79" rx="1.62" fill="#a2bee0"/><rect x="377.37" y="173.78" width="35.9" height="4.34" rx="2.16" fill="#c6d9e5"/><rect x="382.08" y="183.81" width="32.25" height="2.85" rx="1.42" fill="#c6d9e5"/><rect x="376.32" y="183.81" width="2.85" height="2.85" rx="1.42" fill="#c6d9e5"/><rect x="382.08" y="190.41" width="32.25" height="2.85" rx="1.42" fill="#c6d9e5"/><rect x="376.32" y="190.41" width="2.85" height="2.85" rx="1.42" fill="#c6d9e5"/><rect x="429.03" y="109.69" width="83.11" height="122.2" rx="2.42" fill="#fafdff"/><rect x="431.35" y="114.47" width="71.07" height="47.24" rx="2.31" fill="none" stroke="#1b4b7c" stroke-miterlimit="10" stroke-width="0.5"/><rect x="503.99" y="114.47" width="5.46" height="38.74" rx="0.79" fill="#c7dbea"/><polygon points="453.73 114.89 438.69 146.54 454.52 160.32 467.27 122.61 453.73 114.89" fill="none" stroke="#1b4b7c" stroke-miterlimit="10" stroke-width="0.5"/><polygon points="438.69 146.54 453.73 132.92 448.62 149.53 438.69 146.54" fill="none" stroke="#1b4b7c" stroke-miterlimit="10" stroke-width="0.5"/><polyline points="438.69 146.54 443.06 147.86 444.99 146.54 451.13 146.07 452.39 145.52 459.13 146.69" fill="none" stroke="#1b4b7c" stroke-miterlimit="10" stroke-width="0.5"/><polyline points="467.27 122.61 460.82 131.97 454.6 130.16 453.73 114.89" fill="none" stroke="#1b4b7c" stroke-miterlimit="10" stroke-width="0.5"/><polyline points="447.98 127.01 454.6 130.16 453.89 132.68 460.02 134.54" fill="none" stroke="#1b4b7c" stroke-miterlimit="10" stroke-width="0.5"/><polyline points="450.56 128.24 454.6 128.59 461.41 131.11" fill="none" stroke="#1b4b7c" stroke-miterlimit="10" stroke-width="0.5"/><line x1="464.64" y1="126.44" x2="454.17" y2="122.52" fill="none" stroke="#1b4b7c" stroke-miterlimit="10" stroke-width="0.5"/><polyline points="458.33 117.51 454.17 120.72 452.98 126.44 452.98 129.4" fill="none" stroke="#1b4b7c" stroke-miterlimit="10" stroke-width="0.5"/><polyline points="450.98 128.24 451.61 121.9 453.94 118.6 456.56 116.5" fill="none" stroke="#1b4b7c" stroke-miterlimit="10" stroke-width="0.5"/><polyline points="460.82 131.97 458.77 138.59 455.66 137.6 455.78 136.67 452.81 135.9" fill="none" stroke="#1b4b7c" stroke-miterlimit="10" stroke-width="0.5"/><line x1="456.25" y1="133.4" x2="455.76" y2="136.82" fill="none" stroke="#1b4b7c" stroke-miterlimit="10" stroke-width="0.5"/><line x1="456.25" y1="130.64" x2="455.38" y2="133.13" fill="none" stroke="#1b4b7c" stroke-miterlimit="10" stroke-width="0.5"/><polyline points="502.42 135.28 486.96 131.11 467.27 122.61" fill="none" stroke="#1b4b7c" stroke-miterlimit="10" stroke-width="0.5"/><polyline points="502.42 131.42 483.57 125.01 468.93 118.91 461.76 114.47" fill="none" stroke="#1b4b7c" stroke-miterlimit="10" stroke-width="0.5"/><line x1="500.11" y1="114.47" x2="497.84" y2="129.86" fill="none" stroke="#1b4b7c" stroke-miterlimit="10" stroke-width="0.5"/><line x1="485.23" y1="114.47" x2="483.57" y2="125.01" fill="none" stroke="#1b4b7c" stroke-miterlimit="10" stroke-width="0.5"/><line x1="470.58" y1="114.47" x2="468.93" y2="118.91" fill="none" stroke="#1b4b7c" stroke-miterlimit="10" stroke-width="0.5"/><line x1="481.33" y1="128.68" x2="472" y2="161.71" fill="none" stroke="#1b4b7c" stroke-miterlimit="10" stroke-width="0.5"/><line x1="431.35" y1="139.3" x2="438.69" y2="146.54" fill="none" stroke="#1b4b7c" stroke-miterlimit="10" stroke-width="0.5"/><line x1="431.35" y1="151.66" x2="437.07" y2="144.94" fill="none" stroke="#1b4b7c" stroke-miterlimit="10" stroke-width="0.5"/><line x1="471.05" y1="122.37" x2="488.93" y2="129.39" fill="none" stroke="#1b4b7c" stroke-miterlimit="10" stroke-width="2"/><rect x="484.4" y="155.36" width="7.36" height="1.1" fill="#1b4b7c"/><rect x="484.4" y="157.64" width="10" height="0.55" fill="#1b4b7c"/><rect x="484.4" y="159.32" width="13.66" height="1" fill="none" stroke="#1b4b7c" stroke-miterlimit="10" stroke-width="0.5"/><rect x="483.57" y="148.59" width="17.56" height="4.62" fill="none" stroke="#1b4b7c" stroke-miterlimit="10" stroke-width="0.5"/><rect x="491.76" y="139.61" width="9.37" height="7.08" fill="none" stroke="#1b4b7c" stroke-miterlimit="10" stroke-width="0.5"/><circle cx="455.5" cy="142.74" r="0.63" fill="#82f57f"/><circle cx="447.98" cy="151.03" r="0.63" fill="#82f57f"/><circle cx="446.84" cy="147.86" r="0.63" fill="#82f57f"/><circle cx="448.15" cy="144.94" r="0.63" fill="#82f57f"/><circle cx="446.65" cy="142.29" r="0.63" fill="#82f57f"/><circle cx="442.17" cy="145.75" r="0.63" fill="#82f57f"/><circle cx="441.54" cy="144" r="0.63" fill="#82f57f"/><circle cx="443.78" cy="148.49" r="0.63" fill="#82f57f"/><circle cx="447.98" cy="138.09" r="0.63" fill="#82f57f"/><circle cx="456.25" cy="141" r="0.63" fill="#82f57f"/><circle cx="464.16" cy="131.89" r="0.63" fill="#82f57f"/><circle cx="458.52" cy="124.06" r="0.63" fill="#82f57f"/><circle cx="450.56" cy="140.06" r="0.63" fill="#82f57f"/><rect x="431.49" y="114.47" width="70.78" height="47.04" rx="2.3" fill="#fafdff" stroke="#1b4b7c" stroke-miterlimit="10" stroke-width="0.5"/><rect x="503.84" y="114.47" width="5.44" height="38.58" rx="0.78" fill="#c7dbea"/><polygon points="453.79 114.89 438.81 146.41 454.57 160.13 467.27 122.57 453.79 114.89" fill="none" stroke="#1b4b7c" stroke-miterlimit="10" stroke-width="0.5"/><polyline points="502.27 135.19 486.88 131.04 467.27 122.57" fill="none" stroke="#1b4b7c" stroke-miterlimit="10" stroke-width="0.5"/><polyline points="502.27 131.35 483.5 124.96 468.92 118.89 461.79 114.47" fill="none" stroke="#1b4b7c" stroke-miterlimit="10" stroke-width="0.5"/><line x1="499.97" y1="114.47" x2="497.71" y2="129.8" fill="none" stroke="#1b4b7c" stroke-miterlimit="10" stroke-width="0.5"/><line x1="485.15" y1="114.47" x2="483.5" y2="124.96" fill="none" stroke="#1b4b7c" stroke-miterlimit="10" stroke-width="0.5"/><line x1="470.57" y1="114.47" x2="468.92" y2="118.89" fill="none" stroke="#1b4b7c" stroke-miterlimit="10" stroke-width="0.5"/><line x1="481.27" y1="128.62" x2="471.98" y2="161.51" fill="none" stroke="#1b4b7c" stroke-miterlimit="10" stroke-width="0.5"/><line x1="431.49" y1="139.19" x2="438.81" y2="146.41" fill="none" stroke="#1b4b7c" stroke-miterlimit="10" stroke-width="0.5"/><line x1="431.49" y1="151.5" x2="437.19" y2="144.81" fill="none" stroke="#1b4b7c" stroke-miterlimit="10" stroke-width="0.5"/><line x1="471.04" y1="122.13" x2="488.84" y2="129.33" fill="none" stroke="#1b4b7c" stroke-miterlimit="10" stroke-width="2"/><rect x="484.33" y="155.19" width="7.33" height="1.1" fill="#1b4b7c"/><rect x="484.33" y="157.46" width="9.96" height="0.55" fill="#1b4b7c"/><rect x="484.33" y="159.13" width="13.6" height="1" fill="none" stroke="#1b4b7c" stroke-miterlimit="10" stroke-width="0.5"/><rect x="483.5" y="148.45" width="17.48" height="4.6" fill="none" stroke="#1b4b7c" stroke-miterlimit="10" stroke-width="0.5"/><rect x="491.66" y="139.51" width="9.33" height="7.05" fill="none" stroke="#1b4b7c" stroke-miterlimit="10" stroke-width="0.5"/><rect x="455.05" y="130.56" width="6.82" height="3.51" transform="translate(75.12 -151.84) rotate(20.45)" fill="none" stroke="#1b4b7c" stroke-miterlimit="10" stroke-width="0.5"/><rect x="454.2" y="181.22" width="39.89" height="3.52" rx="1.76" fill="#c6d9e5"/><rect x="447.07" y="181.22" width="3.52" height="3.52" rx="1.76" fill="#c6d9e5"/><rect x="454.2" y="188.27" width="39.89" height="3.52" rx="1.76" fill="#c6d9e5"/><rect x="447.07" y="188.27" width="3.52" height="3.52" rx="1.76" fill="#c6d9e5"/><rect x="445.35" y="201.66" width="50.47" height="12.6" rx="1.89" fill="#1b4b7c"/><rect x="449.59" y="169.38" width="41.99" height="5.07" rx="2.53" fill="#c6d9e5"/><rect x="511.21" y="121.84" width="4.71" height="104.64" fill="#a2bee0" opacity="0.24" style="mix-blend-mode:multiply"/><rect x="425.4" y="121.84" width="4.71" height="104.64" fill="#a2bee0" opacity="0.24" style="mix-blend-mode:multiply"/><polygon points="484.08 222.55 485.17 241.25 490.44 236.99 500.48 251.11 508.63 244.53 496.87 231.8 502.39 227.33 484.08 222.55" fill="#59aed8"/></g></svg>