<svg id="Layer_1" data-name="Layer 1" xmlns="http://www.w3.org/2000/svg" viewBox="0 0 864.59 562.91"><defs><style>.cls-1{fill:#f8e9e1;}.cls-2,.cls-7{fill:#1e375a;}.cls-3,.cls-8{fill:none;stroke-miterlimit:10;}.cls-3{stroke:#fff;stroke-width:1.73px;}.cls-4{fill:#eff4f8;}.cls-5{fill:#fff;}.cls-6{fill:#ccc;}.cls-7{font-size:8.16px;font-family:Helvetica-Bold, Helvetica;font-weight:700;}.cls-8{stroke:#688fbc;stroke-width:2.47px;}.cls-9{fill:#d6e4f1;}.cls-10{fill:#dd8f8d;}.cls-11{fill:#688fbc;}.cls-12{fill:#5489bb;}.cls-13{fill:#eab5b3;}.cls-14{fill:#88c5ea;}.cls-15{fill:#172b42;}.cls-16{fill:#80acd3;}.cls-17{fill:#ffd261;}.cls-18{fill:#fdbe57;}</style></defs><path class="cls-1" d="M36.52,548.9s-50.74-76.29,0-186.36S215.08,276.07,298.8,154.12c97-141.29,283.36-118.65,359.08-45.28s45.27,132.93,116.31,194.88,98.35,166.54,44.49,246.94Z"/><rect class="cls-2" x="12.74" y="548.72" width="835.52" height="5.49"/><path class="cls-3" d="M701.76,364.89H642.23a2.71,2.71,0,0,1-2.63-2.07L636.28,349a2.7,2.7,0,0,1,2.62-3.33h65.7a2.69,2.69,0,0,1,2.64,3.24l-2.84,13.81A2.7,2.7,0,0,1,701.76,364.89Z"/><path class="cls-3" d="M780.61,364.89H721.08a2.7,2.7,0,0,1-2.62-2.07L715.13,349a2.7,2.7,0,0,1,2.62-3.33h65.7a2.7,2.7,0,0,1,2.65,3.24l-2.84,13.81A2.71,2.71,0,0,1,780.61,364.89Z"/><path class="cls-3" d="M736.58,384.1H677a2.7,2.7,0,0,1-2.62-2.07l-3.32-13.81a2.69,2.69,0,0,1,2.62-3.33h65.7a2.69,2.69,0,0,1,2.64,3.24l-2.84,13.81A2.7,2.7,0,0,1,736.58,384.1Z"/><path class="cls-3" d="M562,489.85h59.53a2.7,2.7,0,0,1,2.63,2.07l3.32,13.81a2.7,2.7,0,0,1-2.62,3.33h-65.7a2.69,2.69,0,0,1-2.64-3.24L559.39,492A2.69,2.69,0,0,1,562,489.85Z"/><path class="cls-3" d="M483.18,489.85h59.53a2.69,2.69,0,0,1,2.62,2.07l3.33,13.81a2.7,2.7,0,0,1-2.63,3.33H480.34a2.7,2.7,0,0,1-2.65-3.24L480.53,492A2.71,2.71,0,0,1,483.18,489.85Z"/><path class="cls-3" d="M527.21,470.64h59.54a2.69,2.69,0,0,1,2.62,2.07l3.32,13.81a2.69,2.69,0,0,1-2.62,3.33h-65.7a2.69,2.69,0,0,1-2.64-3.24l2.84-13.82A2.7,2.7,0,0,1,527.21,470.64Z"/><path class="cls-3" d="M173,440.94H113.46a2.7,2.7,0,0,1-2.62-2.07l-3.33-13.81a2.7,2.7,0,0,1,2.62-3.33h65.7a2.7,2.7,0,0,1,2.65,3.24l-2.84,13.81A2.72,2.72,0,0,1,173,440.94Z"/><path class="cls-3" d="M207.81,460.14H148.28a2.7,2.7,0,0,1-2.63-2.06l-3.32-13.81a2.7,2.7,0,0,1,2.62-3.33h65.7a2.69,2.69,0,0,1,2.64,3.24L210.45,458A2.7,2.7,0,0,1,207.81,460.14Z"/><rect class="cls-4" x="57.66" y="11.55" width="612.45" height="387.6" rx="9.89"/><rect class="cls-5" x="121.99" y="222.18" width="106.94" height="142.5" rx="4.94"/><path class="cls-6" d="M126.94,222.18H224a4.94,4.94,0,0,1,4.94,4.94v70.24a0,0,0,0,1,0,0H122a0,0,0,0,1,0,0V227.12A4.94,4.94,0,0,1,126.94,222.18Z"/><path class="cls-5" d="M126.94,222.18h9.74a0,0,0,0,1,0,0v14.69a0,0,0,0,1,0,0H122a0,0,0,0,1,0,0v-9.74A4.94,4.94,0,0,1,126.94,222.18Z"/><text class="cls-7" transform="translate(124.73 233.09)">05</text><rect class="cls-2" x="133.53" y="316.91" width="83.87" height="10.59" rx="2.47"/><rect class="cls-5" x="503.08" y="222.18" width="106.94" height="142.5" rx="4.94"/><path class="cls-6" d="M508,222.18h97.06a4.94,4.94,0,0,1,4.94,4.94v70.24a0,0,0,0,1,0,0H503.08a0,0,0,0,1,0,0V227.12A4.94,4.94,0,0,1,508,222.18Z"/><path class="cls-5" d="M508,222.18h9.74a0,0,0,0,1,0,0v14.69a0,0,0,0,1,0,0H503.08a0,0,0,0,1,0,0v-9.74A4.94,4.94,0,0,1,508,222.18Z"/><text class="cls-7" transform="translate(505.82 233.09)">08</text><rect class="cls-2" x="514.62" y="316.91" width="83.87" height="10.59" rx="2.47"/><rect class="cls-5" x="503.08" y="55.25" width="106.94" height="142.5" rx="4.94"/><path class="cls-6" d="M508,55.25h97.06A4.94,4.94,0,0,1,610,60.19v70.24a0,0,0,0,1,0,0H503.08a0,0,0,0,1,0,0V60.19A4.94,4.94,0,0,1,508,55.25Z"/><path class="cls-5" d="M508,55.25h9.74a0,0,0,0,1,0,0V69.94a0,0,0,0,1,0,0H503.08a0,0,0,0,1,0,0V60.19A4.94,4.94,0,0,1,508,55.25Z"/><text class="cls-7" transform="translate(505.82 66.15)">04</text><rect class="cls-2" x="514.62" y="149.98" width="83.87" height="10.59" rx="2.47"/><rect class="cls-5" x="376.05" y="55.25" width="106.94" height="142.5" rx="4.94"/><path class="cls-6" d="M381,55.25h97.06A4.94,4.94,0,0,1,483,60.19v70.24a0,0,0,0,1,0,0H376.05a0,0,0,0,1,0,0V60.19A4.94,4.94,0,0,1,381,55.25Z"/><path class="cls-5" d="M381,55.25h9.74a0,0,0,0,1,0,0V69.94a0,0,0,0,1,0,0H376.05a0,0,0,0,1,0,0V60.19A4.94,4.94,0,0,1,381,55.25Z"/><text class="cls-7" transform="translate(378.8 66.15)">03</text><rect class="cls-2" x="387.59" y="149.98" width="83.87" height="10.59" rx="2.47"/><rect class="cls-5" x="249.02" y="55.25" width="106.94" height="142.5" rx="4.94"/><path class="cls-6" d="M254,55.25H351A4.94,4.94,0,0,1,356,60.19v70.24a0,0,0,0,1,0,0H249a0,0,0,0,1,0,0V60.19A4.94,4.94,0,0,1,254,55.25Z"/><path class="cls-5" d="M254,55.25h9.74a0,0,0,0,1,0,0V69.94a0,0,0,0,1,0,0H249a0,0,0,0,1,0,0V60.19A4.94,4.94,0,0,1,254,55.25Z"/><text class="cls-7" transform="translate(251.76 66.15)">02</text><rect class="cls-2" x="260.56" y="149.98" width="83.87" height="10.59" rx="2.47"/><rect class="cls-5" x="121.99" y="55.25" width="106.94" height="142.5" rx="4.94"/><path class="cls-6" d="M126.94,55.25H224a4.94,4.94,0,0,1,4.94,4.94v70.24a0,0,0,0,1,0,0H122a0,0,0,0,1,0,0V60.19A4.94,4.94,0,0,1,126.94,55.25Z"/><path class="cls-5" d="M126.94,55.25h9.74a0,0,0,0,1,0,0V69.94a0,0,0,0,1,0,0H122a0,0,0,0,1,0,0V60.19A4.94,4.94,0,0,1,126.94,55.25Z"/><text class="cls-7" transform="translate(124.73 66.15)">01</text><rect class="cls-2" x="133.53" y="149.98" width="83.87" height="10.59" rx="2.47"/><rect class="cls-5" x="249.02" y="222.18" width="106.94" height="142.5" rx="4.94"/><path class="cls-6" d="M254,222.18H351a4.94,4.94,0,0,1,4.94,4.94v70.24a0,0,0,0,1,0,0H249a0,0,0,0,1,0,0V227.12A4.94,4.94,0,0,1,254,222.18Z"/><path class="cls-5" d="M254,222.18h9.74a0,0,0,0,1,0,0v14.69a0,0,0,0,1,0,0H249a0,0,0,0,1,0,0v-9.74A4.94,4.94,0,0,1,254,222.18Z"/><text class="cls-7" transform="translate(251.76 233.09)">06</text><rect class="cls-2" x="260.56" y="316.91" width="83.87" height="10.59" rx="2.47"/><rect class="cls-5" x="376.05" y="222.18" width="106.94" height="142.5" rx="4.94"/><path class="cls-6" d="M381,222.18h97.06a4.94,4.94,0,0,1,4.94,4.94v70.24a0,0,0,0,1,0,0H376.05a0,0,0,0,1,0,0V227.12A4.94,4.94,0,0,1,381,222.18Z"/><path class="cls-5" d="M381,222.18h9.74a0,0,0,0,1,0,0v14.69a0,0,0,0,1,0,0H376.05a0,0,0,0,1,0,0v-9.74A4.94,4.94,0,0,1,381,222.18Z"/><text class="cls-7" transform="translate(378.8 233.09)">07</text><rect class="cls-2" x="387.59" y="316.91" width="83.87" height="10.59" rx="2.47"/><rect class="cls-8" x="503.08" y="55.25" width="106.94" height="142.5" rx="4.94"/><path class="cls-9" d="M67.55,11.55H660.23a9.89,9.89,0,0,1,9.89,9.89V42.49a0,0,0,0,1,0,0H57.66a0,0,0,0,1,0,0V21.44A9.89,9.89,0,0,1,67.55,11.55Z"/><path class="cls-10" d="M769.88,213s8.14,23.07,8.38,30-11.4,18.63-27,9.87-21.7-40.54-21.7-40.54Z"/><path class="cls-11" d="M745.5,156.2s9.75,5.65,18.63,30.63,11.19,31.07,11.19,31.07-15.14,17.25-33.55,14S745.5,156.2,745.5,156.2Z"/><polygon class="cls-10" points="748.73 509.06 750.7 530.12 724.9 530.97 722.67 509.93 748.73 509.06"/><path class="cls-12" d="M712.41,535.35c-8,3.61-8.54,13.37-8.54,13.37h51.38s0-15.12-4.92-24.16c-9.11,2.12-17.85,2.35-26.08,0C724.25,524.56,725.57,529.41,712.41,535.35Z"/><polygon class="cls-13" points="685.58 513.11 684.83 530.64 659.43 530.96 660.16 505 685.58 513.11"/><path class="cls-14" d="M641.64,534.91c-14.13,3-15.34,13.81-15.34,13.81H687a113.47,113.47,0,0,0-1.66-24.16c-9.1,2.12-17.84,2.35-26.07,0C659.27,524.56,655.77,532,641.64,534.91Z"/><path class="cls-15" d="M744.08,288.72s3.5,26.3,0,42.73l11.17,177.61s-16.11,11.72-38.13,3.17l-34.48-229.1Z"/><path class="cls-2" d="M724,292.67s-.66,29.58-13.81,46l-15.94,175s-22.42,6.06-37.59,0l3.49-223.86,9.47-11.19Z"/><path class="cls-13" d="M628.65,205,614,217.83l-18.59-29.2-13.14,8.15s9.6,48,20.78,51.55,27.47-6.35,43.48-17C644.89,221.55,637.47,209.83,628.65,205Z"/><path class="cls-2" d="M674.37,111.32s-6-4.83-4.12-10.64c0,0-3.79-10.88,3.44-8,0,0,2.58-9.47,8.72-10.74,0,0,13.26-10.41,33-5.51s15.56,21.48,15.75,21.81,4.54,3.34,3.91,13.72-6.31,22.3-12.07,31.28l-19.82,2.36-13-10.58Z"/><path class="cls-13" d="M678.42,148.63s6,4,14.79.49h0c.15,0,.3-.12.45-.17l.11,5.18,6,.43,23.35,1.66-.19-13s-10.84,1.31-18.68-1.95S696.37,126,696.37,126s2.8-.63,3.71-5.43-6.61-11.28-8-2.32l-4.35-.15-1.06-6.67s-6.87.55-6-7.2l-5.48-1.91S671,132.67,678.42,148.63Z"/><path class="cls-10" d="M693.23,149.11c.15,0,.3-.12.45-.17l.11,5.18,6,.43c3.17-3.84,2.39-11.44,2.39-11.44Z"/><path class="cls-16" d="M710.77,150.45c5.74-.27,16.17.62,25.1,1.58,9.42,1,15.71,8.95,16.69,18.38,1.6,15.32.94,29.57-4.21,55.88s-3.07,50.38-2.36,59.36-9.8,12.06-28.21,15.56-35.06-3.5-44.7-8.54-12.9-2.85-12.9-2.85-4.63-1,2.16-21.76,1.75-51.21,1.75-51.21l-17.54,17.23c-3.43-6.33-12.65-6.57-18.38-30.93a59.75,59.75,0,0,0,7.32-8.46c7.84-10.86,9.65-18.27,18.41-24.73S678.34,152,710.77,150.45Z"/><path class="cls-13" d="M582.35,196.86s-8-6.91-8.43-13.26,6.61-10.67,8.9-12.83-2.53-15.82-.17-16.88,7.36,15.39,8,16.38,4.05,6.26,4.92,10.34-1.28,4.63-.17,8S582.35,196.86,582.35,196.86Z"/><path class="cls-17" d="M667.06,95c3.26-20.48,21.94-34.52,41.71-31.37s33.17,22.31,29.91,42.79Z"/><rect class="cls-17" x="700.7" y="61.18" width="15.09" height="11.44" transform="matrix(0.99, 0.16, -0.16, 0.99, 19.35, -110.61)"/><polygon class="cls-18" points="695.41 99.47 692.44 99 698.1 63.51 701.2 63.2 695.41 99.47"/><polygon class="cls-18" points="713.38 102.34 710.32 101.85 716.1 65.53 719.04 66.83 713.38 102.34"/><rect class="cls-18" x="666.89" y="97.08" width="72.52" height="3.6" transform="translate(24.32 -109.41) rotate(9.05)"/><rect class="cls-17" x="653.49" y="98.7" width="88.55" height="8.71" transform="translate(24.91 -108.51) rotate(9.05)"/></svg>