<svg xmlns="http://www.w3.org/2000/svg" xmlns:xlink="http://www.w3.org/1999/xlink" viewBox="0 0 864.59 564.81"><defs><style>.cls-1,.cls-23,.cls-24,.cls-5{fill:none;}.cls-2{isolation:isolate;}.cls-3{fill:#f8e9e1;}.cls-4{fill:#1e375a;}.cls-5{stroke:#fff;stroke-width:1.73px;}.cls-23,.cls-24,.cls-5{stroke-miterlimit:10;}.cls-6{fill:#a6bcdc;}.cls-7{fill:#eab5b3;}.cls-8{fill:#88c5ea;}.cls-9{fill:#dd8f8d;}.cls-10{fill:#5489bb;}.cls-11{fill:#d6e4f1;}.cls-12{fill:#172b42;}.cls-13{fill:#80acd3;}.cls-14,.cls-15,.cls-28{fill:#436b96;}.cls-14{mix-blend-mode:multiply;opacity:0.21;}.cls-15{opacity:0.35;}.cls-16{fill:#b5c7e6;}.cls-17{clip-path:url(#clip-path);}.cls-18{fill:#8ea9ca;}.cls-19{clip-path:url(#clip-path-2);}.cls-20{clip-path:url(#clip-path-3);}.cls-21{fill:#f7c5c8;}.cls-22{fill:#f4b3b3;}.cls-23,.cls-24{stroke:#c9d9e7;}.cls-23{stroke-width:1.3px;}.cls-24{stroke-width:0.87px;}.cls-25{fill:#c9d9e7;}.cls-26{fill:#ccc;}.cls-27{fill:#b3b3b3;}</style><clipPath id="clip-path"><path class="cls-1" d="M230.65,498.46s7-13.57,7.46-43.43-6.47-51.72-10.44-51.13-8,62.05-9.45,73.87a104.35,104.35,0,0,0,0,23.31Z"/></clipPath><clipPath id="clip-path-2"><path class="cls-1" d="M194.47,501.15c-3.39-19.55-7-91-.21-120.95s6.11-59.66,9.5-59.44S216.66,384.39,216,454s-4.75,49.62-4.75,49.62Z"/></clipPath><clipPath id="clip-path-3"><path class="cls-1" d="M172.52,501.08s-10.84-38.55.86-127.91c.54-4.09,5.89-13.93,6.62-9.88,4.34,24.13,10.93,63.22,8.13,137.79Z"/></clipPath></defs><g class="cls-2"><g id="Layer_1" data-name="Layer 1"><path class="cls-3" d="M38.31,553.77s-50.74-76.28,0-186.35S216.87,280.94,300.59,159C397.59,17.7,584,40.34,659.67,113.72S705,246.64,776,308.59s98.36,166.55,44.5,247Z"/><rect class="cls-4" x="14.54" y="552.79" width="835.52" height="5.49"/><path class="cls-5" d="M490,157.07H430.43A2.7,2.7,0,0,1,427.8,155l-3.32-13.81a2.7,2.7,0,0,1,2.62-3.33h65.7a2.69,2.69,0,0,1,2.64,3.24l-2.84,13.81A2.7,2.7,0,0,1,490,157.07Z"/><path class="cls-5" d="M568.81,157.07H509.28a2.71,2.71,0,0,1-2.63-2.06l-3.32-13.81a2.7,2.7,0,0,1,2.62-3.33h65.7a2.7,2.7,0,0,1,2.65,3.24l-2.85,13.81A2.69,2.69,0,0,1,568.81,157.07Z"/><path class="cls-5" d="M524.78,176.28H465.24a2.7,2.7,0,0,1-2.62-2.06l-3.33-13.81a2.71,2.71,0,0,1,2.63-3.34h65.7a2.7,2.7,0,0,1,2.64,3.25l-2.84,13.81A2.7,2.7,0,0,1,524.78,176.28Z"/><path class="cls-5" d="M469.37,487.56H528.9a2.7,2.7,0,0,1,2.62,2.07l3.33,13.81a2.7,2.7,0,0,1-2.62,3.33h-65.7a2.7,2.7,0,0,1-2.65-3.24l2.84-13.81A2.71,2.71,0,0,1,469.37,487.56Z"/><path class="cls-5" d="M390.51,487.56h59.54a2.7,2.7,0,0,1,2.62,2.07L456,503.44a2.7,2.7,0,0,1-2.63,3.33h-65.7a2.7,2.7,0,0,1-2.64-3.24l2.84-13.81A2.7,2.7,0,0,1,390.51,487.56Z"/><path class="cls-5" d="M434.55,468.35h59.53a2.71,2.71,0,0,1,2.63,2.07L500,484.23a2.7,2.7,0,0,1-2.62,3.33h-65.7a2.69,2.69,0,0,1-2.64-3.24l2.84-13.81A2.69,2.69,0,0,1,434.55,468.35Z"/><path class="cls-5" d="M143.47,409.84H83.94a2.7,2.7,0,0,1-2.62-2.07L78,394a2.7,2.7,0,0,1,2.63-3.33h65.69a2.7,2.7,0,0,1,2.65,3.24l-2.84,13.81A2.71,2.71,0,0,1,143.47,409.84Z"/><path class="cls-5" d="M178.29,429H118.76a2.71,2.71,0,0,1-2.63-2.06l-3.32-13.81a2.7,2.7,0,0,1,2.62-3.33h65.7a2.69,2.69,0,0,1,2.64,3.24l-2.84,13.81A2.69,2.69,0,0,1,178.29,429Z"/><polygon class="cls-6" points="560.3 551.82 551.4 551.82 560.6 418.65 572.87 418.65 560.3 551.82"/><polygon class="cls-7" points="598.46 517.93 600.19 536.45 577.51 537.19 575.55 518.71 598.46 517.93"/><path class="cls-8" d="M566.53,541.05c-6,1.13-7.51,11.74-7.51,11.74h45.16s0-13.28-4.32-21.23c-8,1.87-15.69,2.06-22.92,0C576.94,531.56,579,538.69,566.53,541.05Z"/><polygon class="cls-9" points="523.68 525.83 520.79 537.19 498.83 537.19 501.34 518.71 523.68 525.83"/><path class="cls-10" d="M483.81,540.66c-12.42,2.6-13.48,12.13-13.48,12.13h53.35a99.09,99.09,0,0,0-1.46-21.23c-8,1.87-15.68,2.06-22.92,0C499.3,531.56,496.23,538.06,483.81,540.66Z"/><polygon class="cls-6" points="701.69 551.82 710.6 551.82 699.94 418.65 687.67 418.65 701.69 551.82"/><polygon class="cls-6" points="647.15 551.82 656.05 551.82 651.41 418.65 639.13 418.65 647.15 551.82"/><path class="cls-11" d="M543.2,432.75H668.07a50,50,0,0,0,48.76-39l22.21-99a14.83,14.83,0,0,0-14.46-18.06H693.39S668,373.39,667.85,375.55s-116,34.82-116,34.82L547,422.93Z"/><path class="cls-6" d="M547,422.93H662.29a50,50,0,0,0,48.76-39l22.2-99a15.08,15.08,0,0,0,.25-5.25,14.66,14.66,0,0,0-8.92-3H693.39S668,373.39,667.85,375.55s-116,34.82-116,34.82Z"/><path class="cls-4" d="M666.79,207.46s3.48-11.69,1.06-18.05-6.75-6.5-6.75-6.5,1.3-8.66-10.69-12.13-21.38,0-28.46,5.05a16.77,16.77,0,0,1-14.44,2.46s-.15,6.93,6.5,9.1c0,0-7.51-1.59-10.4,4.77,0,0,5.34-1.59,9.82,3.75,0,0,.43,11.56,7.51,14S654.16,216,654.16,216h9.54Z"/><path class="cls-9" d="M587.11,302.12l-13,32.75-37.92,5.8v17.07h50.36c9.62,0,23-43.53,23-43.53Z"/><path class="cls-12" d="M592.1,376.18l-45.36,4.69a34.27,34.27,0,0,0-30.36,29L499.56,522c8.77,5.38,14.38,6.58,26.64,3.62a4.61,4.61,0,0,0,3.39-3.42l22.15-95a4.67,4.67,0,0,1,3.11-3.4l95.8-6.91,3.59-41.27Z"/><path class="cls-13" d="M612.92,320.09a229.48,229.48,0,0,1-.47,37.66h85.4s3.06-38.45,1.68-61c-.13-2.14-.31-4.11-.52-5.91-2.53-20.83,5.48-21.48,5.48-21.48s-7.07-14.17-21.51-17c-5.61-1.08-10.07-2.22-13.42-3.19a68.11,68.11,0,0,1-7.91-2.72l-31.85,3.43s-1.43.26-3.62.91c-4.39,1.26-15.22,4.44-20.38,9.47-7.7,7.52-17.79,38.27-21.85,44,0,0,3.83,1.73,11.17,8.56S612.92,320.09,612.92,320.09Z"/><path class="cls-14" d="M612.45,357.75h85.4s3.06-38.45,1.68-61l-23.08-7.88s-12.61,31.52-25.32,35.91-25.42,3.24-29.67-2.72-11-49-11-49-.91,32.1,2.43,47A229.48,229.48,0,0,1,612.45,357.75Z"/><path class="cls-14" d="M643.83,273.91c13.66-2.31,24.15-20.72,25.72-24.68a69.18,69.18,0,0,1-7.9-2.73l-31.85,3.43s-1.43.27-3.61.9C622.06,264.73,626.39,276.85,643.83,273.91Z"/><path class="cls-7" d="M637.22,266.58C649.67,269.7,665,248.1,665,248.1l-3.35-1.58a86.43,86.43,0,0,1-1.43-19.15v0c.13-4.85.52-8.17.52-8.17s-26,12.71-26.41,21.11c0,0,0,0,0,0a3.65,3.65,0,0,0,.15,1.14.35.35,0,0,1,0,.1,8.46,8.46,0,0,1,.34,4.86c-1,3.47-5,3.52-5,3.52S624.75,263.47,637.22,266.58Z"/><path class="cls-9" d="M634.33,240.28s0,0,0,0c.09.55.13,1,.15,1.14a.35.35,0,0,1,0,.1,8.46,8.46,0,0,1,.34,4.86c.55,3,2,6.47,5.51,7.86,5.82,2.27,17.31-8.48,19.87-26.91v0c.13-4.85.52-8.17.52-8.17S634.71,231.88,634.33,240.28Z"/><path class="cls-7" d="M620.18,196.15s-2.52,26.71,5.39,41.49a7.69,7.69,0,0,0,7.31,4.05c8.11-.55,24.48-3.9,27.68-21.83,0,0,7.23,1.1,7.29-8,0-8.68-9-8.55-8.71,0l-6.11.79-1.31-7s-6-2.94-5.15-12c0,0-12.57,5.12-25.84,2.5"/><path class="cls-13" d="M672.49,315.26a4.61,4.61,0,0,1-2-3.8,16.15,16.15,0,0,1,1.06-5.15c2-5.56,9-40.75,19.82-44.65s17.78,12.44,16.5,31.41-3.37,29.47-5.3,30.7S689.73,327.36,672.49,315.26Z"/><path class="cls-15" d="M679,311.35s14.82,1.37,22.93,10.43c0,0-3.23,1.82-14.7-1.24-12.77-3.42-13.85-9.6-13.85-9.6Z"/><path class="cls-7" d="M699.1,319.1c-.32-.74-9.9-7.87-25.71-8.16L666,330.52,608.49,342s-20.62-2-23.82-1.51-15.69,14.05-13.2,15.18,6.82-2.8,6.82-2.8-3.88,4-1.38,4.53,8.34-4.66,8.34-4.66-3.75,3.57-2,4.25,9.32-4.39,9.32-4.39,2.52,1,5.51,2.24c2.17.91,3.68.95,6.41.95,6.5,0,9.48-.12,9.48-.12s50.42,2.88,65.79-1.19S699.1,319.1,699.1,319.1Z"/><polygon class="cls-6" points="752.26 552.79 762.4 552.79 752.03 362.89 741.89 362.89 752.26 552.79"/><polygon class="cls-6" points="803.57 552.79 813.72 552.79 793.2 362.89 783.06 362.89 803.57 552.79"/><polygon class="cls-6" points="448.62 552.79 438.48 552.79 448.85 362.89 458.99 362.89 448.62 552.79"/><polygon class="cls-16" points="393.88 552.79 383.74 552.79 404.25 362.89 414.39 362.89 393.88 552.79"/><rect class="cls-6" x="399.06" y="367.14" width="398.24" height="8.41"/><path class="cls-4" d="M572.87,521.79l-7.51-103.14a33.37,33.37,0,0,1,25.47-32l45.49-11.09H697.6V385A38.24,38.24,0,0,1,680.18,417a28.48,28.48,0,0,1-14.46,4.43l-54.29,2.11-5.88,96.83a5.36,5.36,0,0,1-3.13,4.6C592,529.64,578,529.42,572.87,521.79Z"/><rect class="cls-16" x="396.06" y="355.76" width="408.24" height="12.11"/><polygon class="cls-16" points="396.06 367.14 396.06 367.87 399.06 367.87 399.06 375.55 736.43 375.55 736.43 367.14 396.06 367.14"/><rect class="cls-11" x="396.06" y="355.76" width="347.37" height="12.11"/><path class="cls-6" d="M607.35,351.92H578.47v3.84h33.8l-1.46-2.06A4.24,4.24,0,0,0,607.35,351.92Z"/><path class="cls-4" d="M479.17,299.81H558.4a3.82,3.82,0,0,1,3.65,2.31l19,52.49a.92.92,0,0,1-1,1.15H502.21a5.64,5.64,0,0,1-5.41-3.43L478.19,301A.92.92,0,0,1,479.17,299.81Z"/><ellipse class="cls-11" cx="526.83" cy="329.67" rx="3.99" ry="6.38" transform="matrix(0.84, -0.54, 0.54, 0.84, -94.58, 338.53)"/><g class="cls-17"><path class="cls-6" d="M230.65,498.46s7-13.57,7.46-43.43-6.47-51.72-10.44-51.13-8,62.05-9.45,73.87a104.35,104.35,0,0,0,0,23.31Z"/><path class="cls-18" d="M227.67,403.9s5.5,10.75,3.69,45.18-3.69,47.34-3.69,47.34l8.82-3.18s12.07-76.08,5.43-87.2S227.67,403.9,227.67,403.9Z"/></g><g class="cls-19"><path class="cls-6" d="M195.11,500.5c-3.4-19.55-7.64-90.32-.85-120.3s6.11-59.66,9.5-59.44S216.66,384.39,216,454s-4.75,49.62-4.75,49.62Z"/><path class="cls-18" d="M203.76,320.76c1.05,10.83,1.37,55.68,0,68s-2.57,39.11-2.27,60.45,3.18,54.37,3.18,54.37L219,506.23s6.49-149.94-1.43-167.16S203.76,320.76,203.76,320.76Z"/></g><g class="cls-20"><path class="cls-6" d="M172.52,501.08s-10.84-38.55.86-127.91c.54-4.09,5.89-13.93,6.62-9.88,4.34,24.13,10.93,63.22,8.13,137.79Z"/><path class="cls-18" d="M180,363.29c-2.94,10.07-1.43,43.89-.22,77s.22,60.74.22,60.74l15.16-1.31S196,362.2,188.8,358.26,180,363.29,180,363.29Z"/></g><path class="cls-21" d="M222,552.79H179.89a4.82,4.82,0,0,1-4.94-4.13L170,505h61.95l-5,43.63A4.82,4.82,0,0,1,222,552.79Z"/><rect class="cls-21" x="167.54" y="497.69" width="66.79" height="7.34" rx="2"/><polygon class="cls-22" points="169.96 505.03 171.4 517.61 231.46 509.03 231.91 505.03 169.96 505.03"/><rect class="cls-4" x="103.81" y="35.77" width="395.82" height="245.13" rx="2.16"/><path class="cls-23" d="M155.07,119.07l58.45-8.64,7.3-3.65h6.64l87.68-18.27,55.13,114.58,13.29,50.48S259.68,272.5,180,255.89Z"/><polygon class="cls-23" points="161.04 129.86 165.19 152.77 208.04 145.63 203.88 122.39 179.7 126.61 161.04 129.86"/><path class="cls-23" d="M180,126.54l-.59-3.88A4.17,4.17,0,0,1,183,117.9l1.69-.24a4.17,4.17,0,0,1,4.59,3h0l17.52-3,5.9,29.76-29.06,5-.42-2.59"/><polyline class="cls-23" points="190.44 124.73 189.99 122.94 205.38 120.39 209.95 145.3 207.64 145.7"/><path class="cls-23" d="M210,147.85l1.85,5.9a3.12,3.12,0,0,0,3.77,2.09h0a3.12,3.12,0,0,0,2.22-3.83l-2.39-8.92L282.58,122"/><path class="cls-23" d="M277.71,123.66l2.77,8.41a2.52,2.52,0,0,0,3.17,1.61h0a2.52,2.52,0,0,0,1.62-3.16l-6.11-19.31,37.73-10.83L321,111.43l4.49-1.52"/><line class="cls-23" x1="220.17" y1="141.59" x2="223.04" y2="150.62"/><line class="cls-23" x1="225" y1="140.06" x2="227.86" y2="149.09"/><line class="cls-23" x1="229.82" y1="138.53" x2="232.68" y2="147.56"/><line class="cls-23" x1="234.64" y1="137" x2="237.5" y2="146.03"/><line class="cls-23" x1="239.46" y1="135.48" x2="242.32" y2="144.5"/><line class="cls-23" x1="244.28" y1="133.95" x2="247.14" y2="142.97"/><line class="cls-23" x1="249.1" y1="132.42" x2="251.96" y2="141.44"/><line class="cls-23" x1="253.92" y1="130.89" x2="256.79" y2="139.92"/><line class="cls-23" x1="258.74" y1="129.36" x2="261.61" y2="138.39"/><line class="cls-23" x1="263.57" y1="127.83" x2="266.43" y2="136.86"/><line class="cls-23" x1="268.39" y1="126.3" x2="271.25" y2="135.33"/><line class="cls-23" x1="273.21" y1="124.77" x2="276.07" y2="133.8"/><line class="cls-23" x1="188.79" y1="151.47" x2="189.99" y2="161.35"/><line class="cls-23" x1="205.52" y1="148.61" x2="206.76" y2="158.14"/><line class="cls-23" x1="194.25" y1="150.62" x2="195.62" y2="160.74"/><line class="cls-23" x1="199.97" y1="149.56" x2="201.23" y2="159.83"/><polyline class="cls-23" points="169.04 195.84 215.18 188.14 309.49 158.14 306.84 146.1 331.58 138.98 337.74 135.47"/><polyline class="cls-23" points="215.18 188.14 225 218.53 213.14 260.71"/><polyline class="cls-23" points="331.58 138.98 335.23 151.28 343.55 147.56"/><polyline class="cls-23" points="336.72 150.62 345.2 179.34 356.78 175.05"/><polyline class="cls-23" points="350.72 177.3 358.98 206.24 326.27 215.71 320.62 199.1 302.66 203.59 299.95 193.21 225 218.53"/><line class="cls-23" x1="326.27" y1="215.71" x2="331.08" y2="258.77"/><path class="cls-23" d="M322.35,260.2s-3.89-13.94,8.18-15.15l1.77,10.18,59.12-16-3.1-10.74,10.73-3.32-26.9-95.76-24.35,7.2,1.33,4.09L341.37,143"/><polyline class="cls-23" points="315.14 88.51 329.09 84.86 358.98 72.57 408.69 248.92 383.56 253.57"/><path class="cls-23" d="M169,152.13l2,14.09-3.77.56L171,187.26l9.74-2,.55,2.9-9.41,2.33,15.39,55.79,19.93-4.2,16.38,7.19,11.73-1.11,3.1,2.77,13.73-3.65-1-3.7a2.35,2.35,0,0,1,1.63-2.92h0a2.36,2.36,0,0,1,2.87,1.47l3.16,8.8,21.42-6.81L278,231.32s13.78-4.32,19.34,2.41,5.16,27.78,5.16,27.78"/><line class="cls-23" x1="168.26" y1="172.31" x2="176.93" y2="170.49"/><line class="cls-23" x1="169.21" y1="177.51" x2="178.15" y2="175.61"/><line class="cls-23" x1="170.08" y1="182.21" x2="178.87" y2="180.45"/><line class="cls-23" x1="174.47" y1="199.82" x2="183.41" y2="197.78"/><line class="cls-23" x1="175.75" y1="204.46" x2="184.68" y2="202.39"/><line class="cls-23" x1="177.03" y1="209.1" x2="185.96" y2="207"/><line class="cls-23" x1="178.31" y1="213.73" x2="187.24" y2="211.61"/><line class="cls-23" x1="179.59" y1="218.37" x2="188.52" y2="216.23"/><line class="cls-23" x1="180.87" y1="223.01" x2="189.8" y2="220.84"/><line class="cls-23" x1="182.14" y1="227.64" x2="191.08" y2="225.45"/><line class="cls-23" x1="183.42" y1="232.28" x2="192.36" y2="230.06"/><line class="cls-23" x1="184.7" y1="236.91" x2="193.64" y2="234.68"/><line class="cls-23" x1="185.98" y1="241.55" x2="194.92" y2="239.29"/><polyline class="cls-24" points="224.29 221.04 260.68 209.36 261.13 210.85 223.73 223.04"/><polyline class="cls-24" points="300.99 197.19 264.62 208.78 264.95 210.19 301.41 198.79"/><line class="cls-23" x1="228.78" y1="221.39" x2="232.32" y2="231.77"/><line class="cls-23" x1="232.55" y1="220.16" x2="236.08" y2="230.56"/><line class="cls-23" x1="236.32" y1="218.94" x2="239.84" y2="229.34"/><line class="cls-23" x1="240.09" y1="217.71" x2="243.6" y2="228.13"/><line class="cls-23" x1="243.86" y1="216.48" x2="247.36" y2="226.91"/><line class="cls-23" x1="247.64" y1="215.25" x2="251.12" y2="225.7"/><line class="cls-23" x1="251.41" y1="214.02" x2="254.88" y2="224.48"/><line class="cls-23" x1="255.18" y1="212.79" x2="258.64" y2="223.26"/><line class="cls-23" x1="268.46" y1="209.09" x2="271.72" y2="219.25"/><line class="cls-23" x1="271.78" y1="208.05" x2="275" y2="218.2"/><line class="cls-23" x1="275.1" y1="207.01" x2="278.28" y2="217.16"/><line class="cls-23" x1="278.42" y1="205.98" x2="281.56" y2="216.11"/><line class="cls-23" x1="281.75" y1="204.94" x2="284.84" y2="215.07"/><line class="cls-23" x1="285.07" y1="203.9" x2="288.12" y2="214.02"/><line class="cls-23" x1="261.13" y1="239.29" x2="263.74" y2="249.33"/><line class="cls-23" x1="266.9" y1="237.63" x2="269.31" y2="247.56"/><line class="cls-23" x1="272.13" y1="235.88" x2="274.46" y2="245.93"/><line class="cls-23" x1="331.35" y1="214.24" x2="334.07" y2="226.83"/><line class="cls-23" x1="337.22" y1="212.54" x2="339.55" y2="225.51"/><line class="cls-23" x1="341.77" y1="211.22" x2="344.45" y2="223.68"/><line class="cls-23" x1="346.92" y1="209.73" x2="349.76" y2="221.85"/><polyline class="cls-23" points="326.69 219.44 363.13 208.57 353.63 176.22"/><line class="cls-23" x1="339.05" y1="253.4" x2="336.81" y2="242.53"/><line class="cls-23" x1="344.32" y1="251.96" x2="342.03" y2="241.09"/><line class="cls-23" x1="349.6" y1="250.53" x2="347.25" y2="239.65"/><line class="cls-23" x1="354.87" y1="249.1" x2="352.46" y2="238.21"/><line class="cls-23" x1="360.14" y1="247.67" x2="357.68" y2="236.77"/><line class="cls-23" x1="365.41" y1="246.24" x2="362.9" y2="235.33"/><line class="cls-23" x1="370.68" y1="244.81" x2="368.11" y2="233.89"/><rect class="cls-25" x="257.42" y="184.24" width="34.07" height="2.57" transform="translate(-42.29 88.47) rotate(-17.02)"/><rect class="cls-25" x="172.68" y="137.1" width="25.31" height="2.57" transform="translate(-17.71 27.61) rotate(-8.13)"/><rect class="cls-26" x="103.81" y="35.77" width="395.82" height="30.56"/><rect class="cls-26" x="431.69" y="89.65" width="56.01" height="150.67"/><rect class="cls-27" x="437.72" y="96.43" width="43.95" height="8.32"/><rect class="cls-27" x="437.72" y="110.69" width="43.95" height="8.32"/><rect class="cls-27" x="437.72" y="124.94" width="43.95" height="8.32"/><rect class="cls-27" x="437.72" y="139.2" width="43.95" height="8.32"/><rect class="cls-27" x="437.72" y="153.46" width="43.95" height="8.32"/><rect class="cls-27" x="437.72" y="167.72" width="43.95" height="8.32"/><rect class="cls-27" x="437.72" y="181.97" width="43.95" height="8.32"/><rect class="cls-27" x="437.72" y="196.23" width="43.95" height="8.32"/><rect class="cls-27" x="437.72" y="210.49" width="43.95" height="8.32"/><rect class="cls-27" x="437.72" y="224.75" width="43.95" height="8.32"/><rect class="cls-27" x="103.81" y="26.94" width="395.82" height="8.84"/><path class="cls-28" d="M495,26.94a4.63,4.63,0,0,1,4.63,4.63V276.36A4.63,4.63,0,0,1,495,281H108.45a4.64,4.64,0,0,1-4.64-4.64V31.57a4.63,4.63,0,0,1,4.64-4.63H495m0-7H108.45A11.6,11.6,0,0,0,96.86,31.57V276.36A11.6,11.6,0,0,0,108.45,288H495a11.6,11.6,0,0,0,11.59-11.59V31.57A11.6,11.6,0,0,0,495,20Z"/></g></g></svg>