<svg id="Layer_1" data-name="Layer 1" xmlns="http://www.w3.org/2000/svg" viewBox="0 0 864.59 609.35"><defs><style>.cls-1{fill:#f8e9e1;}.cls-2{fill:#eff4f8;}.cls-3{fill:#97adca;}.cls-4{fill:#fff;stroke:#16345d;stroke-width:1.85px;}.cls-4,.cls-8{stroke-miterlimit:10;}.cls-5{fill:#c9d9e7;}.cls-6{fill:#16345d;}.cls-7{fill:#1e375a;}.cls-8{fill:none;stroke:#fff;stroke-width:1.73px;}.cls-9{fill:#dd8f8d;}.cls-10{fill:#688fbc;}.cls-11,.cls-13{fill:#d6e4f1;}.cls-12{fill:#a6bcdc;}.cls-13{opacity:0.5;}.cls-14{fill:#8faaca;}.cls-15{fill:#5489bb;}.cls-16{fill:#eab5b3;}.cls-17{fill:#88c5ea;}.cls-18{fill:#172b42;}.cls-19{fill:#80acd3;}.cls-20{fill:#8ea9ca;}.cls-21{fill:#2f547e;}.cls-22{fill:#ffd261;}.cls-23{fill:#fdbe57;}</style></defs><path class="cls-1" d="M35.49,593.13s-50.74-76.28,0-186.35S214.05,320.3,297.77,198.35c97-141.29,283.36-118.65,359.08-45.27S702.13,286,773.16,348s98.36,166.55,44.5,247Z"/><rect class="cls-2" x="254.09" y="23.49" width="545.1" height="344.14" rx="9.89"/><rect class="cls-3" x="254.09" y="42.25" width="545.1" height="38.44"/><rect class="cls-4" x="316.47" y="122.72" width="420.34" height="39.04" rx="4.94"/><rect class="cls-5" x="325.6" y="133.96" width="115.08" height="16.57"/><rect class="cls-4" x="316.47" y="177.85" width="420.34" height="39.04" rx="4.94"/><rect class="cls-4" x="316.47" y="232.99" width="420.34" height="39.04" rx="4.94"/><rect class="cls-5" x="325.6" y="244.22" width="115.08" height="16.57"/><rect class="cls-5" x="325.6" y="189" width="162.65" height="16.57"/><rect class="cls-6" x="464.51" y="293.64" width="124.25" height="38.63" rx="4.94"/><rect class="cls-7" x="11.72" y="593.64" width="835.52" height="5.49"/><path class="cls-8" d="M592.2,400.58H532.67a2.7,2.7,0,0,1-2.63-2.06l-3.32-13.81a2.7,2.7,0,0,1,2.62-3.33H595a2.69,2.69,0,0,1,2.64,3.24l-2.84,13.81A2.7,2.7,0,0,1,592.2,400.58Z"/><path class="cls-8" d="M671.05,400.58H611.52a2.69,2.69,0,0,1-2.62-2.06l-3.33-13.81a2.7,2.7,0,0,1,2.62-3.33h65.7a2.7,2.7,0,0,1,2.65,3.24l-2.84,13.81A2.71,2.71,0,0,1,671.05,400.58Z"/><path class="cls-8" d="M627,419.79H567.48a2.7,2.7,0,0,1-2.62-2.06l-3.32-13.82a2.7,2.7,0,0,1,2.62-3.33h65.7a2.7,2.7,0,0,1,2.64,3.25l-2.84,13.81A2.7,2.7,0,0,1,627,419.79Z"/><path class="cls-8" d="M461.81,531.55h59.53a2.71,2.71,0,0,1,2.63,2.07l3.32,13.81a2.7,2.7,0,0,1-2.62,3.33H459a2.69,2.69,0,0,1-2.64-3.24l2.84-13.81A2.7,2.7,0,0,1,461.81,531.55Z"/><path class="cls-8" d="M383,531.55h59.53a2.72,2.72,0,0,1,2.63,2.07l3.32,13.81a2.7,2.7,0,0,1-2.62,3.33h-65.7a2.7,2.7,0,0,1-2.65-3.24l2.84-13.81A2.71,2.71,0,0,1,383,531.55Z"/><path class="cls-8" d="M427,512.34h59.54a2.7,2.7,0,0,1,2.62,2.07l3.33,13.81a2.7,2.7,0,0,1-2.63,3.33h-65.7a2.69,2.69,0,0,1-2.64-3.24l2.84-13.81A2.71,2.71,0,0,1,427,512.34Z"/><path class="cls-8" d="M125.46,479.71H65.93a2.7,2.7,0,0,1-2.63-2.07L60,463.83a2.7,2.7,0,0,1,2.62-3.33h65.7a2.7,2.7,0,0,1,2.64,3.25l-2.84,13.81A2.69,2.69,0,0,1,125.46,479.71Z"/><path class="cls-8" d="M160.28,498.92H100.74a2.69,2.69,0,0,1-2.62-2.07L94.8,483a2.69,2.69,0,0,1,2.62-3.33h65.7a2.69,2.69,0,0,1,2.64,3.24l-2.84,13.82A2.7,2.7,0,0,1,160.28,498.92Z"/><path class="cls-9" d="M110.2,269.48s-7.86,22.28-8.1,28.93,11,18,26,9.52,20.94-39.14,20.94-39.14Z"/><path class="cls-10" d="M133.74,214.68s-9.42,5.45-18,29.57-10.81,30-10.81,30,14.62,16.65,32.39,13.48S133.74,214.68,133.74,214.68Z"/><path class="cls-11" d="M357.84,142.27l-12.63,17-14.27,19.19-15.87,3.68L305,168l9-14.36,21.59-6.6h0l21.08-6.44A1.08,1.08,0,0,1,357.84,142.27Z"/><path class="cls-11" d="M104.56,359.26,63.68,391.91c-17.81,12-44.88-28.29-27.07-40.25l40-28.58C80.53,320.06,108.47,356.24,104.56,359.26Z"/><path class="cls-12" d="M330.94,178.46,111.62,353.63l-7.06,5.63c3.91-3-24-39.2-27.94-36.18L84,317.82l.3-.21L314,153.64l-2.56,9,13.73.8-2.27,12.86Z"/><polygon class="cls-13" points="311.41 162.66 93.6 326.21 107.77 344.6 322.87 176.34 325.14 163.47 311.41 162.66"/><path class="cls-14" d="M111.62,353.63l-7.06,5.63c3.91-3-24-39.2-27.94-36.18L84,317.82l.3-.21C92.11,313.06,118.9,348,111.62,353.63Z"/><path class="cls-12" d="M357.84,142.27l-12.63,17c1.77-11.9-9.07-12.22-9.63-12.23l21.08-6.44A1.08,1.08,0,0,1,357.84,142.27Z"/><polygon class="cls-9" points="130.61 555.35 128.71 575.69 153.62 576.51 155.77 556.2 130.61 555.35"/><path class="cls-15" d="M165.68,580.74c7.72,3.49,8.25,12.9,8.25,12.9H124.32s0-14.59,4.75-23.32c8.79,2,17.23,2.27,25.18,0C154.25,570.32,153,575,165.68,580.74Z"/><polygon class="cls-16" points="191.59 559.27 192.31 576.19 216.82 576.5 216.13 551.44 191.59 559.27"/><path class="cls-17" d="M234,580.32c13.65,2.85,14.81,13.32,14.81,13.32h-58.6a109.44,109.44,0,0,1,1.6-23.32c8.79,2,17.23,2.27,25.17,0C217,570.32,220.36,577.46,234,580.32Z"/><path class="cls-18" d="M135.11,342.63s-3.39,25.38,0,41.25L124.32,555.35s15.55,11.32,36.81,3.07l33.29-221.19Z"/><path class="cls-7" d="M154.46,346.43s.64,28.56,13.33,44.43l15.39,169s21.65,5.84,36.29,0L216.1,343.68,207,332.88Z"/><path class="cls-16" d="M246.55,254.19l14.12,12.38,27.39-41,12.7,7.87S282,292.56,271.24,296s-26.52-6.12-42-16.35C230.87,270.17,238,258.85,246.55,254.19Z"/><path class="cls-7" d="M202.41,171.35s5.8-4.66,4-10.27c0,0,2.8-3.78,6-3.09,0,0-2.37-7.41-9.35-4.66,0,0-2.49-9.15-8.42-10.37,0,0-12.8-10.05-31.83-5.32s-15,20.74-15.2,21.06-4.39,3.22-3.78,13.24,6.09,21.53,11.65,30.2l19.14,2.28L187.2,194.2Z"/><path class="cls-16" d="M198.49,207.37s-5.8,3.85-14.28.48l0,0a2.41,2.41,0,0,1-.42-.16l-.11,5-5.82.4-22.55,1.61.18-12.56s10.47,1.27,18-1.88,7.66-14.73,7.66-14.73-2.71-.6-3.58-5.23,6.37-10.9,7.69-2.25l4.2-.14,1-6.45s6.64.54,5.8-6.94l5.29-1.85S205.7,192,198.49,207.37Z"/><path class="cls-9" d="M184.19,207.83a2.41,2.41,0,0,1-.42-.16l-.11,5-5.82.4c-3.07-3.7-2.32-11-2.32-11Z"/><path class="cls-19" d="M167.26,209.13c-5.54-.26-15.61.6-24.23,1.52-9.09,1-15.17,8.65-16.11,17.75-1.54,14.79-.91,28.55,4.06,54s3,48.64,2.27,57.31,9.47,11.64,27.24,15,33.85-3.39,43.16-8.26,12.45-2.75,12.45-2.75,4.48-1-2.08-21-1.69-49.43-1.69-49.43l20.52,13.69c3.31-6.1,12.21-6.34,17.74-29.85,0,0-2.77-3.63-7.06-8.17-9-9.52-12.9-14.71-21.37-20.95S198.57,210.61,167.26,209.13Z"/><path class="cls-16" d="M288.06,225.59s-5.5-6.2-5.07-12.65,0-14,2.52-14.6,3.56,9.2,3.56,9.2l1.36,3.28L310.27,195s0,8.5-3.17,15.33c-3.5,7.55-6.34,23.16-6.34,23.16l-11-2.85Z"/><path class="cls-20" d="M713.06,479.71s-16.16-21.83-10.59-50.09-4.71-30.83,2.14-48,19.27-17.61,23.12-33.21,31.1-28.33,52.24-21.11c0,0-18.31,8.42-18.36,30.09s.14,24.66-12.81,40.07-7.69,24-11.17,47.11S723.66,472,713.06,479.71Z"/><path class="cls-7" d="M711.48,507.35c-.31-14-.15-28,.81-41.92A291.8,291.8,0,0,1,718,423.9a200,200,0,0,1,12.83-39.84,160.07,160.07,0,0,1,21.77-35.61,160.11,160.11,0,0,0-20.95,36,199.34,199.34,0,0,0-11.89,39.84A289.77,289.77,0,0,0,715,465.59c-.65,13.86-.52,27.76.09,41.64Z"/><path class="cls-12" d="M807.53,419.62l-.06,0c-16.65-4.91-28.24,17.94-40.92,22.22S756.82,455,752.61,466.2c-4.05,10.71-20.32,29.43-21.7,31a.64.64,0,0,0-.09.11s-6.87-11.2-4.27-30.38,11.59-28.38,19.05-41.34,15.33-16.85,31.64-17.19C793.13,408.11,807.53,419.62,807.53,419.62Z"/><path class="cls-7" d="M728.87,507.35a179.27,179.27,0,0,1,2.23-27.45q1.08-6.79,2.77-13.47A108.48,108.48,0,0,1,738,453.31a83.61,83.61,0,0,1,6-12.38,53.64,53.64,0,0,1,8.57-10.76A36.86,36.86,0,0,1,764,422.59a40.91,40.91,0,0,1,13.28-3,40.78,40.78,0,0,0-13.1,3.38,36.4,36.4,0,0,0-10.93,7.82,52.29,52.29,0,0,0-8,10.79,80.8,80.8,0,0,0-5.48,12.33,106.32,106.32,0,0,0-3.64,13q-1.45,6.6-2.28,13.33a176.5,176.5,0,0,0-1.31,27Z"/><path class="cls-11" d="M693.74,474.92a.38.38,0,0,1-.1-.09c-1.58-1.09-22.31-15.84-28.76-28.07-6.73-12.7-11-19.68-21.18-27.14s-16.93-23.17-19.93-42.35c-2.27-14.52-5.24-18.34-6.54-19.3a1.42,1.42,0,0,0-.67-.36s.42,0,1.21-.08h0c7.47-.36,46-1,56.27,23.24,11.46,26.9,19.43,23.4,22.91,46.08S693.74,474.92,693.74,474.92Z"/><path class="cls-7" d="M695.2,507.32c-.08-5.12-.41-10.35-.85-15.52s-1-10.35-1.75-15.51a243.34,243.34,0,0,0-6.28-30.57,158.6,158.6,0,0,0-11-29.19,105.8,105.8,0,0,0-8-13.42,85.81,85.81,0,0,0-10.16-11.88,86.06,86.06,0,0,1,10.53,11.62,105.87,105.87,0,0,1,8.43,13.27,160.07,160.07,0,0,1,11.94,29.1,243.34,243.34,0,0,1,7.22,30.66q1.34,7.77,2.22,15.61c.59,5.23,1.08,10.44,1.31,15.77Z"/><path class="cls-21" d="M731.37,594.24H695c-3.67.27-10.27-31.89-13.52-57.17a1.1,1.1,0,0,0,0-.27c-2.06-16.1-2.73-29.35-.38-29.52h64.75C752.56,507.89,738.12,594.85,731.37,594.24Z"/><path class="cls-22" d="M209.73,153.47C206.47,133,187.79,119,168,122.1s-33.17,22.31-29.91,42.79Z"/><rect class="cls-22" x="161" y="119.7" width="15.09" height="11.44" transform="matrix(-0.99, 0.16, -0.16, -0.99, 354.73, 222.76)"/><polygon class="cls-23" points="181.38 157.99 184.35 157.52 178.69 122.03 175.6 121.72 181.38 157.99"/><polygon class="cls-23" points="163.41 160.86 166.47 160.37 160.69 124.06 157.75 125.35 163.41 160.86"/><rect class="cls-23" x="137.38" y="155.6" width="72.52" height="3.6" transform="translate(369.89 285.52) rotate(170.95)"/><rect class="cls-22" x="134.75" y="157.22" width="88.55" height="8.71" transform="translate(381.24 292.96) rotate(170.95)"/></svg>