<svg xmlns="http://www.w3.org/2000/svg" viewBox="0 0 864.59 564.81"><defs><style>.cls-1{isolation:isolate;}.cls-2{fill:#f8e9e1;}.cls-3{fill:#1e375a;}.cls-13,.cls-14,.cls-23,.cls-4,.cls-7,.cls-8,.cls-9{fill:none;}.cls-4{stroke:#fff;stroke-width:1.73px;}.cls-13,.cls-22,.cls-23,.cls-4,.cls-7,.cls-8,.cls-9{stroke-miterlimit:10;}.cls-12,.cls-5{fill:#c9d9e7;}.cls-6{fill:#f6f8f9;}.cls-7,.cls-8,.cls-9{stroke:#274a78;}.cls-7{stroke-width:2.17px;}.cls-8{stroke-width:1.01px;}.cls-9{stroke-width:0.67px;}.cls-10{fill:#274a78;}.cls-11{fill:#d6e4f1;}.cls-12,.cls-21{mix-blend-mode:multiply;}.cls-12{opacity:0.51;}.cls-13{stroke:#a6bcdc;stroke-width:1.99px;}.cls-14{stroke:#88c5ea;stroke-linejoin:round;stroke-width:4.98px;}.cls-15{fill:#dd8f8d;}.cls-16{fill:#88c5ea;}.cls-17{fill:#eab5b3;}.cls-18{fill:#5489bb;}.cls-19{fill:#172b42;}.cls-20{fill:#80acd3;}.cls-21{fill:#436b96;opacity:0.21;}.cls-22{fill:#fff;stroke-width:0.65px;}.cls-22,.cls-23{stroke:#d4e8f4;}.cls-23{stroke-width:1.31px;}.cls-24{fill:#ffd261;}.cls-25{fill:#fdbe57;}</style></defs><g class="cls-1"><g id="Layer_1" data-name="Layer 1"><path class="cls-2" d="M40.54,547.29s-50.74-76.28,0-186.35S219.1,274.46,302.82,152.51c97-141.29,283.36-118.65,359.08-45.27s45.28,132.92,116.31,194.87,98.36,166.54,44.5,246.95Z"/><rect class="cls-3" x="16.77" y="548.15" width="835.52" height="5.49"/><path class="cls-4" d="M489.62,327.92H430.09a2.7,2.7,0,0,1-2.63-2.06l-3.32-13.81a2.7,2.7,0,0,1,2.62-3.33h65.7A2.69,2.69,0,0,1,495.1,312l-2.84,13.81A2.7,2.7,0,0,1,489.62,327.92Z"/><path class="cls-4" d="M568.47,327.92H508.94a2.69,2.69,0,0,1-2.62-2.06L503,312.05a2.7,2.7,0,0,1,2.62-3.33h65.7A2.7,2.7,0,0,1,574,312l-2.84,13.81A2.71,2.71,0,0,1,568.47,327.92Z"/><path class="cls-4" d="M524.44,347.13H464.9a2.7,2.7,0,0,1-2.62-2.06L459,331.25a2.7,2.7,0,0,1,2.62-3.33h65.7a2.7,2.7,0,0,1,2.64,3.25L527.08,345A2.7,2.7,0,0,1,524.44,347.13Z"/><path class="cls-4" d="M683.15,484.19h59.53a2.7,2.7,0,0,1,2.62,2.07l3.33,13.81A2.7,2.7,0,0,1,746,503.4H680.31a2.7,2.7,0,0,1-2.65-3.24l2.84-13.81A2.7,2.7,0,0,1,683.15,484.19Z"/><path class="cls-4" d="M604.29,484.19h59.54a2.7,2.7,0,0,1,2.62,2.07l3.32,13.81a2.69,2.69,0,0,1-2.62,3.33h-65.7a2.69,2.69,0,0,1-2.64-3.24l2.84-13.81A2.7,2.7,0,0,1,604.29,484.19Z"/><path class="cls-4" d="M648.33,465h59.53a2.7,2.7,0,0,1,2.62,2.07l3.33,13.81a2.7,2.7,0,0,1-2.62,3.33h-65.7a2.7,2.7,0,0,1-2.65-3.24l2.84-13.81A2.71,2.71,0,0,1,648.33,465Z"/><path class="cls-4" d="M162.14,416.07H102.6A2.7,2.7,0,0,1,100,414l-3.33-13.81a2.7,2.7,0,0,1,2.63-3.33H165a2.7,2.7,0,0,1,2.64,3.24l-2.84,13.81A2.7,2.7,0,0,1,162.14,416.07Z"/><path class="cls-4" d="M197,435.28H137.42a2.7,2.7,0,0,1-2.62-2.07l-3.33-13.81a2.7,2.7,0,0,1,2.63-3.33h65.69a2.7,2.7,0,0,1,2.65,3.24l-2.84,13.81A2.71,2.71,0,0,1,197,435.28Z"/><polygon class="cls-5" points="488.04 11.17 340.26 127.48 340.26 288.58 635.81 288.58 635.81 127.48 488.04 11.17"/><rect class="cls-6" x="391.06" y="27.58" width="198.25" height="221.79"/><rect class="cls-7" x="402.06" y="37.81" width="175.75" height="212.1"/><path class="cls-8" d="M533.18,49.39l6.7,45.36,2.84,5.67v5.15l14.17,68L468,216.39l-39.17,10.3s-14.69-96.12-1.8-158Z"/><polygon class="cls-8" points="524.81 54.03 507.03 57.25 512.57 90.5 530.61 87.28 527.33 68.5 524.81 54.03"/><path class="cls-8" d="M527.38,68.77l3-.46a3.24,3.24,0,0,1,3.69,2.75l.18,1.32A3.24,3.24,0,0,1,532,75.94h0l2.35,13.59-23.1,4.57-3.86-22.55,2-.32"/><polyline class="cls-8" points="528.79 76.84 530.18 76.49 532.15 88.44 512.83 91.98 512.51 90.19"/><path class="cls-8" d="M510.85,92l-4.58,1.43a2.42,2.42,0,0,0-1.62,2.93h0a2.42,2.42,0,0,0,3,1.73l6.92-1.86,16.36,52.13"/><path class="cls-8" d="M529.62,144.56l-6.53,2.15a2,2,0,0,0-1.24,2.46h0a2,2,0,0,0,2.44,1.26l15-4.74,8.4,29.27-8.57,3.16,1.18,3.47"/><line class="cls-8" x1="515.7" y1="99.91" x2="508.7" y2="102.14"/><line class="cls-8" x1="516.89" y1="103.66" x2="509.89" y2="105.88"/><line class="cls-8" x1="518.08" y1="107.4" x2="511.07" y2="109.62"/><line class="cls-8" x1="519.26" y1="111.14" x2="512.26" y2="113.36"/><line class="cls-8" x1="520.45" y1="114.88" x2="513.45" y2="117.1"/><line class="cls-8" x1="521.64" y1="118.62" x2="514.63" y2="120.84"/><line class="cls-8" x1="522.82" y1="122.36" x2="515.82" y2="124.58"/><line class="cls-8" x1="524.01" y1="126.1" x2="517" y2="128.32"/><line class="cls-8" x1="525.19" y1="129.84" x2="518.19" y2="132.06"/><line class="cls-8" x1="526.38" y1="133.58" x2="519.38" y2="135.81"/><line class="cls-8" x1="527.57" y1="137.33" x2="520.56" y2="139.55"/><line class="cls-8" x1="528.75" y1="141.07" x2="521.75" y2="143.29"/><line class="cls-8" x1="508.03" y1="75.56" x2="500.37" y2="76.49"/><line class="cls-8" x1="510.26" y1="88.55" x2="502.86" y2="89.51"/><line class="cls-8" x1="508.7" y1="79.8" x2="500.84" y2="80.86"/><line class="cls-8" x1="509.52" y1="84.24" x2="501.55" y2="85.21"/><polyline class="cls-8" points="473.61 60.24 479.58 96.04 502.86 169.22 512.2 167.16 517.73 186.36 520.45 191.14"/><polyline class="cls-8" points="479.58 96.04 456 103.66 423.27 94.45"/><polyline class="cls-8" points="517.73 186.36 508.19 189.2 511.07 195.65"/><polyline class="cls-8" points="508.7 190.35 486.41 196.93 489.74 205.92"/><polyline class="cls-8" points="488 201.21 465.54 207.62 458.19 182.24 471.08 177.86 467.6 163.92 475.65 161.82 456 103.66"/><line class="cls-8" x1="458.19" y1="182.24" x2="424.77" y2="185.98"/><path class="cls-8" d="M423.66,179.2s10.82-3,11.77,6.35l-7.91,1.37L440,232.79l8.33-2.4,2.58,8.33,74.3-20.87L519.61,199l-3.18,1-1.84-6"/><polyline class="cls-8" points="556.89 173.61 559.73 184.43 569.26 207.62 432.42 246.19 428.81 226.69"/><path class="cls-8" d="M507.52,60.24l-10.93,1.52-.43-2.92-15.89,2.92,1.57,7.56-2.26.43-1.8-7.3-43.3,11.94,3.27,15.46-5.59,12.72.86,9.1-2.15,2.41,2.84,10.65,2.87-.81a1.84,1.84,0,0,1,2.27,1.26h0a1.84,1.84,0,0,1-1.15,2.23l-6.83,2.45,5.29,16.62,9.92-1.74s3.35,10.7-1.87,15-21.56,4-21.56,4"/><line class="cls-8" x1="491.87" y1="59.63" x2="493.28" y2="66.36"/><line class="cls-8" x1="487.83" y1="60.37" x2="489.3" y2="67.3"/><line class="cls-8" x1="484.19" y1="61.04" x2="485.55" y2="67.86"/><line class="cls-8" x1="470.52" y1="64.45" x2="472.11" y2="71.38"/><line class="cls-8" x1="466.92" y1="65.44" x2="468.53" y2="72.38"/><line class="cls-8" x1="463.32" y1="66.44" x2="464.95" y2="73.37"/><line class="cls-8" x1="459.72" y1="67.43" x2="461.37" y2="74.36"/><line class="cls-8" x1="456.13" y1="68.42" x2="457.79" y2="75.35"/><line class="cls-8" x1="452.53" y1="69.41" x2="454.21" y2="76.35"/><line class="cls-8" x1="448.93" y1="70.4" x2="450.63" y2="77.34"/><line class="cls-8" x1="445.33" y1="71.4" x2="447.05" y2="78.33"/><line class="cls-8" x1="441.74" y1="72.39" x2="443.47" y2="79.32"/><line class="cls-8" x1="438.14" y1="73.38" x2="439.89" y2="80.32"/><polyline class="cls-9" points="454.05 103.11 463.12 131.34 461.96 131.7 452.5 102.67"/><polyline class="cls-9" points="472.56 162.63 463.57 134.4 462.48 134.66 471.32 162.95"/><line class="cls-8" x1="453.78" y1="106.59" x2="445.72" y2="109.34"/><line class="cls-8" x1="454.73" y1="109.52" x2="446.67" y2="112.26"/><line class="cls-8" x1="455.69" y1="112.44" x2="447.61" y2="115.18"/><line class="cls-8" x1="456.64" y1="115.37" x2="448.55" y2="118.09"/><line class="cls-8" x1="457.59" y1="118.3" x2="449.5" y2="121.01"/><line class="cls-8" x1="458.55" y1="121.22" x2="450.44" y2="123.93"/><line class="cls-8" x1="459.5" y1="124.15" x2="451.38" y2="126.85"/><line class="cls-8" x1="460.45" y1="127.08" x2="452.33" y2="129.76"/><line class="cls-8" x1="463.33" y1="137.38" x2="455.44" y2="139.91"/><line class="cls-8" x1="464.13" y1="139.96" x2="456.25" y2="142.46"/><line class="cls-8" x1="464.94" y1="142.54" x2="457.07" y2="145"/><line class="cls-8" x1="465.74" y1="145.12" x2="457.88" y2="147.55"/><line class="cls-8" x1="466.55" y1="147.69" x2="458.69" y2="150.09"/><line class="cls-8" x1="467.35" y1="150.27" x2="459.5" y2="152.64"/><line class="cls-8" x1="439.89" y1="131.7" x2="432.1" y2="133.72"/><line class="cls-8" x1="441.18" y1="136.17" x2="433.47" y2="138.04"/><line class="cls-8" x1="442.54" y1="140.23" x2="434.74" y2="142.04"/><line class="cls-8" x1="459.33" y1="186.18" x2="449.56" y2="188.3"/><line class="cls-8" x1="460.65" y1="190.74" x2="450.59" y2="192.55"/><line class="cls-8" x1="461.67" y1="194.27" x2="452.01" y2="196.35"/><line class="cls-8" x1="462.83" y1="198.26" x2="453.42" y2="200.47"/><polyline class="cls-8" points="455.29 182.56 463.73 210.84 488.83 203.47"/><line class="cls-8" x1="428.95" y1="192.16" x2="437.38" y2="190.42"/><line class="cls-8" x1="430.06" y1="196.25" x2="438.5" y2="194.47"/><line class="cls-8" x1="431.17" y1="200.34" x2="439.61" y2="198.52"/><line class="cls-8" x1="432.28" y1="204.43" x2="440.73" y2="202.57"/><line class="cls-8" x1="433.39" y1="208.52" x2="441.85" y2="206.61"/><line class="cls-8" x1="434.5" y1="212.61" x2="442.96" y2="210.66"/><line class="cls-8" x1="435.61" y1="216.7" x2="444.08" y2="214.71"/><rect class="cls-10" x="468.39" y="141.04" width="26.44" height="2" transform="translate(476.45 -360.06) rotate(72.98)"/><rect class="cls-10" x="508.37" y="71.88" width="19.64" height="2" transform="translate(517.02 -450.41) rotate(81.87)"/><polygon class="cls-11" points="520.04 197.46 635.81 288.58 635.81 127.48 520.04 197.46"/><polygon class="cls-11" points="340.26 127.48 340.26 288.58 456.03 197.46 340.26 127.48"/><polygon class="cls-5" points="488.04 216.81 456.03 197.46 340.26 288.58 635.81 288.58 520.04 197.46 488.04 216.81"/><path class="cls-12" d="M500.59,164.34H635.81a0,0,0,0,1,0,0V288.12a0,0,0,0,1,0,0H495.64a0,0,0,0,1,0,0V169.29A4.94,4.94,0,0,1,500.59,164.34Z"/><rect class="cls-6" x="503.89" y="172.6" width="189.03" height="262.2" rx="4.94"/><circle class="cls-5" cx="529.26" cy="205.78" r="5.25"/><rect class="cls-5" x="542.21" y="202.16" width="91.33" height="7.23"/><rect class="cls-13" x="648.63" y="192.6" width="25.1" height="25.1" rx="2.75"/><polyline class="cls-14" points="652.42 202.16 661.18 209.39 679.53 187.33"/><circle class="cls-5" cx="529.26" cy="244.77" r="5.25"/><rect class="cls-5" x="542.21" y="241.16" width="91.33" height="7.23"/><rect class="cls-13" x="648.63" y="231.6" width="25.1" height="25.1" rx="2.75"/><polyline class="cls-14" points="652.42 241.16 661.18 248.38 679.53 226.33"/><circle class="cls-5" cx="529.26" cy="284.58" r="5.25"/><rect class="cls-5" x="542.21" y="280.97" width="91.33" height="7.23"/><rect class="cls-13" x="648.63" y="271.4" width="25.1" height="25.1" rx="2.75"/><polyline class="cls-14" points="652.42 280.97 661.18 288.19 679.53 266.14"/><circle class="cls-5" cx="529.26" cy="324.39" r="5.25"/><rect class="cls-5" x="542.21" y="320.77" width="91.33" height="7.23"/><rect class="cls-13" x="648.63" y="311.21" width="25.1" height="25.1" rx="2.75"/><polyline class="cls-14" points="652.42 320.77 661.18 328 679.53 305.94"/><circle class="cls-5" cx="529.26" cy="364.2" r="5.25"/><rect class="cls-5" x="542.21" y="360.58" width="91.33" height="7.23"/><rect class="cls-13" x="648.63" y="351.02" width="25.1" height="25.1" rx="2.75"/><polyline class="cls-14" points="652.42 360.58 661.18 367.81 679.53 345.75"/><circle class="cls-5" cx="529.26" cy="404" r="5.25"/><rect class="cls-5" x="542.21" y="400.39" width="91.33" height="7.23"/><rect class="cls-13" x="648.63" y="390.83" width="25.1" height="25.1" rx="2.75"/><polyline class="cls-14" points="652.42 400.39 661.18 407.62 679.53 385.56"/><polygon class="cls-15" points="202.33 511.91 200.53 531.16 224.1 531.93 226.14 512.71 202.33 511.91"/><path class="cls-16" d="M235.52,535.94c7.31,3.3,7.81,12.21,7.81,12.21h-47s0-13.82,4.5-22.08c8.32,1.94,16.31,2.15,23.83,0C224.7,526.07,223.49,530.51,235.52,535.94Z"/><polygon class="cls-17" points="270.96 510.3 274.37 531.63 297.87 531.92 294.19 505.79 270.96 510.3"/><path class="cls-18" d="M313.34,535.54c12.91,2.7,14,12.61,14,12.61H271.88a103.22,103.22,0,0,1,1.52-22.08c8.32,1.94,16.3,2.15,23.83,0C297.23,526.07,300.42,532.83,313.34,535.54Z"/><path class="cls-19" d="M224.32,314.15s.6,27,12.61,42.06l29,159.92s20.48,5.54,34.34,0L283.38,305.44,274,301.33Z"/><path class="cls-3" d="M206,310.55s-3.2,24,0,39.05l-6.65,162.31s14.72,10.71,34.85,2.9l27.95-209.37Z"/><path class="cls-15" d="M306.56,237.06,313,253.2l32.29-22.83,7.65,14.2s-36.86,36.35-48.15,34.61c-8.09-1.24-21.9-32.68-21.9-32.68Z"/><path class="cls-20" d="M201,223.91c0,.27.05,2.8.21,6.81v0c.82,19.86,3.61,76,3.61,76,4.79-1.49,29.86,8.33,51.63,8,9.41-.16,18.19-2.23,24.46-8,4.72-9.56-3.07-13.6.22-55.62a34.9,34.9,0,0,0,7.84-1.57,26.66,26.66,0,0,0,9.74-5.34c6.9-6.3,10.49-7.89,10.49-7.89C305.4,231,297.44,201,290.2,194c-4.85-4.63-15-7.06-19.09-8.23-2.06-.59-5,.38-5,.38l-30-3.15a66.06,66.06,0,0,1-7.44,2.49c-3.17.91-7.36,2-12.62,3-13.59,2.56-20.23,15.63-20.23,15.63S203.38,204.7,201,223.91Z"/><path class="cls-3" d="M234.33,145.31s-3.29-11.06-1-17.07,6.39-6.15,6.39-6.15-1.23-8.2,10.11-11.47,20.22,0,26.91,4.78,7.52,10.93,7.52,10.93,4.78,3,.54,8.06c0,0-.41,10.93-7.1,13.25s-31.42,5.74-31.42,5.74h-9Z"/><path class="cls-21" d="M204.07,231.16v0c.83,20.38,3.62,78,3.62,78,4.82-1.53,30,8.55,51.93,8.16l-3.77-2.6c-19.82-13.61-32-35.85-35.54-62.5l-1.25-38-14.2,15.21Z"/><path class="cls-21" d="M256.05,208.15c-12.92-2.18-22.85-19.59-24.34-23.34a64.54,64.54,0,0,0,7.47-2.58l30.13,3.25s1.35.25,3.42.85C276.63,199.47,272.53,210.93,256.05,208.15Z"/><path class="cls-17" d="M262.29,201.23C250.52,204.17,236,183.75,236,183.75l3.18-1.5a81.56,81.56,0,0,0,1.35-18.11v0c-.13-4.58-.49-7.73-.49-7.73s24.62,12,25,20c0,0,0,0,0,0a3,3,0,0,1-.14,1.07.62.62,0,0,0,0,.09,7.89,7.89,0,0,0-.32,4.6c.93,3.28,4.76,3.33,4.76,3.33S274.08,198.28,262.29,201.23Z"/><path class="cls-15" d="M265,176.34s0,0,0,0c-.08.52-.12.92-.14,1.07a.62.62,0,0,0,0,.09,7.89,7.89,0,0,0-.32,4.6c-.53,2.82-1.87,6.12-5.22,7.44-5.5,2.15-16.37-8-18.79-25.45v0c-.13-4.58-.49-7.73-.49-7.73S264.67,168.4,265,176.34Z"/><path class="cls-17" d="M278.41,134.61s2.38,25.26-5.1,39.24a7.25,7.25,0,0,1-6.92,3.83c-7.67-.52-23.15-3.69-26.18-20.64,0,0-6.83,1-6.89-7.56,0-8.21,8.49-8.09,8.24,0l5.78.75,1.23-6.66s5.66-2.78,4.88-11.35c0,0,11.89,4.84,24.43,2.36"/><path class="cls-20" d="M210.26,245.75a4.31,4.31,0,0,0,3.35-2.24,14.73,14.73,0,0,0,1.5-4.73c.91-5.52,11.38-37.8,4.21-46s-20.41,2.07-28.1,18.33-10.8,25.9-9.77,27.8S190.44,247.8,210.26,245.75Z"/><path class="cls-21" d="M182.92,237.58s1.84,3,12.72,5.74a27.55,27.55,0,0,0,9.53.94c4.68-.45,6.32-2.49,6.32-2.49l-4.83-2.26h0C206.06,239.25,193.54,233.9,182.92,237.58Z"/><path class="cls-21" d="M281.12,251a16.1,16.1,0,0,0,4.81-1.36,218.66,218.66,0,0,0-4.8-39.11C283,226.9,281.12,251,281.12,251Z"/><path class="cls-15" d="M345.27,230.37s2.39-6.77,5.26-10.16,8.6-7.82,9.64-7.69.13,4.83-1.43,6.65-3,7.17-3,7.17,7.56-2.87,11.6-7.3,6.13-6.47,7.56-6.34.48,4.34.48,4.34,2.48-4.78,4-2.56c1.45,2.05-1.26,9.78-1.26,9.78s1.57-4.39,2.65-4.7.92,3.22-.26,6.82a24.64,24.64,0,0,1-5.43,8.61c-1.65,1.74-9.6,6.6-15.64,7.82s-6.56,1.76-6.56,1.76Z"/><path class="cls-17" d="M174.82,274.29c0,7.3,30,35.31,30,35.31s4.82,12.8,9.22,16,9.78,7.85,11.57,6.74-.73-4.22-1-4.53c.36.34,4.88,4.76,6.73,3.71s-1.93-5.51-1.93-5.51,3.31,2.48,4.54,1.65-.54-3-3.3-6.6-8.57-15.6-8.57-15.6a12.63,12.63,0,0,1,5.12-.8c1.52,0,3,.48,4.54.29,2-.24,1.59-3.81-5.74-5.6-4.51-1.1-11.66-.72-11.66-.72h0l-16.13-28.07,6-26.66,1.48-4.69-.07.17c-.56-.24-12.45-5.32-22.53-1.83C183.13,237.51,174.81,265.28,174.82,274.29Z"/><path class="cls-22" d="M311,201.57l-29.53-17.32s-22.13,41.35-33.74,61.14c-17.34,29.56-44,71.36-44,71.36-2,3.33,3.08,9.9,11.23,14.68s16.35,6,18.3,2.64c0,0,27.25-48.93,40.28-71.14S311,201.57,311,201.57Z"/><ellipse class="cls-11" cx="296.22" cy="192.91" rx="6.99" ry="17.11" transform="translate(-20.05 350.82) rotate(-59.61)"/><path class="cls-23" d="M310,202.56c-3,2.46-10.93,4.11-19.08-.67L215,331.43"/><ellipse class="cls-5" cx="296.11" cy="192.84" rx="4.19" ry="10.26" transform="translate(-20.04 350.69) rotate(-59.61)"/><path class="cls-22" d="M309.72,230.82l-25-23.37S254,243,238.38,259.72c-23.39,25-58.54,60-58.54,60-2.63,2.82.84,10.33,7.74,16.78s14.64,9.4,17.28,6.58c0,0,37.31-41.77,54.88-60.58S309.72,230.82,309.72,230.82Z"/><ellipse class="cls-11" cx="297.21" cy="219.14" rx="6.99" ry="17.11" transform="translate(-65.81 286.74) rotate(-46.95)"/><path class="cls-23" d="M309.09,230.83c-3.08,2.33-12.08,2.37-19-4.09L187.58,336.49"/><ellipse class="cls-5" cx="297.11" cy="219.05" rx="4.19" ry="10.26" transform="translate(-65.78 286.64) rotate(-46.95)"/><path class="cls-17" d="M175,274.25c0,7.3,30,35.3,30,35.3s4.82,12.81,9.22,16,9.78,7.85,11.57,6.73-.73-4.21-1-4.52c.36.34,4.88,4.76,6.74,3.71s-1.94-5.52-1.94-5.52,3.31,2.49,4.54,1.65-.54-3-3.3-6.59-8.57-15.61-8.57-15.61a12.84,12.84,0,0,1,5.12-.8c1.52,0,3,.49,4.54.3,2-.24,1.59-3.81-5.74-5.6-4.51-1.1-11.66-.73-11.66-.73h0l-16.13-28.07,6-26.65,1.41-4.53h0c-.56-.23-12.45-5.31-22.53-1.82C183.27,237.47,175,265.24,175,274.25Z"/><path class="cls-24" d="M290.2,127.17c-2.83-17.74-19-29.9-36.13-27.17s-28.71,19.32-25.89,37.05Z"/><rect class="cls-24" x="248" y="97.92" width="13.07" height="9.91" transform="translate(522.08 164.43) rotate(170.95)"/><polygon class="cls-25" points="265.64 131.08 268.22 130.67 263.32 99.94 260.64 99.67 265.64 131.08"/><polygon class="cls-25" points="250.08 133.56 252.74 133.13 247.73 101.69 245.19 102.82 250.08 133.56"/><rect class="cls-25" x="227.55" y="129.01" width="62.79" height="3.11" transform="translate(535.21 218.76) rotate(170.95)"/><rect class="cls-24" x="225.27" y="130.41" width="76.67" height="7.55" transform="translate(545.04 225.21) rotate(170.95)"/></g></g></svg>