<svg xmlns="http://www.w3.org/2000/svg" xmlns:xlink="http://www.w3.org/1999/xlink" viewBox="0 0 864.59 564.81"><defs><style>.cls-1,.cls-20,.cls-36,.cls-37,.cls-5{fill:none;}.cls-2{isolation:isolate;}.cls-3{fill:#f8e9e1;}.cls-4{fill:#1e375a;}.cls-5{stroke:#fff;stroke-width:1.73px;}.cls-20,.cls-36,.cls-5{stroke-miterlimit:10;}.cls-6{fill:#dd8f8d;}.cls-7{fill:#88c5ea;}.cls-8{fill:#eab5b3;}.cls-9{fill:#5489bb;}.cls-10{fill:#172b42;}.cls-11{fill:#80acd3;}.cls-12,.cls-34{fill:#436b96;}.cls-12{mix-blend-mode:multiply;opacity:0.21;}.cls-13{fill:#ffd261;}.cls-14{fill:#fdbe57;}.cls-15{fill:#f9fcff;}.cls-16{fill:#c9d9e7;}.cls-17{fill:#f3f3f3;}.cls-18{fill:#e7e2b5;}.cls-19{fill:#d75846;}.cls-20{stroke:#ccc;stroke-width:1.01px;}.cls-21{fill:#a6bcdc;}.cls-22{fill:#b5c7e6;}.cls-23{fill:#d6e4f1;}.cls-24{fill:#f8fcff;}.cls-25{fill:#edf4f9;}.cls-26{fill:#042c46;}.cls-27{clip-path:url(#clip-path);}.cls-28{fill:#fff;}.cls-29{fill:#d4e8f7;}.cls-30{fill:#f78588;}.cls-31{fill:#f4d777;}.cls-32{fill:#80abd0;}.cls-33{clip-path:url(#clip-path-2);}.cls-34{opacity:0.35;}.cls-35{fill:#eff4f8;}.cls-36{stroke:#a6bcdc;stroke-width:0.96px;}.cls-37{stroke:#88c5ea;stroke-linejoin:round;stroke-width:2.4px;}.cls-38{clip-path:url(#clip-path-3);}.cls-39{fill:#b2d392;}.cls-40{fill:#9cc284;}.cls-41{clip-path:url(#clip-path-4);}.cls-42{clip-path:url(#clip-path-5);}.cls-43{fill:#f7c5c8;}.cls-44{fill:#f4b3b3;}</style><clipPath id="clip-path"><rect class="cls-1" x="475.68" y="167.58" width="219.71" height="120.3" rx="1.13"/></clipPath><clipPath id="clip-path-2"><rect class="cls-1" x="569.61" y="179.91" width="116.98" height="107.97"/></clipPath><clipPath id="clip-path-3"><path class="cls-1" d="M759.29,321s3.84-6.29,4.11-20.13-3.56-24-5.75-23.72-4.39,28.78-5.21,34.26a40.84,40.84,0,0,0,0,10.81Z"/></clipPath><clipPath id="clip-path-4"><path class="cls-1" d="M739.23,320.18c-1.87-10-3.75-44.71,0-60.05s3.37-30.53,5.24-30.42,7.11,32.57,6.73,68.17-2.62,25.4-2.62,25.4Z"/></clipPath><clipPath id="clip-path-5"><path class="cls-1" d="M727.24,322.24s-6-19.53.47-64.79c.3-2.08,3.25-7.06,3.66-5,2.39,12.22,6,32,4.48,69.8Z"/></clipPath></defs><g class="cls-2"><g id="Layer_1" data-name="Layer 1"><path class="cls-3" d="M38.31,553.77s-50.74-76.28,0-186.35S216.87,280.94,300.59,159C397.59,17.7,584,40.34,659.67,113.72S705,246.64,776,308.59s98.36,166.55,44.5,247Z"/><rect class="cls-4" x="14.54" y="552.79" width="835.52" height="5.49"/><path class="cls-5" d="M490,157.07H430.43A2.7,2.7,0,0,1,427.8,155l-3.32-13.81a2.7,2.7,0,0,1,2.62-3.33h65.7a2.69,2.69,0,0,1,2.64,3.24l-2.84,13.81A2.7,2.7,0,0,1,490,157.07Z"/><path class="cls-5" d="M568.81,157.07H509.28a2.71,2.71,0,0,1-2.63-2.06l-3.32-13.81a2.7,2.7,0,0,1,2.62-3.33h65.7a2.7,2.7,0,0,1,2.65,3.24l-2.85,13.81A2.69,2.69,0,0,1,568.81,157.07Z"/><path class="cls-5" d="M524.78,176.28H465.24a2.7,2.7,0,0,1-2.62-2.06l-3.33-13.81a2.71,2.71,0,0,1,2.63-3.34h65.7a2.7,2.7,0,0,1,2.64,3.25l-2.84,13.81A2.7,2.7,0,0,1,524.78,176.28Z"/><path class="cls-5" d="M641.84,469.54h59.53A2.7,2.7,0,0,1,704,471.6l3.32,13.82a2.7,2.7,0,0,1-2.62,3.33H639a2.7,2.7,0,0,1-2.64-3.25l2.84-13.81A2.7,2.7,0,0,1,641.84,469.54Z"/><path class="cls-5" d="M563,469.54h59.53a2.69,2.69,0,0,1,2.62,2.06l3.33,13.82a2.7,2.7,0,0,1-2.62,3.33h-65.7a2.71,2.71,0,0,1-2.65-3.25l2.84-13.81A2.71,2.71,0,0,1,563,469.54Z"/><path class="cls-5" d="M607,450.33h59.54a2.7,2.7,0,0,1,2.62,2.06l3.32,13.82a2.7,2.7,0,0,1-2.62,3.33h-65.7a2.7,2.7,0,0,1-2.64-3.25l2.84-13.81A2.7,2.7,0,0,1,607,450.33Z"/><path class="cls-5" d="M143.47,409.84H83.94a2.7,2.7,0,0,1-2.62-2.07L78,394a2.7,2.7,0,0,1,2.63-3.33h65.69a2.7,2.7,0,0,1,2.65,3.24l-2.84,13.81A2.71,2.71,0,0,1,143.47,409.84Z"/><path class="cls-5" d="M178.29,429H118.76a2.71,2.71,0,0,1-2.63-2.06l-3.32-13.81a2.7,2.7,0,0,1,2.62-3.33h65.7a2.69,2.69,0,0,1,2.64,3.24l-2.84,13.81A2.69,2.69,0,0,1,178.29,429Z"/><polygon class="cls-6" points="169.95 516.55 168.15 535.8 191.72 536.57 193.76 517.35 169.95 516.55"/><path class="cls-7" d="M203.14,540.58c7.31,3.3,7.81,12.21,7.81,12.21H164s0-13.81,4.5-22.08c8.32,1.95,16.31,2.15,23.83,0C192.32,530.71,191.11,535.15,203.14,540.58Z"/><polygon class="cls-8" points="238.58 514.94 241.99 536.28 265.49 536.57 261.81 510.44 238.58 514.94"/><path class="cls-9" d="M281,540.18c12.91,2.7,14,12.61,14,12.61H239.5A103.22,103.22,0,0,1,241,530.71c8.32,1.95,16.3,2.15,23.83,0C264.85,530.71,268,537.48,281,540.18Z"/><path class="cls-10" d="M191.94,318.8s.6,27,12.61,42.05l29,159.93s20.48,5.53,34.34,0L251,310.09,241.63,306Z"/><path class="cls-4" d="M173.61,315.19s-3.2,24,0,39.05L167,516.55s14.71,10.71,34.84,2.9l27.95-209.36Z"/><path class="cls-6" d="M274.18,241.71l6.42,16.13L312.89,235l7.65,14.2s-36.86,36.35-48.15,34.61c-8.09-1.24-21.9-32.67-21.9-32.67Z"/><path class="cls-11" d="M168.63,228.55c0,.28.05,2.81.21,6.82h0c.82,19.87,3.61,76,3.61,76,4.79-1.49,29.86,8.33,51.63,8,9.41-.17,18.19-2.24,24.46-8,4.72-9.56-3.07-13.6.22-55.61a35.2,35.2,0,0,0,7.84-1.58,26.51,26.51,0,0,0,9.74-5.34c6.9-6.29,10.49-7.89,10.49-7.89-3.81-5.32-11.77-35.39-19-42.33-4.85-4.63-15-7.06-19.09-8.23-2.06-.59-5,.38-5,.38l-29.95-3.15a64.4,64.4,0,0,1-7.44,2.5c-3.17.9-7.36,2-12.62,3-13.59,2.57-20.23,15.63-20.23,15.63S171,209.34,168.63,228.55Z"/><path class="cls-4" d="M202,150s-3.29-11.06-1-17.07,6.38-6.15,6.38-6.15-1.23-8.19,10.11-11.47,20.22,0,26.91,4.78S251.87,131,251.87,131s4.78,3,.54,8.06c0,0-.41,10.93-7.1,13.25S213.89,158,213.89,158h-9Z"/><path class="cls-12" d="M169.16,235.81h0c.82,20.38,3.62,78,3.62,78,4.82-1.53,30,8.55,51.93,8.16l-3.78-2.59c-19.82-13.62-32-35.85-35.54-62.51l-1.24-38L170,234.09S169.66,234.69,169.16,235.81Z"/><path class="cls-12" d="M223.67,212.79c-12.92-2.17-22.85-19.59-24.34-23.34a64.54,64.54,0,0,0,7.47-2.58l30.13,3.25s1.35.25,3.42.85C244.25,204.11,240.15,215.58,223.67,212.79Z"/><path class="cls-8" d="M229.91,205.87c-11.77,2.94-26.27-17.48-26.27-17.48l3.17-1.5a81.56,81.56,0,0,0,1.35-18.11v0c-.12-4.58-.49-7.72-.49-7.72s24.62,12,25,20c0,0,0,0,0,0a3.06,3.06,0,0,1-.14,1.08.62.62,0,0,0,0,.09,7.89,7.89,0,0,0-.32,4.6c.93,3.28,4.76,3.32,4.76,3.32S241.7,202.93,229.91,205.87Z"/><path class="cls-6" d="M232.64,181s0,0,0,0c-.07.52-.12.92-.14,1.08a.62.62,0,0,0,0,.09,7.89,7.89,0,0,0-.32,4.6c-.52,2.82-1.87,6.11-5.22,7.43-5.5,2.15-16.37-8-18.79-25.45v0c-.12-4.58-.49-7.72-.49-7.72S232.29,173.05,232.64,181Z"/><path class="cls-8" d="M246,139.25s2.38,25.26-5.1,39.25a7.29,7.29,0,0,1-6.92,3.83c-7.67-.52-23.15-3.7-26.18-20.65,0,0-6.83,1-6.88-7.56-.06-8.21,8.48-8.09,8.23,0l5.78.74,1.23-6.66s5.66-2.78,4.88-11.35c0,0,11.89,4.85,24.43,2.36"/><path class="cls-11" d="M177.88,250.39a4.33,4.33,0,0,0,3.36-2.23,15.18,15.18,0,0,0,1.49-4.74c.91-5.51,11.38-37.79,4.21-46s-20.41,2.08-28.1,18.33-10.8,25.9-9.77,27.8S158.06,252.45,177.88,250.39Z"/><path class="cls-12" d="M150.54,242.22s1.84,3,12.72,5.74a27.6,27.6,0,0,0,9.53.95c4.68-.46,6.33-2.49,6.33-2.49l-4.83-2.26,0,0C173.68,243.9,161.16,238.55,150.54,242.22Z"/><path class="cls-12" d="M248.75,255.65a16,16,0,0,0,4.8-1.37,220.19,220.19,0,0,0-4.79-39.1C250.6,231.54,248.75,255.65,248.75,255.65Z"/><path class="cls-6" d="M312.89,235s2.39-6.76,5.26-10.15,8.6-7.82,9.64-7.69.13,4.82-1.43,6.64-3,7.17-3,7.17,7.56-2.86,11.6-7.3,6.13-6.47,7.56-6.34.48,4.35.48,4.35,2.48-4.78,4-2.57c1.45,2-1.26,9.78-1.26,9.78s1.57-4.39,2.65-4.69.92,3.21-.26,6.82a24.68,24.68,0,0,1-5.43,8.6c-1.65,1.74-9.6,6.61-15.64,7.82s-6.56,1.76-6.56,1.76Z"/><path class="cls-8" d="M142.44,278.93c0,7.3,30,35.31,30,35.31s4.81,12.8,9.21,16,9.78,7.84,11.57,6.73-.73-4.22-1-4.52c.36.33,4.88,4.75,6.74,3.7s-1.93-5.51-1.93-5.51,3.3,2.48,4.54,1.65-.55-3-3.31-6.59-8.57-15.61-8.57-15.61a12.84,12.84,0,0,1,5.12-.8c1.52,0,3,.48,4.55.29,2-.24,1.58-3.8-5.75-5.6-4.51-1.1-11.66-.72-11.66-.72h0L165.9,275.16l6-26.66,1.48-4.69-.07.17c-.56-.23-12.45-5.31-22.53-1.82C150.75,242.16,142.43,269.92,142.44,278.93Z"/><path class="cls-13" d="M257.82,131.81c-2.83-17.73-19-29.9-36.12-27.17S193,124,195.8,141.69Z"/><rect class="cls-13" x="215.62" y="102.57" width="13.07" height="9.91" transform="translate(458.46 178.75) rotate(170.95)"/><polygon class="cls-14" points="233.26 135.72 235.84 135.31 230.94 104.59 228.26 104.31 233.26 135.72"/><polygon class="cls-14" points="217.7 138.2 220.36 137.78 215.35 106.34 212.81 107.46 217.7 138.2"/><rect class="cls-14" x="195.17" y="133.65" width="62.79" height="3.11" transform="translate(471.59 233.09) rotate(170.95)"/><rect class="cls-13" x="192.89" y="135.05" width="76.67" height="7.55" transform="translate(481.42 239.53) rotate(170.95)"/><rect class="cls-15" x="323.68" y="151.92" width="108.3" height="146.22" rx="3.21" transform="translate(-39.73 87.04) rotate(-12.49)"/><rect class="cls-16" x="320.08" y="168.81" width="70.38" height="9.9" rx="1.01" transform="matrix(0.98, -0.22, 0.22, 0.98, -29.17, 80.95)"/><rect class="cls-16" x="323.18" y="184.01" width="93.45" height="4.95" rx="1.01" transform="translate(-31.58 84.41) rotate(-12.49)"/><rect class="cls-16" x="326.02" y="196.81" width="93.45" height="4.95" rx="1.01" transform="translate(-34.28 85.33) rotate(-12.49)"/><rect class="cls-16" x="328.85" y="209.62" width="93.45" height="4.95" rx="1.01" transform="translate(-36.98 86.25) rotate(-12.49)"/><rect class="cls-16" x="331.69" y="222.42" width="93.45" height="4.95" rx="1.01" transform="translate(-39.68 87.16) rotate(-12.49)"/><rect class="cls-16" x="334.53" y="235.23" width="93.45" height="4.95" rx="1.01" transform="translate(-42.39 88.08) rotate(-12.49)"/><rect class="cls-16" x="337.36" y="248.03" width="93.45" height="4.95" rx="1.01" transform="translate(-45.09 89) rotate(-12.49)"/><rect class="cls-16" x="340.2" y="260.83" width="93.45" height="4.95" rx="1.01" transform="matrix(0.98, -0.22, 0.22, 0.98, -47.79, 89.91)"/><rect class="cls-16" x="343.04" y="273.64" width="93.45" height="4.95" rx="1.01" transform="matrix(0.98, -0.22, 0.22, 0.98, -50.49, 90.83)"/><rect class="cls-15" x="177.85" y="276.13" width="108.41" height="146.37" rx="3.21" transform="translate(197.81 -68.65) rotate(28.91)"/><rect class="cls-16" x="210.65" y="296.68" width="70.45" height="9.91" rx="1.01" transform="translate(176.48 -81.28) rotate(28.91)"/><rect class="cls-16" x="173.11" y="370.11" width="93.55" height="4.96" rx="1.01" transform="translate(207.54 -59.87) rotate(28.91)"/><rect class="cls-16" x="166.76" y="381.6" width="93.55" height="4.96" transform="translate(212.31 -55.37) rotate(28.91)"/><rect class="cls-16" x="160.42" y="393.09" width="93.55" height="4.96" rx="1.01" transform="translate(217.07 -50.87) rotate(28.91)"/><rect class="cls-16" x="205.08" y="302.8" width="21.51" height="5.26" rx="1.01" transform="translate(173.81 -66.2) rotate(28.79)"/><rect class="cls-17" x="190.61" y="324.96" width="76.21" height="27.55" transform="translate(191.44 -68.28) rotate(28.79)"/><rect class="cls-18" x="237.8" y="330.45" width="1.83" height="27.55" transform="translate(195.32 -72.42) rotate(28.79)"/><rect class="cls-18" x="219.47" y="320.38" width="1.83" height="27.55" transform="translate(188.2 -64.83) rotate(28.79)"/><rect class="cls-18" x="201.94" y="310.74" width="1.83" height="27.55" transform="translate(181.39 -57.58) rotate(28.79)"/><rect class="cls-18" x="227.35" y="301.45" width="1.83" height="76.21" transform="translate(635.78 303.08) rotate(118.79)"/><path class="cls-19" d="M218.71,324.69a4.1,4.1,0,1,0-7.68-1.8h0l0,7.19,6.1-3.81h0A4.25,4.25,0,0,0,218.71,324.69Zm-4.42-.46a1.56,1.56,0,1,1,2.12-.62A1.56,1.56,0,0,1,214.29,324.23Z"/><rect class="cls-20" x="190.61" y="324.96" width="76.21" height="27.55" rx="1.01" transform="translate(191.44 -68.28) rotate(28.79)"/><path class="cls-6" d="M327.79,217.17c1,.13.13,4.82-1.43,6.64s-3,7.17-3,7.17l-10.47,4s2.39-6.76,5.26-10.15,8.6-7.82,9.64-7.69"/><path class="cls-8" d="M172.48,314.24s4.81,12.8,9.21,16,9.78,7.84,11.57,6.73-.73-4.22-1-4.52c.36.33,4.88,4.75,6.74,3.7s-1.93-5.51-1.93-5.51,3.3,2.48,4.54,1.65-.55-3-3.31-6.59-8.57-15.61-8.57-15.61Z"/><polygon class="cls-21" points="752.26 552.79 762.4 552.79 752.03 362.89 741.89 362.89 752.26 552.79"/><polygon class="cls-21" points="803.57 552.79 813.72 552.79 793.2 362.89 783.06 362.89 803.57 552.79"/><polygon class="cls-21" points="448.62 552.79 438.48 552.79 448.85 362.89 458.99 362.89 448.62 552.79"/><polygon class="cls-22" points="393.88 552.79 383.74 552.79 404.25 362.89 414.39 362.89 393.88 552.79"/><rect class="cls-21" x="399.06" y="367.14" width="398.24" height="8.41"/><rect class="cls-22" x="396.06" y="355.76" width="408.24" height="12.11"/><polygon class="cls-22" points="396.06 367.14 396.06 367.87 399.06 367.87 399.06 375.55 736.43 375.55 736.43 367.14 396.06 367.14"/><rect class="cls-23" x="396.06" y="355.76" width="347.37" height="12.11"/><path class="cls-24" d="M560.59,320h49.7c.3,5.68,1,11.7,1.68,17.34.31,2.59.74,5.16,1.08,7.74a6.65,6.65,0,0,0,3.66,5.14c1.55.88,3.12,1.7,4.71,2.5.79.4,1.34.94,1.15,1.84a1.64,1.64,0,0,1-1.82,1.23H550.94a8.18,8.18,0,0,1-1,0,1.56,1.56,0,0,1-1.44-1.32,1.38,1.38,0,0,1,.88-1.69c1.25-.62,2.45-1.35,3.72-2,3.18-1.52,4.61-4.08,5-7.52.65-6.35,1.47-12.67,2.2-19C560.42,323,560.49,321.27,560.59,320Z"/><polygon class="cls-25" points="560.27 324.24 610.58 324.24 610.29 319.97 560.59 319.97 560.27 324.24"/><rect class="cls-26" x="465.94" y="157.98" width="239.2" height="162.39" rx="5.26"/><path class="cls-24" d="M465.94,297.84h239.2a0,0,0,0,1,0,0v17.28a5.26,5.26,0,0,1-5.26,5.26H471.19a5.26,5.26,0,0,1-5.26-5.26V297.84A0,0,0,0,1,465.94,297.84Z"/><circle class="cls-26" cx="585.53" cy="308.71" r="4.85"/><g class="cls-27"><rect class="cls-28" x="475.68" y="167.58" width="219.71" height="120.3" rx="1.13"/><rect class="cls-29" x="474.05" y="165.94" width="223.44" height="8.71"/></g><circle class="cls-30" cx="484.08" cy="171.18" r="1.35"/><circle class="cls-31" cx="489.85" cy="171.18" r="1.35"/><circle class="cls-32" cx="495.63" cy="171.18" r="1.35"/><rect class="cls-28" x="503.8" y="169.02" width="189.17" height="4.25"/><g class="cls-33"><polygon class="cls-21" points="578.56 417.16 573.3 417.16 578.73 338.6 585.97 338.6 578.56 417.16"/><polygon class="cls-8" points="601.07 397.17 602.09 408.09 588.71 408.53 587.55 397.62 601.07 397.17"/><path class="cls-7" d="M582.23,410.8c-3.52.67-4.43,6.93-4.43,6.93h26.65s0-7.84-2.56-12.53a26.46,26.46,0,0,1-13.52,0S589.59,409.41,582.23,410.8Z"/><polygon class="cls-6" points="556.95 401.83 555.25 408.53 542.3 408.53 543.77 397.62 556.95 401.83"/><path class="cls-9" d="M533.44,410.58c-7.33,1.53-8,7.15-8,7.15H557a58.68,58.68,0,0,0-.85-12.53,26.46,26.46,0,0,1-13.52,0S540.76,409,533.44,410.58Z"/><polygon class="cls-21" points="661.97 417.16 667.22 417.16 660.93 338.6 653.69 338.6 661.97 417.16"/><polygon class="cls-21" points="629.79 417.16 635.04 417.16 632.3 338.6 625.06 338.6 629.79 417.16"/><path class="cls-23" d="M568.47,346.92h73.66a29.49,29.49,0,0,0,28.77-23l13.1-58.4a8.74,8.74,0,0,0-3.27-8.89,8.65,8.65,0,0,0-5.26-1.76h-18.4s-15,57.06-15.07,58.33-68.44,20.54-68.44,20.54l-2.86,7.41Z"/><path class="cls-21" d="M570.7,341.12h68a29.49,29.49,0,0,0,28.77-23l13.1-58.4a9.06,9.06,0,0,0,.14-3.1,8.65,8.65,0,0,0-5.26-1.76h-18.4s-15,57.06-15.07,58.33-68.44,20.54-68.44,20.54Z"/><path class="cls-4" d="M641.38,214s2-6.89.62-10.64-4-3.84-4-3.84.77-5.11-6.31-7.16a18.64,18.64,0,0,0-16.78,3,9.91,9.91,0,0,1-8.52,1.45,5.66,5.66,0,0,0,3.83,5.36s-4.43-.93-6.13,2.82a5.73,5.73,0,0,1,5.79,2.21s.26,6.82,4.43,8.27,19.6,3.58,19.6,3.58h5.62Z"/><path class="cls-6" d="M594.37,269.86l-7.66,19.32-22.37,3.42v10.07h29.71c5.67,0,13.56-25.68,13.56-25.68Z"/><path class="cls-10" d="M597.32,313.54l-26.76,2.77a20.2,20.2,0,0,0-17.91,17.11l-9.92,66.14c5.17,3.17,8.48,3.87,15.71,2.13a2.71,2.71,0,0,0,2-2l13.07-56.07a2.74,2.74,0,0,1,1.83-2l56.52-4.07L634,313.17Z"/><path class="cls-11" d="M609.6,280.46a134.69,134.69,0,0,1-.28,22.21H659.7s1.81-22.68,1-36c-.07-1.27-.18-2.43-.3-3.5-1.49-12.28,3.23-12.67,3.23-12.67s-4.17-8.35-12.69-10c-3.31-.64-5.94-1.31-7.92-1.88a39.2,39.2,0,0,1-4.66-1.61l-18.8,2s-.84.15-2.13.53c-2.59.75-9,2.62-12,5.59-4.54,4.44-10.5,22.58-12.89,26,0,0,2.26,1,6.59,5.05S609.6,280.46,609.6,280.46Z"/><path class="cls-12" d="M609.32,302.67H659.7s1.81-22.68,1-36l-13.61-4.65s-7.44,18.59-14.94,21.18-15,1.91-17.5-1.61-6.47-28.88-6.47-28.88-.54,18.94,1.43,27.72A134.69,134.69,0,0,1,609.32,302.67Z"/><path class="cls-12" d="M627.83,253.21c8.06-1.36,14.25-12.22,15.18-14.56a39.2,39.2,0,0,1-4.66-1.61l-18.79,2s-.85.16-2.13.53C615,247.8,617.55,255,627.83,253.21Z"/><path class="cls-8" d="M623.93,248.89c7.35,1.84,16.39-10.9,16.39-10.9l-2-.94a50.73,50.73,0,0,1-.85-11.29v0c.08-2.86.31-4.82.31-4.82s-15.36,7.5-15.58,12.45c0,0,0,0,0,0a1.9,1.9,0,0,0,.09.67.28.28,0,0,1,0,.06,5,5,0,0,1,.2,2.87c-.59,2-3,2.07-3,2.07S616.58,247.06,623.93,248.89Z"/><path class="cls-6" d="M622.23,233.37s0,0,0,0c0,.33.08.57.09.67a.28.28,0,0,1,0,.06,5,5,0,0,1,.2,2.87c.32,1.76,1.16,3.81,3.25,4.63,3.43,1.34,10.21-5,11.72-15.87v0c.08-2.86.31-4.82.31-4.82S622.45,228.42,622.23,233.37Z"/><path class="cls-8" d="M613.88,207.34s-1.48,15.76,3.18,24.48a4.55,4.55,0,0,0,4.32,2.39c4.78-.33,14.44-2.31,16.33-12.88,0,0,4.26.65,4.29-4.72,0-5.12-5.29-5-5.14,0l-3.6.47-.77-4.15s-3.53-1.74-3-7.08a29.87,29.87,0,0,1-15.24,1.47"/><path class="cls-11" d="M644.74,277.6a2.7,2.7,0,0,1-1.15-2.24,9.38,9.38,0,0,1,.63-3c1.18-3.28,5.28-24,11.69-26.34s10.49,7.34,9.73,18.53-2,17.38-3.12,18.11S654.91,284.74,644.74,277.6Z"/><path class="cls-34" d="M648.59,275.3s8.74.81,13.52,6.16c0,0-1.9,1.07-8.67-.74-7.53-2-8.17-5.66-8.17-5.66Z"/><path class="cls-8" d="M660.44,279.87c-.19-.43-5.84-4.64-15.17-4.81l-4.36,11.55L607,293.36s-12.16-1.19-14-.89-9.26,8.29-7.79,9,4-1.66,4-1.66-2.29,2.33-.81,2.68,4.91-2.75,4.91-2.75-2.2,2.11-1.16,2.5,5.5-2.58,5.5-2.58,1.49.57,3.26,1.32a8.4,8.4,0,0,0,3.77.56c3.84,0,5.6-.07,5.6-.07s29.74,1.7,38.8-.7S660.44,279.87,660.44,279.87Z"/><polygon class="cls-21" points="691.8 417.73 697.78 417.73 691.66 305.71 685.68 305.71 691.8 417.73"/><polygon class="cls-21" points="722.07 417.73 728.05 417.73 715.95 305.71 709.97 305.71 722.07 417.73"/><polygon class="cls-21" points="512.68 417.73 506.69 417.73 512.81 305.71 518.79 305.71 512.68 417.73"/><polygon class="cls-22" points="480.38 417.73 474.4 417.73 486.5 305.71 492.48 305.71 480.38 417.73"/><rect class="cls-21" x="483.44" y="308.21" width="234.93" height="4.96"/><path class="cls-4" d="M586,399.44l-4.43-60.84a19.7,19.7,0,0,1,15-18.89l26.83-6.54h36.15v5.56a22.55,22.55,0,0,1-10.27,18.92,17,17,0,0,1-8.53,2.62l-32,1.24-3.47,57.12a3.16,3.16,0,0,1-1.84,2.71C597.26,404.08,589,403.94,586,399.44Z"/><rect class="cls-22" x="481.67" y="301.5" width="240.83" height="7.14"/><polygon class="cls-22" points="481.67 308.21 481.67 308.64 483.44 308.64 483.44 313.17 682.46 313.17 682.46 308.21 481.67 308.21"/><rect class="cls-23" x="481.67" y="301.5" width="204.92" height="7.14"/><path class="cls-21" d="M606.31,299.23h-17v2.27h19.94l-.86-1.21A2.5,2.5,0,0,0,606.31,299.23Z"/><ellipse class="cls-11" cx="638.79" cy="217.1" rx="4.73" ry="6.22"/><path class="cls-11" d="M625.88,231.32c2.91-.08,5.64-1.74,7.86-3.51a19.58,19.58,0,0,0,5-6.09c.8-1.52-1.51-2.87-2.31-1.35a17.54,17.54,0,0,1-4.33,5.32c-1.68,1.4-4,2.9-6.25,3-1.71,0-1.72,2.72,0,2.67Z"/><circle class="cls-11" cx="623.96" cy="230.25" r="2.39"/><path class="cls-11" d="M637.78,211.26s-1.26-18.15-18.23-18.43a6.57,6.57,0,0,1,5.32-1.24s15.81.87,15.7,21.26Z"/></g><path class="cls-35" d="M488.58,198.06H574a1.77,1.77,0,0,1,1.77,1.77v88.05a0,0,0,0,1,0,0h-89a0,0,0,0,1,0,0V199.83A1.77,1.77,0,0,1,488.58,198.06Z"/><circle class="cls-16" cx="497.16" cy="218.42" r="2.53"/><rect class="cls-16" x="503.4" y="216.68" width="44.04" height="3.49"/><rect class="cls-36" x="554.71" y="212.07" width="12.1" height="12.1" rx="1.33"/><polyline class="cls-37" points="556.54 216.68 560.76 220.16 569.61 209.53"/><circle class="cls-16" cx="497.16" cy="237.22" r="2.53"/><rect class="cls-16" x="503.4" y="235.48" width="44.04" height="3.49"/><rect class="cls-36" x="554.71" y="230.87" width="12.1" height="12.1" rx="1.33"/><polyline class="cls-37" points="556.54 235.48 560.76 238.96 569.61 228.33"/><circle class="cls-16" cx="497.16" cy="256.41" r="2.53"/><rect class="cls-16" x="503.4" y="254.67" width="44.04" height="3.49"/><rect class="cls-36" x="554.71" y="250.06" width="12.1" height="12.1" rx="1.33"/><polyline class="cls-37" points="556.54 254.67 560.76 258.16 569.61 247.52"/><circle class="cls-16" cx="497.16" cy="275.61" r="2.53"/><rect class="cls-16" x="503.4" y="273.87" width="44.04" height="3.49"/><rect class="cls-36" x="554.71" y="269.26" width="12.1" height="12.1" rx="1.33"/><polyline class="cls-37" points="556.54 273.87 560.76 277.35 569.61 266.72"/><g class="cls-38"><path class="cls-39" d="M759.29,321s3.84-6.29,4.11-20.13-3.56-24-5.75-23.72-4.39,28.78-5.21,34.26a40.84,40.84,0,0,0,0,10.81Z"/><path class="cls-40" d="M757.65,277.17s3,5,2,21-2,21.95-2,21.95l4.86-1.47s6.65-35.29,3-40.44S757.65,277.17,757.65,277.17Z"/></g><g class="cls-41"><path class="cls-39" d="M739.23,320.18c-1.87-10-3.75-44.71,0-60.05s3.37-30.53,5.24-30.42,7.11,32.57,6.73,68.17-2.62,25.4-2.62,25.4Z"/><path class="cls-40" d="M744.47,229.71c.58,5.55.75,28.5,0,34.82a285.37,285.37,0,0,0-1.26,30.93c.17,10.93,1.76,27.83,1.76,27.83l7.89,1.34s3.58-76.73-.79-85.55S744.47,229.71,744.47,229.71Z"/></g><g class="cls-42"><path class="cls-39" d="M727.24,322.24s-6-19.53.47-64.79c.3-2.08,3.25-7.06,3.66-5,2.39,12.22,6,32,4.48,69.8Z"/><path class="cls-40" d="M731.37,252.44c-1.63,5.1-.8,22.23-.13,39s.13,30.77.13,30.77l8.35-.66s.47-69.69-3.5-71.69S731.37,252.44,731.37,252.44Z"/></g><path class="cls-43" d="M755.58,355.76h-25.1a3,3,0,0,1-2.94-2.69l-3-28.26H761.5l-3,28.26A3,3,0,0,1,755.58,355.76Z"/><rect class="cls-43" x="721.28" y="318.61" width="43.51" height="6.2" rx="1.48"/><polygon class="cls-44" points="724.56 324.81 725.42 332.96 761.23 327.4 761.5 324.81 724.56 324.81"/></g></g></svg>