<svg xmlns="http://www.w3.org/2000/svg" xmlns:xlink="http://www.w3.org/1999/xlink" viewBox="0 0 864.59 564.81"><defs><style>.cls-1,.cls-5{fill:none;}.cls-2{isolation:isolate;}.cls-3{fill:#f8e9e1;}.cls-28,.cls-29,.cls-4{fill:#1e375a;}.cls-5{stroke:#fff;stroke-miterlimit:10;stroke-width:1.73px;}.cls-6{fill:#f8fcff;}.cls-7{fill:#edf4f9;}.cls-8{fill:#042c46;}.cls-9{clip-path:url(#clip-path);}.cls-10{fill:#fff;}.cls-11{fill:#d4e8f7;}.cls-12{fill:#f78588;}.cls-13{fill:#f4d777;}.cls-14{fill:#80abd0;}.cls-15{clip-path:url(#clip-path-2);}.cls-16{fill:#80acd3;}.cls-17{fill:#eab5b3;}.cls-18{fill:#dd8f8d;}.cls-19{fill:#436b96;mix-blend-mode:multiply;opacity:0.21;}.cls-20{clip-path:url(#clip-path-3);}.cls-21{fill:#b2d392;}.cls-22{fill:#9cc284;}.cls-23{clip-path:url(#clip-path-4);}.cls-24{clip-path:url(#clip-path-5);}.cls-25{fill:#f7c5c8;}.cls-26{fill:#f4b3b3;}.cls-27{fill:#d6e4f1;}.cls-28,.cls-29{font-size:22.25px;font-family:Helvetica-Bold, Helvetica;font-weight:700;}.cls-28{letter-spacing:-0.04em;}</style><clipPath id="clip-path"><rect class="cls-1" x="354.54" y="191.28" width="412.21" height="225.7" rx="2.11"/></clipPath><clipPath id="clip-path-2"><rect class="cls-1" x="513.25" y="225.66" width="233.39" height="191.31"/></clipPath><clipPath id="clip-path-3"><path class="cls-1" d="M229.43,474.34s7.8-12.79,8.36-40.95-7.25-48.78-11.71-48.22-8.92,58.52-10.59,69.67a82.92,82.92,0,0,0,0,22Z"/></clipPath><clipPath id="clip-path-4"><path class="cls-1" d="M188.63,472.63c-3.81-20.34-7.61-90.92,0-122.13s6.85-62.08,10.65-61.86,14.46,66.23,13.7,138.63-5.33,51.65-5.33,51.65Z"/></clipPath><clipPath id="clip-path-5"><path class="cls-1" d="M164.25,476.82s-12.16-39.71,1-131.77c.6-4.22,6.61-14.36,7.43-10.18,4.86,24.86,12.25,65.13,9.11,142Z"/></clipPath></defs><g class="cls-2"><g id="Layer_1" data-name="Layer 1"><path class="cls-3" d="M38.31,546.05s-50.74-76.29,0-186.36,178.56-86.47,262.28-208.42C397.59,10,584,32.62,659.67,106S705,238.92,776,300.87s98.36,166.54,44.5,246.94Z"/><rect class="cls-4" x="14.54" y="544.98" width="835.52" height="5.49"/><path class="cls-5" d="M542.13,131.16H482.6a2.7,2.7,0,0,1-2.62-2.07l-3.33-13.81a2.7,2.7,0,0,1,2.63-3.33H545a2.7,2.7,0,0,1,2.65,3.24L544.78,129A2.71,2.71,0,0,1,542.13,131.16Z"/><path class="cls-5" d="M621,131.16H561.45a2.7,2.7,0,0,1-2.62-2.07l-3.33-13.81a2.7,2.7,0,0,1,2.63-3.33h65.7a2.7,2.7,0,0,1,2.64,3.24L623.63,129A2.7,2.7,0,0,1,621,131.16Z"/><path class="cls-5" d="M577,150.37H517.42a2.72,2.72,0,0,1-2.63-2.07l-3.32-13.81a2.7,2.7,0,0,1,2.62-3.33h65.7a2.69,2.69,0,0,1,2.64,3.24l-2.84,13.81A2.7,2.7,0,0,1,577,150.37Z"/><path class="cls-5" d="M530,489.27H589.5a2.71,2.71,0,0,1,2.63,2.07l3.32,13.81a2.7,2.7,0,0,1-2.62,3.33h-65.7a2.69,2.69,0,0,1-2.64-3.24l2.84-13.81A2.71,2.71,0,0,1,530,489.27Z"/><path class="cls-5" d="M451.12,489.27h59.53a2.72,2.72,0,0,1,2.63,2.07l3.32,13.81a2.7,2.7,0,0,1-2.62,3.33h-65.7a2.7,2.7,0,0,1-2.65-3.24l2.84-13.81A2.72,2.72,0,0,1,451.12,489.27Z"/><path class="cls-5" d="M495.15,470.07h59.54a2.7,2.7,0,0,1,2.62,2.06l3.33,13.81a2.7,2.7,0,0,1-2.63,3.33h-65.7a2.69,2.69,0,0,1-2.64-3.24l2.84-13.81A2.7,2.7,0,0,1,495.15,470.07Z"/><path class="cls-5" d="M127.69,448.65H68.16a2.69,2.69,0,0,1-2.62-2.06l-3.33-13.82a2.7,2.7,0,0,1,2.63-3.33h65.69a2.71,2.71,0,0,1,2.65,3.25l-2.84,13.81A2.71,2.71,0,0,1,127.69,448.65Z"/><path class="cls-5" d="M162.51,467.86H103a2.7,2.7,0,0,1-2.63-2.07L97,452a2.7,2.7,0,0,1,2.62-3.33h65.7A2.7,2.7,0,0,1,168,451.9l-2.84,13.81A2.69,2.69,0,0,1,162.51,467.86Z"/><path class="cls-6" d="M513.85,477.17l93.24,0c.57,10.65,1.87,21.94,3.15,32.53.59,4.85,1.4,9.68,2,14.52.6,4.58,3.12,7.51,6.87,9.64,2.9,1.65,5.85,3.2,8.83,4.69,1.49.75,2.52,1.77,2.15,3.46s-1.76,2.28-3.41,2.29h-131c-.62,0-1.24,0-1.85,0a2.94,2.94,0,0,1-2.7-2.48,2.59,2.59,0,0,1,1.64-3.17c2.36-1.16,4.61-2.54,7-3.68,6-2.85,8.65-7.65,9.31-14.11,1.22-11.91,2.76-23.78,4.13-35.66C513.53,482.76,513.66,479.61,513.85,477.17Z"/><polygon class="cls-7" points="513.25 485.19 607.63 485.19 607.09 477.19 513.85 477.19 513.25 485.19"/><rect class="cls-8" x="336.26" y="173.26" width="448.77" height="304.67" rx="9.86"/><path class="cls-6" d="M336.26,435.66H785a0,0,0,0,1,0,0v32.42a9.86,9.86,0,0,1-9.86,9.86H346.12a9.86,9.86,0,0,1-9.86-9.86V435.66A0,0,0,0,1,336.26,435.66Z"/><circle class="cls-8" cx="560.65" cy="456.05" r="9.1"/><g class="cls-9"><rect class="cls-10" x="354.54" y="191.28" width="412.21" height="225.7" rx="2.11"/><rect class="cls-11" x="351.48" y="188.2" width="419.21" height="16.33"/></g><circle class="cls-12" cx="370.31" cy="198.02" r="2.54"/><circle class="cls-13" cx="381.14" cy="198.02" r="2.54"/><circle class="cls-14" cx="391.96" cy="198.02" r="2.54"/><rect class="cls-10" x="407.3" y="193.98" width="354.9" height="7.97"/><g class="cls-15"><path class="cls-16" d="M642.28,268.34a16,16,0,0,1-.79-5.62c.11-3.26,2.72,3.33,2.72,3.33v3.87Z"/><path class="cls-17" d="M608.11,366.41l-7.37,18.51-37-26.2L554.91,375s42.3,41.72,55.26,39.73c9.28-1.43,23.26-49.22,23.26-49.22Z"/><path class="cls-17" d="M563.69,358.72s-2.75-7.76-6-11.65-9.87-9-11.07-8.83-.15,5.54,1.65,7.63,3.44,8.23,3.44,8.23-8.68-3.29-13.32-8.38-7-7.43-8.68-7.28-.55,5-.55,5-2.84-5.49-4.63-2.94c-1.66,2.35,1.44,11.22,1.44,11.22s-1.79-5-3-5.39-1,3.69.3,7.83a28.49,28.49,0,0,0,6.23,9.88c1.9,2,11,7.58,18,9s7.53,2,7.53,2Z"/><polygon class="cls-17" points="715.48 372.28 713.06 423.99 734.33 422.46 732.09 369.32 715.48 372.28"/><path class="cls-16" d="M653.57,317.15s-34.43,1.94-39.54,23.7c-4.72,20.08-9.5,30.47-9.5,30.47s13.46,5.24,20,4.57c0,0-2.3,48.72-4.8,54.4s99.83,2.26,99.83,2.26l-3.34-55.95,20.28-5.27s-7.22-22.83-11.92-35.76-37.74-18.5-37.74-18.5Z"/><path class="cls-17" d="M657.94,301.17c1.14,1,2.49,8.7,0,13.39-1.29,2.4-4.37,2.59-4.37,2.59s-.85,13.3,15.6,13.51,17.7-13.59,17.7-13.59-2.51,0-3.14-2.09-2.93-14-1.88-18.61S657.94,301.17,657.94,301.17Z"/><path class="cls-18" d="M657.94,301.17a7.65,7.65,0,0,1,1.26,4.14c.14,2.74,6.85,10.37,12,9.46,10.64-1.89,10.72-10.12,10.64-11a20.79,20.79,0,0,1-.23-5.07c.25-2.34-13.51-1.61-13.51-1.61Z"/><path class="cls-4" d="M693.33,269.81s3.82-11.53,1.61-17.93-6.52-6.67-6.52-6.67,1.56-8.58-10.26-12.4-21.27-.66-28.47,4.15a16.71,16.71,0,0,1-14.44,2s-.36,6.89,6.18,9.25c0,0-7.42-1.81-10.49,4.43,0,0,5.36-1.42,9.66,4,0,0,.07,11.52,7,14.18s32.86,7.06,32.86,7.06l9.49.29Z"/><path class="cls-17" d="M647.93,272.51c.85,10.29,2,18.29,6.14,24.26s8.94,8.09,11.31,8.29a44.42,44.42,0,0,0,9.15,0c2.38-.43,7.46-5.41,9.16-8.29s6.44-15.3,6.78-24.26-3.05-18-10.85-18.22-22.15-.1-25.65,0S647.29,264.77,647.93,272.51Z"/><path class="cls-4" d="M643,266.58s3.48,8.27,5.15,10.46c0,0,1.88-14.55,4.39-16.64s2.09-3.13,2.09-3.13,16.31,3.34,25.93,0c0,0-1,9.2,5.85,10.87L690,278.2s3.36-10.25,3.15-11.62-6.27-17.68-6.27-17.68l-40.15,1.88Z"/><path class="cls-19" d="M716.25,376.6,713,349.37a85.21,85.21,0,0,1-8.16,34.5c-3.34,6.92-15.64,16.13-34.58,14.08-17.77-1.92-34.12-10.27-38.57-27.59-2.47-9.64-3.69-17.85-3.69-17.85l-3.45,23.38s.18,3.21-2,32.64l-1.7,21.79,98.75,2.23Z"/><path class="cls-16" d="M674.86,300.38c3.85-.11,7.45-2.3,10.38-4.63a25.84,25.84,0,0,0,6.64-8.06c1.07-2-2-3.79-3-1.78a23.11,23.11,0,0,1-5.71,7c-2.23,1.85-5.28,3.83-8.26,3.91-2.27.06-2.27,3.6,0,3.53Z"/><circle class="cls-16" cx="672.32" cy="298.97" r="3.15"/><rect class="cls-16" x="688.32" y="267.01" width="5.44" height="23.86" transform="translate(68.61 -130.85) rotate(11.38)"/><ellipse class="cls-16" cx="693.67" cy="279.64" rx="10.05" ry="3.14" transform="translate(282.68 904.51) rotate(-78.62)"/><rect class="cls-16" x="643.52" y="267.8" width="5.44" height="23.86" transform="translate(1332.91 435.77) rotate(169.4)"/><ellipse class="cls-16" cx="643.53" cy="280.08" rx="3.14" ry="10.05" transform="matrix(0.98, -0.18, 0.18, 0.98, -40.55, 123.21)"/><path class="cls-16" d="M688.42,245.21s5.11,3.8,4.73,10.23-.06,7.13-1,11.56l2.94.59s3.45-8.08,2-15.37-6.91-9.88-8.67-10.27Z"/></g><g class="cls-20"><path class="cls-21" d="M229.43,474.34s7.8-12.79,8.36-40.95-7.25-48.78-11.71-48.22-8.92,58.52-10.59,69.67a82.92,82.92,0,0,0,0,22Z"/><path class="cls-22" d="M226.08,385.17s6.17,10.13,4.14,42.61-4.14,44.64-4.14,44.64l9.89-3s13.53-71.76,6.09-82.24S226.08,385.17,226.08,385.17Z"/></g><g class="cls-23"><path class="cls-21" d="M188.63,472.63c-3.81-20.34-7.61-90.92,0-122.13s6.85-62.08,10.65-61.86,14.46,66.23,13.7,138.63-5.33,51.65-5.33,51.65Z"/><path class="cls-22" d="M199.28,288.64c1.18,11.28,1.53,58,0,70.81s-2.88,40.7-2.55,62.91S200.3,479,200.3,479l16.06,2.73s7.27-156-1.61-174S199.28,288.64,199.28,288.64Z"/></g><g class="cls-24"><path class="cls-21" d="M164.25,476.82s-12.16-39.71,1-131.77c.6-4.22,6.61-14.36,7.43-10.18,4.86,24.86,12.25,65.13,9.11,142Z"/><path class="cls-22" d="M172.64,334.87c-3.3,10.37-1.61,45.21-.26,79.38s.26,62.57.26,62.57l17-1.35s1-141.73-7.13-145.79S172.64,334.87,172.64,334.87Z"/></g><path class="cls-25" d="M221.89,545h-51a6,6,0,0,1-6-5.46l-6-57.48h75.13l-6.05,57.48A6,6,0,0,1,221.89,545Z"/><rect class="cls-25" x="152.13" y="469.43" width="88.48" height="12.61" rx="3.01"/><polygon class="cls-26" points="158.8 482.04 160.54 498.61 233.38 487.3 233.93 482.04 158.8 482.04"/><rect class="cls-27" x="47.73" y="16.83" width="503.78" height="304.49" rx="9.89"/><polygon class="cls-27" points="551.51 240.78 584.75 260.94 549.84 273.21 551.51 240.78"/><rect class="cls-10" x="79.28" y="49.51" width="436.43" height="31.64" rx="4.94"/><rect class="cls-10" x="79.28" y="101.38" width="436.43" height="31.64" rx="4.94"/><rect class="cls-10" x="79.28" y="153.25" width="436.43" height="31.64" rx="4.94"/><rect class="cls-10" x="79.28" y="205.12" width="436.43" height="31.64" rx="4.94"/><rect class="cls-10" x="79.28" y="256.99" width="436.43" height="31.64" rx="4.94"/><text class="cls-28" transform="translate(86.1 73.6)">A</text><text class="cls-29" transform="translate(90.71 124.83)">•</text><text class="cls-29" transform="translate(90.71 177.06)">•</text><text class="cls-29" transform="translate(90.71 229.3)">•</text><text class="cls-29" transform="translate(86.1 281.03)">Z</text></g></g></svg>