<svg id="Layer_1" data-name="Layer 1" xmlns="http://www.w3.org/2000/svg" viewBox="0 0 864.59 618.94"><defs><style>.cls-1{fill:#f8e9e1;}.cls-2{fill:#1e375a;}.cls-3,.cls-6{fill:#2f547e;}.cls-4{fill:#f6f8f9;}.cls-5{fill:#c9d9e7;}.cls-6{font-size:21.22px;font-family:Helvetica-Bold, Helvetica;font-weight:700;}.cls-13,.cls-18,.cls-19,.cls-7{fill:none;stroke-miterlimit:10;}.cls-18,.cls-7{stroke:#80acd3;}.cls-7{stroke-width:6.78px;}.cls-8{fill:#c2dbeb;}.cls-17,.cls-9{fill:#fff;}.cls-9{stroke:#d4e8f4;stroke-linecap:round;stroke-linejoin:round;stroke-width:2.72px;}.cls-10{fill:#f0f7fa;}.cls-11{fill:#d4e8f4;}.cls-12{fill:#99bdda;}.cls-13{stroke:#99bdda;stroke-width:8.26px;}.cls-14{fill:#eab5b3;}.cls-15{fill:#ffd261;}.cls-16{fill:#80abd0;}.cls-18,.cls-19{stroke-width:7.37px;}.cls-19{stroke:#1e375a;}.cls-20{fill:#80acd3;}</style></defs><path class="cls-1" d="M39.91,602.57s-50.44-75.83,0-185.23,177.49-86,260.7-207.18C397,69.73,582.27,92.23,657.53,165.16s45,132.13,115.61,193.7,97.76,165.55,44.23,245.46Z"/><rect class="cls-2" x="10.03" y="602.73" width="830.49" height="5.46"/><rect class="cls-3" x="395.46" y="93.3" width="236.12" height="360.84" rx="7.37" transform="translate(43.53 -69.4) rotate(8.07)"/><rect class="cls-4" x="425.08" y="116.4" width="177.13" height="312.98" transform="translate(43.41 -69.42) rotate(8.07)"/><rect class="cls-5" x="458.48" y="138.72" width="98.86" height="13.04" transform="matrix(0.99, 0.14, -0.14, 0.99, 25.43, -69.88)"/><rect class="cls-5" x="454.02" y="175.22" width="124.71" height="4.75" transform="translate(30.06 -70.75) rotate(8.07)"/><rect class="cls-5" x="450.4" y="199.83" width="98.86" height="4.75" transform="translate(33.35 -68.18) rotate(8.07)"/><rect class="cls-5" x="446.52" y="228.08" width="124.71" height="4.75" transform="translate(37.4 -69.18) rotate(8.07)"/><rect class="cls-5" x="442.83" y="253.62" width="112.02" height="4.75" transform="translate(40.89 -67.51) rotate(8.07)"/><rect class="cls-5" x="439.14" y="279.33" width="101.87" height="4.75" transform="translate(44.41 -66.03) rotate(8.07)"/><rect class="cls-5" x="435.4" y="305.55" width="98.86" height="4.75" transform="translate(48.04 -65.03) rotate(8.07)"/><rect class="cls-5" x="431.58" y="333.05" width="114.19" height="4.75" transform="translate(51.94 -65.3) rotate(8.07)"/><rect class="cls-5" x="427.89" y="358.62" width="101.87" height="4.75" transform="translate(55.44 -63.66) rotate(8.07)"/><rect class="cls-5" x="483.65" y="413.34" width="77.72" height="4.75" transform="translate(63.55 -69.25) rotate(8.07)"/><text class="cls-6" transform="translate(485.5 402.16) rotate(8.07)">$</text><rect class="cls-7" x="494.46" y="91.54" width="85.11" height="33.12" transform="translate(20.5 -74.34) rotate(8.07)"/><path class="cls-8" d="M173.39,68.64s-16.24-16.49,60.36-53.37l4.7,19.39Z"/><path class="cls-9" d="M478.55,531.57a8.25,8.25,0,0,0-.43-1.3c0-.11-.11-.21-.16-.32a2.12,2.12,0,0,0-.11-.21c-4.54-11.93-31-82.06-59.23-167.95C395.4,288.74,341,110.25,337.13,29L173.39,68.64s29,75.45,60,169.91c23,72.25,76.25,247.15,81.27,329.66,0,.1,0,.2,0,.29,0,.28,0,.55,0,.83s0,.37,0,.55a7.89,7.89,0,0,0,.21,1.35,9.8,9.8,0,0,0,2.93,4.81,16.08,16.08,0,0,0,2.61,2,24.67,24.67,0,0,0,3.33,1.71,35.75,35.75,0,0,0,4,1.43c1.43.43,3,.81,4.61,1.14s3.37.61,5.2.85c2.73.35,5.67.59,8.78.72,1,0,2.09.07,3.16.09,15.05.26,33.73-1.92,53.51-6.71a241,241,0,0,0,37.31-12.17c2.16-.91,4.24-1.85,6.25-2.79l1.75-.84A127.75,127.75,0,0,0,461,554.38c1-.63,2-1.26,2.88-1.89C474.46,545.21,480.06,537.8,478.55,531.57Z"/><ellipse class="cls-10" cx="255.26" cy="48.81" rx="84.24" ry="26.6" transform="translate(-4.32 61.46) rotate(-13.62)"/><path class="cls-11" d="M249,23c-45.22,10.95-79.07,31.41-75.61,45.68,1.71,7.06,12.22,11.29,27.87,12.43L196.88,63,313.64,34.67,318,52.79C331.42,44.61,338.84,36,337.13,29,333.67,14.71,294.21,12,249,23Z"/><path class="cls-8" d="M335.45,37.32c-3.48-2.46-14.07-4.82-21.31-6.21a67.31,67.31,0,0,0-15.71-1.17,245.49,245.49,0,0,0-46.07,6.91c-32.24,7.81-57.08,19.5-55.48,26.11s29,5.63,61.27-2.18,57.09-19.5,55.49-26.11L318,52.8C330.83,45.17,335.45,37.32,335.45,37.32Z"/><path class="cls-12" d="M313.64,34.67c0-.66-5.09-2-13.63-1.66-13.8.59-47.48,8.39-47.48,8.39l5.62,19.38S314.08,47.18,313.64,34.67Z"/><line class="cls-13" x1="379.16" y1="275.86" x2="391.3" y2="271.58"/><line class="cls-13" x1="272.09" y1="301.02" x2="254.01" y2="306.57"/><path class="cls-14" d="M282.52,327.93l-2.76,7.84c-7.33,20.3-14.48,40.07-21.8,60.34l28.68-12.88c4.78,8.73,9.47,17.28,14.34,26.19,5.67-17.39,11.21-34.4,16.85-51.69l4.44-12.37Z"/><path class="cls-14" d="M383.82,311.76l-8.65-9.84-31,31.3,15.1,15.11L397,387.42c.51-10.23,1-20,1.48-29.88l31.42-.91Z"/><path class="cls-15" d="M389.63,301.4a9.32,9.32,0,0,0-1.81,1.16c-2.44,2.44-4.77,5-7.27,7.4a4.13,4.13,0,0,0-1.32,3.63c.23,3.3.24,6.63.54,9.92A2.26,2.26,0,0,1,378,326.2c-3.09,1.2-6.09,2.62-9.16,3.86a4,4,0,0,0-2.55,2.63c-1.06,3.21-2.34,6.36-3.42,9.56-.42,1.24-.91,1.83-2.4,1.79a100.7,100.7,0,0,0-10.13.27,5.76,5.76,0,0,0-3.31,1.44c-2.44,2.34-4.72,4.86-6.94,7.41a2.19,2.19,0,0,1-3,.65c-3.11-1.32-6.26-2.58-9.47-3.65a5.41,5.41,0,0,0-3.42.09c-3.27,1.31-6.47,2.79-9.62,4.37a1.77,1.77,0,0,1-2.42-.41c-2.49-2.49-5-5-7.62-7.34a5.22,5.22,0,0,0-3.18-1.21c-3.45,0-6.91.21-10.36.47a2.06,2.06,0,0,1-2.42-1.52c-1.27-3.22-2.58-6.42-4.1-9.53a5.22,5.22,0,0,0-2.47-2.33c-3.26-1.36-6.6-2.5-9.94-3.65a1.77,1.77,0,0,1-1.42-2c.05-3.52,0-7.05-.26-10.57a5.38,5.38,0,0,0-1.42-3.11c-2.35-2.42-4.86-4.71-7.41-6.94a2.18,2.18,0,0,1-.71-2.94c1.33-3.11,2.6-6.26,3.64-9.47a5.72,5.72,0,0,0-.13-3.61c-1.27-3.21-2.72-6.36-4.28-9.43a1.86,1.86,0,0,1,.5-2.58c2.45-2.45,4.78-5,7.27-7.41a4,4,0,0,0,1.25-3.44c-.22-3.24-.23-6.49-.52-9.72-.14-1.61.24-2.46,1.83-3.07,3.22-1.25,6.38-2.68,9.49-4.19a4.26,4.26,0,0,0,1.91-2c1.35-3.34,2.57-6.73,3.77-10.13a1.76,1.76,0,0,1,2-1.42c3.53,0,7.06,0,10.57-.26a5.35,5.35,0,0,0,3.11-1.42c2.45-2.44,4.76-5,7-7.63a2.08,2.08,0,0,1,2.8-.61c3.18,1.35,6.38,2.68,9.65,3.79a5.32,5.32,0,0,0,3.41-.12c3.2-1.28,6.36-2.7,9.42-4.28,1.27-.66,1.91-.31,2.76.53,2.35,2.34,4.84,4.54,7.13,6.94a4.37,4.37,0,0,0,3.8,1.42c3.38-.22,6.77-.25,10.15-.47a2,2,0,0,1,2.27,1.43c1.31,3.27,2.65,6.54,4.18,9.72a4.84,4.84,0,0,0,2.33,2.2c3.26,1.35,6.6,2.51,9.94,3.65a1.87,1.87,0,0,1,1.52,2.14c-.05,3.53,0,7.06.26,10.57a5,5,0,0,0,1.34,2.93c2.42,2.46,5,4.8,7.57,7.09a2.07,2.07,0,0,1,.68,2.77c-1.36,3.18-2.64,6.39-3.73,9.67a5.31,5.31,0,0,0,.13,3.41c1.41,3.46,3.07,6.82,4.63,10.22Zm-54.94,35.11a47.42,47.42,0,0,0,35.47-56.41c-5.64-25.21-31.36-41.32-56.58-35.42a47.11,47.11,0,0,0,21.11,91.83Z"/><path class="cls-16" d="M334.69,336.51a47.11,47.11,0,0,1-21.11-91.83c25.22-5.9,50.94,10.21,56.58,35.42A47.42,47.42,0,0,1,334.69,336.51Zm-.91-4a43,43,0,0,0-19.1-83.95c-23,5-37.67,28.28-32.47,51.55A43.07,43.07,0,0,0,333.78,332.5Z"/><path class="cls-17" d="M333.78,332.5a43.07,43.07,0,0,1-51.57-32.4c-5.2-23.27,9.44-46.5,32.47-51.55a43,43,0,0,1,19.1,83.95Zm9-69.73-22.66,39-21.86-11.92-5.9,10.7,32.24,17.7L353.37,269Z"/><path class="cls-16" d="M342.8,262.77,353.37,269l-28.75,49.31-32.24-17.7,5.9-10.7,21.86,11.92Z"/><polyline class="cls-18" points="144.34 513.83 153.29 538.02 174.35 528.16 182.86 544.74 203.92 538.02 211.53 553.7"/><line class="cls-19" x1="190.93" y1="466.72" x2="222.5" y2="495.17"/><path class="cls-20" d="M201.93,380.78a4.92,4.92,0,1,0-4.91-4.92,5,5,0,0,0,4.91,4.92Z"/><path class="cls-2" d="M746.37,420.55a4.92,4.92,0,1,0-4.91-4.92,5,5,0,0,0,4.91,4.92Z"/><path class="cls-2" d="M512.62,485.86a4.92,4.92,0,1,0-4.91-4.91,5,5,0,0,0,4.91,4.91Z"/><path class="cls-2" d="M672.32,581a4.92,4.92,0,1,0-4.92-4.91,5,5,0,0,0,4.92,4.91Z"/><path class="cls-2" d="M129.94,457.59a4.92,4.92,0,1,0-4.92-4.91,5,5,0,0,0,4.92,4.91Z"/><path class="cls-20" d="M664.09,280.67a4.92,4.92,0,1,0-4.91-4.92,5,5,0,0,0,4.91,4.92Z"/><line class="cls-18" x1="672.32" y1="502.03" x2="633.92" y2="528.09"/><polyline class="cls-19" points="777.27 533.76 748.13 528.09 751.6 555.39 726.66 546.17"/><line class="cls-18" x1="181.36" y1="415.63" x2="218.85" y2="415.63"/><polyline class="cls-18" points="690.6 363.98 697.92 393.24 672.32 399.88 689.69 427.06 664.09 436.21"/><line class="cls-18" x1="736.32" y1="458.15" x2="777.27" y2="462.72"/><polygon class="cls-2" points="244.77 429.2 249.54 452.95 267.72 436.95 244.77 429.2"/><polygon class="cls-20" points="523.64 563.24 499.65 566.62 514.57 585.7 523.64 563.24"/><polygon class="cls-2" points="96.94 376.19 72.95 379.58 87.87 398.66 96.94 376.19"/><polygon class="cls-2" points="657.79 333.58 641.13 335.93 651.49 349.19 657.79 333.58"/><line class="cls-19" x1="549.22" y1="523.22" x2="568.09" y2="560.25"/><line class="cls-19" x1="277.03" y1="565.12" x2="254.01" y2="583.98"/><line class="cls-19" x1="180.85" y1="330.97" x2="144.34" y2="305.54"/><polyline class="cls-19" points="743.99 299.16 754.41 328.06 724.28 328.9 739.35 354.22"/><line class="cls-19" x1="103.65" y1="553.7" x2="84.94" y2="571.85"/></svg>