<svg xmlns="http://www.w3.org/2000/svg" width="277.65" height="220.05" viewBox="0 0 277.65 220.05"><g style="isolation:isolate"><rect x="175.21" y="44" width="100.95" height="37.32" transform="translate(451.15 126.14) rotate(-179.79)" fill="#89abce"/><rect x="175.21" y="43.82" width="2.47" height="37.32" transform="translate(352.67 125.6) rotate(-179.79)" fill="#d4e5f4"/><rect x="191.63" y="43.88" width="2.47" height="37.32" transform="translate(385.5 125.78) rotate(-179.79)" fill="#d4e5f4"/><rect x="208.04" y="43.94" width="2.47" height="37.32" transform="translate(418.33 125.96) rotate(-179.79)" fill="#d4e5f4"/><rect x="224.45" y="44" width="2.47" height="37.32" transform="translate(451.15 126.14) rotate(-179.79)" fill="#d4e5f4"/><rect x="240.87" y="44.06" width="2.47" height="37.32" transform="translate(483.98 126.32) rotate(-179.79)" fill="#d4e5f4"/><rect x="257.28" y="44.12" width="2.47" height="37.32" transform="translate(516.8 126.5) rotate(-179.79)" fill="#d4e5f4"/><rect x="273.69" y="44.18" width="2.47" height="37.32" transform="translate(549.63 126.68) rotate(-179.79)" fill="#d4e5f4"/><rect x="113.27" y="111.94" width="50.48" height="32.78" transform="translate(276.55 257.17) rotate(-179.79)" fill="#a2bee0"/><rect x="113.51" y="24.35" width="50.48" height="75.99" transform="translate(277.27 125.19) rotate(-179.79)" fill="#a2bee0"/><rect x="122.35" y="100.33" width="31.85" height="11.61" transform="translate(276.17 212.78) rotate(-179.79)" fill="#89abce"/><rect x="122.66" y="18.54" width="31.85" height="5.8" transform="translate(277.1 43.39) rotate(-179.79)" fill="#89abce"/><polygon points="154.53 18.6 164.22 0.92 113.73 0.73 122.67 18.48 154.53 18.6" fill="#a2bee0"/><rect x="137.47" y="144.72" width="1.88" height="18.84" transform="translate(276.26 308.78) rotate(-179.79)" fill="#a2bee0"/><polygon points="163.81 112.03 163.69 144.81 138.35 144.72 138.21 111.94 163.81 112.03" fill="#89abce"/><rect x="113.27" y="126.62" width="50.48" height="3.41" transform="translate(276.55 257.17) rotate(-179.79)" fill="#d4e5f4"/><polygon points="164.13 24.44 163.85 100.42 139.84 100.34 139.82 24.35 164.13 24.44" fill="#89abce"/><polygon points="154.5 24.4 122.65 24.29 122.66 22.99 154.51 22.93 154.5 24.4" fill="#376c9b" opacity="0.21" style="mix-blend-mode:multiply"/><rect x="137.65" y="85.05" width="1.3" height="31.85" transform="translate(36.81 238.91) rotate(-89.79)" fill="#376c9b" opacity="0.21" style="mix-blend-mode:multiply"/><rect x="137.61" y="95.36" width="1.3" height="31.85" transform="translate(26.46 249.14) rotate(-89.79)" fill="#376c9b" opacity="0.21" style="mix-blend-mode:multiply"/><rect x="163.95" y="70.19" width="11.22" height="5.27" transform="translate(338.86 146.27) rotate(-179.79)" fill="#eff5f9"/><rect x="164.03" y="49.44" width="11.22" height="5.27" transform="translate(339.09 104.78) rotate(-179.79)" fill="#eff5f9"/><rect x="1.33" y="43.36" width="100.95" height="37.32" transform="translate(0.23 -0.19) rotate(0.21)" fill="#89abce"/><rect x="99.81" y="43.54" width="2.47" height="37.32" transform="translate(0.23 -0.37) rotate(0.21)" fill="#d4e5f4"/><rect x="83.4" y="43.48" width="2.47" height="37.32" transform="translate(0.23 -0.31) rotate(0.21)" fill="#d4e5f4"/><rect x="66.99" y="43.42" width="2.47" height="37.32" transform="translate(0.23 -0.25) rotate(0.21)" fill="#d4e5f4"/><rect x="50.57" y="43.36" width="2.47" height="37.32" transform="translate(0.23 -0.19) rotate(0.21)" fill="#d4e5f4"/><rect x="34.16" y="43.3" width="2.47" height="37.32" transform="translate(0.23 -0.13) rotate(0.21)" fill="#d4e5f4"/><rect x="17.75" y="43.24" width="2.47" height="37.32" transform="translate(0.23 -0.07) rotate(0.21)" fill="#d4e5f4"/><rect x="1.33" y="43.18" width="2.47" height="37.32" transform="translate(0.23 -0.01) rotate(0.21)" fill="#d4e5f4"/><rect x="105.3" y="46.24" width="5.27" height="11.22" transform="translate(55.69 159.6) rotate(-89.79)" fill="#eff5f9"/><rect x="105.22" y="66.99" width="5.27" height="11.22" transform="translate(34.87 180.19) rotate(-89.79)" fill="#eff5f9"/><path d="M105.51,197.9a2.34,2.34,0,0,1,1.75.79,41,41,0,0,0,61.36.23,2.34,2.34,0,1,1,3.5,3.12,45.64,45.64,0,0,1-68.38-.25,2.34,2.34,0,0,1,.21-3.31A2.31,2.31,0,0,1,105.51,197.9Z" fill="#fff"/><path d="M114.87,187.74a2.38,2.38,0,0,1,1.58.62c6.44,5.9,13.88,9,21.49,9.07s15.08-3.06,21.56-8.91a2.35,2.35,0,1,1,3.15,3.48c-7.37,6.65-15.92,10.15-24.72,10.12s-17.33-3.6-24.65-10.3a2.35,2.35,0,0,1-.15-3.32A2.38,2.38,0,0,1,114.87,187.74Z" fill="#fff"/><path d="M149.28,177.88a2.34,2.34,0,0,1,1.44,4.19c-8.18,6.4-17.29,6.37-25.42-.08a2.34,2.34,0,1,1,2.91-3.67c6.44,5.11,13.14,5.13,19.61.06A2.37,2.37,0,0,1,149.28,177.88Z" fill="#fff"/></g></svg>