<svg xmlns="http://www.w3.org/2000/svg" viewBox="0 0 453.2 453.2"><defs><style>.cls-1{fill:#ebf0f2;}.cls-2{fill:#16385d;stroke:#16385d;stroke-miterlimit:10;stroke-width:3px;}</style></defs><g id="Layer_2" data-name="Layer 2"><g id="Capa_1" data-name="Capa 1"><circle class="cls-1" cx="226.6" cy="226.6" r="226.6"/><path class="cls-2" d="M397.71,233.39c-5,0-8.37,3.35-8.37,8.37V350.63c0,5-3.35,8.37-8.37,8.37H79.49c-5,0-8.37-3.35-8.37-8.37V241.76c0-5-3.35-8.37-8.38-8.37s-8.37,3.35-8.37,8.37V350.63a24.67,24.67,0,0,0,25.12,25.12H381a24.68,24.68,0,0,0,25.12-25.12V241.76C406.09,236.74,402.74,233.39,397.71,233.39Z"/><path class="cls-2" d="M389.34,116.15H71.12A24.67,24.67,0,0,0,46,141.27v53.59a25.14,25.14,0,0,0,19.26,24.29l131.48,29.31v26.8c0,5,3.35,8.37,8.38,8.37h50.24c5,0,8.38-3.35,8.38-8.37v-26.8L395.2,219.15a25.13,25.13,0,0,0,19.26-24.29V141.27A24.67,24.67,0,0,0,389.34,116.15ZM247,266.88h-33.5V233.39H247Zm150.73-72a8.16,8.16,0,0,1-6.7,8.38L263.73,231.71V225c0-5-3.35-8.37-8.38-8.37H205.11c-5,0-8.38,3.35-8.38,8.37v6.7L69.44,203.24a8.16,8.16,0,0,1-6.7-8.38V141.27c0-5,3.35-8.38,8.38-8.38H389.34c5,0,8.37,3.35,8.37,8.38Z"/><path class="cls-2" d="M272.1,57.52H188.36a24.68,24.68,0,0,0-25.13,25.13V91c0,5,3.35,8.38,8.38,8.38S180,96.05,180,91V82.65c0-5,3.35-8.38,8.38-8.38H272.1c5,0,8.37,3.35,8.37,8.38V91c0,5,3.35,8.38,8.38,8.38s8.37-3.35,8.37-8.38V82.65A24.67,24.67,0,0,0,272.1,57.52Z"/></g></g></svg>