<?xml version="1.0" encoding="utf-8"?>
<!-- Generator: Adobe Illustrator 24.2.3, SVG Export Plug-In . SVG Version: 6.00 Build 0)  -->
<svg version="1.1" id="Layer_1" xmlns="http://www.w3.org/2000/svg" xmlns:xlink="http://www.w3.org/1999/xlink" x="0px" y="0px"
	 viewBox="0 0 323.9 90" style="enable-background:new 0 0 323.9 90;" xml:space="preserve">
<style type="text/css">
	.st0{fill:none;stroke:#000000;stroke-width:4;stroke-miterlimit:10;}
</style>
<g>
	<g id="Layer_2_1_">
		<g id="Layer_1-2">
			<path d="M138,36.2c0.2-0.4,0.4-0.8,0.5-1.3c3.5-9.3,7-18.7,10.6-28c0.2-0.7,0.8-1.2,1.5-1.1c4.8,0.1,9.5,0.1,14.3,0
				c0.9,0,1.3,0.1,1.1,1.2c-2.6,13.7-5.2,27.4-7.8,41.2c-0.2,1.3-0.6,2.7-0.7,4c0,0.6-0.3,0.9-1,0.8c-3.1,0-6.3,0-9.4,0
				c-0.8,0-0.8-0.3-0.7-0.9c1.8-9.4,3.6-18.8,5.4-28.2c0.1-0.5,0.1-1,0-1.5c-0.9,2.1-1.8,4-2.6,6c-3.3,8-6.6,16-9.9,24
				c-0.1,0.5-0.6,0.7-1.1,0.7c-2.3,0-4.6,0-6.9,0c-0.7,0-0.9-0.2-0.9-0.9c-0.1-3.3-0.3-6.5-0.4-9.8c-0.3-6.3-0.5-12.5-0.8-18.8
				c0-0.3-0.1-0.6-0.1-1.2c-0.2,0.3-0.3,0.6-0.4,0.9c-0.6,4.7-1.6,9.3-2.6,14c-0.6,2.9-1,5.9-1.6,8.8c-0.4,2-0.8,4.1-1.2,6.2
				c-0.1,0.6-0.3,0.8-1,0.8c-3.2,0-6.3,0-9.5,0c-0.7,0-0.8-0.1-0.7-0.9c2.7-14,5.3-27.9,7.9-41.9c0.2-1.1,0.4-2.3,0.6-3.4
				c0.1-0.8,0.4-1.1,1.3-1.1c4.9,0.1,9.8,0,14.6,0c0.9,0,1.1,0.3,1.1,1.2c0,9.3,0.1,18.6,0.1,27.9v1.2L138,36.2z"/>
			<path d="M51.3,5.8c2,0,3.9,0,5.9,0c0.7,0,0.8,0.2,0.7,0.8c-1.2,5.5-1.9,11.1-3.3,16.5c-0.2,0.7-0.2,1.3,0.9,1.2
				c1.5-0.1,3,0,4.4,0c0.7,0,0.9-0.3,1-0.9c0.3-1.9,0.7-3.7,1-5.5c0.7-3.8,1.5-7.6,2.1-11.4c0.1-0.7,0.4-0.8,1-0.8
				c3.8,0,7.7,0,11.5,0c0.7,0,0.9,0.2,0.7,0.9c-0.7,3.5-1.2,7-2,10.4c-0.4,1.8-0.6,3.7-1,5.5c-1,4-1.7,8.1-2.4,12.2
				c-1,5.8-2.2,11.5-3.1,17.3c-0.1,0.8-0.5,1-1.2,1c-3.6,0-7.2,0-10.8,0c-1.5,0-1.5,0-1.2-1.5c1-5.4,2-10.9,3.1-16.3
				c0.2-0.9,0-1-0.8-1c-1.4,0.1-2.7,0.1-4.1,0c-1-0.1-1.2,0.3-1.4,1.2c-0.6,3.5-1.3,7-2,10.4c-0.4,2.1-0.8,4.2-1.2,6.4
				c-0.1,0.6-0.3,0.9-1,0.9c-3.9,0-7.8,0-11.8,0c-0.9,0-0.8-0.4-0.7-1c1.7-8.9,3.3-17.7,5-26.6c1.2-6.2,2.4-12.3,3.5-18.5
				c0.2-1,0.5-1.3,1.5-1.2C47.7,5.8,49.5,5.8,51.3,5.8z"/>
			<path d="M307.6,34.6c1.7-9.3,3.4-18.5,5.1-27.7c0.1-0.9,0.5-1.1,1.3-1.1c3,0.1,5.9,0,8.9,0c0.8,0,1.2,0,1,1.1
				c-1.5,7.4-2.8,14.8-4.2,22.2c-0.9,4.9-1.9,9.8-2.8,14.8c-0.5,2.7-1,5.4-1.5,8.1c-0.1,0.7-0.4,1-1.2,1c-3.5-0.1-7,0-10.5,0
				c-0.8,0-1.1-0.2-1.2-1c-0.7-5.4-1.6-10.8-2.4-16.2c-0.4-3.1-0.8-6.1-1.2-9.2c0-0.2,0.1-0.5-0.4-0.7c-0.3,1.4-0.5,2.7-0.8,4
				l-1.8,9.9c-0.7,4.1-1.5,8.1-2.2,12.2c-0.1,0.8-0.4,1.1-1.3,1.1c-2.9-0.1-5.8-0.1-8.8,0c-1.1,0-1.3-0.3-1.1-1.3
				c1.3-6.5,2.5-13.1,3.7-19.6c1.6-8.4,3.2-16.9,4.8-25.3c0.1-0.8,0.4-1,1.2-1c3.4,0,6.9,0,10.3,0c0.7,0,1,0.2,1,0.9
				c1.1,7.6,2.2,15.2,3.2,22.8c0.3,1.5,0.4,3,0.3,4.5C307.2,34.2,307.3,34.5,307.6,34.6z"/>
			<path d="M30.3,23.2c-1.9,0-3.8,0-5.6,0c-0.7,0-0.9-0.1-0.8-0.9c0.4-1.7,0.7-3.4,1-5.2s-0.5-2.8-2.3-2.9c-2.8-0.2-4.1,0.9-4.6,3.5
				c-0.6,2.9-1,5.8-1.7,8.7c-0.7,3.3-1.2,6.7-2,10.1c-0.4,1.8-0.7,3.6-0.9,5.5c-0.3,1.1,0.4,2.2,1.5,2.4c0.2,0,0.3,0.1,0.5,0.1
				c2.9,0.4,4.5-0.7,5-3.6c0.3-1.6,0.6-3.1,0.9-4.7c0.1-0.6,0.4-0.8,0.9-0.8c3.9,0,7.8,0,11.6,0c0.7,0,0.8,0.3,0.7,0.9
				c-0.7,4.1-1.4,8.2-3.9,11.6c-1.7,2.3-4.1,3.9-6.8,4.6c-5.5,1.6-11.3,1.8-16.8,0.4c-5.2-1.3-7.8-4.8-7-10.2c1.4-8.7,3-17.4,4.9-26
				C6.4,10.4,10.7,7,16.8,5.6c4.6-1.1,9.4-1.1,14,0.1c2.7,0.6,5,2.2,6.5,4.5c0.9,1.7,1.2,3.6,0.9,5.5c-0.3,2.3-0.8,4.5-1.2,6.8
				c-0.1,0.7-0.5,0.7-1,0.7H30.3z"/>
			<path d="M87.8,42.4c0.2,0.5,0.2,1,0,1.5c-1,2.8-1.9,5.5-2.8,8.3c-0.1,0.5-0.6,0.8-1.1,0.8c-3.8,0-7.7,0-11.5,0
				c-0.9,0-0.9-0.3-0.6-1c1.4-3,2.7-6.1,4-9.2c2-5,4.1-9.9,6.2-14.8c2.9-7.1,6-14.2,8.9-21.3c0.1-0.6,0.7-1.1,1.4-1
				c4.7,0,9.3,0,13.9,0c0.8,0,1.1,0.2,1.1,1.1c0.2,6.9,0.5,13.9,0.8,20.8c0.3,8,0.6,15.9,0.9,23.8c0.1,1.2-0.1,1.6-1.4,1.5
				c-3.6,0-7.2,0-10.8,0c-0.8,0-1-0.2-1-1c0.2-2.9,0.3-5.7,0.5-8.6c0-0.8-0.1-1-1-1C92.8,42.5,90.3,42.4,87.8,42.4z M97.4,15.9h-0.2
				c-2.1,6-4.1,12.1-6.2,18.2c1.8,0,3.3,0,4.9,0c0.6,0,0.8-0.2,0.8-0.7C97,27.5,97.2,21.7,97.4,15.9z"/>
			<path d="M183.7,36c-1.5,0-2.6,0-3.6,0c-0.9-0.1-1.2,0.2-1.4,1.1c-0.7,4-1.5,8-2.2,12c-0.1,0.5-0.3,1-0.4,1.5
				c-0.1,0.8,0.1,1.9-0.5,2.3s-1.6,0.1-2.4,0.1c-3.2,0-6.5,0-9.7,0c-0.8,0-0.9-0.2-0.8-1c2.3-11.9,4.5-23.8,6.8-35.7
				c0.6-3.2,1.2-6.3,1.8-9.5c0.1-0.8,0.3-1.1,1.2-1.1c7,0,14,0,21,0c1.5,0,3,0.3,4.5,0.8c2.6,0.9,4.3,3.3,4.4,6c0,2-0.2,3.9-0.6,5.8
				c-0.2,2.1-0.6,4.2-1.1,6.2c-0.4,1.8-1.1,3.6-1.9,5.2c-1.9,3.8-5.4,5.3-9.4,5.8C187.3,35.9,185.5,36,183.7,36z M183,26.9
				c3.7,0,4.2-0.5,5.1-4.1c0.3-1.6,0.6-3.1,1-4.6c0.6-2-0.5-3.3-2.6-3.3c-0.9,0-1.8,0-2.8,0c-0.7-0.1-1,0.2-1.1,0.9
				c-0.5,2.9-1.1,5.9-1.7,8.8C180.6,26.9,180.6,26.9,183,26.9z"/>
			<path d="M251.8,60.9c-9.1,0.1-17.7-3.7-23.8-10.4c-10.1-11-10.4-27.9-0.7-39.2c10.8-12.4,29.2-14.8,42.8-5.6
				c4.2,2.8,7.7,6.7,10,11.3c3.7,6.9,4.4,14.9,2,22.3c-2.2,7.2-7,13.3-13.5,17.1C263.6,59.3,257.7,60.9,251.8,60.9z M253.8,56.9
				c7.4-0.2,15.1-3.7,20.7-11.1c6.4-8.5,6.8-20,1.1-28.9C265,0.6,240.9,0,229.6,15.5c-4.6,6-6.1,13.7-4.2,21
				C228.2,48.6,239.2,56.9,253.8,56.9L253.8,56.9z"/>
			<path d="M206,53c-2,0-3.9,0-5.9,0c-0.7,0-0.9-0.1-0.7-0.8c1.8-9.2,3.6-18.4,5.3-27.6c1.1-5.8,2.2-11.6,3.2-17.4
				c0.2-1,0.5-1.4,1.6-1.4c3.7,0.1,7.4,0,11,0c0.8,0,1,0.1,0.8,1c-1,5.3-2,10.6-3,15.9c-1.8,9.6-3.7,19.2-5.4,28.8
				c-0.2,1.2-0.5,1.7-1.8,1.6C209.4,52.9,207.7,53,206,53z"/>
			<path d="M317.6,53.5c2.1,0,3.8,1.6,3.8,3.7c0,2.1-1.6,3.8-3.7,3.8c-2.1,0-3.7-1.6-3.8-3.7c-0.1-2,1.5-3.7,3.5-3.8
				C317.5,53.5,317.5,53.4,317.6,53.5z M320.6,57.2c0-1.7-1.4-3.1-3.1-3.1c-1.7,0.1-3,1.5-3,3.1c-0.1,1.7,1.3,3,2.9,3.1
				c0.1,0,0.1,0,0.2,0C319.3,60.2,320.7,58.9,320.6,57.2z"/>
			<path d="M277,34.5c-3.8-3.7-7.2-7.4-10.6-11.2c-1.8-2-3.6-4-5.4-6.1c-0.5-0.6-0.8-0.6-1.3,0c-2.8,3.1-5.6,6.1-8.3,9.1
				c-0.2,0.2-0.4,0.5-0.6,0.8c-0.4-0.2-0.3-0.5-0.3-0.7c0-2.4,0-2.4-2.5-2.4c-2.3,0-2.3,0-2.3,2.2c0,1.8,0,3.7,0,5.5
				c0,0.6-0.2,1.3-0.6,1.7c-2.2,2.4-4.4,4.8-6.6,7.3c-0.1,0-0.1,0.1-0.1,0.3c1.8,0,3.6,0,5.4,0c0.5,0,0.8,0.1,0.8,0.7
				c0,4,0,8,0,12.1c-2.6-0.7-5-1.8-7.2-3.4c-8.1-5.8-12.1-13.8-10.4-23.7c1.8-10.7,8.5-17.4,18.9-20c11.5-3,23.5,2.4,29,12.9
				C277.1,24.2,277.9,29.4,277,34.5z"/>
			<path d="M315.9,57.2c0-0.1,0-0.2,0-0.2c0.1-0.7-0.4-1.6,0.2-1.9c0.8-0.3,1.8-0.3,2.6,0.1c0.8,0.3,1.1,1.1,0.6,1.7
				c-0.4,0.5-0.5,1.2-0.1,1.7c0.1,0.2,0.5,0.6,0,0.8c-0.3,0.1-0.7,0-0.8-0.3c0,0,0-0.1,0-0.1c-0.1-0.3-0.3-0.7-0.4-1
				s-0.4-0.3-0.7-0.3c-0.5,0-0.4,0.3-0.4,0.6s0,0.5,0,0.7c0,0.4-0.3,0.4-0.6,0.4s-0.4-0.2-0.4-0.5L315.9,57.2z M317.5,56.9
				c0.4,0,1,0,1-0.6s-0.5-0.5-1-0.6s-0.7,0.1-0.7,0.6S317.1,56.9,317.5,56.9z"/>
		</g>
	</g>
	<line class="st0" x1="0" y1="88" x2="323.9" y2="88"/>
	<g>
		<path d="M4,78L0.3,65.5h3.8l1.7,7.7h0.1l2-7.7h3l2,7.7H13l1.7-7.7h3.8L14.8,78h-3.2l-2.1-7H9.4l-2.1,7H4z"/>
		<path d="M19.7,78v-9.4H23V78H19.7z M21.4,67.6c-0.5,0-0.9-0.2-1.2-0.5c-0.3-0.3-0.5-0.7-0.5-1.1c0-0.4,0.2-0.8,0.5-1.1
			c0.3-0.3,0.7-0.5,1.2-0.5c0.5,0,0.9,0.2,1.2,0.5c0.3,0.3,0.5,0.7,0.5,1.1c0,0.4-0.2,0.8-0.5,1.1C22.2,67.5,21.8,67.6,21.4,67.6z"
			/>
		<path d="M28.1,72.7V78h-3.4v-9.4H28v1.8H28c0.2-0.6,0.6-1.1,1.1-1.4s1.1-0.5,1.8-0.5c0.7,0,1.2,0.2,1.7,0.5s0.9,0.7,1.1,1.2
			s0.4,1.1,0.4,1.8v6h-3.4v-5.3c0-0.5-0.1-0.8-0.4-1.1s-0.6-0.4-1-0.4c-0.3,0-0.5,0.1-0.7,0.2c-0.2,0.1-0.4,0.3-0.5,0.5
			C28.2,72.1,28.1,72.4,28.1,72.7z"/>
		<path d="M39.3,78.1c-0.7,0-1.3-0.2-1.8-0.5c-0.6-0.3-1-0.9-1.3-1.6c-0.3-0.7-0.5-1.6-0.5-2.7c0-1.1,0.2-2.1,0.5-2.8
			c0.4-0.7,0.8-1.2,1.4-1.6c0.6-0.3,1.1-0.5,1.8-0.5c0.5,0,0.9,0.1,1.2,0.2s0.6,0.4,0.9,0.6c0.2,0.3,0.4,0.6,0.5,0.9h0v-4.8h3.4V78
			h-3.3v-1.5h-0.1c-0.1,0.3-0.3,0.6-0.6,0.9c-0.2,0.3-0.5,0.4-0.9,0.6C40.1,78,39.7,78.1,39.3,78.1z M40.5,75.5
			c0.3,0,0.6-0.1,0.8-0.3c0.2-0.2,0.4-0.4,0.5-0.8s0.2-0.7,0.2-1.2c0-0.5-0.1-0.9-0.2-1.2s-0.3-0.6-0.5-0.8
			c-0.2-0.2-0.5-0.3-0.8-0.3s-0.6,0.1-0.8,0.3s-0.4,0.4-0.5,0.8c-0.1,0.3-0.2,0.7-0.2,1.2c0,0.5,0.1,0.9,0.2,1.2
			c0.1,0.3,0.3,0.6,0.5,0.8S40.2,75.5,40.5,75.5z"/>
		<path d="M51.5,78.2c-1,0-1.9-0.2-2.6-0.6s-1.3-1-1.7-1.7s-0.6-1.6-0.6-2.5s0.2-1.8,0.6-2.5s0.9-1.3,1.7-1.7s1.6-0.6,2.6-0.6
			s1.9,0.2,2.6,0.6c0.7,0.4,1.3,1,1.7,1.7c0.4,0.7,0.6,1.6,0.6,2.5s-0.2,1.8-0.6,2.5c-0.4,0.7-0.9,1.3-1.7,1.7
			C53.4,78,52.5,78.2,51.5,78.2z M51.5,75.7c0.3,0,0.5-0.1,0.7-0.3c0.2-0.2,0.4-0.5,0.5-0.8c0.1-0.4,0.2-0.8,0.2-1.3
			c0-0.5-0.1-0.9-0.2-1.3c-0.1-0.4-0.3-0.6-0.5-0.8c-0.2-0.2-0.5-0.3-0.7-0.3c-0.3,0-0.6,0.1-0.8,0.3s-0.4,0.5-0.5,0.8
			c-0.1,0.4-0.2,0.8-0.2,1.3c0,0.5,0.1,0.9,0.2,1.3c0.1,0.4,0.3,0.6,0.5,0.8S51.2,75.7,51.5,75.7z"/>
		<path d="M59.2,78l-2.3-9.4h3.4l1.1,5.7h0.1l1.2-5.7h3.3l1.2,5.7h0.1l1-5.7h3.4L69.2,78h-3.6l-1.3-5h-0.1l-1.3,5H59.2z"/>
		<path d="M81.2,71.7h-3.1c0-0.2-0.1-0.4-0.2-0.5c-0.1-0.1-0.3-0.2-0.5-0.3c-0.2-0.1-0.4-0.1-0.6-0.1c-0.3,0-0.5,0.1-0.7,0.2
			c-0.2,0.1-0.3,0.3-0.3,0.5c0,0.1,0.1,0.3,0.2,0.4c0.1,0.1,0.4,0.2,0.7,0.3l1.9,0.3c1,0.2,1.7,0.5,2.1,0.9c0.5,0.4,0.7,1,0.7,1.7
			c0,0.7-0.2,1.2-0.6,1.7c-0.4,0.5-0.9,0.9-1.6,1.1c-0.7,0.3-1.5,0.4-2.3,0.4c-1.4,0-2.6-0.3-3.4-0.9c-0.8-0.6-1.3-1.4-1.4-2.3h3.3
			c0,0.3,0.2,0.5,0.4,0.7c0.2,0.2,0.6,0.2,0.9,0.2c0.3,0,0.6-0.1,0.8-0.2c0.2-0.1,0.3-0.3,0.3-0.5c0-0.2-0.1-0.3-0.3-0.4
			c-0.2-0.1-0.4-0.2-0.8-0.3l-1.7-0.3c-1-0.2-1.7-0.5-2.1-1c-0.5-0.5-0.7-1.1-0.7-1.8c0-0.7,0.2-1.2,0.5-1.7s0.8-0.8,1.5-1
			c0.6-0.2,1.4-0.4,2.3-0.4c1.4,0,2.4,0.3,3.2,0.8C80.7,69.9,81.1,70.7,81.2,71.7z"/>
		<path d="M99.7,69.4c0-0.4-0.2-0.7-0.5-1c-0.3-0.2-0.7-0.3-1.2-0.3c-0.4,0-0.6,0-0.9,0.1c-0.2,0.1-0.4,0.2-0.5,0.3
			s-0.2,0.3-0.2,0.5c0,0.2,0,0.3,0.1,0.4c0.1,0.1,0.2,0.2,0.3,0.3c0.1,0.1,0.3,0.2,0.5,0.3c0.2,0.1,0.5,0.1,0.8,0.2l1,0.2
			c0.7,0.1,1.3,0.3,1.8,0.6s0.9,0.5,1.2,0.8c0.3,0.3,0.5,0.7,0.7,1.1c0.1,0.4,0.2,0.8,0.2,1.3c0,0.8-0.2,1.5-0.6,2.1
			c-0.4,0.6-1,1-1.7,1.3c-0.8,0.3-1.7,0.4-2.7,0.4c-1.1,0-2-0.2-2.8-0.5c-0.8-0.3-1.4-0.8-1.9-1.5s-0.7-1.5-0.7-2.6h3.2
			c0,0.4,0.1,0.7,0.3,1c0.2,0.3,0.4,0.5,0.7,0.6c0.3,0.1,0.7,0.2,1.1,0.2c0.4,0,0.7,0,0.9-0.1c0.2-0.1,0.4-0.2,0.6-0.4
			c0.1-0.2,0.2-0.3,0.2-0.5c0-0.2-0.1-0.4-0.2-0.5s-0.3-0.3-0.6-0.4c-0.3-0.1-0.6-0.2-1.1-0.3l-1.2-0.3c-1.1-0.2-2-0.6-2.6-1.2
			c-0.6-0.6-1-1.3-0.9-2.3c0-0.8,0.2-1.5,0.6-2.1c0.4-0.6,1-1.1,1.8-1.4c0.8-0.3,1.6-0.5,2.6-0.5c1,0,1.9,0.2,2.6,0.5
			s1.3,0.8,1.7,1.4c0.4,0.6,0.6,1.3,0.6,2.1H99.7z"/>
		<path d="M110.5,73.9v-5.3h3.4V78h-3.2v-1.8h-0.1c-0.2,0.6-0.6,1.1-1.1,1.4c-0.5,0.3-1.1,0.5-1.8,0.5c-0.7,0-1.2-0.2-1.7-0.5
			c-0.5-0.3-0.9-0.7-1.1-1.2c-0.3-0.5-0.4-1.1-0.4-1.8v-6h3.4v5.3c0,0.5,0.1,0.8,0.4,1.1s0.6,0.4,1,0.4c0.3,0,0.5-0.1,0.7-0.2
			s0.4-0.3,0.5-0.5C110.5,74.5,110.5,74.2,110.5,73.9z"/>
		<path d="M119,72.7V78h-3.4v-9.4h3.2v1.8h0.1c0.2-0.6,0.6-1.1,1.1-1.4s1.1-0.5,1.8-0.5c0.7,0,1.2,0.2,1.7,0.5s0.9,0.7,1.1,1.2
			s0.4,1.1,0.4,1.8v6h-3.4v-5.3c0-0.5-0.1-0.8-0.4-1.1s-0.6-0.4-1-0.4c-0.3,0-0.5,0.1-0.7,0.2c-0.2,0.1-0.4,0.3-0.5,0.5
			C119,72.1,119,72.4,119,72.7z"/>
		<path d="M126.7,78v-9.4h3.3v1.8h0.1c0.2-0.7,0.4-1.1,0.8-1.4s0.8-0.5,1.3-0.5c0.1,0,0.3,0,0.4,0s0.3,0.1,0.4,0.1v2.9
			c-0.2-0.1-0.4-0.1-0.6-0.1c-0.2,0-0.5,0-0.6,0c-0.3,0-0.6,0.1-0.9,0.2c-0.3,0.1-0.5,0.4-0.6,0.6c-0.2,0.3-0.2,0.6-0.2,0.9V78
			H126.7z"/>
		<path d="M138.1,78.2c-1,0-1.9-0.2-2.6-0.6s-1.3-1-1.7-1.7s-0.6-1.6-0.6-2.5s0.2-1.8,0.6-2.5s0.9-1.3,1.7-1.7s1.6-0.6,2.6-0.6
			s1.9,0.2,2.6,0.6c0.7,0.4,1.3,1,1.7,1.7c0.4,0.7,0.6,1.6,0.6,2.5s-0.2,1.8-0.6,2.5c-0.4,0.7-0.9,1.3-1.7,1.7
			C140,78,139.2,78.2,138.1,78.2z M138.2,75.7c0.3,0,0.5-0.1,0.7-0.3c0.2-0.2,0.4-0.5,0.5-0.8c0.1-0.4,0.2-0.8,0.2-1.3
			c0-0.5-0.1-0.9-0.2-1.3c-0.1-0.4-0.3-0.6-0.5-0.8c-0.2-0.2-0.5-0.3-0.7-0.3c-0.3,0-0.6,0.1-0.8,0.3s-0.4,0.5-0.5,0.8
			c-0.1,0.4-0.2,0.8-0.2,1.3c0,0.5,0.1,0.9,0.2,1.3c0.1,0.4,0.3,0.6,0.5,0.8S137.9,75.7,138.2,75.7z"/>
		<path d="M148.9,78.2c-1,0-1.9-0.2-2.6-0.6s-1.3-1-1.7-1.7s-0.6-1.6-0.6-2.5s0.2-1.8,0.6-2.5s0.9-1.3,1.7-1.7s1.6-0.6,2.6-0.6
			s1.9,0.2,2.6,0.6c0.7,0.4,1.3,1,1.7,1.7c0.4,0.7,0.6,1.6,0.6,2.5s-0.2,1.8-0.6,2.5c-0.4,0.7-0.9,1.3-1.7,1.7
			C150.8,78,149.9,78.2,148.9,78.2z M148.9,75.7c0.3,0,0.5-0.1,0.7-0.3c0.2-0.2,0.4-0.5,0.5-0.8c0.1-0.4,0.2-0.8,0.2-1.3
			c0-0.5-0.1-0.9-0.2-1.3c-0.1-0.4-0.3-0.6-0.5-0.8c-0.2-0.2-0.5-0.3-0.7-0.3c-0.3,0-0.6,0.1-0.8,0.3s-0.4,0.5-0.5,0.8
			c-0.1,0.4-0.2,0.8-0.2,1.3c0,0.5,0.1,0.9,0.2,1.3c0.1,0.4,0.3,0.6,0.5,0.8S148.6,75.7,148.9,75.7z"/>
		<path d="M155.1,78v-9.4h3.2v1.8h0.1c0.2-0.6,0.5-1,1-1.4c0.5-0.3,1-0.5,1.7-0.5c0.7,0,1.2,0.2,1.7,0.5c0.5,0.3,0.8,0.8,0.9,1.4
			h0.1c0.2-0.6,0.5-1,1-1.4c0.5-0.3,1.1-0.5,1.8-0.5c0.9,0,1.6,0.3,2.2,0.9c0.6,0.6,0.8,1.3,0.8,2.3V78h-3.4v-5.5
			c0-0.4-0.1-0.7-0.3-1c-0.2-0.2-0.5-0.4-0.8-0.4c-0.3,0-0.6,0.1-0.8,0.4c-0.2,0.2-0.3,0.6-0.3,1V78h-3.2v-5.5c0-0.4-0.1-0.7-0.3-1
			c-0.2-0.2-0.5-0.4-0.8-0.4c-0.2,0-0.4,0.1-0.6,0.2c-0.2,0.1-0.3,0.3-0.4,0.5c-0.1,0.2-0.1,0.4-0.1,0.7V78H155.1z"/>
		<path d="M179.9,71.7h-3.1c0-0.2-0.1-0.4-0.2-0.5c-0.1-0.1-0.3-0.2-0.5-0.3c-0.2-0.1-0.4-0.1-0.6-0.1c-0.3,0-0.5,0.1-0.7,0.2
			c-0.2,0.1-0.3,0.3-0.3,0.5c0,0.1,0.1,0.3,0.2,0.4c0.1,0.1,0.4,0.2,0.7,0.3l1.9,0.3c1,0.2,1.7,0.5,2.1,0.9c0.5,0.4,0.7,1,0.7,1.7
			c0,0.7-0.2,1.2-0.6,1.7c-0.4,0.5-0.9,0.9-1.6,1.1c-0.7,0.3-1.5,0.4-2.3,0.4c-1.4,0-2.6-0.3-3.4-0.9c-0.8-0.6-1.3-1.4-1.4-2.3h3.3
			c0,0.3,0.2,0.5,0.4,0.7c0.3,0.2,0.6,0.2,1,0.2c0.3,0,0.6-0.1,0.8-0.2c0.2-0.1,0.3-0.3,0.3-0.5c0-0.2-0.1-0.3-0.3-0.4
			c-0.2-0.1-0.4-0.2-0.8-0.3l-1.7-0.3c-1-0.2-1.7-0.5-2.2-1c-0.5-0.5-0.7-1.1-0.7-1.8c0-0.7,0.2-1.2,0.5-1.7s0.8-0.8,1.5-1
			s1.4-0.4,2.3-0.4c1.4,0,2.4,0.3,3.2,0.8C179.4,69.9,179.8,70.7,179.9,71.7z"/>
		<path d="M191.6,78V65.5h3.4v4.9h4.5v-4.9h3.4V78h-3.4v-4.9H195V78H191.6z"/>
		<path d="M209.1,78.2c-1,0-1.9-0.2-2.6-0.6s-1.3-1-1.7-1.7c-0.4-0.7-0.6-1.6-0.6-2.5s0.2-1.8,0.6-2.5c0.4-0.7,0.9-1.3,1.7-1.7
			s1.6-0.6,2.6-0.6s1.9,0.2,2.6,0.6s1.3,1,1.7,1.7c0.4,0.7,0.6,1.6,0.6,2.5s-0.2,1.8-0.6,2.5c-0.4,0.7-0.9,1.3-1.7,1.7
			S210.1,78.2,209.1,78.2z M209.1,75.7c0.3,0,0.5-0.1,0.7-0.3c0.2-0.2,0.4-0.5,0.5-0.8s0.2-0.8,0.2-1.3c0-0.5-0.1-0.9-0.2-1.3
			c-0.1-0.4-0.3-0.6-0.5-0.8c-0.2-0.2-0.5-0.3-0.7-0.3c-0.3,0-0.6,0.1-0.8,0.3s-0.4,0.5-0.5,0.8c-0.1,0.4-0.2,0.8-0.2,1.3
			c0,0.5,0.1,0.9,0.2,1.3s0.3,0.6,0.5,0.8S208.8,75.7,209.1,75.7z"/>
		<path d="M215.3,78v-9.4h3.2v1.8h0.1c0.2-0.6,0.5-1,1-1.4c0.5-0.3,1-0.5,1.7-0.5c0.7,0,1.2,0.2,1.7,0.5c0.5,0.3,0.8,0.8,0.9,1.4
			h0.1c0.2-0.6,0.5-1,1-1.4c0.5-0.3,1.1-0.5,1.8-0.5c0.9,0,1.6,0.3,2.2,0.9c0.6,0.6,0.8,1.3,0.8,2.3V78h-3.4v-5.5
			c0-0.4-0.1-0.7-0.3-1c-0.2-0.2-0.5-0.4-0.8-0.4c-0.3,0-0.6,0.1-0.8,0.4c-0.2,0.2-0.3,0.6-0.3,1V78H221v-5.5c0-0.4-0.1-0.7-0.3-1
			c-0.2-0.2-0.5-0.4-0.8-0.4c-0.2,0-0.4,0.1-0.6,0.2c-0.2,0.1-0.3,0.3-0.4,0.5c-0.1,0.2-0.1,0.4-0.1,0.7V78H215.3z"/>
		<path d="M236,78.2c-1,0-1.9-0.2-2.6-0.6s-1.3-0.9-1.7-1.7c-0.4-0.7-0.6-1.6-0.6-2.6c0-1,0.2-1.8,0.6-2.5c0.4-0.7,0.9-1.3,1.7-1.7
			c0.7-0.4,1.6-0.6,2.5-0.6c0.7,0,1.3,0.1,1.9,0.3s1.1,0.5,1.5,1c0.4,0.4,0.7,0.9,0.9,1.5c0.2,0.6,0.3,1.3,0.3,2v0.8h-8.4v-1.9h5.3
			c0-0.3-0.1-0.5-0.2-0.7c-0.1-0.2-0.3-0.4-0.5-0.5c-0.2-0.1-0.5-0.2-0.8-0.2c-0.3,0-0.5,0.1-0.8,0.2c-0.2,0.1-0.4,0.3-0.5,0.5
			c-0.1,0.2-0.2,0.4-0.2,0.7v2c0,0.3,0.1,0.6,0.2,0.8c0.1,0.2,0.3,0.4,0.5,0.6c0.2,0.1,0.5,0.2,0.9,0.2c0.2,0,0.4,0,0.6-0.1
			c0.2-0.1,0.4-0.2,0.5-0.3c0.1-0.1,0.2-0.3,0.3-0.4h3.1c-0.1,0.7-0.4,1.2-0.8,1.7s-0.9,0.8-1.6,1.1S236.9,78.2,236,78.2z"/>
		<path d="M245.3,78V65.5h9v2.7h-5.6v2.1h5.2v2.7h-5.2v2.2h5.6V78H245.3z"/>
		<path d="M259,68.6l1.4,2.9l1.4-2.9h3.3l-2.5,4.7l2.6,4.7h-3.3l-1.6-3l-1.5,3h-3.4l2.7-4.7l-2.5-4.7H259z"/>
		<path d="M271.9,68.6v2.4h-6.2v-2.4H271.9z M266.9,66.4h3.4V75c0,0.1,0,0.2,0.1,0.3s0.1,0.2,0.2,0.2s0.2,0.1,0.4,0.1
			c0.1,0,0.2,0,0.4,0s0.2,0,0.3-0.1l0.5,2.4c-0.2,0-0.4,0.1-0.6,0.2c-0.3,0.1-0.6,0.1-1,0.1c-0.8,0-1.4,0-1.9-0.2
			c-0.5-0.2-0.9-0.5-1.2-1s-0.4-1-0.4-1.6V66.4z"/>
		<path d="M277.7,78.2c-1,0-1.9-0.2-2.6-0.6s-1.3-0.9-1.7-1.7c-0.4-0.7-0.6-1.6-0.6-2.6c0-1,0.2-1.8,0.6-2.5
			c0.4-0.7,0.9-1.3,1.7-1.7c0.7-0.4,1.6-0.6,2.5-0.6c0.7,0,1.3,0.1,1.9,0.3s1.1,0.5,1.5,1c0.4,0.4,0.7,0.9,0.9,1.5
			c0.2,0.6,0.3,1.3,0.3,2v0.8h-8.4v-1.9h5.3c0-0.3-0.1-0.5-0.2-0.7c-0.1-0.2-0.3-0.4-0.5-0.5c-0.2-0.1-0.5-0.2-0.8-0.2
			c-0.3,0-0.5,0.1-0.8,0.2c-0.2,0.1-0.4,0.3-0.5,0.5c-0.1,0.2-0.2,0.4-0.2,0.7v2c0,0.3,0.1,0.6,0.2,0.8c0.1,0.2,0.3,0.4,0.5,0.6
			c0.2,0.1,0.5,0.2,0.9,0.2c0.2,0,0.4,0,0.6-0.1c0.2-0.1,0.4-0.2,0.5-0.3c0.1-0.1,0.2-0.3,0.3-0.4h3.1c-0.1,0.7-0.4,1.2-0.8,1.7
			s-0.9,0.8-1.6,1.1S278.6,78.2,277.7,78.2z"/>
		<path d="M283.7,78v-9.4h3.3v1.8h0.1c0.2-0.7,0.4-1.1,0.8-1.4c0.4-0.3,0.8-0.5,1.3-0.5c0.1,0,0.3,0,0.4,0s0.3,0.1,0.4,0.1v2.9
			c-0.2-0.1-0.4-0.1-0.6-0.1c-0.2,0-0.5,0-0.6,0c-0.3,0-0.6,0.1-0.9,0.2c-0.3,0.1-0.5,0.4-0.6,0.6c-0.2,0.3-0.2,0.6-0.2,0.9V78
			H283.7z"/>
		<path d="M291.1,78v-9.4h3.4V78H291.1z M292.8,67.6c-0.5,0-0.9-0.2-1.2-0.5c-0.3-0.3-0.5-0.7-0.5-1.1c0-0.4,0.2-0.8,0.5-1.1
			c0.3-0.3,0.7-0.5,1.2-0.5c0.5,0,0.9,0.2,1.2,0.5c0.3,0.3,0.5,0.7,0.5,1.1c0,0.4-0.2,0.8-0.5,1.1C293.6,67.5,293.2,67.6,292.8,67.6
			z"/>
		<path d="M300.7,78.2c-1,0-1.9-0.2-2.6-0.6s-1.3-1-1.7-1.7c-0.4-0.7-0.6-1.6-0.6-2.5s0.2-1.8,0.6-2.5c0.4-0.7,0.9-1.3,1.7-1.7
			s1.6-0.6,2.6-0.6s1.9,0.2,2.6,0.6s1.3,1,1.7,1.7c0.4,0.7,0.6,1.6,0.6,2.5s-0.2,1.8-0.6,2.5c-0.4,0.7-0.9,1.3-1.7,1.7
			S301.7,78.2,300.7,78.2z M300.7,75.7c0.3,0,0.5-0.1,0.7-0.3c0.2-0.2,0.4-0.5,0.5-0.8s0.2-0.8,0.2-1.3c0-0.5-0.1-0.9-0.2-1.3
			c-0.1-0.4-0.3-0.6-0.5-0.8c-0.2-0.2-0.5-0.3-0.7-0.3c-0.3,0-0.6,0.1-0.8,0.3s-0.4,0.5-0.5,0.8c-0.1,0.4-0.2,0.8-0.2,1.3
			c0,0.5,0.1,0.9,0.2,1.3s0.3,0.6,0.5,0.8S300.4,75.7,300.7,75.7z"/>
		<path d="M306.9,78v-9.4h3.3v1.8h0.1c0.2-0.7,0.4-1.1,0.8-1.4c0.4-0.3,0.8-0.5,1.3-0.5c0.1,0,0.3,0,0.4,0s0.3,0.1,0.4,0.1v2.9
			c-0.2-0.1-0.4-0.1-0.6-0.1c-0.2,0-0.5,0-0.6,0c-0.3,0-0.6,0.1-0.9,0.2c-0.3,0.1-0.5,0.4-0.6,0.6c-0.2,0.3-0.2,0.6-0.2,0.9V78
			H306.9z"/>
		<path d="M323,71.7h-3.1c0-0.2-0.1-0.4-0.2-0.5c-0.1-0.1-0.3-0.2-0.5-0.3c-0.2-0.1-0.4-0.1-0.6-0.1c-0.3,0-0.5,0.1-0.7,0.2
			c-0.2,0.1-0.3,0.3-0.3,0.5c0,0.1,0.1,0.3,0.2,0.4c0.1,0.1,0.4,0.2,0.7,0.3l1.9,0.3c1,0.2,1.7,0.5,2.1,0.9c0.5,0.4,0.7,1,0.7,1.7
			c0,0.7-0.2,1.2-0.6,1.7c-0.4,0.5-0.9,0.9-1.6,1.1c-0.7,0.3-1.5,0.4-2.3,0.4c-1.4,0-2.6-0.3-3.4-0.9c-0.8-0.6-1.3-1.4-1.4-2.3h3.3
			c0,0.3,0.2,0.5,0.4,0.7c0.3,0.2,0.6,0.2,1,0.2c0.3,0,0.6-0.1,0.8-0.2c0.2-0.1,0.3-0.3,0.3-0.5c0-0.2-0.1-0.3-0.3-0.4
			c-0.2-0.1-0.4-0.2-0.8-0.3l-1.7-0.3c-1-0.2-1.7-0.5-2.2-1c-0.5-0.5-0.7-1.1-0.7-1.8c0-0.7,0.2-1.2,0.5-1.7s0.8-0.8,1.5-1
			s1.4-0.4,2.3-0.4c1.4,0,2.4,0.3,3.2,0.8C322.5,69.9,322.9,70.7,323,71.7z"/>
	</g>
	<circle cx="87" cy="73.1" r="1.7"/>
	<circle cx="186" cy="73.1" r="1.7"/>
</g>
</svg>
