<svg id="Layer_1" data-name="Layer 1" xmlns="http://www.w3.org/2000/svg" viewBox="0 0 323.9 83.77"><path d="M122.47,87,0,41.48c5-2.71,9.64-5.14,14.19-7.68,1.52-.85,2,.44,2.62,1.13.88,1.08-.45,1.22-1,1.59-1.9,1.2-3.82,2.37-5.89,3.64L114.77,78.68c-2.62-7.41-5.2-14.55-7.68-21.73-3.28-9.46-6.46-19-9.69-28.43-.88-1.63-3.06-1.07-4.51-2.88a8.3,8.3,0,0,1,5.75,1.67c3.69,7.81,6.49,16,9.71,24q7,17.37,13.93,34.76A5.4,5.4,0,0,1,122.47,87Z" transform="translate(0 -3.24)"/><path d="M101.37,46.9c0,1.85-1.64,1.22-2.7,1.3a135.18,135.18,0,0,1-22.94,0c-1-.08-30.58-3.2-43.81-7.8-5.1-1.78-10.08-4-14-7.91C12.59,27.22,13,21.54,19.08,17A47.66,47.66,0,0,1,32.94,9.86C40.67,7.3,60.29,3.65,62.12,3.24c-2,.82-20.13,5.3-27,8.56a27.74,27.74,0,0,0-9.21,6.41c-3,3.35-2.88,7.35.13,10.64,4.48,4.92,10.42,7.23,16.49,9.29a125.67,125.67,0,0,0,31.22,6.15c2.49.18,19.13,1.05,24.91,1C100,45.32,101.33,45.47,101.37,46.9Z" transform="translate(0 -3.24)"/><path d="M92.67,38c-.14-5.08-.13-10.16,0-15.24,0-1.72-.31-2.73-2.1-3.22-2.75-.74-4-2.56-3.44-5.51a11.21,11.21,0,0,0,0-2.09c0-.61,0-1.25-.86-1.25-2.58,0-6-1-7.59.27-2.55,2-3.47.05-4.88-.76-.83-.48-1.26-.92-2.29-.32Q62.8,14.84,54,19.6a2.4,2.4,0,0,0-1.45,2.54c.07,5.18.14,10.37,0,15.55-.07,2.34.83,2.84,3,2.79,5.68-.12,11.37,0,17,0h0c5.89,0,11.78-.08,17.66.06C92.22,40.55,92.72,39.93,92.67,38Zm-6.06-1.65q-14.06-.06-28.12,0c-1.46,0-1.88-.48-1.83-1.9q.15-5.23,0-10.47c0-1.22.53-1.7,1.5-2.22,4.29-2.27,8.56-4.57,12.77-7a2.75,2.75,0,0,1,3.24.14c2.22,1.37,4.54,2.57,6.83,3.85a4,4,0,0,0,.4-.77c.24-1.27-1.3-3.53,1.08-3.56,2,0,1.08,2.22,1,3.38-.09,1.87.4,3,2.26,3.53s2.48,1.72,2.32,3.76a78.19,78.19,0,0,0,0,9.56C88.22,36,87.93,36.34,86.61,36.33Z" transform="translate(0 -3.24)"/><path d="M299.46,45.94c1.83-7.51,3.55-14.49,5.2-21.49.3-1.25.77-1.81,2.16-1.88,1.66-.09,1.42,1.18,1.62,2,1.56,6.09,3,12.21,4.53,18.31.23.93.54,1.85.86,2.9,2.17-7.17,4.29-14.13,6.39-21.1.32-1,.44-2.18,2-2,1.21.11,2.17-.4,1.39,1.84-2.8,8.08-5.14,16.32-7.66,24.49a15.67,15.67,0,0,0-.56,2,1.6,1.6,0,0,1-1.86,1.48c-1.11,0-1.47-.6-1.71-1.63-1.65-7-3.37-14.09-5.19-21.67-1.77,7.27-3.43,14-5.06,20.82-.27,1.13-.15,2.37-1.88,2.51s-1.83-1.32-2.15-2.31q-4-12.48-7.75-25c-.2-.68-1.39-1.93.32-2.38,1.21-.32,2.3-.2,2.77,1.39,1.84,6.31,3.77,12.6,5.67,18.89C298.82,43.81,299.07,44.64,299.46,45.94Z" transform="translate(0 -3.24)"/><path d="M173,63.92h48.78c.6,0,1.2,0,1.79,0,1-.09,1.4.37,1.39,1.38s-.11,1.59-1.26,1.5c-.6,0-1.2,0-1.8,0H124.1a6.76,6.76,0,0,1-.9,0c-1-.16-2.54.65-2.47-1.5.07-1.88,1.38-1.29,2.35-1.33,1.49-.07,3,0,4.48,0Z" transform="translate(0 -3.24)"/><path d="M227.46,40.78c1.87,2.95,3.81,5.81,5.49,8.81.4.71,2.09,1.77.61,2.62a2.6,2.6,0,0,1-3.6-1.12c-1.44-2.48-3-4.87-4.42-7.38-1.09-1.94-2.85-3.5-3.41-5.8,1.14-.6,2.24-.26,3.29-.3A5.68,5.68,0,0,0,231,32.82a6.41,6.41,0,0,0-4.13-6.48,6.53,6.53,0,0,0-1.17-.22c-7.09-.79-7.12-.79-7.09,6.23,0,6,.06,12,.2,17.94,0,1.37-.2,2.06-1.7,2.11s-1.68-.59-1.67-1.82q0-13.15,0-26.32c0-1,.12-1.73,1.43-1.65,3.47.22,7-.31,10.42.52a9.14,9.14,0,0,1,7.19,8.93C234.58,36.25,231.85,39.71,227.46,40.78Z" transform="translate(0 -3.24)"/><path d="M271.34,37.39c0-4.18,0-8.36,0-12.54,0-1.41.15-2.27,1.88-2.24,4,.08,8,0,12,0,1.29,0,2,.25,2.06,1.78s-.81,1.75-2.07,1.73c-2.89-.06-5.78,0-8.66-.07-1.43-.05-1.81.39-1.85,1.83-.22,7.87-.26,7.87,7.72,7.86a9,9,0,0,1,2.08,0c1,.23,2.74-1,2.77,1.43s-1.6,2-3.07,1.93c-2.58-.07-5.18,0-7.76-.19-1.35-.1-1.85.26-1.67,1.57,0,.2,0,.4,0,.6.21,2.54-1.11,5.93.55,7.4,1.42,1.25,4.73.37,7.21.41,1,0,2,0,3,0s1.82-.16,1.75,1.28c-.05,1.2-.11,2.21-1.68,2.21-4.19,0-8.37,0-12.55,0-1.87,0-1.7-1.24-1.7-2.46,0-4.18,0-8.36,0-12.54Z" transform="translate(0 -3.24)"/><path d="M169.92,37.25c0-4.09.08-8.18,0-12.27,0-1.77.36-2.48,2.3-2.4,3.78.15,7.58.1,11.37,0,1.39,0,1.89.34,1.91,1.81,0,1.62-.74,1.74-2,1.71-2.69-.07-5.39,0-8.08-.06-1.49-.06-2,.29-2.06,1.94-.18,7.74-.24,7.74,7.59,7.74a29.8,29.8,0,0,0,3,0c1.51-.14,1.5.74,1.53,1.85,0,1.32-.41,1.65-1.75,1.58-2.88-.14-5.79.08-8.67-.12-1.37-.09-1.61.2-1.68,1.5-.46,8.4-.5,8.4,7.79,8.39a24.14,24.14,0,0,0,2.69,0c1.41-.16,1.62.55,1.61,1.75s-.24,1.8-1.64,1.78c-3.89-.08-7.78-.09-11.67,0-1.71,0-2.27-.61-2.23-2.29C170,45.83,169.92,41.54,169.92,37.25Z" transform="translate(0 -3.24)"/><path d="M213.46,51.26a6,6,0,0,1-.41-.79c-3.37-8.71-6.76-17.41-10.08-26.14-.45-1.17-.94-1.8-2.31-1.74s-2.09.17-2.66,1.67c-3.36,8.84-6.88,17.61-10.38,26.4-.23.58-.59,1.27.12,1.5,1,.32,2.19.71,3-.41a9.75,9.75,0,0,0,.84-2.19c2.42-6.65,2.42-6.65,9.58-6.65a18.56,18.56,0,0,0,2.69,0c2.23-.33,3.45.39,3.92,2.74a38.46,38.46,0,0,0,2,5.5c.5,1.29,1.57,1.35,2.71,1.24C213.11,52.3,213.57,52.06,213.46,51.26ZM203.87,40c-2.19,0-4.39-.07-6.58,0-1.79,0-1.94-.49-1.28-2.09,1.48-3.62,2.74-7.35,4.32-11.65,1.72,4.45,3.29,8.44,4.81,12.45C205.59,39.89,204.77,40,203.87,40Z" transform="translate(0 -3.24)"/><path d="M247.18,47.09c2.15-5.85,4.07-11.06,6-16.26.81-2.21,1.7-4.39,2.39-6.63a2.07,2.07,0,0,1,3-1.49c1.47.55.37,1.59.06,2.43q-4.74,12.66-9.47,25.31c-.34.89-.53,1.92-1.9,1.95s-1.52-1-1.87-1.87q-5-12.91-9.91-25.83c-.26-.7-.75-1.75.32-2s2.34-.53,2.93,1.14c2.13,6,4.37,12,6.56,18C245.82,43.34,246.37,44.86,247.18,47.09Z" transform="translate(0 -3.24)"/><path d="M153.75,37.25c0-4.19,0-8.38,0-12.56,0-1.45.24-2.16,1.94-2.14s1.59,1,1.59,2.14c0,7.28.07,14.56-.05,21.84,0,2,.51,2.61,2.46,2.44s4-.07,6-.06c.86,0,1.86-.24,1.8,1.24-.05,1.2-.08,2.24-1.66,2.24H155.3c-1.65,0-1.58-1.13-1.57-2.28,0-4.28,0-8.57,0-12.86Z" transform="translate(0 -3.24)"/><path d="M322.43,62.16c-1.88,0-2.87,1.07-4-.29-1.67-2-4.32-1.19-5.61.24-1.51,1.68-1.39,3.64,0,5.41a3.5,3.5,0,0,0,4.83.77c1.45-.94,2.76-.8,4.22-.77-.62,2.49-4.09,4.71-6.29,4.59a7,7,0,0,1-6.74-5.62c-.63-3.89,1.59-7.9,5.1-9C316.6,56.62,320.68,58,322.43,62.16Z" transform="translate(0 -3.24)"/><path d="M238.12,64.61c1-.6.53-1.82.57-2.77a3.65,3.65,0,0,0-2.79-3.75,13.27,13.27,0,0,0-6.74,0c-.64.17-.17,1.06-.17,1.62,0,3.29.12,6.57-.12,9.84-.13,1.74.23,2.19,2,2.21s1.78-.86,1.57-2.18a20,20,0,0,1,0-2.7c2.17,1.54,1.74,6.31,6.19,4.57.23-.74-.28-1-.57-1.39C236.57,68.19,235.09,66.41,238.12,64.61Zm-4.77-.23c-1.8.16-.7-1.42-1.14-2,.27-.85-.5-2.21,1-2,1.1.12,2.44.43,2.48,2S234.49,64.27,233.35,64.38Z" transform="translate(0 -3.24)"/><path d="M266.67,37.57c0,4.28-.08,8.57,0,12.85,0,1.48-.47,1.9-1.85,2s-1.55-.7-1.55-1.82q0-13.17,0-26.33c0-1.29.35-1.75,1.67-1.67s1.67.49,1.64,1.82c-.1,4.38,0,8.77,0,13.16Z" transform="translate(0 -3.24)"/><path d="M266.73,69c-2,.37-2.34-.57-2.25-2.3.13-2.38,0-4.78,0-7.17,0-1,.1-1.9-1.47-1.89s-1.53.79-1.52,1.88q0,5.07,0,10.16c0,.33.35,1.08-.49.94-.27,0-.47-.57-.7-.86-.66-3.79-2.83-7.05-3.73-10.77-.23-1-1.06-1.27-2.06-1.33s-1.33.62-1.61,1.38c-1.57,4.08-3.14,8.16-4.78,12.4,1.53.14,2.67.65,3.52-1a3.49,3.49,0,0,1,5.76-.42c0,1.13,1.1,1.61,2,1.6,2.48,0,5,0,7.45,0,1,0,2,.23,1.94-1.41S267.6,68.87,266.73,69Zm-11.19-3c-.16.45-1.61.47-1.82,0-.56-1.23.56-2.23.8-3.51C255.34,63.71,256,64.85,255.54,66Z" transform="translate(0 -3.24)"/><path d="M240,64.45v-.9c0-6,0-5.95,5.84-5.82,1.08,0,1.92-.1,1.92,1.45,0,1.38-.54,1.74-1.77,1.61a14.79,14.79,0,0,0-1.49,0c-.83,0-1.52-.07-1.57,1.16,0,1.4.76,1.38,1.71,1.34.6,0,1.2,0,1.79,0,1.11-.09,1.31.49,1.3,1.45s-.27,1.51-1.34,1.45c-.7,0-1.4,0-2.1,0-1.05-.1-1.37.35-1.36,1.37s.23,1.53,1.47,1.67,3.55-1.27,3.24,1.44c-.23,1.94-5.23,1-6.12,1-1.16.07-1.59-.38-1.54-1.55C240,68.24,240,66.34,240,64.45Z" transform="translate(0 -3.24)"/><path d="M282.14,62.69c1-1.1,1.18-2.54,1.68-3.8a2.11,2.11,0,0,1,2.92-1.2c1,.36.29,1.41,0,2.25-1.2,3.47-3.84,6.52-3.11,10.59.22,1.2-.72,1.16-1.55,1.16s-1.68,0-1.48-1.2c.65-3.92-1.64-7-2.93-10.34-.3-.77-1.55-1.82.16-2.31,1.11-.31,2.36-.25,2.8,1.37A7.58,7.58,0,0,0,282.14,62.69Z" transform="translate(0 -3.24)"/><path d="M270.54,66.09c0-1.19,0-2.38,0-3.58,0-.9.14-1.82-1.28-1.74s-1.1-1.07-1.14-1.9c-.06-1.17.7-1.19,1.57-1.16,1.69,0,3.38,0,5.08,0,.77,0,1.68-.14,1.67,1.09,0,.92,0,2-1.28,1.9-1.7-.08-1.27,1-1.25,1.93,0,2.38,0,4.77.08,7.16,0,1.13,0,1.92-1.51,1.88-1.27,0-2.12-.15-2-1.75C270.63,68.69,270.53,67.39,270.54,66.09Z" transform="translate(0 -3.24)"/><path d="M293.32,64.51c0-1.7.09-3.39,0-5.08-.1-1.52.58-1.84,1.94-1.82,1.64,0,1.33,1,1.3,2-.08,2.39,0,4.79-.19,7.16-.15,1.87.44,2.54,2.31,2.34,1-.1,2.35-.51,2.3,1.36,0,1.72-1.33,1.13-2.17,1.16-5.47.21-5.47.19-5.47-5.34Z" transform="translate(0 -3.24)"/><path d="M301.67,64.54c0-1.79,0-3.58,0-5.37,0-1.17.49-1.51,1.62-1.54,1.3,0,1.43.62,1.41,1.65-.05,2.29.11,4.59-.06,6.87-.15,2.07.26,3.34,2.68,2.94,1.27-.21,1.89.39,1.86,1.63-.05,1.51-1.27.9-2,.93-5.51.2-5.51.18-5.51-5.31Z" transform="translate(0 -3.24)"/><path d="M150,44.62c.62.81-.29,1.56-.69,2.07-5.49,7-14.66,8.78-22.11,2a37.18,37.18,0,0,1-2.88-3.36c-4.17.6-8.35,1.21-12.53,1.8a9.51,9.51,0,0,1-1.77.1,1.18,1.18,0,0,1-1.19-1.11c-.09-.94.69-.81,1.22-.87q5.6-.57,11.21-1.1l2.36-.22c-4.7-9.84,2.59-19.72,10.79-21.64,5.25-1.24,14.72,2.67,16.06,8.41-2,.61-3.5-.09-4.95-1.63a11.17,11.17,0,0,0-12.73-2.71c-3.79,1.6-7.28,6.25-6.82,10.86.21,2.14-.08,4.35,1.41,6.18,2.6-.44,5.14-1.29,8.22-1a13.53,13.53,0,0,1-5.57,1.75c-.81.13-1.64,0-1.57,1.22,6.36,5.75,11.21,5.73,17.86-.08.36-.32.77-.81,1.16-.81C148.36,44.41,149.4,43.8,150,44.62Z" transform="translate(0 -3.24)"/><path d="M60.24,14.82c-1.61.76-2.89,0-4.18-.65a3.72,3.72,0,0,0-3.21.39c-7.31,4.43-14.67,8.73-22,13.07-.88.52-1.88,1.46-2.75.06s.46-1.73,1.38-2.24q11.72-6.54,23.41-13.13C54.59,11.36,59.1,14.24,60.24,14.82Z" transform="translate(0 -3.24)"/></svg>