<svg xmlns="http://www.w3.org/2000/svg" xmlns:xlink="http://www.w3.org/1999/xlink" width="17.397" height="18" viewBox="0 0 17.397 18">
  <defs>
    <rect id="rect-1" width="17.397" height="18" x="0" y="0"/>
    <mask id="mask-2" maskContentUnits="userSpaceOnUse" maskUnits="userSpaceOnUse">
      <rect width="17.397" height="18" x="0" y="0" fill="black"/>
      <use fill="white" xlink:href="#rect-1"/>
    </mask>
  </defs>
  <g>
    <use fill="none" xlink:href="#rect-1"/>
    <g mask="url(#mask-2)">
      <path fill="rgb(22,56,93)" fill-rule="evenodd" d="M15.79614258 11.93964386c-.05895996.22992706-.26000977.39008331-.48986817.39008331H4.10290527l-.22802734 1.48963929c.32849121.23116302.5883789.55947113.741333.94447326h7.76635743c.3046875-.76656341 1.0333252-1.30786896 1.88208008-1.30786896 1.1217041 0 2.03442383.94529725 2.03442383 2.1071701 0 1.1618805-.91259766 2.10717774-2.03442383 2.10717774-1.04040528 0-1.90039063-.81306457-2.01989746-1.85784912H4.75402832c-.1196289 1.04478455-.97949219 1.85784912-2.01977539 1.85784912-1.12182617 0-2.0345459-.94529724-2.0345459-2.10717773 0-1.16187286.91271973-2.1071701 2.0345459-2.1071701.05700684 0 .11315918.0031662.16894531.00798034l.25378418-1.65750122-.87207031-5.55716705c-.00158691-.00784302-.00256348-.0159607-.00390625-.02407837l-.44360352-2.82791138-.00097656-.00578308-.20593262-1.31323242L.27600098 1.3609848C.02685547 1.2290268-.07165527.9131012.05578613.65538025s.43286133-.3598175.68200684-.2278595l1.5826416.83824158c.14343262.07595825.24353027.21795654.26928711.38265991l.18811035 1.19889069L16.9967041 4.96879578c.1430664.02133178.27062988.1049881.35046387.22978973.07958984.12480164.10412598.27877045.06713867.42353058l-1.61816406 6.31752777zM5.50305176 4.31342316l.12231445 1.6057663L3.2196045 5.6624298l-.27148437-1.73015595 2.55493164.3811493zM9.0303955 6.28271484l-2.38000488-.25414276-.11889649-1.56159973 2.49890137.37274933v1.44299316zm1.0135498-1.2917633v1.3999176l2.50170899.26708221.16381836-1.26934051-2.66552735-.3976593zm3.5102539 1.77459717l2.45166016.26171112.28295899-1.10463715-2.57617188-.38430786-.15844726 1.22723389zm-7.7248535 1.83280181l-2.1685791-.1246643-.27294923-1.7390976 2.31848145.24739838.12304687 1.61636352zm3.20092773.18410492V7.33685303l-2.29907227-.24533844.1192627 1.5655899 2.17980957.12535095zm3.21716308.18507386l-2.2034912-.12673188v-1.3957901l2.36743163.25276947-.16394043 1.2697525zm1.01501465.05833435l2.19897461.12645721.28149414-1.09899902-2.32299805-.2479477-.1574707 1.2204895zm-7.3527832.6273117L3.8269043 9.53346252l.27416992 1.74762726h1.93249512l-.12390137-1.62791443zm1.140625 1.62792206L6.9309082 9.71192932l2.0994873.12081146v1.44835663H7.05029298zm2.99365234-1.39015198v1.39015198h1.90490723l.1640625-1.27113342-2.06896973-.11901856zm2.92749024 1.39014435l.15649414-1.21278381 2.06860351.11901855-.28015136 1.09376526h-1.9449463zM1.71313477 15.56314087c0 .58368683.4580078 1.05854034 1.02111816 1.05854034.56286621 0 1.02087402-.47485351 1.02087402-1.05854034s-.4580078-1.05840302-1.02087402-1.05840302c-.56311035 0-1.02111816.4747162-1.02111816 1.05840302zm12.55151367-1.05840302c.5628662 0 1.02087402.4747162 1.02087402 1.05840302 0 .58368683-.45800781 1.05854034-1.02087402 1.05854034-.56298828 0-1.0209961-.47485351-1.0209961-1.05854034s.45800782-1.05840302 1.0209961-1.05840302z"/>
    </g>
  </g>
</svg>
