<svg xmlns="http://www.w3.org/2000/svg" viewBox="0 0 208.37 152.03"><defs><style>.cls-1{font-size:27.34px;font-family:Lato-Bold, Lato;font-weight:700;}.cls-2{font-size:18.23px;font-family:Lato-Medium, Lato;font-weight:500;letter-spacing:0.29em;}.cls-3{letter-spacing:0.3em;}.cls-4{letter-spacing:0.3em;}.cls-5{fill:#282828;}</style></defs><g id="Layer_2" data-name="Layer 2"><g id="Layer_1-2" data-name="Layer 1"><text class="cls-1" transform="translate(0 114.63)">THREE CASTLES</text><text class="cls-2" transform="translate(0 140.9)">C<tspan class="cls-3" x="17.36" y="0">ONST</tspan><tspan class="cls-4" x="88.53" y="0">R</tspan><tspan class="cls-3" x="105.41" y="0">UCTION</tspan></text><path class="cls-5" d="M101.25,85c-5.89-2.07-11.79-4.11-17.67-6.22C73.42,75.1,63.29,71.4,53.12,67.8c-1.56-.55-2.25-1.21-2.24-3,.09-13.55.07-27.1,0-40.64a2.26,2.26,0,0,1,1.57-2.49c2-.82,4-1.74,6.24-2.74,0,4.2,0,8.11,0,12,0,1.47.33,1.92,1.87,1.59,4.85-1,4.86-1,4.86-5.95,0-3,0-5.91,0-8.87a2.26,2.26,0,0,1,1.55-2.53q3.72-1.5,7.34-3.27c1.36-.67,1.67-.24,1.66,1.09,0,4.61.07,9.22,0,13.82,0,1.73.55,1.95,2,1.54,2.52-.68,5.07-1.29,7.63-1.76,1.37-.25,1.78-.85,1.77-2.2-.08-5.37,0-10.73-.1-16.09,0-1.58.32-2.49,1.92-3.09,4.1-1.55,7.9-3.81,12.08-5.2Q101.26,42.48,101.25,85Z"/><path d="M101.25,85q0-42.48,0-84.95c3.49.88,6.49,2.91,9.84,4.08,1.85.64,2.24,1.68,2.21,3.49-.11,5.77,0,11.55-.05,17.32,0,1.24.41,1.68,1.53,1.91,2.56.52,5.14,1,7.63,1.77,1.77.54,1.9-.15,1.88-1.6-.07-5,0-10-.06-15.06,0-1.51.33-1.8,1.73-1.1,2.4,1.19,4.85,2.28,7.33,3.3a2.22,2.22,0,0,1,1.54,2.49c-.07,4.33,0,8.66,0,13,0,1.27.22,1.93,1.64,2.28,4.85,1.18,4.8,1.25,4.66-3.65-.08-2.89,0-5.77,0-8.66,0-1.25.19-1.87,1.62-1.13,1.83.94,3.71,1.8,5.63,2.56a1.66,1.66,0,0,1,1.19,1.85q0,21.66,0,43.32c0,.91-.14,1.49-1.14,1.85q-22.86,8.3-45.7,16.63A10.54,10.54,0,0,1,101.25,85Z"/><path class="cls-5" d="M32.69,30.88c0,2.32,0,4.64,0,7,0,1,.32,1.4,1.32,1a1.2,1.2,0,0,1,.2,0c3.86-.71,4.26-.76,3.75-4.59-.63-4.85,1.09-7.47,5.74-8.7,2.26-.6,2.18-.91,2.18,1.54,0,12.1,0,24.19,0,36.29,0,1.5-.28,1.69-1.67,1.18Q32.34,60.19,20.38,56a1.85,1.85,0,0,1-1.44-2.08c.06-5.16,0-10.31,0-15.47a4,4,0,0,1,3.47-3.26c.62,0,.58.46.58.86,0,1.17-.05,2.34,0,3.5,0,.62-.46,1.86.79,1.65,1.09-.18,2.87.3,2.9-1.77,0-1.58.06-3.16,0-4.74a1.84,1.84,0,0,1,1.41-2.14c1.37-.45,2.66-1.12,4-1.68A1.9,1.9,0,0,1,32.69,30.88Z"/><path d="M155.61,24.35c1.73.77,3.45,1.59,5.21,2.32.87.35.78,1,.78,1.7,0,2.54.08,5.09,0,7.63-.05,1.37.41,1.87,1.76,2.14,3.68.75,3.66.83,3.66-2.83,0-1.31.1-2.62,0-3.92-.17-1.8.51-1.54,1.85-1.15,3.43,1,5.24,2.89,4.39,6.65a8.25,8.25,0,0,0,0,1.86,2.78,2.78,0,0,0,3.19,2.41c.72-.17.49-.73.5-1.15,0-1.58,0-3.17,0-4.75,0-.81.19-1.09,1.09-.83,2.68.8,3.14,1.34,3.14,4.13,0,5.3,0,10.6,0,15.89a2,2,0,0,1-1.57,2.23Q168.12,60.76,156.7,65c-1,.36-1.52.46-1.51-.88.07-13.07.1-26.14.16-39.2C155.35,24.76,155.46,24.65,155.61,24.35Z"/></g></g></svg>