<svg xmlns="http://www.w3.org/2000/svg" viewBox="0 0 453.13 453.13"><defs><style>.cls-1{fill:#ebf0f2;}.cls-2{fill:#16385d;stroke:#16385d;stroke-miterlimit:10;stroke-width:7px;}</style></defs><g id="Layer_2" data-name="Layer 2"><g id="Capa_1" data-name="Capa 1"><circle class="cls-1" cx="226.57" cy="226.57" r="226.57"/><path class="cls-2" d="M338.06,332.45a5.85,5.85,0,0,0-6.46,5.2,102.58,102.58,0,0,1-203.94,0A5.86,5.86,0,0,0,116,338.88a114.3,114.3,0,0,0,227.25,0A5.86,5.86,0,0,0,338.06,332.45Z"/><path class="cls-2" d="M121.2,320.54a5.87,5.87,0,0,0,6.46-5.2,102.57,102.57,0,0,1,203.94,0,5.86,5.86,0,0,0,5.82,5.23c.21,0,.43,0,.64,0a5.86,5.86,0,0,0,5.2-6.46A114.29,114.29,0,0,0,235.49,212.32v-21.9a30.29,30.29,0,0,0,0-59.44V117.21h22.79a11.1,11.1,0,0,0,10.83-8.81l0-.15,6.12-33.7h10A11.61,11.61,0,0,0,296.82,63V52.09a11.62,11.62,0,0,0-11.6-11.6H174a11.61,11.61,0,0,0-11.6,11.6V63A11.61,11.61,0,0,0,174,74.55h10l6.11,33.7,0,.15A11.13,11.13,0,0,0,201,117.21h22.78v19.06a5.86,5.86,0,0,0,5.87,5.86,18.57,18.57,0,1,1-18.56,18.57,5.87,5.87,0,1,0-11.73,0,30.34,30.34,0,0,0,24.42,29.72v21.9A114.3,114.3,0,0,0,116,314.08,5.86,5.86,0,0,0,121.2,320.54Zm53-257.72V52.22H285.09v10.6Zm27.36,42.66-5.61-30.93h67.42l-5.62,30.93Z"/><path class="cls-2" d="M144.89,326.62a5.87,5.87,0,1,0,11.73,0,73.09,73.09,0,0,1,73-73,5.87,5.87,0,0,0,0-11.73A84.83,84.83,0,0,0,144.89,326.62Z"/></g></g></svg>