<svg xmlns="http://www.w3.org/2000/svg" viewBox="0 0 453.13 453.13"><defs><style>.cls-1{fill:#ebf0f2;}.cls-2{fill:#16385d;stroke:#16385d;stroke-miterlimit:10;stroke-width:6px;}</style></defs><g id="Layer_2" data-name="Layer 2"><g id="Capa_1" data-name="Capa 1"><circle class="cls-1" cx="226.57" cy="226.57" r="226.57"/><path class="cls-2" d="M408.26,227.4a7.23,7.23,0,0,0,7.23-7.22V167.44a7.23,7.23,0,0,0-7.23-7.22H393.81V100a7.22,7.22,0,0,0-2.55-5.51L348.69,58.37a7.21,7.21,0,0,0-9.34,0L296.77,94.49a7.25,7.25,0,0,0-2.55,5.51v60.22H280.36V100a7.22,7.22,0,0,0-2.55-5.51L235.24,58.37a7.22,7.22,0,0,0-9.35,0L183.32,94.49a7.22,7.22,0,0,0-2.55,5.51v60.22H159.69V100a7.25,7.25,0,0,0-2.55-5.51L114.56,58.37a7.21,7.21,0,0,0-9.34,0L62.64,94.49A7.25,7.25,0,0,0,60.09,100v60.22H52.87a7.22,7.22,0,0,0-7.22,7.22v52.74a7.22,7.22,0,0,0,7.22,7.22h7.22v41.9H52.87a7.22,7.22,0,0,0-7.22,7.22v52.73a7.23,7.23,0,0,0,7.22,7.23h7.22v53.78a7.23,7.23,0,0,0,7.23,7.23h85.14a7.23,7.23,0,0,0,7.23-7.23V336.48h21.08v53.78a7.23,7.23,0,0,0,7.23,7.23h85.14a7.23,7.23,0,0,0,7.22-7.23V336.48h13.86v53.78a7.23,7.23,0,0,0,7.23,7.23h85.14a7.23,7.23,0,0,0,7.23-7.23V336.48h14.44a7.23,7.23,0,0,0,7.23-7.23V276.52a7.23,7.23,0,0,0-7.23-7.22H393.81V227.4ZM344,73.35l35.35,30v56.88h-70.7V103.34h0Zm-148.8,30,35.35-30,35.34,30v56.88H195.22Zm-120.68,0,35.35-30,35.35,30v56.88H74.54ZM145.24,383H74.54V336.48h70.7Zm120.67,0H195.22V336.48h70.69Zm113.46,0h-70.7V336.48h70.7ZM401,283.74v11.92h-255a7.23,7.23,0,1,0,0,14.45H401V322h-341V283.74ZM74.54,269.3V227.4h70.7v41.9Zm85.15,0V227.4h21.08v41.9Zm35.53,0V227.4h70.69v41.9Zm85.14,0V227.4h13.86v41.9Zm28.31,0V227.4h70.7v41.9ZM60.09,213V201H315.8a7.22,7.22,0,1,0,0-14.44H60.09V174.67H401V213Z"/></g></g></svg>