<svg xmlns="http://www.w3.org/2000/svg" viewBox="0 0 453.13 453.13"><defs><style>.cls-1{fill:#ebf0f2;}.cls-2{fill:#16385d;}</style></defs><g id="Layer_2" data-name="Layer 2"><g id="Capa_1" data-name="Capa 1"><circle class="cls-1" cx="226.57" cy="226.57" r="226.57"/><path class="cls-2" d="M400.15,185.42a12.25,12.25,0,0,0-2.46-3.55h0L383.41,167.6c-.45-.45-.92-.88-1.39-1.29l-.48-.39-1-.77-.59-.41q-.46-.33-1-.63l-.63-.37c-.32-.19-.65-.37-1-.54l-.64-.32c-.35-.17-.7-.32-1.06-.47l-.61-.26c-.41-.16-.82-.3-1.24-.43l-.46-.16c-.58-.17-1.16-.33-1.75-.46l-.28,0c-.49-.1-1-.19-1.49-.26l-.59-.07c-.4-.05-.8-.09-1.2-.11-.23,0-.45,0-.68,0s-.76,0-1.14,0l-.69,0c-.38,0-.76,0-1.15.07l-.68.07-1.2.18-.61.1c-.48.09-1,.21-1.45.33-.11,0-.23.06-.34.09-.57.15-1.13.33-1.69.53l-7.08-7.08a6.88,6.88,0,0,1-1.25-8.06A12.59,12.59,0,0,0,347.86,132l-29.29-29.29a134.83,134.83,0,0,0-70.7-37.31L192.17,55a8.82,8.82,0,0,0-6.42,16.08l50.12,32.39A23.11,23.11,0,0,1,241,137.77l-8.32,9.84a12.76,12.76,0,0,0,.2,16.57L133.5,263.54a19.37,19.37,0,0,0-20.26,4.51L73.17,308.12a5.61,5.61,0,1,0,7.94,7.93L121.17,276a8.15,8.15,0,0,1,10.22-1.05l.08.06c.22.16.43.31.63.47a7,7,0,0,1,.57.52l25,25a7.86,7.86,0,0,1,1,1.2l.06.08a8.13,8.13,0,0,1-1,10.22L57.15,413a8.13,8.13,0,0,1-11.49,0l-25-25a8.14,8.14,0,0,1,0-11.5l35.56-35.55A5.61,5.61,0,0,0,48.29,333L12.74,368.55a19.37,19.37,0,0,0,0,27.37l25,25a19.37,19.37,0,0,0,27.37,0l100.5-100.5a19.35,19.35,0,0,0,4.5-20.26l53.82-53.82a5.61,5.61,0,0,0-7.94-7.93l-52.51,52.52-20.73-20.73,98-98,20.72,20.73-20.77,20.77a5.61,5.61,0,0,0,7.94,7.93l20.84-20.84a12.66,12.66,0,0,0,16.31-.54l9.59-8.65a20.84,20.84,0,0,1,28.08,1.37l2,2c-.2.56-.38,1.12-.53,1.69,0,.13-.06.25-.09.38q-.19.71-.33,1.41c0,.21-.07.43-.11.64-.06.39-.12.78-.17,1.17,0,.23-.05.47-.07.71s-.06.74-.07,1.11,0,.48,0,.72,0,.74,0,1.11,0,.47,0,.7c0,.39.06.78.11,1.16,0,.21,0,.42.07.63.07.48.15,1,.25,1.43l.06.34c.13.58.29,1.16.46,1.73.05.17.11.33.17.5.13.4.26.81.42,1.21.08.21.17.41.26.62s.3.7.46,1l.33.65c.17.33.35.65.53,1l.38.64c.2.32.41.63.63,1l.41.58c.25.34.51.67.77,1,.13.16.26.33.39.48.41.48.84,1,1.29,1.4l14.27,14.28a12.39,12.39,0,0,0,8.77,3.62c.39,0,.79,0,1.19-.06a12.32,12.32,0,0,0,7.57-3.56l34.76-34.76a12.38,12.38,0,0,0,2.46-14ZM331.41,185a32,32,0,0,0-43.26-2l-.17.15-9.68,8.73a1.45,1.45,0,0,1-2,0l-35-35h0a1.46,1.46,0,0,1-.09-2l8.32-9.84A34.34,34.34,0,0,0,242,94L202.09,68.25l43.71,8.22a123.58,123.58,0,0,1,64.83,34.22L339.92,140a1.4,1.4,0,0,1,.24,1.66,18.05,18.05,0,0,0,3.27,21.17l5.84,5.84-17.09,17.09Zm58.66,5.88a.09.09,0,0,1,0,.05.94.94,0,0,1,0,.16s0,.05,0,.08a.83.83,0,0,1-.07.13.9.9,0,0,1-.16.19L355,226.22a1.17,1.17,0,0,1-1.66,0L339.06,212c-.25-.26-.49-.52-.72-.79l-.15-.19c-.17-.21-.34-.42-.49-.63l-.2-.3c-.13-.18-.25-.37-.37-.56l-.19-.35c-.1-.18-.21-.36-.3-.55s-.12-.25-.17-.38a5.38,5.38,0,0,1-.24-.55c-.06-.13-.1-.27-.15-.4s-.13-.36-.19-.55l-.12-.42c0-.18-.1-.37-.14-.55s-.06-.29-.08-.44-.07-.37-.1-.56,0-.29-.05-.44,0-.37,0-.56,0-.3,0-.45,0-.37,0-.56,0-.3,0-.46,0-.37,0-.55l.06-.46c0-.19.05-.37.08-.56l.09-.46c0-.18.09-.36.14-.55l.12-.45.18-.55c.05-.15.11-.3.17-.45s.14-.35.22-.53.13-.3.2-.45l.12-.22,23.79-23.79.22-.12.45-.2.53-.22.45-.17.54-.17.46-.13.55-.13a3.73,3.73,0,0,1,.46-.09l.55-.09.47-.06.54,0,.47,0h.55l.47,0,.54,0c.15,0,.31,0,.46.06a5.07,5.07,0,0,1,.54.09c.15,0,.3,0,.45.09l.53.13.44.12.53.19.43.15.52.23.4.19c.18.08.35.18.52.27l.38.22c.17.1.34.22.51.33l.35.23.55.43.27.22a8.75,8.75,0,0,1,.78.72l14.28,14.27a1.27,1.27,0,0,1,.16.2.61.61,0,0,1,.07.14l0,.07a.84.84,0,0,1,.05.17.06.06,0,0,1,0,0A1,1,0,0,1,390.07,190.85Z"/><path class="cls-2" d="M51.41,429.56A22.2,22.2,0,0,1,35.6,423l-25-25a22.37,22.37,0,0,1,0-31.61l35.55-35.56a8.61,8.61,0,0,1,12.18,12.18L22.79,378.61a5.15,5.15,0,0,0,0,7.25l25,25a5.13,5.13,0,0,0,7.25,0l100.5-100.49a5.16,5.16,0,0,0,.71-6.37l-.09-.13a5.37,5.37,0,0,0-.62-.76l-25-25a3.8,3.8,0,0,0-.37-.33c-.1-.09-.25-.19-.4-.3l-.16-.11a5.12,5.12,0,0,0-6.33.74L83.23,318.17A8.61,8.61,0,1,1,71.05,306l40.07-40.07a22.47,22.47,0,0,1,21.54-5.79l96.27-96.27a15.78,15.78,0,0,1,1.44-18.19l8.32-9.84A20.12,20.12,0,0,0,234.24,106L184.12,73.57A11.82,11.82,0,0,1,192.72,52l55.71,10.47a137.81,137.81,0,0,1,72.26,38.14L350,129.92a15.58,15.58,0,0,1,2.8,18.27,3.88,3.88,0,0,0,.7,4.56l5.79,5.79h.06l.33-.08c.6-.16,1.14-.29,1.69-.4l.49-.08.19,0c.46-.08.9-.15,1.36-.2l.69-.07,1.35-.09.79,0c.43,0,.86,0,1.29,0l.75,0c.46,0,.91.08,1.35.13l.18,0c.17,0,.33,0,.49.06.57.08,1.12.18,1.68.29l.33.07c.63.14,1.29.31,1.95.51l.39.13.13,0,1.4.49c.18.07.35.14.51.22l.18.07c.4.17.8.34,1.19.53l.73.37c.37.19.74.39,1.1.6s.47.27.71.42.72.46,1.08.71l.15.1.51.36q.57.42,1.11.87l.16.12.38.31c.58.5,1.09,1,1.56,1.45l14.28,14.27a15.49,15.49,0,0,1,3.06,4.41h0a15.51,15.51,0,0,1,1.43,6.47,15.3,15.3,0,0,1-4.5,10.89l-34.76,34.76a15.41,15.41,0,0,1-9.41,4.43,14.06,14.06,0,0,1-1.47.07,15.32,15.32,0,0,1-10.89-4.5L329,222c-.48-.48-.95-1-1.45-1.56l-.33-.41-.11-.14c-.29-.36-.59-.73-.86-1.11-.14-.18-.27-.37-.4-.56l-.07-.1c-.23-.34-.47-.7-.69-1.06s-.29-.48-.43-.72-.41-.73-.6-1.1-.26-.5-.37-.73c-.19-.39-.36-.78-.52-1.17l-.06-.14-.24-.57c-.17-.45-.33-.91-.48-1.36l0-.14c-.05-.14-.1-.28-.14-.42-.2-.67-.38-1.32-.51-2,0-.12,0-.23-.07-.33-.12-.59-.21-1.12-.29-1.66,0-.19-.05-.37-.07-.55l0-.17c0-.43-.09-.86-.12-1.3,0-.28,0-.54,0-.8s0-.82,0-1.24,0-.55,0-.82.05-.83.08-1.24.05-.57.08-.81c.05-.43.12-.87.19-1.31l0-.19a4.51,4.51,0,0,1,.09-.53q.15-.8.36-1.59c.05-.19.07-.3.1-.41a.64.64,0,0,0,0-.07l-.71-.71a17.86,17.86,0,0,0-24-1.22l-9.54,8.6a15.59,15.59,0,0,1-17.92,2.16l-19.12,19.12a8.61,8.61,0,0,1-12.18-12.18l18.65-18.64-16.48-16.48L147,270.18l16.49,16.48,50.39-50.39A8.61,8.61,0,0,1,226,248.44L173.5,301a22.47,22.47,0,0,1-5.79,21.54L67.21,423A22.19,22.19,0,0,1,51.41,429.56Zm.85-95.21a2.61,2.61,0,0,0-1.85.77L14.86,370.67a16.36,16.36,0,0,0,0,23.12l25,25a16.38,16.38,0,0,0,23.13,0l100.5-100.5a16.43,16.43,0,0,0,3.8-17.13l-.64-1.79,55.16-55.16a2.61,2.61,0,0,0-3.7-3.69l-54.63,54.64-25-25L240.77,167.9l25,25-22.9,22.89a2.61,2.61,0,0,0,3.7,3.69l22.72-22.72,2.09,1.65A9.64,9.64,0,0,0,283.8,198l9.7-8.74a23.83,23.83,0,0,1,32.1,1.57l3.34,3.34-.64,1.79c-.17.49-.32,1-.46,1.48l-.08.32c-.11.42-.21.84-.29,1.25,0,.1,0,.2-.05.31l0,.25q-.09.51-.15,1c0,.18,0,.36-.05.54,0,.4-.06.73-.08,1s0,.42,0,.64,0,.63,0,1l0,.62c0,.33.06.67.1,1l0,.23a3.11,3.11,0,0,0,0,.32c.06.42.13.83.22,1.24l0,.25c.13.56.26,1.07.41,1.57l.15.42c.11.36.23.71.37,1.06,0,.13.1.25.15.37l.07.17c.13.31.27.61.41.91s.18.36.27.54c.17.33.32.61.49.89s.21.37.33.56.35.55.54.82l.08.12.28.41c.22.29.44.57.68.86l.16.21c.06.07.11.14.17.2.4.47.77.87,1.14,1.24L347.52,232a9.42,9.42,0,0,0,13.29,0l34.76-34.76a9.33,9.33,0,0,0,2.74-6.65,9.46,9.46,0,0,0-.88-3.95,9.25,9.25,0,0,0-1.86-2.68l-14.28-14.28c-.37-.37-.77-.74-1.23-1.13l-.19-.16-.23-.18c-.28-.23-.57-.47-.87-.68-.11-.09-.23-.17-.35-.25l-.16-.11-.84-.55-.54-.32q-.44-.26-.87-.48l-.55-.28-.93-.41-.21-.09L374,165c-.35-.14-.71-.26-1.08-.38l-.4-.14c-.52-.15-1-.29-1.53-.4l-.23,0c-.44-.09-.88-.17-1.31-.23l-.52-.06c-.35,0-.7-.08-1.05-.1l-.57,0c-.35,0-.69,0-1,0l-.61,0-1,.06-.6.06c-.35,0-.7.1-1.05.16l-.25,0-.27,0c-.44.09-.86.19-1.28.3l-.25.06c-.55.15-1.05.3-1.54.47l-1.78.64L349.24,157a9.85,9.85,0,0,1-1.79-11.56,9.61,9.61,0,0,0-1.71-11.26l-29.29-29.29a131.85,131.85,0,0,0-69.13-36.49L191.61,57.91a5.83,5.83,0,0,0-4.24,10.62l50.13,32.39a26.12,26.12,0,0,1,5.77,38.79L235,149.55a9.73,9.73,0,0,0,.15,12.65l1.87,2.11L134.28,267l-1.79-.65a16.46,16.46,0,0,0-17.13,3.81L75.29,310.24a2.61,2.61,0,1,0,3.7,3.69l40.06-40.07a11.18,11.18,0,0,1,14-1.42l.21.15c.26.18.51.37.74.56s.55.47.8.71l25,25a11,11,0,0,1,1.29,1.55l.12.16a11.19,11.19,0,0,1-1.41,14L59.28,415.09a11.14,11.14,0,0,1-15.74,0l-25-25a11.15,11.15,0,0,1,0-15.74l35.56-35.55a2.62,2.62,0,0,0-1.85-4.46ZM354.17,229.57a4.16,4.16,0,0,1-2.95-1.22l-14.28-14.28c-.31-.31-.6-.64-.89-1l-.18-.24c-.21-.26-.42-.52-.61-.78l-.2-.3-.08-.12c-.14-.21-.29-.43-.42-.64s-.13-.24-.2-.35l2.58-1.55-2.66,1.4c-.11-.21-.23-.41-.33-.62s-.12-.25-.18-.38c-.14-.31-.24-.54-.33-.77s-.09-.24-.14-.37l0-.1c-.09-.28-.17-.49-.24-.71s-.07-.26-.11-.39l0-.11c-.07-.25-.12-.47-.18-.69s-.05-.27-.08-.4l0-.12c-.05-.27-.09-.49-.12-.72l-.06-.48c0-.3-.05-.53-.06-.75s0-.34,0-.51,0-.51,0-.74,0-.38,0-.56,0-.48.06-.7l.06-.56c0-.23.07-.47.11-.7s.07-.37.11-.56.11-.44.16-.67.11-.38.16-.57.14-.44.22-.66l.2-.54c.08-.22.17-.43.27-.64A5.87,5.87,0,0,1,334,196l.33-.63.36-.41,24.14-24.13.7-.36.54-.25.65-.27.55-.2.66-.21.58-.17.66-.15c.19,0,.39-.08.58-.12l.66-.1.58-.07.68,0,.57,0h.68l.57,0,.69.06.56.06.66.12.11,0,.47.09.65.17.54.15.57.19.16.06.44.16.6.26.17.08.39.18.54.29.17.09.4.23c.19.11.37.23.55.35l.18.12.33.23c.23.16.45.34.67.51l.34.28c.34.28.66.58,1,.89l14.27,14.27a5,5,0,0,1,.54.66,4.24,4.24,0,0,1,.27.49l.13.3a4.16,4.16,0,0,1,.16.5l.06.29a3.83,3.83,0,0,1,0,1.12v.21l-.09.36c-.05.17-.1.35-.16.52l-.14.31c-.07.13-.13.26-.21.38l-.05.08a4.48,4.48,0,0,1-.54.68l-34.76,34.76A4.18,4.18,0,0,1,354.17,229.57ZM339.24,198.8a1.17,1.17,0,0,1-.05.11l-.17.42-.12.33a4.28,4.28,0,0,0-.14.43c0,.12-.07.24-.1.35s-.07.29-.1.43-.05.23-.07.35-.05.28-.07.42,0,.25,0,.37,0,.28,0,.43v.78c0,.13,0,.22,0,.32s0,.3.05.45l0,.33c0,.14.05.28.08.42l.06.33c0,.14.07.28.11.42l.09.33c0,.13.08.25.13.37l.12.35.18.41.13.28c.06.13.13.25.19.36l.2.35c.07.12.15.24.24.37l.15.22c.15.22.28.38.41.54l.13.17c.16.19.35.39.55.59l13,13,32.17-32.17-13-13a6.2,6.2,0,0,0-.6-.55l-.21-.17-.42-.33-.36-.24-.3-.19-.39-.22-.29-.16-.32-.14-.39-.18-.32-.11-.4-.14-.34-.09-.41-.11-.35-.06-.41-.07-.28,0-.47,0h-.79l-.35,0-.42,0-.35,0-.43.07-.36.07-.42.1-.36.1-.41.13-.36.14-.4.17-.12.05Zm-61.91-3.57a4.48,4.48,0,0,1-3.15-1.3l-35-35a4.47,4.47,0,0,1-.26-6l8.32-9.84a31.34,31.34,0,0,0-6.93-46.55l-52.7-34.05,58.73,11a126.62,126.62,0,0,1,66.4,35.05l29.29,29.29a4.41,4.41,0,0,1,.77,5.16,15.08,15.08,0,0,0,2.73,17.67l8,8L332.18,190l-2.89-2.88a29,29,0,0,0-39.22-1.82l-.09.07-9.67,8.73A4.43,4.43,0,0,1,277.33,195.23ZM244.45,155.7l32.93,32.94,8.59-7.75.27-.23a35.23,35.23,0,0,1,22.45-8.15,34.87,34.87,0,0,1,23.46,9L345,168.65l-3.72-3.72A21,21,0,0,1,337,141.29l-28.48-28.48a120.58,120.58,0,0,0-63.26-33.39L216.55,74l27,17.47A37.35,37.35,0,0,1,251.84,147Z"/></g></g></svg>