<?xml version="1.0" encoding="utf-8"?>
<!-- Generator: Adobe Illustrator 24.2.3, SVG Export Plug-In . SVG Version: 6.00 Build 0)  -->
<svg version="1.1" id="Capa_1" xmlns="http://www.w3.org/2000/svg" xmlns:xlink="http://www.w3.org/1999/xlink" x="0px" y="0px"
	 viewBox="0 0 512 512" style="enable-background:new 0 0 512 512;" xml:space="preserve">
<style type="text/css">
	.st0{fill:#EBF0F2;}
	.st1{fill:#16385D;stroke:#FFFFFF;stroke-width:3;stroke-miterlimit:10;}
</style>
<circle class="st0" cx="249.9" cy="265.8" r="133.2"/>
<path class="st1" d="M387.4,121.1c0-19.2-0.1-37.2,0-55.2c0-9.1,5.6-15.5,13.6-16.3c9.7-1,17.2,5.8,17.3,16.2
	c0.1,18.3,0,36.7,0.1,55c0,11.5,0,23,0,34.5c0,10-3.4,14.8-12.7,17.9c-29.7,9.9-59.4,19.8-89.1,29.7c-9.9,3.3-18.3-0.3-21.3-9
	c-3.1-8.8,1.5-17,11.6-20.4c21.9-7.4,43.9-14.7,66.8-22.4c-5.3-5.1-9.9-10-15.1-14.3C308.2,96,251.6,84.3,190.4,106.2
	c-61.4,21.9-98.8,67-110.4,131c-16.8,92.6,44.7,179.6,137.4,197.1c93.7,17.7,185.8-48.4,199.1-142.8c2.5-17.6,2.3-35.2-0.4-52.8
	c-1.5-9.7,3.8-17.4,12.7-18.9c8.8-1.4,16.2,4.5,17.8,14.1c17.6,108-55.9,210.7-163.4,228.5C169.9,481.3,64.4,401.7,51.7,287.7
	c-11.9-107,64-204.8,170.5-219.1c60.7-8.1,114.4,8.5,160.6,48.8C384.1,118.5,385.3,119.4,387.4,121.1z"/>
</svg>
