<svg xmlns="http://www.w3.org/2000/svg" viewBox="0 0 574.44 574.11"><defs><style>.cls-1{fill:#ebf0f2;}.cls-2{fill:#16385d;}</style></defs><g id="Layer_2" data-name="Layer 2"><g id="Capa_1" data-name="Capa 1"><circle class="cls-1" cx="287.24" cy="287.13" r="241.76"/><path class="cls-2" d="M553.31,179.05A288.69,288.69,0,0,0,400.16,23,283.36,283.36,0,0,0,287.88,0H286.6A286.85,286.85,0,0,0,0,282.5c-1.19,77.79,28.13,151,82.54,206.24S209.43,574.11,287,574.11h.23c77-.06,149.08-29.9,203-84A288.39,288.39,0,0,0,551,400.47a286.36,286.36,0,0,0,2.31-221.42Zm-77.49,297.1a265.37,265.37,0,0,1-188.46,77.92h-1.08c-72.19-.28-139.67-28.76-190-80.19a267,267,0,0,1,4.28-377.82A267.13,267.13,0,0,1,554.35,287.57,264.5,264.5,0,0,1,475.82,476.15Z"/><path class="cls-2" d="M340,287.43c0,10.31-.18,20.63.05,30.93.23,9.7-4.39,16.05-12.82,20.05-9.42,4.47-19.59,5.53-29.71,4.91-9-.55-18.25-1.71-26.85-4.34-11.52-3.54-15.27-10.11-15.27-22.17,0-20.29.13-40.58-.06-60.86-.08-9.2,3.93-15.6,12-19.56,13-6.41,27-6.65,41-5.28a70.61,70.61,0,0,1,17.84,4.17c9.27,3.48,14.2,10.37,13.94,20.73S340,277,340,287.43Zm-55.06-.52c0,10,.15,19.94-.07,29.9-.11,4.88,2.21,7.53,6.57,8.55a29.08,29.08,0,0,0,8.34.89c7.94-.5,11.22-4.17,11.22-12.1q0-27.66,0-55.31c0-7.14-2.43-10.06-9.5-10.85a30.41,30.41,0,0,0-9.37.45c-4.71,1-7.41,3.69-7.27,9.07C285.13,267.31,284.94,277.11,284.94,286.91Z"/><path class="cls-2" d="M244.36,287.51c0,10.64-.13,21.28,0,31.92.14,8.43-3.76,14.21-10.94,18.1-9.7,5.25-20.36,6.33-31,5.79a114.73,114.73,0,0,1-26.88-4.19C163.82,335.59,160,329,159.94,316.74q0-29.67,0-59.34c0-12.44,4.15-18.86,16-22.82a82.76,82.76,0,0,1,52.42-.23c9.56,3.05,16.76,9.37,16.09,22.75C244,267.21,244.36,277.37,244.36,287.51ZM215.25,287c0-10.14-.09-20.28,0-30.41.05-3.9-1.72-7-5.19-7.48a54.6,54.6,0,0,0-15.53.17c-3.78.58-5.39,4.06-5.39,8q0,29.89,0,59.81c0,4,1.82,7.2,5.58,7.83a44.48,44.48,0,0,0,14.1.22c4.27-.67,6.55-3.91,6.45-8.72C215.11,306.6,215.25,296.8,215.25,287Z"/><path class="cls-2" d="M143.81,361.56c6.76,0,12.88-.24,18.95.17,1.48.1,3.16,2.08,4.15,3.59,22.52,34.21,53.7,56,93.94,63.64,57.25,10.92,114-13.74,145.86-62.71,2.27-3.49,4.51-5.15,8.73-4.8,4.78.39,9.62.09,14.55.09-14,34.48-59.45,79.89-122.94,87.35C229.65,458,168.62,412.94,143.81,361.56Z"/><path class="cls-2" d="M428.17,212.44c-6.49,0-12.76.23-19-.16-1.51-.09-3.25-1.94-4.29-3.4-22.46-31.66-52.29-52.71-90.66-59.32-60-10.34-108.07,10.23-144.21,58.94-2.12,2.87-4.1,4.24-7.69,4-5.23-.3-10.49-.08-16-.08,19.68-41,71.22-82.4,135.71-84.26C357.61,126,410.08,174.55,428.17,212.44Z"/><path class="cls-2" d="M101.76,244.66a98.14,98.14,0,0,0,10.06-2.19c2.63-.84,5.77-1.79,7.4-3.76,4.93-6,11.38-6.93,18.35-7,3.29,0,6.59,0,10.65,0v6.18c0,26.27.05,52.54-.05,78.81,0,3.73.44,6.53,4.21,8.65,1.86,1.05,3.11,4.14,3.55,6.51.6,3.17.15,6.54.15,10.1H113.25c.19-6.39-2.72-13.18,4.65-17.88,1-.67,1.58-2.86,1.59-4.35.1-18.12,0-36.25.14-54.37,0-3.92-1.92-4.06-4.94-4.21C103.85,260.66,100.11,255.83,101.76,244.66Z"/><path class="cls-2" d="M448.82,231.73c-7.8,16-15,30.94-22.31,45.84-9.9,20.28-19.87,40.52-29.66,60.85-1.4,2.92-3,4.29-6.38,4.17-7.1-.26-14.22-.08-22.25-.08,2.85-5.95,5.29-11.15,7.82-16.31q22.23-45.36,44.44-90.74c1.36-2.78,3-3.89,6.09-3.79C433.66,231.88,440.75,231.73,448.82,231.73Z"/><path class="cls-2" d="M372.66,230.26c6.32,1.76,12.82,3.06,18.9,5.44a14.6,14.6,0,0,1,9.55,12.5c.52,6.38.69,13.05-.6,19.25-1.7,8.13-8.15,12.68-16.1,13.56a105.15,105.15,0,0,1-22.78.05c-8.94-1-15.1-6.44-16.66-15.44a57.94,57.94,0,0,1-.32-17.29c1.15-8.65,6.81-13.85,15.31-15.62,4-.85,8.22-1.08,12.33-1.6Zm6.16,26.85h.39a68.9,68.9,0,0,0-.59-8.4c-.58-3.23-3-5.18-6.12-4.24-2.11.64-5.09,2.74-5.31,4.48a89.14,89.14,0,0,0-.14,16.34c.19,3.41,2.95,4.57,6,4.71,3.38.16,5.34-1.75,5.7-4.95A69.86,69.86,0,0,0,378.82,257.11Z"/><path class="cls-2" d="M444.7,343.59c-3.91-.42-7.41-.56-10.81-1.2-11.69-2.19-17.76-9.39-18.24-21.33-.82-20.54,6.86-28.85,27.49-28.43a64.79,64.79,0,0,1,19.72,4c5.94,2.09,9.61,7.29,10.06,13.74.41,5.73.6,11.67-.44,17.28C471,335.78,465,340.34,457.12,342,452.93,342.92,448.59,343.13,444.7,343.59ZM451,318.67c-.21-2.73-.27-5.55-.66-8.32-.5-3.48-2.68-5.15-6.21-5-3.33.13-5.4,1.87-5.52,5.15-.18,5.26-.2,10.55.09,15.8.19,3.39,2.65,4.68,5.89,4.7s5.34-1.48,5.74-4.84C450.65,323.7,450.8,321.23,451,318.67Z"/><path class="cls-2" d="M440.87,180.69,435.43,172c14.26-6.05,27-13.79,38.06-24.23,3.85,3.26,4.3,6.55.93,10.62-3.8,4.58-7.16,9.53-10.7,14.31l1,1.19,17.59-12.93,4.65,7.2c-12.12,7.59-24,15.08-35.9,22.4-.94.58-3.58.35-3.73-.07-.56-1.67-1.19-4-.43-5.3,2.39-4,5.4-7.56,8.16-11.29l3.4-4.65-1-1.12Z"/><path class="cls-2" d="M347.83,515.88c-3.71,2.19-6.09,1.29-8.13-2-3.12-5.05-6.51-9.94-9.79-14.9l-1.53.56c1.78,5.23,3.24,10.59,5.45,15.63,1.21,2.75,1.8,4.24-1.81,4.8-2.44.39-4.85,1-6.69,1.33-1.35-7.65-2.4-15.06-4-22.35-1.59-7.12-3.76-14.11-5.73-21.33,4.55-2.67,6-2.4,9.16,2.3,3.5,5.19,6.95,10.41,10.42,15.61l1.35-.54c-2.07-6.89-4.14-13.79-6.37-21.17l8.7-2C341.88,486.72,344.86,501.32,347.83,515.88Z"/><path class="cls-2" d="M259.29,522.65c-8.8-1.07-9.25-1.67-7.76-9.36.44-2.28.78-4.58,1.33-6.84,1.08-4.51-.82-6.15-6.24-5.6-.54,6.16-1.09,12.4-1.7,19.33l-9.29-1.43c1.65-7.55,3.43-14.77,4.76-22.06s2.18-14.47,3.42-22.92c4.54,1.08,10.23,1.87,15.43,3.93,1.95.77,3.95,4.53,3.82,6.8-.27,4.64-2,9.19-3.08,13.77a14.47,14.47,0,0,0-.47,2.68q-.17,4.65-.21,9.3C259.27,514.28,259.29,518.31,259.29,522.65ZM248.1,495.34c2.82-.64,6-.52,6.52-1.65a21.15,21.15,0,0,0,1.69-9.11c0-1.06-2.35-2.32-3.85-3-.38-.16-2.11,1.63-2.4,2.73C249.26,487.5,248.87,490.77,248.1,495.34Z"/><path class="cls-2" d="M456.53,131c-.61,1.08-1.43,3.55-3.07,5.2-6.33,6.36-12.87,12.52-19.46,18.63-4.93,4.57-10,4.23-14.85-.73-5.09-5.21-5.24-10.22-.22-15.19,6-6,12.28-11.71,18.3-17.69,3.27-3.25,6.75-4.72,11.21-2.75A14.21,14.21,0,0,1,456.53,131Zm-6.42-2.45c-1.09-1.28-1.93-3.08-3.22-3.52a5.19,5.19,0,0,0-4.28,1.15c-6.27,5.72-12.32,11.67-18.48,17.5-1.95,1.83-2.9,3.77-.73,6s4.08,1.63,6.08-.32c6.08-5.92,12.24-11.76,18.32-17.67A25.77,25.77,0,0,0,450.11,128.57Z"/><path class="cls-2" d="M177.59,443.24l9.08,5.74c-9.23,7.62-13.3,18.33-19.77,27.36-1.75,2.43-3.38,5.09,0,7.22s5-.57,6.59-3.08c4.33-6.88,8.86-13.64,13-20.62,1.48-2.47,2.12-5.43,3.35-8.71l7.86,4.9c-6.87,10.48-13.38,20.55-20,30.52-3.46,5.17-8.58,5.83-14.29,2.12-5.55-3.6-7.12-8.81-3.93-14,4.35-7.07,9-13.94,13.29-21.05C174.6,450.61,175.78,447.21,177.59,443.24Z"/><path class="cls-2" d="M117.74,125.48a22.31,22.31,0,0,0,3.81-2.91c2.61-3.1,5.14-3.37,8.6-1.06,8.43,5.61,17,11,25.66,16.28,2.87,1.75,6.1,2.92,9.86,4.68l-7.94,8.34-8-9-5.11,6.41,8.8,7.42-8.52,6.44C137.26,150.09,131,135.94,117.74,125.48Zm27,13-10.92-7.4-.94,1,7.77,10.72Z"/><path class="cls-2" d="M147.34,446.55a16.83,16.83,0,0,1,1.71,1c6,4.95,6.07,5.05.92,10.65-3.38,3.68-6.81,7.3-10.25,10.91-.31.33-.83.45-.73.39-2.33-1.7-4.27-3.35-6.41-4.64-6.83-4.1-8.18-11.32-2.92-17.23,5.09-5.71,10.35-11.27,15.56-16.87,6.1-6.56,12.22-7,17.51-1.2,5.15,5.61,4.33,11.12-2.68,17.11-3.32-2.13-5-4.38-2.13-8.4.79-1.1-.15-3.43-.29-5.19-1.79.22-4.26-.24-5.26.76q-9.27,9.41-17.88,19.46c-.9,1.05-.21,3.47-.25,5.26,1.91-.07,4.58.63,5.58-.36,2.22-2.21,3.62-5.25,5.33-8C145.9,449,146.59,447.81,147.34,446.55Z"/><path class="cls-2" d="M203.42,495.51a55.56,55.56,0,0,0-2.75,6,37.76,37.76,0,0,0-.87,5.57l-10.52-4.19c9-12.62,19.6-23.76,24-38.8,8.38,1,9.69,2.77,8.18,11-1.77,9.63-3.54,19.26-5.07,28.92-.45,2.8-.07,5.73-.07,9.55l-10.49-4.07c1.36-3.81,2.89-7.16,3.52-10.68C209.48,498.15,205.92,496.85,203.42,495.51Zm11.43-17.1-1-.36-7.64,12.6,5.67,1.84C213,487.35,213.91,482.88,214.85,478.41Z"/><path class="cls-2" d="M297.64,52c9.82-.26,10.2.15,11.34,9.53s2.39,18.76,3.8,28.11c.42,2.8,1.54,5.5,2.5,8.83-2,0-3.28,0-4.57,0-6.66-.21-6.51-.2-5.57-6.69.25-1.75-.16-4.24-1.29-5.33s-4-1.19-5.07-.38c-1.24,1-1.68,3.36-1.84,5.19s.46,3.75.83,6.26l-11.28-1C291.31,81.77,298.1,68,297.64,52ZM305,80.11c-.56-5-1.06-9.41-1.55-13.81l-1.25.07c-1,4.35-2,8.71-3.13,13.44Z"/><path class="cls-2" d="M307.33,523.73H296.49c-2.4-3.68,4.69-11.34-4.15-11.2S291,520.1,288.47,524l-9.77.53c1.71-7.82,3.56-15.21,4.89-22.7,1.31-7.31,2.11-14.72,3.21-22.67,7.22-1.76,8.49-1,10.5,7.47,2.17,9.21,4.2,18.46,6.5,27.63C304.58,517.35,306,520.27,307.33,523.73Zm-14.89-31.5-1.15.1c-.62,4.58-1.23,9.16-1.88,14h5.9C294.29,501.31,293.36,496.77,292.44,492.23Z"/><path class="cls-2" d="M110.35,158c-1.37,4.38-3.61,5.57-7.68,3.87-1.16-.48-3.06.81-4.61,1.28.6,1.5.83,3.36,1.88,4.41,2.89,2.86,6.35,2.65,9.55.49,7.23-4.87,13.85-3.95,20.52,1.32,4.56,3.6,5.64,8.41,2.41,14-3.42,5.94-8.38,7.84-13.65,5.15-1.6-.82-3.08-1.87-4.87-3,1.55-4,3.4-5.87,7.85-3.71,1.22.6,4-.57,5.1-1.81.61-.71-.38-3.7-1.5-4.79-4.2-4.06-8.75-4.41-13.86-1-7.95,5.32-13.39,1.87-19.07-3.39-3.16-2.93-2.72-8,.52-12.32,2.76-3.72,6.2-6.22,11.07-4.26A48.57,48.57,0,0,1,110.35,158Z"/><path class="cls-2" d="M220.51,94.5c3.88-2.5,6.42-2.22,8.23,2.35.5,1.27,3.23,1.65,4.94,2.44.76-1.76,2.28-3.6,2.13-5.28-.49-5.58-3.57-8.91-9.49-9.6-5.72-.66-9.7-3.44-11.21-9.58-2-8.27-.44-12.1,6.82-14.26s11,.16,13.38,8.3c.22.77.44,1.55.74,2.57-3.56,1.91-6.13,1.86-8.2-2.1-.63-1.2-2.76-1.62-4.21-2.4-.58,1.66-1.71,3.33-1.63,5,.2,4.18,3.3,6.09,7,6.54,9.16,1.12,12.91,6.93,14.32,15.27.93,5.43-1.65,9.47-7.77,11.39-6.46,2-11.26.29-13.32-5C221.5,98.32,221.07,96.38,220.51,94.5Z"/><path class="cls-2" d="M415.77,433.89l9.41,9.94,6.22-5.36c5.62,4.17,4.51,3.44-1.63,10.13l10.16,11.13,6.84-12.2c1.57,2.08,3,3.54,3.86,5.29.49,1,.53,3-.13,3.68-4.42,4.44-9.08,8.65-13.73,13a121.28,121.28,0,0,0-31.28-33.16c4.77-4.46,9.2-9.19,14.35-12.93,1.13-.82,4.81,1.85,7.32,2.92l-.39,1.51Z"/><path class="cls-2" d="M401.93,450.12a31.63,31.63,0,0,0-5.55.87,39.33,39.33,0,0,0-5.55,3c1.49,2.31,2.88,4.13,3.89,6.13,1.9,3.78,4,5.41,7.92,2.12.8-.67,2.91.23,4.42.41-.33,1.49-.28,3.25-1.09,4.39s-2.58,1.94-4.48,3.27L410,483.05l7.84-9.9c6,6.5,6,6.62-.74,11.12-3.86,2.56-7.76,5.09-12,7.86a119.23,119.23,0,0,0-25.36-37.89c5.35-3.55,10.27-7.22,15.59-10.19,5-2.77,4.65,2.82,6.74,4.62Z"/><path class="cls-2" d="M356.46,76.68c-4.53-.25-6-2.14-5.69-6.22.11-1.58-1.77-3.3-2.74-5-1.51,1.22-3.88,2.16-4.39,3.71q-3.94,12-6.93,24.4c-.36,1.48,1.36,3.46,2.11,5.21,1.69-.91,4.35-1.46,4.87-2.82,1.67-4.42,4.21-4.5,7.71-2.66-1.07,10.46-8.09,14.77-16.67,10.29-4.62-2.41-6.56-6.52-5.17-11.66q3.39-12.5,7.12-24.89c2-6.6,6.64-9,13.54-7.28,6.19,1.58,9.06,6.43,7.59,13A35.31,35.31,0,0,1,356.46,76.68Z"/><path class="cls-2" d="M268.84,98.14,258.37,99c.83-15.23-.26-30.12-4.76-45.07,6-.65,11.9-1.74,17.82-1.81,5.74-.08,2.69,4.71,3.88,8.13l-12-2.21c.34,4.55.45,8.14,1,11.66.12.8,1.73,1.71,2.78,1.93a26.45,26.45,0,0,0,5.15.09c1.55,3.68,1.21,6.07-3.6,5.86-2.89-.12-3.95,1.31-3.28,4,1.07,4.42,2.22,8.83,3.27,13.26A21.08,21.08,0,0,1,268.84,98.14Z"/><path class="cls-2" d="M386.57,80.46l-9-.88c2.65-7.93,3.32-8.24,9.64-5.07q4.89,2.46,9.75,5c6.23,3.28,6.37,4,1.53,10.89l-5.68-6.69C387.06,95.78,379,106.18,376.41,120l-10.35-5C375.62,105.1,379.25,92.31,386.57,80.46Z"/><path class="cls-2" d="M154.29,101c-2.12,3.46-3.4,5.55-4.83,7.86-6.11-6.53-6.08-6.83.31-11.4,2.7-1.94,5.39-3.89,8.1-5.83,6.12-4.4,6.52-4.31,10.79,3.08a27.79,27.79,0,0,1-5,1.29c-3,.22-3.46,1.44-1.8,3.75,5.62,7.83,11.14,15.75,17,23.42,1.4,1.84,3.85,2.87,6.47,4.73L177,134Z"/><path class="cls-2" d="M381.93,504,374,507.39,358.8,469.44c-1.64,2.56-2.22,3.86-3.16,4.81a15.7,15.7,0,0,1-3.14,2c-4.4-6.86-4.25-7.38,2.59-10.35,3.35-1.46,6.68-2.93,10-4.36,6.27-2.66,7.21-2.13,9.05,5.69h-9.29Z"/><path class="cls-2" d="M420,94l8.61,6.58A130.07,130.07,0,0,0,401.27,137l-8.64-6.46A125.68,125.68,0,0,0,420,94Z"/><path class="cls-2" d="M211.54,113.44l-9.79,4.79a125.29,125.29,0,0,0-20.18-40.79l9.83-5A121.09,121.09,0,0,0,211.54,113.44Z"/><path class="cls-2" d="M505.31,289.57c-5.6.1-9.43-3.59-9.51-9.15s3.76-9.59,9.13-9.72a9.6,9.6,0,0,1,9.72,9.32A9.33,9.33,0,0,1,505.31,289.57Z"/><path class="cls-2" d="M67.8,289.57a9.06,9.06,0,0,1-9.47-9.32,9.44,9.44,0,1,1,18.88-.05A9.06,9.06,0,0,1,67.8,289.57Z"/></g></g></svg>