<svg xmlns="http://www.w3.org/2000/svg" viewBox="0 0 453.13 453.13"><defs><style>.cls-1{fill:#ebf0f2;}.cls-2{fill:#16385d;stroke:#16385d;stroke-miterlimit:10;stroke-width:6px;}</style></defs><g id="Layer_2" data-name="Layer 2"><g id="Capa_1" data-name="Capa 1"><circle class="cls-1" cx="226.57" cy="226.57" r="226.57"/><path class="cls-2" d="M415.92,142.51a7.88,7.88,0,0,0-3.44-6.51L231,12.06a7.92,7.92,0,0,0-8.91,0L40.62,136.11a7.9,7.9,0,0,0-3.44,6.52v49.12a7.89,7.89,0,0,0,12.23,6.59l8.82-5.79V407a7.89,7.89,0,0,0,7.89,7.89H387a7.9,7.9,0,0,0,7.89-7.9V192.55l8.82,5.79a7.9,7.9,0,0,0,12.24-6.6Zm-36.8,256.61H109V258.51a7.9,7.9,0,1,0-15.79,0V399.12H74V182.17L226.57,81.9l117.6,77.3V298.26a7.9,7.9,0,1,0,15.79,0V169.58l19.16,12.59v217ZM230.9,65.86a7.89,7.89,0,0,0-8.67,0L53,177.11V146.79L226.57,28.14,400.14,146.69l0,30.41Z"/><path class="cls-2" d="M200.65,362.7H310.31v36.42H326.1V199.42a7.9,7.9,0,0,0-7.9-7.89H134.93a7.89,7.89,0,0,0-7.89,7.89v199.7h37.19Zm109.66-15.79H216.44l38.39-38.39h55.48Zm0-54.18H270.62l8.91-8.91,25.9-25.9h4.88ZM142.83,207.32H278.11L243.3,242.13H142.83Zm0,50.6h84.68L192.7,292.73H142.83V257.92Zm0,50.6h34.08L142.83,342.6Zm0,56.41,4.54-4.54,54.18-54.19,27.77-27.76,71.12-71.12h9.87v23.39l-13.73,13.73L142.83,398.19Z"/></g></g></svg>