<?xml version="1.0" encoding="utf-8"?>
<!-- Generator: Adobe Illustrator 24.2.3, SVG Export Plug-In . SVG Version: 6.00 Build 0)  -->
<svg version="1.1" id="Capa_1" xmlns="http://www.w3.org/2000/svg" xmlns:xlink="http://www.w3.org/1999/xlink" x="0px" y="0px"
	 viewBox="0 0 512 512" style="enable-background:new 0 0 512 512;" xml:space="preserve">
<style type="text/css">
	.st0{fill:#EBF0F2;}
	.st1{fill:#16385D;}
</style>
<g>
	<path class="st0" d="M403.7,156.4v108.1c0,0.6,0,1.3,0,1.9c0,0.5,0,0.9,0,1.4c0,0.4,0,0.9,0,1.3c0,0.3,0,0.6,0,0.9
		c0,0.7-0.1,1.4-0.1,2.1c0,0.5-0.1,1.1-0.1,1.6c0,0.6-0.1,1.3-0.1,1.9c-1.3,17.9-5.7,35.7-13,52.8c-0.2,0.6-0.5,1.1-0.7,1.7
		c-0.3,0.6-0.5,1.2-0.8,1.7c-0.4,0.9-0.8,1.8-1.2,2.7c-0.2,0.5-0.5,1-0.8,1.6c-0.6,1.2-1.2,2.4-1.8,3.5c-0.3,0.6-0.6,1.2-1,1.8
		c-0.1,0.2-0.2,0.4-0.3,0.7c-0.4,0.7-0.8,1.4-1.2,2.2c-0.9,1.7-1.9,3.3-2.9,5c-5.5,9.2-11.8,17.9-18.9,26
		c-7.6,8.6-15.7,16.2-24.5,22.7c-0.5,0.6-1,1.1-1.6,1.6c-17.9,13-37.8,21.3-58.6,24.6c-0.9,0.2-1.9,0.3-2.8,0.4
		c-1.4,0.2-2.9,0.4-4.3,0.5c-0.5,0.1-1,0.1-1.5,0.2c-0.7,0.1-1.4,0.1-2.1,0.2c-0.6,0.1-1.2,0.1-1.9,0.1c-0.7,0-1.4,0.1-2.1,0.1
		c-0.1,0-0.2,0-0.3,0c-0.8,0-1.6,0.1-2.4,0.1c-0.9,0-1.7,0-2.6,0c-0.9,0-1.7,0-2.6,0c-0.8,0-1.6,0-2.4-0.1c-0.1,0-0.2,0-0.3,0
		c-0.7,0-1.4-0.1-2.1-0.1c-0.6,0-1.2-0.1-1.9-0.1c-0.7-0.1-1.4-0.1-2.1-0.2c-0.5,0-1-0.1-1.5-0.2c-0.8-0.1-1.6-0.2-2.3-0.3
		c-0.2,0-0.4-0.1-0.6-0.1c-0.5-0.1-0.9-0.1-1.4-0.2c-0.9-0.1-1.9-0.3-2.8-0.4c-20.8-3.3-40.7-11.6-58.6-24.6c-0.6-0.5-1.2-1-1.6-1.6
		c-8.7-6.5-16.9-14.1-24.5-22.7c-7.1-8.1-13.4-16.8-18.9-26c-1-1.6-1.9-3.3-2.9-5c-0.4-0.7-0.8-1.4-1.2-2.2
		c-0.1-0.2-0.2-0.4-0.3-0.7c-0.3-0.6-0.6-1.2-1-1.8c-0.6-1.2-1.2-2.3-1.8-3.5c-0.3-0.5-0.5-1-0.8-1.6c-0.4-0.9-0.8-1.8-1.2-2.7
		c-0.3-0.6-0.5-1.2-0.8-1.7c-0.2-0.6-0.5-1.1-0.7-1.7c-7.3-17-11.7-34.9-13-52.8c0-0.6-0.1-1.3-0.1-1.9c0-0.5-0.1-1.1-0.1-1.6
		c0-0.7-0.1-1.4-0.1-2.1c0-0.3,0-0.6,0-0.9c0-0.4,0-0.9,0-1.3c0-0.5,0-0.9,0-1.4c0-0.6,0-1.3,0-1.9V156.4c0-3,1.7-5.8,4.4-7.2
		c0.1,0,0.1-0.1,0.2-0.1c0,0,0.1,0,0.1-0.1L252,86.8c1-0.5,2.2-0.7,3.3-0.7c0.2,0,0.5,0,0.7,0c0.2,0,0.5,0,0.7,0
		c1.1,0,2.2,0.2,3.3,0.7l138.9,62.3c0,0,0.1,0,0.1,0.1c0.1,0,0.1,0.1,0.2,0.1C401.9,150.6,403.7,153.4,403.7,156.4z"/>
	<g>
		<g>
			<path class="st1" d="M451.9,123.9v143.4c0,38.6-11,77.6-31.8,112.6c-3,5-9.5,6.7-14.6,3.7c-2.4-1.5-4.2-3.8-4.9-6.5
				s-0.3-5.6,1.2-8.1c18.9-31.7,28.8-66.9,28.8-101.7V130.8L255.1,53L81.4,130.8v136.5c0,48,19.2,96.9,52.7,134
				c33.7,37.3,78.1,58.7,121.9,58.7c32.5,0,64.2-10.6,91.8-30.7c4.8-3.5,11.4-2.4,14.9,2.4c1.7,2.3,2.4,5.1,1.9,7.9
				c-0.5,2.8-2,5.3-4.3,7c-31.2,22.7-67.3,34.7-104.3,34.7c-26.4,0-52.3-6.2-76.9-18.5c-23.1-11.5-44-27.8-62.1-48.4
				c-36.2-41.1-56.9-94.7-56.9-147.1V123.9c0-4.2,2.5-8,6.3-9.7l184.3-82.6c1.4-0.6,2.9-0.9,4.4-0.9c1.5,0,2.9,0.3,4.3,0.9
				l186.1,82.6C449.4,115.9,451.9,119.7,451.9,123.9z"/>
		</g>
		<g>
			<path class="st1" d="M360,193.6l-89.9,125.5c-0.1,0.2-0.2,0.3-0.4,0.5c-6.9,8.5-17,13.8-27.9,14.5c-0.9,0.1-1.7,0.1-2.6,0.1
				c-10,0-19.8-3.9-27-10.8l-58.1-56.7c-4.2-4.1-4.3-10.9-0.2-15.1c2-2,4.7-3.2,7.5-3.2h0.1c2.8,0,5.4,1.1,7.4,3l57.9,56.5l0.1,0.1
				c4.9,4.6,10.5,5,13.4,4.8c2.8-0.2,8.1-1.2,12.3-6.1l0.2-0.2l89.7-125.3c1.7-2.3,4.1-3.9,6.9-4.3c2.8-0.5,5.6,0.2,7.9,1.8
				C362.3,182.2,363.4,188.8,360,193.6z"/>
		</g>
	</g>
</g>
</svg>
