<?xml version="1.0" encoding="utf-8"?>
<!-- Generator: Adobe Illustrator 24.2.3, SVG Export Plug-In . SVG Version: 6.00 Build 0)  -->
<svg version="1.1" id="Capa_1" xmlns="http://www.w3.org/2000/svg" xmlns:xlink="http://www.w3.org/1999/xlink" x="0px" y="0px"
	 viewBox="0 0 512 512" style="enable-background:new 0 0 512 512;" xml:space="preserve">
<style type="text/css">
	.st0{fill:#EBF0F2;}
	.st1{fill:#16385D;}
</style>
<polygon class="st0" points="419.4,360.6 253.6,437.5 91,360.8 91,157.4 256.5,74.8 419.4,157.1 "/>
<g>
	<g>
		<g>
			<path class="st1" d="M471.3,129.1L259.6,26.9c-1.9-0.9-4.1-0.9-5.9,0L42,129.1c-2.4,1.1-3.9,3.5-3.9,6.1v248.1
				c0,2.6,1.5,5,3.9,6.1l211.7,102.2c0.9,0.5,2,0.7,3,0.7c1,0,2-0.2,3-0.7l211.7-102.2c2.4-1.1,3.9-3.5,3.9-6.1V135.2
				C475.1,132.6,473.6,130.2,471.3,129.1z M256.6,40.7l195.9,94.6l-56.8,27.4c-0.4-0.3-0.7-0.5-1.2-0.7L200,68L256.6,40.7z
				 M184.6,75.7l195.7,94.5l-40.1,19.3L144.6,95.1L184.6,75.7z M384.8,183.1v71.5l-37.4,18.1v-71.5L384.8,183.1z M461.5,379.1
				l-198,95.6v-233l47.2-22.8c3.4-1.6,4.8-5.7,3.2-9.1c-1.6-3.4-5.7-4.8-9.1-3.2l-48.1,23.2l-18.9-9.1c-3.4-1.6-7.5-0.2-9.1,3.2
				c-1.6,3.4-0.2,7.5,3.2,9.1l18,8.7v233l-198-95.6v-233l150.8,72.8c1,0.5,2,0.7,3,0.7c2.5,0,5-1.4,6.2-3.9c1.6-3.4,0.2-7.5-3.2-9.1
				L60.7,135.2l67.8-32.7l205.1,99c0,0,0.1,0.1,0.1,0.1v81.9c0,2.3,1.2,4.5,3.2,5.8c1.1,0.7,2.4,1,3.6,1c1,0,2-0.2,3-0.7l51.1-24.7
				c2.4-1.1,3.9-3.5,3.9-6.1v-82.4l63-30.4L461.5,379.1L461.5,379.1z"/>
			<path class="st1" d="M256.6,496c-1.6,0-3.1-0.4-4.6-1L40.4,392.8c-3.6-1.7-5.9-5.4-5.9-9.4V135.2c0-4,2.3-7.7,5.9-9.4L252.1,23.6
				c2.9-1.4,6.2-1.4,9.1,0l211.7,102.2c3.6,1.7,5.9,5.4,5.9,9.4v248.1c0,4-2.3,7.7-5.9,9.4L261.2,495
				C259.8,495.7,258.2,496,256.6,496z M256.7,29.9c-0.5,0-0.9,0.1-1.4,0.3L43.6,132.4c-1.1,0.5-1.8,1.7-1.8,2.9v248.1
				c0,1.2,0.7,2.3,1.8,2.9l211.7,102.2c0.9,0.4,1.9,0.4,2.8,0l211.7-102.2c1.1-0.5,1.8-1.7,1.8-2.9V135.2c0-1.2-0.7-2.3-1.8-2.9
				L258,30.2C257.6,30,257.1,29.9,256.7,29.9z M253.5,480.5L48.2,381.4V140.3l156,75.3c0.4,0.2,0.9,0.3,1.4,0.3
				c1.2,0,2.3-0.7,2.9-1.8c0.8-1.6,0.1-3.5-1.5-4.3L52.3,135.2l76.2-36.8l1.6,0.8l206,99.4l0.5,0.7c0,0.1,0.1,0.1,0.1,0.1l0.7,1
				v83.1c0,1.1,0.6,2.1,1.5,2.7c0.9,0.6,2.1,0.6,3.1,0.2l51.1-24.7c1.1-0.5,1.8-1.7,1.8-2.9v-84.7l70.3-33.9v241.1l-205.3,99.1
				V239.4l49.3-23.8c1.6-0.8,2.2-2.7,1.5-4.3c-0.8-1.6-2.7-2.2-4.3-1.5l-49.7,24l-20.5-9.9c-0.8-0.4-1.6-0.4-2.4-0.1
				c-0.8,0.3-1.5,0.9-1.8,1.6c-0.4,0.8-0.4,1.6-0.1,2.4c0.3,0.8,0.9,1.4,1.6,1.8l20.1,9.7V480.5z M267.1,244v224.9l190.7-92.1V151.9
				l-55.7,26.9v80.1c0,4-2.3,7.7-5.9,9.4L345.1,293c-3.2,1.5-7.1,1.3-10.1-0.6c-3.1-1.9-4.9-5.2-4.9-8.9v-79.7l-201.6-97.3
				l-59.5,28.7l141,68.1c5.2,2.5,7.4,8.8,4.9,14c-1.7,3.6-5.4,5.9-9.4,5.9c-1.6,0-3.1-0.4-4.5-1L55.5,151.9v224.9l190.7,92.1V244
				l-16-7.7c-2.5-1.2-4.4-3.3-5.3-6c-0.9-2.6-0.8-5.5,0.5-8c1.2-2.5,3.3-4.4,6-5.3c2.6-0.9,5.5-0.8,8,0.5l17.3,8.4l46.5-22.5
				c5.2-2.5,11.5-0.3,14,4.9c2.5,5.2,0.3,11.5-4.9,14L267.1,244z M343.8,278.5v-79.6l44.7-21.6v79.6L343.8,278.5z M351.1,203.5v63.4
				l30.1-14.6v-63.4L351.1,203.5z M340.2,193.6L136.2,95.1l48.4-23.4l204,98.5L340.2,193.6z M153,95.1l187.2,90.4l31.7-15.3
				L184.6,79.8L153,95.1z M395.4,166.9l-1.8-1.4c-0.2-0.2-0.4-0.3-0.5-0.3L191.6,68l65-31.4L461,135.2L395.4,166.9z M208.4,68
				L396,158.5l48.2-23.3L256.6,44.7L208.4,68z"/>
		</g>
	</g>
</g>
</svg>
