<svg xmlns="http://www.w3.org/2000/svg" viewBox="0 0 453.13 453.13"><defs><style>.cls-1{fill:#ebf0f2;}.cls-2{fill:#16385d;stroke:#16385d;stroke-miterlimit:10;stroke-width:4px;}</style></defs><g id="Layer_2" data-name="Layer 2"><g id="Capa_1" data-name="Capa 1"><circle class="cls-1" cx="226.57" cy="226.57" r="226.57"/><path class="cls-2" d="M393.12,163.07c-7.42-8.5-15-16.6-21.88-25.29-4-5.08-8.35-6.74-14.83-6.73q-142.8.34-285.61.13H66.23c1.17,1.57,1.91,2.61,2.7,3.61C74.84,142.2,80.8,149.58,86.67,157c3.54,4.49,3.53,7.66,0,12.09C80,177.52,73.31,185.88,66,195h4.84l225,0c1.25,0,2.5,0,3.74,0,4.78.26,8,3.61,7.95,8.15a7.57,7.57,0,0,1-7.93,7.7c-14.1.11-28.2,0-42.3.06h-8V227h4.67l145.62,0c1.12,0,2.24,0,3.37,0,3.54-.08,6.38,1.17,7.94,4.5s.88,6.29-1.35,9.06q-11.11,13.88-22.21,27.76c-1.71,2.13-3.41,4.27-5.24,6.57,8.5,10.63,16.88,21.17,25.32,31.65,2.79,3.45,5.82,6.81,3.51,11.69s-6.84,4.66-11.28,4.66q-72.62,0-145.24,0H249v4.2q0,56.34,0,112.68c0,8.29-2.47,10.81-10.62,10.8q-13.49,0-27,0c-7.8,0-10.37-2.56-10.37-10.28V322.88H197c-9.86,0-19.72,0-29.57,0a17.93,17.93,0,0,1-4.8-.57,7.85,7.85,0,0,1-5.5-7.66,7.74,7.74,0,0,1,5.83-7.38,24.53,24.53,0,0,1,5.56-.47q106.87,0,213.74-.05h4.57c-1.15-1.56-1.86-2.61-2.65-3.6-5.91-7.42-11.86-14.8-17.74-22.24-3.55-4.48-3.53-7.62,0-12.08,6.66-8.4,13.36-16.76,20.35-25.54-1.31-.14-2.21-.32-3.12-.32q-146.37,0-292.73,0c-1.35,0-3.18.33-4,1.23-9,10-17.81,20.2-26.93,30.64l15.45,17.76c3.45,3.95,6.77,8,10.43,11.75a7.91,7.91,0,0,0,5,2.3c11,.2,22,0,32.94.14a14.25,14.25,0,0,1,6.09,1.34c2.93,1.47,4.12,4.27,3.76,7.54a7.28,7.28,0,0,1-5.29,6.58,16.76,16.76,0,0,1-4.8.58c-12.35,0-24.7-.05-37.06.07a11.82,11.82,0,0,1-9.74-4.48C66.05,306,55.14,293.62,44.31,281.21c-3.9-4.47-3.94-8.14,0-12.62C55.09,256.17,66,243.84,76.76,231.36A11.8,11.8,0,0,1,86.51,227q54.84.14,109.68,0h4.67V210.93H53.57c-1,0-2,0-3,0-3.66.13-6.68-1-8.31-4.49s-.73-6.49,1.59-9.36c7.37-9.12,14.67-18.3,22-27.46,1.71-2.13,3.39-4.28,5.21-6.58-8.49-10.62-16.86-21.16-25.3-31.63-2.79-3.46-5.82-6.81-3.53-11.69s6.84-4.66,11.28-4.66q71.11,0,142.24,0h5.37V98.18c0-2.12-.06-4.24,0-6.36.14-5.33,3.07-8.48,8.33-8.53q15.72-.15,31.45,0c5,.06,8.05,3.23,8.12,8.33.09,7.6,0,15.2,0,23.44h4.88c37.18,0,74.36.06,111.55-.08a13.89,13.89,0,0,1,11.64,5.3c10.26,12.07,20.81,23.9,31.23,35.84,4.58,5.24,4.59,8.61.08,13.77-10.6,12.12-21.28,24.17-31.76,36.38a12.18,12.18,0,0,1-10.38,4.7c-7.6-.24-15.22,0-22.83-.06-5.52-.05-9-3.13-9-7.84s3.57-8,9.21-8.07c6.36,0,12.72,0,19.09-.08a5,5,0,0,0,3.32-1C375.05,183.77,384,173.52,393.12,163.07Zm-175.83,160V434.42h15.6V323.11Zm0-96.39h15.59V211.19H217.26Zm15.58-111.86V99.37H217.23v15.49Z"/></g></g></svg>