<?xml version="1.0" encoding="utf-8"?>
<!-- Generator: Adobe Illustrator 24.2.3, SVG Export Plug-In . SVG Version: 6.00 Build 0)  -->
<svg version="1.1" id="Capa_1" xmlns="http://www.w3.org/2000/svg" xmlns:xlink="http://www.w3.org/1999/xlink" x="0px" y="0px"
	 viewBox="0 0 512 512" style="enable-background:new 0 0 512 512;" xml:space="preserve">
<style type="text/css">
	.st0{fill:#EBF0F2;}
	.st1{fill:#16385D;}
</style>
<path class="st0" d="M436,370.9H110.8c-6.6,0-12-5.4-12-12v-203c0-6.6,5.4-12,12-12H436c6.6,0,12,5.4,12,12v203
	C448,365.5,442.6,370.9,436,370.9z"/>
<g>
	<g>
		<path class="st1" d="M74.7,85.2c-17.7,0-32,14.3-32,32v85.3H64v-85.3c0-5.9,4.8-10.7,10.7-10.7h256V85.2H74.7z"/>
	</g>
</g>
<g>
	<g>
		<path class="st1" d="M74.7,405.2c-5.9,0-10.7-4.8-10.7-10.7V287.8H42.7v106.7c0,17.7,14.3,32,32,32h106.7v-21.3H74.7z"/>
	</g>
</g>
<g>
	<g>
		<path class="st1" d="M338.2,432.7l-259-259.1c-4.2-4.2-10.9-4.2-15.1,0l-60.9,61c-4.2,4.2-4.2,10.9,0,15.1l259.1,259
			c2,2,4.7,3.1,7.5,3.1s5.5-1.1,7.5-3.1l60.9-60.9C342.4,443.6,342.4,436.9,338.2,432.7z M269.7,486.1l-244-244l45.9-45.9l244,244
			L269.7,486.1z"/>
	</g>
</g>
<g>
	<g>
		<path class="st1" d="M469.3,405.2h-160v21.3h117.3v53.3c0,5.9,4.8,10.7,10.7,10.7h32c23.6,0,42.7-19.1,42.7-42.7
			C512,424.3,492.9,405.2,469.3,405.2z M469.3,469.2H448v-42.7h21.3c11.8,0,21.3,9.6,21.3,21.3C490.7,459.6,481.1,469.2,469.3,469.2
			z"/>
	</g>
</g>
<g>
	<g>
		<path class="st1" d="M469.3,85.2H416v21.3h53.3c11.8,0,21.3,9.6,21.3,21.3v320H512v-320C512,104.3,492.9,85.2,469.3,85.2z"/>
	</g>
</g>
<g>
	<g>
		
			<rect x="164" y="314.5" transform="matrix(0.7071 -0.7071 0.7071 0.7071 -175.2668 227.2085)" class="st1" width="45.3" height="21.3"/>
	</g>
</g>
<g>
	<g>
		
			<rect x="121.3" y="271.8" transform="matrix(0.7071 -0.7071 0.7071 0.7071 -157.5372 184.5387)" class="st1" width="45.3" height="21.3"/>
	</g>
</g>
<g>
	<g>
		
			<rect x="206.7" y="357.2" transform="matrix(0.7071 -0.7071 0.7071 0.7071 -192.9169 269.8984)" class="st1" width="45.3" height="21.3"/>
	</g>
</g>
<g>
	<g>
		
			<rect x="249.4" y="399.9" transform="matrix(0.7071 -0.7071 0.7071 0.7071 -210.5931 312.5969)" class="st1" width="45.3" height="21.3"/>
	</g>
</g>
<g>
	<g>
		
			<rect x="78.7" y="229.2" transform="matrix(0.7071 -0.7071 0.7071 0.7071 -139.8948 141.8977)" class="st1" width="45.3" height="21.3"/>
	</g>
</g>
<g>
	<g>
		<path class="st1" d="M460.1,23.8L445.4,9.1c-12.5-11.9-32.1-11.9-44.6,0L238.6,171.3c-4.2,4.2-4.2,10.9,0,15.1l44.2,44.2
			c2,2,4.7,3.1,7.5,3.1s5.5-1.1,7.5-3.1L460.1,68.4l0,0C472.4,56.1,472.4,36.1,460.1,23.8z M445,53.3L290.4,208l-29.2-29.2
			L415.9,24.2c4-3.8,10.4-3.8,14.4,0L445,38.9l0,0C449,42.9,449,49.3,445,53.3z"/>
	</g>
</g>
<g>
	<g>
		<path class="st1" d="M286.9,212.9l-46,15.4l15.4-46.1l-20.3-6.8l-22.1,66.4c-0.4,1.1-0.5,2.2-0.5,3.4c0,5.9,4.8,10.7,10.7,10.7
			c1.1,0,2.3-0.2,3.3-0.5l66.4-22.1L286.9,212.9z"/>
	</g>
</g>
<g>
	<g>
		
			<rect x="390.3" y="36.9" transform="matrix(0.7071 -0.7071 0.7071 0.7071 69.2026 303.4729)" class="st1" width="21.3" height="62.6"/>
	</g>
</g>
<g>
	<g>
		<rect x="224" y="234.5" class="st1" width="160" height="21.3"/>
	</g>
</g>
<g>
	<g>
		<rect x="405.3" y="234.5" class="st1" width="21.3" height="21.3"/>
	</g>
</g>
<g>
	<g>
		<rect x="448" y="234.5" class="st1" width="21.3" height="21.3"/>
	</g>
</g>
</svg>
