<svg xmlns="http://www.w3.org/2000/svg" viewBox="0 0 453.13 456.76"><defs><style>.cls-1{fill:#ebf0f2;}.cls-2{fill:#16385d;stroke:#16385d;stroke-miterlimit:10;stroke-width:7px;}</style></defs><g id="Layer_2" data-name="Layer 2"><g id="Capa_1" data-name="Capa 1"><circle class="cls-1" cx="226.57" cy="226.57" r="226.57"/><path class="cls-2" d="M381.87,151.49A69.52,69.52,0,0,0,387,125.05c0-1.87-.07-3.75-.22-5.6a6.25,6.25,0,0,0-12.46,1c.12,1.53.19,3.08.19,4.62a57.39,57.39,0,0,1-6.46,26.58,6.24,6.24,0,0,0,3.11,8.62,65.73,65.73,0,0,1-22.56,126.22,6.23,6.23,0,0,0-5.74,4.58c-4.66,16.86-23.37,29.11-44.49,29.11a52,52,0,0,1-27.57-7.63L291.46,280A14.47,14.47,0,0,0,268.94,262l-15.5,15.68,5.06-37.42a14.49,14.49,0,0,0-11.89-16.2c-.49-.08-1-.14-1.48-.17l-5.58-.38a14.45,14.45,0,0,0-15.24,11.93l-4.88,27.77L214.54,291,184.37,253.9a14.08,14.08,0,0,0-3.48-3.07l0,0-.43-.25a14.67,14.67,0,0,0-6.06-1.93h-.2l-1-.05a14.55,14.55,0,0,0-5.7,1.12l-5.83,2.45a14.47,14.47,0,0,0-6.8,20.79l24.69,41.17a53,53,0,0,1-24.83,6.06c-21.12,0-39.83-12.24-44.48-29.11a6.26,6.26,0,0,0-5.75-4.58A65.73,65.73,0,0,1,82,160.25a6.24,6.24,0,0,0,3.11-8.62,57.38,57.38,0,0,1-6.45-26.58,58,58,0,0,1,58-58A57.4,57.4,0,0,1,162,73,6.24,6.24,0,0,0,170.76,69a58,58,0,0,1,111.62,0A6.24,6.24,0,0,0,291.14,73a58,58,0,0,1,76.49,24.67,6.25,6.25,0,1,0,11-5.93,70.53,70.53,0,0,0-86.46-32.76,70.46,70.46,0,0,0-131.2,0,70.47,70.47,0,0,0-89.7,92.56A78.23,78.23,0,0,0,99.63,298.64c7.83,20.23,29.81,34,55.13,34A65.5,65.5,0,0,0,186,324.82l3.1,5.16A36.7,36.7,0,0,1,194,353.46c-.91,7-2,15.26-3.45,23.34A6.25,6.25,0,1,0,202.9,379c1.46-8.32,2.61-16.74,3.53-23.89a49.2,49.2,0,0,0-6.6-31.52L165.61,266.5a1.94,1.94,0,0,1-.18-1.63,2,2,0,0,1,1.11-1.21l5.83-2.45a2,2,0,0,1,2.3.58L208,302.74l.28.32a10.1,10.1,0,0,0,10.17,3.15l.07,0h0a10.17,10.17,0,0,0,4.8-2.79c.05-.06.11-.1.16-.16l.13-.15a10.25,10.25,0,0,0,2.41-5l10.63-60.41A2,2,0,0,1,238.7,236l5.58.38a1.94,1.94,0,0,1,1.4.72,2,2,0,0,1,.43,1.51l-6,44.14a11.21,11.21,0,0,0-.09,1.63,10.22,10.22,0,0,0,5.72,8.92q.38.18.75.33a10,10,0,0,0,3.9.72,10.19,10.19,0,0,0,7.14-3l20.26-20.51a2,2,0,0,1,1.27-.58h.09a1.91,1.91,0,0,1,1,.26,1.6,1.6,0,0,1,.31.22,2,2,0,0,1,.37,2.55l-27.51,43.4a50.05,50.05,0,0,0-7.51,30.88c2.62,30.22,7.16,64.31,26.87,93.22h-92.4A130.87,130.87,0,0,0,197,404.71a6.25,6.25,0,1,0-12-3.58c-5,16.71-12.19,30.39-22,41.82a6.25,6.25,0,0,0,4.74,10.31H285.39A6.24,6.24,0,0,0,290.13,443c-24.06-28.05-29-64.51-31.8-96.48A37.4,37.4,0,0,1,264,323.36l.17-.27a64.64,64.64,0,0,0,34.26,9.57c25.32,0,47.3-13.79,55.12-34a78.23,78.23,0,0,0,28.37-147.15Z"/></g></g></svg>