<svg xmlns="http://www.w3.org/2000/svg" xmlns:xlink="http://www.w3.org/1999/xlink" width="738.4" height="526.3" viewBox="0 0 738.4 526.3"><defs><clipPath id="a"><rect x="12.46" y="100.61" width="709.24" height="418.3" fill="none"/></clipPath><clipPath id="b"><path d="M643.84,349,649,382.86c14.37-2.2,27.54,5.91,29.4,18.1s-8.27,23.87-22.64,26.07c25.38-3.88,43.29-24.49,40-46S669.22,345.14,643.84,349Z" fill="none"/></clipPath><clipPath id="c"><rect x="40.71" width="629.29" height="100.61" fill="none"/></clipPath><clipPath id="e"><rect x="783.38" y="100.61" width="709.24" height="418.3" fill="none"/></clipPath></defs><rect x="12.46" y="100.61" width="709.24" height="418.3" fill="#fce9e1"/><g clip-path="url(#a)"><polygon points="655.78 427.04 695.7 419.75 691.88 396.1 655.78 427.04" fill="#f8d5d8"/><polygon points="167.8 501.75 130.71 508.07 123.22 465.6 167.8 501.75" fill="#f8d5d8"/><path d="M125.52,108.36c-30.26,4.64-52.22,25.22-49,46h55.43Z" fill="#f8d5d8"/><rect x="136.25" y="87.13" width="493.66" height="379.45" transform="translate(-37.49 61.17) rotate(-8.7)" fill="#eff5f9"/><ellipse cx="597.09" cy="43.72" rx="46.5" ry="38.02" transform="translate(0.26 90.87) rotate(-8.7)" fill="#c7dbea"/><ellipse cx="161.83" cy="462.75" rx="55.43" ry="39.46" transform="translate(-68.17 29.82) rotate(-8.7)" fill="#eff5f9"/><path d="M72.49,132.47l45,310c-7.93,8.32-12,18.44-10.44,28.62s8.26,18.37,18.06,23.94h0c-3.13-20.43,21.71-41.18,52-45.81L127.28,124.08Z" fill="#c7dbea"/><path d="M103.36,80.85c-30.26,4.63-52.22,25.21-49,46L107,471.13c-3.3-21.54,18.56-42.75,48.82-47.39Z" fill="#eff5f9"/><rect x="145.02" y="122.43" width="461.47" height="307.43" rx="12.3" transform="translate(-37.46 60.05) rotate(-8.7)" fill="none" stroke="#93afce" stroke-miterlimit="10" stroke-width="1.69"/><rect x="607.77" y="83.53" width="41.42" height="273.13" rx="8.74" transform="translate(-26.07 97.65) rotate(-8.7)" fill="#c7dbea" stroke="#93afce" stroke-miterlimit="10" stroke-width="1.69"/><path d="M163.46,221.67l73.37-22.58,8.66-6.13,8.53-1.3L363,151l93.33,136.31,27,62.21s-155.37,48.67-261,43Z" fill="none" stroke="#93afce" stroke-miterlimit="10" stroke-width="1.69"/><polygon points="173.26 234.36 183.1 262.97 236.71 245.38 226.81 216.34 196.58 226.51 173.26 234.36" fill="none" stroke="#93afce" stroke-miterlimit="10" stroke-width="1.69"/><path d="M197,226.37l-1.53-4.88a5.42,5.42,0,0,1,3.61-6.81l2.13-.64A5.43,5.43,0,0,1,207.7,217h0l21.91-7.32,13.42,37-36.34,12.12-1.05-3.24" fill="none" stroke="#93afce" stroke-miterlimit="10" stroke-width="1.69"/><polyline points="210 222 209.08 219.78 228.34 213.49 239.1 244.57 236.22 245.54" fill="none" stroke="#93afce" stroke-miterlimit="10" stroke-width="1.69"/><path d="M239.6,247.85l3.54,7.21a4,4,0,0,0,5.25,1.94h0a4.05,4.05,0,0,0,2.11-5.35l-4.83-11,82.13-40.28" fill="none" stroke="#93afce" stroke-miterlimit="10" stroke-width="1.69"/><path d="M321.87,203.46l5.21,10.25a3.27,3.27,0,0,0,4.39,1.44h0a3.26,3.26,0,0,0,1.46-4.37l-11.64-23.6,46.32-21.32L375,179.24l5.46-2.83" fill="none" stroke="#93afce" stroke-miterlimit="10" stroke-width="1.69"/><line x1="251.51" y1="237.8" x2="256.96" y2="248.83" fill="none" stroke="#93afce" stroke-miterlimit="10" stroke-width="1.69"/><line x1="257.4" y1="234.89" x2="262.85" y2="245.92" fill="none" stroke="#93afce" stroke-miterlimit="10" stroke-width="1.69"/><line x1="263.29" y1="231.98" x2="268.74" y2="243" fill="none" stroke="#93afce" stroke-miterlimit="10" stroke-width="1.69"/><line x1="269.18" y1="229.06" x2="274.63" y2="240.09" fill="none" stroke="#93afce" stroke-miterlimit="10" stroke-width="1.69"/><line x1="275.07" y1="226.15" x2="280.52" y2="237.18" fill="none" stroke="#93afce" stroke-miterlimit="10" stroke-width="1.69"/><line x1="280.96" y1="223.24" x2="286.41" y2="234.27" fill="none" stroke="#93afce" stroke-miterlimit="10" stroke-width="1.69"/><line x1="286.85" y1="220.33" x2="292.3" y2="231.36" fill="none" stroke="#93afce" stroke-miterlimit="10" stroke-width="1.69"/><line x1="292.75" y1="217.42" x2="298.2" y2="228.45" fill="none" stroke="#93afce" stroke-miterlimit="10" stroke-width="1.69"/><line x1="298.64" y1="214.51" x2="304.09" y2="225.54" fill="none" stroke="#93afce" stroke-miterlimit="10" stroke-width="1.69"/><line x1="304.53" y1="211.6" x2="309.98" y2="222.63" fill="none" stroke="#93afce" stroke-miterlimit="10" stroke-width="1.69"/><line x1="310.42" y1="208.69" x2="315.87" y2="219.72" fill="none" stroke="#93afce" stroke-miterlimit="10" stroke-width="1.69"/><line x1="316.31" y1="205.78" x2="321.76" y2="216.8" fill="none" stroke="#93afce" stroke-miterlimit="10" stroke-width="1.69"/><line x1="213.14" y1="256.66" x2="216.63" y2="269.12" fill="none" stroke="#93afce" stroke-miterlimit="10" stroke-width="1.69"/><line x1="234.07" y1="249.69" x2="237.54" y2="261.69" fill="none" stroke="#93afce" stroke-miterlimit="10" stroke-width="1.69"/><line x1="219.99" y1="254.49" x2="223.74" y2="267.23" fill="none" stroke="#93afce" stroke-miterlimit="10" stroke-width="1.69"/><line x1="227.13" y1="252" x2="230.76" y2="264.95" fill="none" stroke="#93afce" stroke-miterlimit="10" stroke-width="1.69"/><line x1="328.35" y1="183.93" x2="335.15" y2="198.37" fill="none" stroke="#93afce" stroke-miterlimit="10" stroke-width="1.69"/><line x1="335" y1="180.87" x2="341.73" y2="195.25" fill="none" stroke="#93afce" stroke-miterlimit="10" stroke-width="1.69"/><line x1="341.03" y1="178.39" x2="347.76" y2="192.78" fill="none" stroke="#93afce" stroke-miterlimit="10" stroke-width="1.69"/><line x1="348.06" y1="175.07" x2="354.79" y2="189.45" fill="none" stroke="#93afce" stroke-miterlimit="10" stroke-width="1.69"/><line x1="354.33" y1="172.24" x2="361.06" y2="186.63" fill="none" stroke="#93afce" stroke-miterlimit="10" stroke-width="1.69"/><line x1="360.73" y1="169.22" x2="367.46" y2="183.61" fill="none" stroke="#93afce" stroke-miterlimit="10" stroke-width="1.69"/><polyline points="196.5 317.52 254.24 298.57 369.46 241.5 363.69 226.55 394.07 212.54 401.29 206.83" fill="none" stroke="#93afce" stroke-miterlimit="10" stroke-width="1.69"/><polyline points="254.24 298.57 272.83 335.66 265.89 392.16" fill="none" stroke="#93afce" stroke-miterlimit="10" stroke-width="1.69"/><polyline points="394.07 212.54 401.18 227.62 411.13 221.2" fill="none" stroke="#93afce" stroke-miterlimit="10" stroke-width="1.69"/><polyline points="402.95 226.47 419.49 261.7 433.52 253.91" fill="none" stroke="#93afce" stroke-miterlimit="10" stroke-width="1.69"/><polyline points="426.18 257.99 442.48 293.54 402.33 312.13 391.82 291.91 369.63 301.2 364.11 288.4 272.83 335.66" fill="none" stroke="#93afce" stroke-miterlimit="10" stroke-width="1.69"/><line x1="402.33" y1="312.13" x2="416.98" y2="366.48" fill="none" stroke="#93afce" stroke-miterlimit="10" stroke-width="1.69"/><path d="M406,370s-7.72-17.14,7.53-21.08l4.28,12.73,72.77-32.23-6.1-13.19,13.14-6.37L444.28,192.21l-29.86,14,2.51,5-9.49,4.58" fill="none" stroke="#93afce" stroke-miterlimit="10" stroke-width="1.69"/><polyline points="363.03 150.96 380.23 143.52 416.2 121.86 514.71 338.57 483.35 349.48" fill="none" stroke="#93afce" stroke-miterlimit="10" stroke-width="1.69"/><path d="M187.91,261.39l5.3,17.71-4.73,1.46,8.86,25.56,12.12-4.51,1.28,3.62-11.63,4.84,30.73,68.62,24.77-9.32,22.45,6,14.86-3.73,4.52,2.95,16.91-7.39-2.07-4.55a3.08,3.08,0,0,1,1.52-4.07h0a3.08,3.08,0,0,1,4,1.33l5.79,10.68,26.17-13-5.4-16s16.86-8.25,25.32-.71,12.09,34.67,12.09,34.67" fill="none" stroke="#93afce" stroke-miterlimit="10" stroke-width="1.69"/><line x1="190.87" y1="287.46" x2="201.65" y2="283.41" fill="none" stroke="#93afce" stroke-miterlimit="10" stroke-width="1.69"/><line x1="193.12" y1="293.95" x2="204.22" y2="289.76" fill="none" stroke="#93afce" stroke-miterlimit="10" stroke-width="1.69"/><line x1="195.16" y1="299.81" x2="206.1" y2="295.83" fill="none" stroke="#93afce" stroke-miterlimit="10" stroke-width="1.69"/><line x1="204.26" y1="321.57" x2="215.33" y2="317.19" fill="none" stroke="#93afce" stroke-miterlimit="10" stroke-width="1.69"/><line x1="206.82" y1="327.28" x2="217.88" y2="322.86" fill="none" stroke="#93afce" stroke-miterlimit="10" stroke-width="1.69"/><line x1="209.37" y1="332.98" x2="220.43" y2="328.53" fill="none" stroke="#93afce" stroke-miterlimit="10" stroke-width="1.69"/><line x1="211.93" y1="338.68" x2="222.98" y2="334.2" fill="none" stroke="#93afce" stroke-miterlimit="10" stroke-width="1.69"/><line x1="214.48" y1="344.38" x2="225.53" y2="339.87" fill="none" stroke="#93afce" stroke-miterlimit="10" stroke-width="1.69"/><line x1="217.03" y1="350.09" x2="228.08" y2="345.55" fill="none" stroke="#93afce" stroke-miterlimit="10" stroke-width="1.69"/><line x1="219.59" y1="355.79" x2="230.63" y2="351.22" fill="none" stroke="#93afce" stroke-miterlimit="10" stroke-width="1.69"/><line x1="222.14" y1="361.49" x2="233.18" y2="356.89" fill="none" stroke="#93afce" stroke-miterlimit="10" stroke-width="1.69"/><line x1="224.69" y1="367.2" x2="235.73" y2="362.56" fill="none" stroke="#93afce" stroke-miterlimit="10" stroke-width="1.69"/><line x1="227.25" y1="372.9" x2="238.28" y2="368.24" fill="none" stroke="#93afce" stroke-miterlimit="10" stroke-width="1.69"/><polyline points="272.42 339.02 316.85 316.87 317.73 318.69 272.09 341.7" fill="none" stroke="#93afce" stroke-miterlimit="10" stroke-width="1.13"/><polyline points="366.23 293.32 321.8 315.34 322.5 317.09 367.08 295.29" fill="none" stroke="#93afce" stroke-miterlimit="10" stroke-width="1.13"/><line x1="278.25" y1="338.6" x2="284.84" y2="351.23" fill="none" stroke="#93afce" stroke-miterlimit="10" stroke-width="1.69"/><line x1="282.85" y1="336.28" x2="289.43" y2="348.93" fill="none" stroke="#93afce" stroke-miterlimit="10" stroke-width="1.69"/><line x1="287.45" y1="333.96" x2="294.02" y2="346.63" fill="none" stroke="#93afce" stroke-miterlimit="10" stroke-width="1.69"/><line x1="292.05" y1="331.64" x2="298.61" y2="344.33" fill="none" stroke="#93afce" stroke-miterlimit="10" stroke-width="1.69"/><line x1="296.66" y1="329.32" x2="303.2" y2="342.03" fill="none" stroke="#93afce" stroke-miterlimit="10" stroke-width="1.69"/><line x1="301.26" y1="327" x2="307.79" y2="339.73" fill="none" stroke="#93afce" stroke-miterlimit="10" stroke-width="1.69"/><line x1="305.86" y1="324.68" x2="312.38" y2="337.43" fill="none" stroke="#93afce" stroke-miterlimit="10" stroke-width="1.69"/><line x1="310.46" y1="322.36" x2="316.97" y2="335.13" fill="none" stroke="#93afce" stroke-miterlimit="10" stroke-width="1.69"/><line x1="326.79" y1="314.99" x2="332.97" y2="327.4" fill="none" stroke="#93afce" stroke-miterlimit="10" stroke-width="1.69"/><line x1="330.85" y1="313.01" x2="336.98" y2="325.41" fill="none" stroke="#93afce" stroke-miterlimit="10" stroke-width="1.69"/><line x1="334.92" y1="311.02" x2="340.99" y2="323.42" fill="none" stroke="#93afce" stroke-miterlimit="10" stroke-width="1.69"/><line x1="338.98" y1="309.03" x2="344.99" y2="321.44" fill="none" stroke="#93afce" stroke-miterlimit="10" stroke-width="1.69"/><line x1="343.04" y1="307.05" x2="349" y2="319.45" fill="none" stroke="#93afce" stroke-miterlimit="10" stroke-width="1.69"/><line x1="347.1" y1="305.06" x2="353" y2="317.46" fill="none" stroke="#93afce" stroke-miterlimit="10" stroke-width="1.69"/><line x1="323.32" y1="355.22" x2="328.65" y2="367.6" fill="none" stroke="#93afce" stroke-miterlimit="10" stroke-width="1.69"/><line x1="330.4" y1="351.95" x2="335.45" y2="364.23" fill="none" stroke="#93afce" stroke-miterlimit="10" stroke-width="1.69"/><line x1="336.78" y1="348.68" x2="341.74" y2="361.12" fill="none" stroke="#93afce" stroke-miterlimit="10" stroke-width="1.69"/><line x1="408.57" y1="309.24" x2="414.54" y2="324.88" fill="none" stroke="#93afce" stroke-miterlimit="10" stroke-width="1.69"/><line x1="415.78" y1="305.9" x2="421.32" y2="322.1" fill="none" stroke="#93afce" stroke-miterlimit="10" stroke-width="1.69"/><line x1="421.36" y1="303.32" x2="427.25" y2="318.79" fill="none" stroke="#93afce" stroke-miterlimit="10" stroke-width="1.69"/><line x1="427.68" y1="300.39" x2="433.72" y2="315.4" fill="none" stroke="#93afce" stroke-miterlimit="10" stroke-width="1.69"/><polyline points="403.6 316.84 448.27 295.71 429.7 256.03" fill="none" stroke="#93afce" stroke-miterlimit="10" stroke-width="1.69"/><line x1="426.16" y1="358.01" x2="421.15" y2="344.49" fill="none" stroke="#93afce" stroke-miterlimit="10" stroke-width="1.69"/><line x1="432.65" y1="355.14" x2="427.56" y2="341.62" fill="none" stroke="#93afce" stroke-miterlimit="10" stroke-width="1.69"/><line x1="439.14" y1="352.26" x2="433.98" y2="338.75" fill="none" stroke="#93afce" stroke-miterlimit="10" stroke-width="1.69"/><line x1="445.63" y1="349.39" x2="440.4" y2="335.87" fill="none" stroke="#93afce" stroke-miterlimit="10" stroke-width="1.69"/><line x1="452.12" y1="346.51" x2="446.81" y2="333" fill="none" stroke="#93afce" stroke-miterlimit="10" stroke-width="1.69"/><line x1="458.61" y1="343.64" x2="453.23" y2="330.12" fill="none" stroke="#93afce" stroke-miterlimit="10" stroke-width="1.69"/><line x1="465.09" y1="340.76" x2="459.65" y2="327.25" fill="none" stroke="#93afce" stroke-miterlimit="10" stroke-width="1.69"/><rect x="536.35" y="290.92" width="67.02" height="13.66" transform="translate(-38.5 89.68) rotate(-8.7)" fill="none" stroke="#93afce" stroke-miterlimit="10" stroke-width="1.69"/><rect x="540.01" y="307.76" width="67.02" height="27.76" transform="translate(-42.07 90.5) rotate(-8.7)" fill="none" stroke="#93afce" stroke-miterlimit="10" stroke-width="1.69"/><rect x="539.68" y="295.89" width="22.22" height="3.09" transform="translate(-38.67 86.79) rotate(-8.7)" fill="#c7dbea"/><rect x="542.26" y="312.74" width="22.22" height="3.09" transform="translate(-41.19 87.37) rotate(-8.7)" fill="#c7dbea"/><rect x="540.39" y="300.53" width="36.17" height="2.01" transform="translate(1156.15 515.07) rotate(171.3)" fill="#c7dbea"/><rect x="543.07" y="318.57" width="22.22" height="2.01" transform="translate(1150.34 551.6) rotate(171.3)" fill="#c7dbea"/><rect x="543.72" y="322.84" width="22.22" height="2.01" transform="translate(1152.29 559.98) rotate(171.3)" fill="#c7dbea"/><rect x="544.37" y="327.1" width="22.22" height="2.01" transform="translate(1154.23 568.37) rotate(171.3)" fill="#c7dbea"/><rect x="545.03" y="331.37" width="22.22" height="2.01" transform="translate(1156.17 576.75) rotate(171.3)" fill="#c7dbea"/><rect x="571.12" y="314.9" width="14.02" height="2.01" transform="translate(1197.42 540.68) rotate(171.3)" fill="#c7dbea"/><rect x="571.71" y="318.29" width="25.6" height="2.01" transform="translate(1210.61 546.46) rotate(171.3)" fill="#c7dbea"/><rect x="572.38" y="322.73" width="23.3" height="2.01" transform="translate(1210.32 555.36) rotate(171.3)" fill="#c7dbea"/><rect x="573" y="326.55" width="29.2" height="2.01" transform="matrix(-0.99, 0.15, -0.15, -0.99, 1217.99, 562.41)" fill="#c7dbea"/><rect x="495.02" y="346.59" width="112.4" height="9.92" transform="translate(-46.86 87.47) rotate(-8.7)" fill="#93afce"/><rect x="501.77" y="360.22" width="113.26" height="30.85" transform="translate(-50.42 88.84) rotate(-8.7)" fill="none" stroke="#93afce" stroke-miterlimit="10" stroke-width="1.69"/><line x1="545.79" y1="361.97" x2="550.46" y2="392.46" fill="none" stroke="#93afce" stroke-miterlimit="10" stroke-width="1.69"/><rect x="559.82" y="365.28" width="46.17" height="8.63" transform="translate(-49.22 92.48) rotate(-8.7)" fill="#c7dbea"/><rect x="317.63" y="406.76" width="80.16" height="11" transform="translate(-75.1 79.7) rotate(-11.51)" fill="#c7dbea"/><rect x="185.49" y="406.37" width="41.24" height="6.47" transform="translate(-59.62 35.91) rotate(-8.7)" fill="#93afce"/><rect x="195.78" y="412.93" width="67.31" height="3.24" transform="translate(-60.1 39.5) rotate(-8.7)" fill="#c7dbea"/><rect x="195.44" y="423.91" width="67.31" height="5.29" transform="translate(-61.92 39.59) rotate(-8.7)" fill="#93afce"/><rect x="197.71" y="438.73" width="67.31" height="5.29" transform="translate(-64.14 40.1) rotate(-8.7)" fill="#93afce"/><line x1="135.39" y1="230.77" x2="163.46" y2="221.67" fill="none" stroke="#93afce" stroke-miterlimit="10" stroke-width="1.69"/><line x1="327.62" y1="164.18" x2="308.61" y2="130.92" fill="none" stroke="#93afce" stroke-miterlimit="10" stroke-width="1.69"/><line x1="257.24" y1="138.78" x2="282.74" y2="181.16" fill="none" stroke="#93afce" stroke-miterlimit="10" stroke-width="1.69"/><line x1="215.05" y1="145.24" x2="245.49" y2="192.96" fill="none" stroke="#93afce" stroke-miterlimit="10" stroke-width="1.69"/><line x1="160.88" y1="153.54" x2="195.03" y2="211.96" fill="none" stroke="#93afce" stroke-miterlimit="10" stroke-width="1.69"/><line x1="129.83" y1="194.46" x2="149.33" y2="225.58" fill="none" stroke="#93afce" stroke-miterlimit="10" stroke-width="1.69"/><rect x="307.73" y="281.88" width="44.27" height="3.34" transform="translate(-90.39 171.29) rotate(-25.73)" fill="#c7dbea"/><rect x="189.69" y="238.86" width="32.89" height="3.34" transform="translate(-60.84 70.02) rotate(-16.84)" fill="#c7dbea"/><circle cx="506.18" cy="146.95" r="10.21" fill="none" stroke="#93afce" stroke-miterlimit="10" stroke-width="2.25"/><line x1="477.67" y1="155.23" x2="496.4" y2="150.49" fill="none" stroke="#93afce" stroke-miterlimit="10" stroke-width="2.25"/><line x1="516.27" y1="145.41" x2="533.47" y2="141.31" fill="none" stroke="#93afce" stroke-miterlimit="10" stroke-width="2.25"/><polygon points="528.38 137.21 533.47 141.31 531.25 149.36 542.88 138.24 528.38 137.21" fill="#93afce"/><rect x="576.95" y="41.71" width="92.99" height="348.33" transform="translate(-25.49 96.84) rotate(-8.7)" fill="#c7dbea"/><ellipse cx="649.81" cy="388.03" rx="46.5" ry="39.46" transform="translate(-51.24 102.82) rotate(-8.7)" fill="#a1bdd8"/><path d="M643.84,349,649,382.86c14.37-2.2,27.54,5.91,29.4,18.1s-8.27,23.87-22.64,26.07c25.38-3.88,43.29-24.49,40-46S669.22,345.14,643.84,349Z" fill="#93afce"/><g clip-path="url(#b)"><rect x="647.97" y="346.71" width="26.33" height="56.57" transform="translate(-49.14 104.38) rotate(-8.7)" fill="#c7dbea"/><path d="M644.48,353.2s14.5-3.23,27.26,4.08L669,339.36l-26,4Z" fill="#93afce"/></g><ellipse cx="652.4" cy="404.95" rx="26.33" ry="22.34" transform="translate(-53.77 103.4) rotate(-8.7)" fill="#a1bdd8"/><path d="M658.42,339.79S640.85,314.46,636,295.72s-6.69-50.43-3.81-53.88,16.81,11.43,19.4,21.59S669.08,292,669.08,292s7.83-34.43,2.09-60-9.14-39.7-4.06-43c4.63-3,15.61,11.45,15.61,11.45s-10.11-21.9,1-23.4c8-1.09,26,28.45,26,28.45s-6.88-16.26-5.38-20.94,13.13,4.63,22.73,17.78,9.81,28.08,11.9,38.34.19,51-9.74,75.89S727,347.39,727,347.39Z" fill="#f4b3b3"/><path d="M766.06,602.86,688.44,377.72s-20.21-18.08-30-37.93l68.55,7.6s8,13.91,9.32,16.08c36.29,62.16,150.31,188.28,140,240.08Z" fill="#f4b3b3"/><path d="M77.59,595.7,2.51,587.12l48-192.51L-7.33,378.1S-132.72,593.77-113.82,635.27s90,62.43,162.32,80.82C72.43,685.62,86.76,633.66,77.59,595.7Z" fill="#f4b3b3"/><path d="M58,402.54c10.76-8.5,25.83-8.31,43.91-27s41.9-37.86,36.65-47-37,14.28-37,14.28l-13.44,4.81-13-85.08a114.19,114.19,0,0,0-35.79,38.57c-16.39,29.22-46.64,77-46.64,77l46.89,60.28S51.41,407.73,58,402.54Z" fill="#f4b3b3"/></g><g clip-path="url(#c)"><polygon points="655.78 427.04 695.7 419.75 691.88 396.1 655.78 427.04" fill="#f8d5d8"/><polygon points="167.8 501.75 130.71 508.07 123.22 465.6 167.8 501.75" fill="#f8d5d8"/><path d="M125.52,108.36c-30.26,4.64-52.22,25.22-49,46h55.43Z" fill="#f8d5d8"/><rect x="136.25" y="87.13" width="493.66" height="379.45" transform="translate(-37.49 61.17) rotate(-8.7)" fill="#eff5f9"/><ellipse cx="597.09" cy="43.72" rx="46.5" ry="38.02" transform="translate(0.26 90.87) rotate(-8.7)" fill="#c7dbea"/><ellipse cx="161.83" cy="462.75" rx="55.43" ry="39.46" transform="translate(-68.17 29.82) rotate(-8.7)" fill="#eff5f9"/><path d="M72.49,132.47l45,310c-7.93,8.32-12,18.44-10.44,28.62s8.26,18.37,18.06,23.94h0c-3.13-20.43,21.71-41.18,52-45.81L127.28,124.08Z" fill="#c7dbea"/><path d="M103.36,80.85c-30.26,4.63-52.22,25.21-49,46L107,471.13c-3.3-21.54,18.56-42.75,48.82-47.39Z" fill="#eff5f9"/><rect x="145.02" y="122.43" width="461.47" height="307.43" rx="12.3" transform="translate(-37.46 60.05) rotate(-8.7)" fill="none" stroke="#93afce" stroke-miterlimit="10" stroke-width="1.69"/><rect x="607.77" y="83.53" width="41.42" height="273.13" rx="8.74" transform="translate(-26.07 97.65) rotate(-8.7)" fill="#c7dbea" stroke="#93afce" stroke-miterlimit="10" stroke-width="1.69"/><path d="M163.46,221.67l73.37-22.58,8.66-6.13,8.53-1.3L363,151l93.33,136.31,27,62.21s-155.37,48.67-261,43Z" fill="none" stroke="#93afce" stroke-miterlimit="10" stroke-width="1.69"/><polygon points="173.26 234.36 183.1 262.97 236.71 245.38 226.81 216.34 196.58 226.51 173.26 234.36" fill="none" stroke="#93afce" stroke-miterlimit="10" stroke-width="1.69"/><path d="M197,226.37l-1.53-4.88a5.42,5.42,0,0,1,3.61-6.81l2.13-.64A5.43,5.43,0,0,1,207.7,217h0l21.91-7.32,13.42,37-36.34,12.12-1.05-3.24" fill="none" stroke="#93afce" stroke-miterlimit="10" stroke-width="1.69"/><polyline points="210 222 209.08 219.78 228.34 213.49 239.1 244.57 236.22 245.54" fill="none" stroke="#93afce" stroke-miterlimit="10" stroke-width="1.69"/><path d="M239.6,247.85l3.54,7.21a4,4,0,0,0,5.25,1.94h0a4.05,4.05,0,0,0,2.11-5.35l-4.83-11,82.13-40.28" fill="none" stroke="#93afce" stroke-miterlimit="10" stroke-width="1.69"/><path d="M321.87,203.46l5.21,10.25a3.27,3.27,0,0,0,4.39,1.44h0a3.26,3.26,0,0,0,1.46-4.37l-11.64-23.6,46.32-21.32L375,179.24l5.46-2.83" fill="none" stroke="#93afce" stroke-miterlimit="10" stroke-width="1.69"/><line x1="251.51" y1="237.8" x2="256.96" y2="248.83" fill="none" stroke="#93afce" stroke-miterlimit="10" stroke-width="1.69"/><line x1="257.4" y1="234.89" x2="262.85" y2="245.92" fill="none" stroke="#93afce" stroke-miterlimit="10" stroke-width="1.69"/><line x1="263.29" y1="231.98" x2="268.74" y2="243" fill="none" stroke="#93afce" stroke-miterlimit="10" stroke-width="1.69"/><line x1="269.18" y1="229.06" x2="274.63" y2="240.09" fill="none" stroke="#93afce" stroke-miterlimit="10" stroke-width="1.69"/><line x1="275.07" y1="226.15" x2="280.52" y2="237.18" fill="none" stroke="#93afce" stroke-miterlimit="10" stroke-width="1.69"/><line x1="280.96" y1="223.24" x2="286.41" y2="234.27" fill="none" stroke="#93afce" stroke-miterlimit="10" stroke-width="1.69"/><line x1="286.85" y1="220.33" x2="292.3" y2="231.36" fill="none" stroke="#93afce" stroke-miterlimit="10" stroke-width="1.69"/><line x1="292.75" y1="217.42" x2="298.2" y2="228.45" fill="none" stroke="#93afce" stroke-miterlimit="10" stroke-width="1.69"/><line x1="298.64" y1="214.51" x2="304.09" y2="225.54" fill="none" stroke="#93afce" stroke-miterlimit="10" stroke-width="1.69"/><line x1="304.53" y1="211.6" x2="309.98" y2="222.63" fill="none" stroke="#93afce" stroke-miterlimit="10" stroke-width="1.69"/><line x1="310.42" y1="208.69" x2="315.87" y2="219.72" fill="none" stroke="#93afce" stroke-miterlimit="10" stroke-width="1.69"/><line x1="316.31" y1="205.78" x2="321.76" y2="216.8" fill="none" stroke="#93afce" stroke-miterlimit="10" stroke-width="1.69"/><line x1="213.14" y1="256.66" x2="216.63" y2="269.12" fill="none" stroke="#93afce" stroke-miterlimit="10" stroke-width="1.69"/><line x1="234.07" y1="249.69" x2="237.54" y2="261.69" fill="none" stroke="#93afce" stroke-miterlimit="10" stroke-width="1.69"/><line x1="219.99" y1="254.49" x2="223.74" y2="267.23" fill="none" stroke="#93afce" stroke-miterlimit="10" stroke-width="1.69"/><line x1="227.13" y1="252" x2="230.76" y2="264.95" fill="none" stroke="#93afce" stroke-miterlimit="10" stroke-width="1.69"/><line x1="328.35" y1="183.93" x2="335.15" y2="198.37" fill="none" stroke="#93afce" stroke-miterlimit="10" stroke-width="1.69"/><line x1="335" y1="180.87" x2="341.73" y2="195.25" fill="none" stroke="#93afce" stroke-miterlimit="10" stroke-width="1.69"/><line x1="341.03" y1="178.39" x2="347.76" y2="192.78" fill="none" stroke="#93afce" stroke-miterlimit="10" stroke-width="1.69"/><line x1="348.06" y1="175.07" x2="354.79" y2="189.45" fill="none" stroke="#93afce" stroke-miterlimit="10" stroke-width="1.69"/><line x1="354.33" y1="172.24" x2="361.06" y2="186.63" fill="none" stroke="#93afce" stroke-miterlimit="10" stroke-width="1.69"/><line x1="360.73" y1="169.22" x2="367.46" y2="183.61" fill="none" stroke="#93afce" stroke-miterlimit="10" stroke-width="1.69"/><polyline points="196.5 317.52 254.24 298.57 369.46 241.5 363.69 226.55 394.07 212.54 401.29 206.83" fill="none" stroke="#93afce" stroke-miterlimit="10" stroke-width="1.69"/><polyline points="254.24 298.57 272.83 335.66 265.89 392.16" fill="none" stroke="#93afce" stroke-miterlimit="10" stroke-width="1.69"/><polyline points="394.07 212.54 401.18 227.62 411.13 221.2" fill="none" stroke="#93afce" stroke-miterlimit="10" stroke-width="1.69"/><polyline points="402.95 226.47 419.49 261.7 433.52 253.91" fill="none" stroke="#93afce" stroke-miterlimit="10" stroke-width="1.69"/><polyline points="426.18 257.99 442.48 293.54 402.33 312.13 391.82 291.91 369.63 301.2 364.11 288.4 272.83 335.66" fill="none" stroke="#93afce" stroke-miterlimit="10" stroke-width="1.69"/><line x1="402.33" y1="312.13" x2="416.98" y2="366.48" fill="none" stroke="#93afce" stroke-miterlimit="10" stroke-width="1.69"/><path d="M406,370s-7.72-17.14,7.53-21.08l4.28,12.73,72.77-32.23-6.1-13.19,13.14-6.37L444.28,192.21l-29.86,14,2.51,5-9.49,4.58" fill="none" stroke="#93afce" stroke-miterlimit="10" stroke-width="1.69"/><polyline points="363.03 150.96 380.23 143.52 416.2 121.86 514.71 338.57 483.35 349.48" fill="none" stroke="#93afce" stroke-miterlimit="10" stroke-width="1.69"/><path d="M187.91,261.39l5.3,17.71-4.73,1.46,8.86,25.56,12.12-4.51,1.28,3.62-11.63,4.84,30.73,68.62,24.77-9.32,22.45,6,14.86-3.73,4.52,2.95,16.91-7.39-2.07-4.55a3.08,3.08,0,0,1,1.52-4.07h0a3.08,3.08,0,0,1,4,1.33l5.79,10.68,26.17-13-5.4-16s16.86-8.25,25.32-.71,12.09,34.67,12.09,34.67" fill="none" stroke="#93afce" stroke-miterlimit="10" stroke-width="1.69"/><line x1="190.87" y1="287.46" x2="201.65" y2="283.41" fill="none" stroke="#93afce" stroke-miterlimit="10" stroke-width="1.69"/><line x1="193.12" y1="293.95" x2="204.22" y2="289.76" fill="none" stroke="#93afce" stroke-miterlimit="10" stroke-width="1.69"/><line x1="195.16" y1="299.81" x2="206.1" y2="295.83" fill="none" stroke="#93afce" stroke-miterlimit="10" stroke-width="1.69"/><line x1="204.26" y1="321.57" x2="215.33" y2="317.19" fill="none" stroke="#93afce" stroke-miterlimit="10" stroke-width="1.69"/><line x1="206.82" y1="327.28" x2="217.88" y2="322.86" fill="none" stroke="#93afce" stroke-miterlimit="10" stroke-width="1.69"/><line x1="209.37" y1="332.98" x2="220.43" y2="328.53" fill="none" stroke="#93afce" stroke-miterlimit="10" stroke-width="1.69"/><line x1="211.93" y1="338.68" x2="222.98" y2="334.2" fill="none" stroke="#93afce" stroke-miterlimit="10" stroke-width="1.69"/><line x1="214.48" y1="344.38" x2="225.53" y2="339.87" fill="none" stroke="#93afce" stroke-miterlimit="10" stroke-width="1.69"/><line x1="217.03" y1="350.09" x2="228.08" y2="345.55" fill="none" stroke="#93afce" stroke-miterlimit="10" stroke-width="1.69"/><line x1="219.59" y1="355.79" x2="230.63" y2="351.22" fill="none" stroke="#93afce" stroke-miterlimit="10" stroke-width="1.69"/><line x1="222.14" y1="361.49" x2="233.18" y2="356.89" fill="none" stroke="#93afce" stroke-miterlimit="10" stroke-width="1.69"/><line x1="224.69" y1="367.2" x2="235.73" y2="362.56" fill="none" stroke="#93afce" stroke-miterlimit="10" stroke-width="1.69"/><line x1="227.25" y1="372.9" x2="238.28" y2="368.24" fill="none" stroke="#93afce" stroke-miterlimit="10" stroke-width="1.69"/><polyline points="272.42 339.02 316.85 316.87 317.73 318.69 272.09 341.7" fill="none" stroke="#93afce" stroke-miterlimit="10" stroke-width="1.13"/><polyline points="366.23 293.32 321.8 315.34 322.5 317.09 367.08 295.29" fill="none" stroke="#93afce" stroke-miterlimit="10" stroke-width="1.13"/><line x1="278.25" y1="338.6" x2="284.84" y2="351.23" fill="none" stroke="#93afce" stroke-miterlimit="10" stroke-width="1.69"/><line x1="282.85" y1="336.28" x2="289.43" y2="348.93" fill="none" stroke="#93afce" stroke-miterlimit="10" stroke-width="1.69"/><line x1="287.45" y1="333.96" x2="294.02" y2="346.63" fill="none" stroke="#93afce" stroke-miterlimit="10" stroke-width="1.69"/><line x1="292.05" y1="331.64" x2="298.61" y2="344.33" fill="none" stroke="#93afce" stroke-miterlimit="10" stroke-width="1.69"/><line x1="296.66" y1="329.32" x2="303.2" y2="342.03" fill="none" stroke="#93afce" stroke-miterlimit="10" stroke-width="1.69"/><line x1="301.26" y1="327" x2="307.79" y2="339.73" fill="none" stroke="#93afce" stroke-miterlimit="10" stroke-width="1.69"/><line x1="305.86" y1="324.68" x2="312.38" y2="337.43" fill="none" stroke="#93afce" stroke-miterlimit="10" stroke-width="1.69"/><line x1="310.46" y1="322.36" x2="316.97" y2="335.13" fill="none" stroke="#93afce" stroke-miterlimit="10" stroke-width="1.69"/><line x1="326.79" y1="314.99" x2="332.97" y2="327.4" fill="none" stroke="#93afce" stroke-miterlimit="10" stroke-width="1.69"/><line x1="330.85" y1="313.01" x2="336.98" y2="325.41" fill="none" stroke="#93afce" stroke-miterlimit="10" stroke-width="1.69"/><line x1="334.92" y1="311.02" x2="340.99" y2="323.42" fill="none" stroke="#93afce" stroke-miterlimit="10" stroke-width="1.69"/><line x1="338.98" y1="309.03" x2="344.99" y2="321.44" fill="none" stroke="#93afce" stroke-miterlimit="10" stroke-width="1.69"/><line x1="343.04" y1="307.05" x2="349" y2="319.45" fill="none" stroke="#93afce" stroke-miterlimit="10" stroke-width="1.69"/><line x1="347.1" y1="305.06" x2="353" y2="317.46" fill="none" stroke="#93afce" stroke-miterlimit="10" stroke-width="1.69"/><line x1="323.32" y1="355.22" x2="328.65" y2="367.6" fill="none" stroke="#93afce" stroke-miterlimit="10" stroke-width="1.69"/><line x1="330.4" y1="351.95" x2="335.45" y2="364.23" fill="none" stroke="#93afce" stroke-miterlimit="10" stroke-width="1.69"/><line x1="336.78" y1="348.68" x2="341.74" y2="361.12" fill="none" stroke="#93afce" stroke-miterlimit="10" stroke-width="1.69"/><line x1="408.57" y1="309.24" x2="414.54" y2="324.88" fill="none" stroke="#93afce" stroke-miterlimit="10" stroke-width="1.69"/><line x1="415.78" y1="305.9" x2="421.32" y2="322.1" fill="none" stroke="#93afce" stroke-miterlimit="10" stroke-width="1.69"/><line x1="421.36" y1="303.32" x2="427.25" y2="318.79" fill="none" stroke="#93afce" stroke-miterlimit="10" stroke-width="1.69"/><line x1="427.68" y1="300.39" x2="433.72" y2="315.4" fill="none" stroke="#93afce" stroke-miterlimit="10" stroke-width="1.69"/><polyline points="403.6 316.84 448.27 295.71 429.7 256.03" fill="none" stroke="#93afce" stroke-miterlimit="10" stroke-width="1.69"/><line x1="426.16" y1="358.01" x2="421.15" y2="344.49" fill="none" stroke="#93afce" stroke-miterlimit="10" stroke-width="1.69"/><line x1="432.65" y1="355.14" x2="427.56" y2="341.62" fill="none" stroke="#93afce" stroke-miterlimit="10" stroke-width="1.69"/><line x1="439.14" y1="352.26" x2="433.98" y2="338.75" fill="none" stroke="#93afce" stroke-miterlimit="10" stroke-width="1.69"/><line x1="445.63" y1="349.39" x2="440.4" y2="335.87" fill="none" stroke="#93afce" stroke-miterlimit="10" stroke-width="1.69"/><line x1="452.12" y1="346.51" x2="446.81" y2="333" fill="none" stroke="#93afce" stroke-miterlimit="10" stroke-width="1.69"/><line x1="458.61" y1="343.64" x2="453.23" y2="330.12" fill="none" stroke="#93afce" stroke-miterlimit="10" stroke-width="1.69"/><line x1="465.09" y1="340.76" x2="459.65" y2="327.25" fill="none" stroke="#93afce" stroke-miterlimit="10" stroke-width="1.69"/><rect x="536.35" y="290.92" width="67.02" height="13.66" transform="translate(-38.5 89.68) rotate(-8.7)" fill="none" stroke="#93afce" stroke-miterlimit="10" stroke-width="1.69"/><rect x="540.01" y="307.76" width="67.02" height="27.76" transform="translate(-42.07 90.5) rotate(-8.7)" fill="none" stroke="#93afce" stroke-miterlimit="10" stroke-width="1.69"/><rect x="539.68" y="295.89" width="22.22" height="3.09" transform="translate(-38.67 86.79) rotate(-8.7)" fill="#c7dbea"/><rect x="542.26" y="312.74" width="22.22" height="3.09" transform="translate(-41.19 87.37) rotate(-8.7)" fill="#c7dbea"/><rect x="540.39" y="300.53" width="36.17" height="2.01" transform="translate(1156.15 515.07) rotate(171.3)" fill="#c7dbea"/><rect x="543.07" y="318.57" width="22.22" height="2.01" transform="translate(1150.34 551.6) rotate(171.3)" fill="#c7dbea"/><rect x="543.72" y="322.84" width="22.22" height="2.01" transform="translate(1152.29 559.98) rotate(171.3)" fill="#c7dbea"/><rect x="544.37" y="327.1" width="22.22" height="2.01" transform="translate(1154.23 568.37) rotate(171.3)" fill="#c7dbea"/><rect x="545.03" y="331.37" width="22.22" height="2.01" transform="translate(1156.17 576.75) rotate(171.3)" fill="#c7dbea"/><rect x="571.12" y="314.9" width="14.02" height="2.01" transform="translate(1197.42 540.68) rotate(171.3)" fill="#c7dbea"/><rect x="571.71" y="318.29" width="25.6" height="2.01" transform="translate(1210.61 546.46) rotate(171.3)" fill="#c7dbea"/><rect x="572.38" y="322.73" width="23.3" height="2.01" transform="translate(1210.32 555.36) rotate(171.3)" fill="#c7dbea"/><rect x="573" y="326.55" width="29.2" height="2.01" transform="matrix(-0.99, 0.15, -0.15, -0.99, 1217.99, 562.41)" fill="#c7dbea"/><rect x="495.02" y="346.59" width="112.4" height="9.92" transform="translate(-46.86 87.47) rotate(-8.7)" fill="#93afce"/><rect x="501.77" y="360.22" width="113.26" height="30.85" transform="translate(-50.42 88.84) rotate(-8.7)" fill="none" stroke="#93afce" stroke-miterlimit="10" stroke-width="1.69"/><line x1="545.79" y1="361.97" x2="550.46" y2="392.46" fill="none" stroke="#93afce" stroke-miterlimit="10" stroke-width="1.69"/><rect x="559.82" y="365.28" width="46.17" height="8.63" transform="translate(-49.22 92.48) rotate(-8.7)" fill="#c7dbea"/><rect x="317.63" y="406.76" width="80.16" height="11" transform="translate(-75.1 79.7) rotate(-11.51)" fill="#c7dbea"/><rect x="185.49" y="406.37" width="41.24" height="6.47" transform="translate(-59.62 35.91) rotate(-8.7)" fill="#93afce"/><rect x="195.78" y="412.93" width="67.31" height="3.24" transform="translate(-60.1 39.5) rotate(-8.7)" fill="#c7dbea"/><rect x="195.44" y="423.91" width="67.31" height="5.29" transform="translate(-61.92 39.59) rotate(-8.7)" fill="#93afce"/><rect x="197.71" y="438.73" width="67.31" height="5.29" transform="translate(-64.14 40.1) rotate(-8.7)" fill="#93afce"/><line x1="135.39" y1="230.77" x2="163.46" y2="221.67" fill="none" stroke="#93afce" stroke-miterlimit="10" stroke-width="1.69"/><line x1="327.62" y1="164.18" x2="308.61" y2="130.92" fill="none" stroke="#93afce" stroke-miterlimit="10" stroke-width="1.69"/><line x1="257.24" y1="138.78" x2="282.74" y2="181.16" fill="none" stroke="#93afce" stroke-miterlimit="10" stroke-width="1.69"/><line x1="215.05" y1="145.24" x2="245.49" y2="192.96" fill="none" stroke="#93afce" stroke-miterlimit="10" stroke-width="1.69"/><line x1="160.88" y1="153.54" x2="195.03" y2="211.96" fill="none" stroke="#93afce" stroke-miterlimit="10" stroke-width="1.69"/><line x1="129.83" y1="194.46" x2="149.33" y2="225.58" fill="none" stroke="#93afce" stroke-miterlimit="10" stroke-width="1.69"/><rect x="307.73" y="281.88" width="44.27" height="3.34" transform="translate(-90.39 171.29) rotate(-25.73)" fill="#c7dbea"/><rect x="189.69" y="238.86" width="32.89" height="3.34" transform="translate(-60.84 70.02) rotate(-16.84)" fill="#c7dbea"/><circle cx="506.18" cy="146.95" r="10.21" fill="none" stroke="#93afce" stroke-miterlimit="10" stroke-width="2.25"/><line x1="477.67" y1="155.23" x2="496.4" y2="150.49" fill="none" stroke="#93afce" stroke-miterlimit="10" stroke-width="2.25"/><line x1="516.27" y1="145.41" x2="533.47" y2="141.31" fill="none" stroke="#93afce" stroke-miterlimit="10" stroke-width="2.25"/><polygon points="528.38 137.21 533.47 141.31 531.25 149.36 542.88 138.24 528.38 137.21" fill="#93afce"/><rect x="576.95" y="41.71" width="92.99" height="348.33" transform="translate(-25.49 96.84) rotate(-8.7)" fill="#c7dbea"/><ellipse cx="649.81" cy="388.03" rx="46.5" ry="39.46" transform="translate(-51.24 102.82) rotate(-8.7)" fill="#a1bdd8"/><path d="M643.84,349,649,382.86c14.37-2.2,27.54,5.91,29.4,18.1s-8.27,23.87-22.64,26.07c25.38-3.88,43.29-24.49,40-46S669.22,345.14,643.84,349Z" fill="#93afce"/><g clip-path="url(#b)"><rect x="647.97" y="346.71" width="26.33" height="56.57" transform="translate(-49.14 104.38) rotate(-8.7)" fill="#c7dbea"/><path d="M644.48,353.2s14.5-3.23,27.26,4.08L669,339.36l-26,4Z" fill="#93afce"/></g><ellipse cx="652.4" cy="404.95" rx="26.33" ry="22.34" transform="translate(-53.77 103.4) rotate(-8.7)" fill="#a1bdd8"/></g><line x1="4.97" y1="518.91" x2="729.19" y2="518.91" fill="none" stroke="#15385d" stroke-miterlimit="10" stroke-width="5.05"/><g clip-path="url(#e)"><polygon points="1582.29 518.91 1455.17 457.45 823.03 457.45 695.92 518.91 1582.29 518.91" fill="#d4e5f4"/></g></svg>