<svg xmlns="http://www.w3.org/2000/svg" width="6in" height="5.14in" viewBox="0 0 432 369.94"><circle cx="216" cy="184.97" r="184.97" fill="#e9eff1"/><path d="M422.2,83.38h2.51A7.29,7.29,0,0,1,432,90.67V191.41a0,0,0,0,1,0,0H414.91a0,0,0,0,1,0,0V90.67a7.29,7.29,0,0,1,7.29-7.29Z" fill="#16385d"/><path d="M356.38,17.56h2.51a7.29,7.29,0,0,1,7.29,7.29V159a7.29,7.29,0,0,1-7.29,7.29h-9.8a0,0,0,0,1,0,0V24.85a7.29,7.29,0,0,1,7.29-7.29Z" transform="translate(265.71 449.56) rotate(-90)" fill="#16385d"/><path d="M73.12,17.56h2.51a7.29,7.29,0,0,1,7.29,7.29V159a7.29,7.29,0,0,1-7.29,7.29h-9.8a0,0,0,0,1,0,0V24.85a7.29,7.29,0,0,1,7.29-7.29Z" transform="translate(-17.56 166.29) rotate(-90)" fill="#16385d"/><path d="M389.29,83.38h2.51a7.29,7.29,0,0,1,7.29,7.29V191.41a0,0,0,0,1,0,0H382a0,0,0,0,1,0,0V90.67A7.29,7.29,0,0,1,389.29,83.38Z" fill="#16385d"/><path d="M356.38,83.38h2.51a7.29,7.29,0,0,1,7.29,7.29V191.41a0,0,0,0,1,0,0H349.09a0,0,0,0,1,0,0V90.67A7.29,7.29,0,0,1,356.38,83.38Z" fill="#16385d"/><path d="M323.47,83.38H326a7.29,7.29,0,0,1,7.29,7.29V191.41a0,0,0,0,1,0,0H316.18a0,0,0,0,1,0,0V90.67A7.29,7.29,0,0,1,323.47,83.38Z" fill="#16385d"/><path d="M290.56,83.38h2.51a7.29,7.29,0,0,1,7.29,7.29V191.41a0,0,0,0,1,0,0H283.26a0,0,0,0,1,0,0V90.67a7.29,7.29,0,0,1,7.29-7.29Z" fill="#16385d"/><path d="M138.94,83.38h2.51a7.29,7.29,0,0,1,7.29,7.29V191.41a0,0,0,0,1,0,0H131.65a0,0,0,0,1,0,0V90.67a7.29,7.29,0,0,1,7.29-7.29Z" fill="#16385d"/><path d="M106,83.38h2.51a7.29,7.29,0,0,1,7.29,7.29V191.41a0,0,0,0,1,0,0H98.74a0,0,0,0,1,0,0V90.67A7.29,7.29,0,0,1,106,83.38Z" fill="#16385d"/><path d="M73.12,83.38h2.51a7.29,7.29,0,0,1,7.29,7.29V191.41a0,0,0,0,1,0,0H65.82a0,0,0,0,1,0,0V90.67A7.29,7.29,0,0,1,73.12,83.38Z" fill="#16385d"/><path d="M40.2,83.38h2.51A7.29,7.29,0,0,1,50,90.67V191.41a0,0,0,0,1,0,0H32.91a0,0,0,0,1,0,0V90.67A7.29,7.29,0,0,1,40.2,83.38Z" fill="#16385d"/><path d="M7.29,83.38H9.8a7.29,7.29,0,0,1,7.29,7.29V161a7.54,7.54,0,0,1-7.54,7.54h-2A7.54,7.54,0,0,1,0,161V90.67A7.29,7.29,0,0,1,7.29,83.38Z" fill="#16385d"/><path d="M50.15,245.21H76a0,0,0,0,1,0,0v34.08a9.11,9.11,0,0,1-9.11,9.11H59.26a9.11,9.11,0,0,1-9.11-9.11V245.21A0,0,0,0,1,50.15,245.21Z" fill="#16385d"/><path d="M356.15,245.21H382a0,0,0,0,1,0,0v34.08a9.11,9.11,0,0,1-9.11,9.11h-7.62a9.11,9.11,0,0,1-9.11-9.11V245.21A0,0,0,0,1,356.15,245.21Z" fill="#16385d"/><rect x="26.74" y="188.7" width="14.01" height="19.27" fill="#16385d"/><rect x="67.17" y="188.7" width="14.01" height="19.27" fill="#16385d"/><rect x="107.74" y="188.7" width="14.01" height="19.27" fill="#16385d"/><rect x="148.17" y="188.7" width="14.01" height="19.27" fill="#16385d"/><rect x="188.74" y="188.7" width="14.01" height="19.27" fill="#16385d"/><rect x="229.17" y="188.7" width="14.01" height="19.27" fill="#16385d"/><rect x="269.74" y="188.7" width="14.01" height="19.27" fill="#16385d"/><rect x="310.17" y="188.7" width="14.01" height="19.27" fill="#16385d"/><rect x="350.74" y="188.7" width="14.01" height="19.27" fill="#16385d"/><rect x="391.18" y="188.7" width="14.01" height="19.27" fill="#16385d"/><path d="M422.89,177.56H9.11A9.11,9.11,0,0,0,0,186.67V236.1a9.11,9.11,0,0,0,9.11,9.11H294.67a5.68,5.68,0,0,0,5.68-5.68v-2.47a5.68,5.68,0,0,0-5.68-5.69H16.86V218.26H415.14v13.11H315.86a5.69,5.69,0,0,0-5.69,5.69v2.47a5.68,5.68,0,0,0,5.69,5.68h107A9.11,9.11,0,0,0,432,236.1V186.67A9.11,9.11,0,0,0,422.89,177.56Zm-7.75,27H16.86V191.41H415.14Z" fill="#16385d"/></svg>