<svg xmlns="http://www.w3.org/2000/svg" width="136.65" height="88.89" viewBox="0 0 136.65 88.89"><rect x="3.39" y="3.15" width="129.69" height="82.5" fill="#fff" stroke="#16385d" stroke-linecap="round" stroke-linejoin="round" stroke-width="3.5"/><path d="M30.19,48.81a21,21,0,0,1-5.6-9.55C22.54,32,26.23,24.89,33.27,22.63c9-2.88,18.21,5.17,16.61,14.49a20.62,20.62,0,0,1-5.35,11,7.12,7.12,0,0,0-.53.7c1.18.33,2.24.61,3.28.93,5.06,1.57,9.25,4.19,11.33,9.36a18.84,18.84,0,0,1,1.09,8.25c0,.3-.48.64-.81.85s-.55,0-.83,0c-14,0-28.08,0-42.12,0-1.32,0-1.6-.42-1.64-1.67-.35-10.38,5.79-15.23,14-17.28Z" fill="#16385d"/><line x1="72.46" y1="24.48" x2="111.59" y2="24.48" fill="none" stroke="#16385d" stroke-linecap="round" stroke-linejoin="round" stroke-width="3.5"/><line x1="72.46" y1="37.61" x2="94.68" y2="37.61" fill="none" stroke="#16385d" stroke-linecap="round" stroke-linejoin="round" stroke-width="3.5"/><line x1="72.46" y1="50.73" x2="118.43" y2="50.73" fill="none" stroke="#16385d" stroke-linecap="round" stroke-linejoin="round" stroke-width="3.5"/><line x1="72.46" y1="63.86" x2="111.59" y2="63.86" fill="none" stroke="#16385d" stroke-linecap="round" stroke-linejoin="round" stroke-width="3.5"/></svg>