<svg xmlns="http://www.w3.org/2000/svg" width="109.09" height="105.26" viewBox="0 0 109.09 105.26"><polygon points="45.89 37.34 56.64 41.18 56.64 11.2 45.89 7.71 45.89 37.34" fill="#fff" stroke="#16385d" stroke-linejoin="round" stroke-width="3.5"/><polygon points="56.64 41.18 62.85 34.3 62.85 5.97 56.64 11.2 56.64 41.18" fill="#fff" stroke="#16385d" stroke-linejoin="round" stroke-width="3.5"/><polygon points="62.85 5.97 52.86 2.63 45.89 7.71 56.64 11.2 62.85 5.97" fill="#fff" stroke="#16385d" stroke-linejoin="round" stroke-width="3.5"/><polygon points="56.49 102.63 56.49 67.78 3.13 45.65 3.13 80.51 56.49 102.63" fill="#fff" stroke="#16385d" stroke-linejoin="round" stroke-width="3.5"/><polygon points="29.81 15.06 83.84 33.04 56.49 67.78 3.13 45.65 29.81 15.06" fill="#fff" stroke="#16385d" stroke-linejoin="round" stroke-width="3.5"/><polygon points="105.9 51.22 105.9 80.51 56.49 102.63 56.49 67.78 83.84 33.04 105.9 51.22" fill="#fff" stroke="#16385d" stroke-linejoin="round" stroke-width="3.5"/></svg>