<svg xmlns="http://www.w3.org/2000/svg" width="105.08" height="105.26" viewBox="0 0 105.08 105.26"><polyline points="102.42 29.2 102.42 2.69 46.75 2.69 46.75 43.44 2.42 43.44 2.42 102.69 102.42 102.69 102.42 29.2" fill="#fff" stroke="#16385d" stroke-linejoin="round" stroke-width="3.5" stroke-dasharray="8.89 4.45 17.78 4.45"/><polygon points="60.44 57.06 66.28 59.14 66.28 42.86 60.44 40.96 60.44 57.06" fill="#fff" stroke="#16385d" stroke-linejoin="round" stroke-width="2.14"/><polygon points="66.28 59.14 69.66 55.41 69.66 40.02 66.28 42.86 66.28 59.14" fill="#fff" stroke="#16385d" stroke-linejoin="round" stroke-width="2.14"/><polygon points="69.66 40.02 64.23 38.2 60.44 40.96 66.28 42.86 69.66 40.02" fill="#fff" stroke="#16385d" stroke-linejoin="round" stroke-width="2.14"/><polygon points="67.51 93.83 67.51 74.9 38.52 62.88 38.52 81.81 67.51 93.83" fill="#fff" stroke="#16385d" stroke-linejoin="round" stroke-width="2.14"/><polygon points="53.02 46.26 82.36 56.03 67.51 74.9 38.52 62.88 53.02 46.26" fill="#fff" stroke="#16385d" stroke-linejoin="round" stroke-width="2.14"/><polygon points="94.35 65.91 94.35 81.81 67.51 93.83 67.51 74.9 82.36 56.03 94.35 65.91" fill="#fff" stroke="#16385d" stroke-linejoin="round" stroke-width="2.14"/></svg>