<svg xmlns="http://www.w3.org/2000/svg" width="91.4" height="106.66" viewBox="0 0 91.4 106.66"><polygon points="87.73 103.14 3.44 103.14 3.44 33.5 45.59 3.14 87.73 33.5 87.73 103.14" fill="none" stroke="#16385d" stroke-linecap="round" stroke-linejoin="round" stroke-width="3.5"/><line x1="11.02" y1="36.83" x2="79.33" y2="36.83" fill="#16385d" stroke="#16385d" stroke-linecap="round" stroke-linejoin="round" stroke-width="3.5"/><line x1="11.02" y1="44.28" x2="79.33" y2="44.28" fill="#16385d" stroke="#16385d" stroke-linecap="round" stroke-linejoin="round" stroke-width="3.5"/><line x1="11.02" y1="51.73" x2="79.33" y2="51.73" fill="#16385d" stroke="#16385d" stroke-linecap="round" stroke-linejoin="round" stroke-width="3.5"/><path d="M58.83,57.63a5,5,0,0,1,2.54.62,5.11,5.11,0,0,1,2,2.28q2.3,5.4,4.55,10.82a.7.7,0,0,0,.63.49,5,5,0,0,1,4.27,4.81c0,4.76,0,14.41,0,14.41h-3.5v.43c0,1.34,0,2.69,0,4a3.81,3.81,0,0,1-3.88,3.92,4,4,0,0,1-3.72-3.91c0-1.33,0-2.66,0-4v-.44H28.51v.38c0,1.34,0,2.68,0,4a3.91,3.91,0,0,1-4.27,3.91,3.84,3.84,0,0,1-3.33-3.87c0-1.33,0-2.67,0-4v-.46H17.38V77a5.08,5.08,0,0,1,4.49-5.2.66.66,0,0,0,.36-.34q1.95-4.6,3.88-9.21c.19-.47.39-.94.59-1.41a4.93,4.93,0,0,1,.48-.91,5.38,5.38,0,0,1,4.52-2.29Zm3.86,14.13c0-.11-2.17-5.29-3.21-7.8A4.56,4.56,0,0,0,57.84,62a3.49,3.49,0,0,0-1.66-.41c-1,0-17.88,0-22.1,0a3.59,3.59,0,0,0-3.17,2.1c-1,2.57-3.24,7.91-3.3,8.06Zm4.59,7.69a3.7,3.7,0,1,0-3.7,3.7A3.67,3.67,0,0,0,67.28,79.45Zm-36.9,0a3.7,3.7,0,1,0-3.71,3.76A3.71,3.71,0,0,0,30.38,79.43Z" fill="#16385d"/><path d="M67.06,69h5.35a2.67,2.67,0,0,1,2.67,2.67v0a2.67,2.67,0,0,1-2.67,2.67H67.06a.11.11,0,0,1-.11-.11V69.06a.11.11,0,0,1,.11-.11Z" transform="translate(-7.63 8.47) rotate(-6.48)" fill="#16385d"/><path d="M15.27,69h5.35a2.67,2.67,0,0,1,2.67,2.67v0a2.67,2.67,0,0,1-2.67,2.67H15.27a.11.11,0,0,1-.11-.11V69.06A.11.11,0,0,1,15.27,69Z" transform="translate(30.26 144.96) rotate(-173.52)" fill="#16385d"/></svg>