<svg xmlns="http://www.w3.org/2000/svg" width="83.22" height="105.26" viewBox="0 0 83.22 105.26"><polygon points="54.21 35.56 43.76 25.13 51.57 25.13 41.21 14.78 49.38 14.78 37.22 2.63 25.07 14.78 33.24 14.78 22.88 25.13 30.68 25.13 20.24 35.56 54.21 35.56" fill="#fff" stroke="#16385d" stroke-linejoin="round" stroke-width="3.5"/><rect x="33.17" y="35.56" width="8.1" height="10.46" fill="#fff" stroke="#16385d" stroke-linejoin="round" stroke-width="3.5"/><polygon points="80.02 64.31 65.52 49.82 76.36 49.82 61.97 35.45 73.32 35.45 56.44 18.58 39.55 35.45 50.9 35.45 36.51 49.82 47.35 49.82 32.85 64.31 80.02 64.31" fill="#fff" stroke="#16385d" stroke-linejoin="round" stroke-width="3.5"/><rect x="50.81" y="64.31" width="11.25" height="14.52" fill="#fff" stroke="#16385d" stroke-linejoin="round" stroke-width="3.5"/><polygon points="57.66 85.66 40.7 68.72 53.37 68.72 36.55 51.92 49.82 51.92 30.09 32.2 10.35 51.92 23.61 51.92 6.8 68.72 19.47 68.72 2.51 85.66 57.66 85.66" fill="#fff" stroke="#16385d" stroke-linejoin="round" stroke-width="3.5"/><rect x="23.51" y="85.66" width="13.16" height="16.98" fill="#fff" stroke="#16385d" stroke-linejoin="round" stroke-width="3.5"/></svg>