<svg xmlns="http://www.w3.org/2000/svg" width="105.79" height="78.15" viewBox="0 0 105.79 78.15"><line x1="3.39" y1="74.82" x2="14.09" y2="31.38" fill="#fff" stroke="#16385d" stroke-linecap="round" stroke-linejoin="round" stroke-width="3.5"/><line x1="89.74" y1="31.38" x2="102.04" y2="74.82" fill="#fff" stroke="#16385d" stroke-linecap="round" stroke-linejoin="round" stroke-width="3.5"/><path d="M67.63,2.63a5.65,5.65,0,0,1,2.89.7A5.25,5.25,0,0,1,72,4.58a5.13,5.13,0,0,1,.85,1.35Q75.46,12.08,78,18.25a.8.8,0,0,0,.72.56,5.7,5.7,0,0,1,4.86,5.48c0,5.42,0,16.41,0,16.41h-4v.49c0,1.53,0,3.06,0,4.59a4.35,4.35,0,0,1-4.42,4.47,4.55,4.55,0,0,1-4.24-4.45c0-1.52,0-3,0-4.54v-.5H33.09v.44c0,1.52,0,3,0,4.56a4.48,4.48,0,0,1-4.87,4.46,4.38,4.38,0,0,1-3.79-4.42c0-1.51,0-3,0-4.55v-.52h-4v-16a5.79,5.79,0,0,1,5.11-5.93.69.69,0,0,0,.41-.38q2.22-5.23,4.42-10.49L31,6.29a6.54,6.54,0,0,1,.55-1,6.14,6.14,0,0,1,5.14-2.6ZM72,18.72c0-.13-2.46-6-3.65-8.88A5.16,5.16,0,0,0,66.5,7.63a3.92,3.92,0,0,0-1.89-.47c-1.17,0-20.37,0-25.17,0a4.07,4.07,0,0,0-3.61,2.39c-1.15,2.93-3.69,9-3.76,9.18Zm5.24,8.76A4.21,4.21,0,1,0,73,31.7,4.17,4.17,0,0,0,77.26,27.48Zm-42,0A4.21,4.21,0,1,0,31,31.74,4.21,4.21,0,0,0,35.22,27.46Z" fill="#16385d"/><path d="M77,15.52h6.1a3,3,0,0,1,3,3v0a3,3,0,0,1-3,3H77a.13.13,0,0,1-.13-.13V15.65A.13.13,0,0,1,77,15.52Z" transform="translate(-1.57 9.32) rotate(-6.48)" fill="#16385d"/><path d="M18,15.52h6.1a3,3,0,0,1,3,3v0a3,3,0,0,1-3,3H18a.13.13,0,0,1-.13-.13V15.65a.13.13,0,0,1,.13-.13Z" transform="translate(42.82 39.56) rotate(-173.52)" fill="#16385d"/></svg>