<svg xmlns="http://www.w3.org/2000/svg" xmlns:xlink="http://www.w3.org/1999/xlink" width="122.97" height="96.57" viewBox="0 0 122.97 96.57"><defs><clipPath id="a"><rect x="3.55" y="3.6" width="115.87" height="90" fill="none"/></clipPath></defs><rect x="3.55" y="3.6" width="115.87" height="90" fill="#fff" stroke="#16385d" stroke-linejoin="round" stroke-width="3.5"/><g clip-path="url(#a)"><ellipse cx="32.1" cy="28.02" rx="15.96" ry="12.53" transform="translate(-8.41 14.81) rotate(-23.06)" fill="none" stroke="#16385d" stroke-linejoin="round" stroke-width="3.4"/><ellipse cx="32.95" cy="29.36" rx="32.36" ry="23.87" transform="translate(-7.31 11.28) rotate(-17.51)" fill="none" stroke="#16385d" stroke-linejoin="round" stroke-width="2.48"/><path d="M3.55,62.36s18.57,5.21,32.78,1.86,39.52-11,44.71-32c3.84-15.55,1.33-21-5.39-28.6" fill="none" stroke="#16385d" stroke-linejoin="round" stroke-width="2.67"/><path d="M-.35,84.7c9.06-2.84,43.23-5.1,59.63-15.94,16.17-10.68,28.27-18.51,30.5-34.13S105,12.32,102.42,1.9" fill="none" stroke="#16385d" stroke-linejoin="round" stroke-width="2.67"/><path d="M52.78,93.6s14.13-5.27,20.08-18.26,29.75-22.65,36.82-33.8,9.74-18.8,9.74-18.8" fill="none" stroke="#16385d" stroke-linejoin="round" stroke-width="2.67"/><path d="M80.26,93.6C87.7,86.4,88,79.32,94.77,71.29c11.87-14.13,24.62-16,24.62-16" fill="none" stroke="#16385d" stroke-linejoin="round" stroke-width="2.67"/><path d="M120.91,71.91s-13.59,3.47-15.82,11.15-3,9.67-6.2,12.4" fill="none" stroke="#16385d" stroke-linejoin="round" stroke-width="2.67"/></g></svg>