<svg xmlns="http://www.w3.org/2000/svg" width="88.89" height="105.26" viewBox="0 0 88.89 105.26"><path d="M83.76,6.71C58.12,16.68,55.56,22,59.15,33c3.14,9.67,28.38,20.39,25.41,44.15-1.65,13.14-18.25,25.45-18.25,25.45" fill="none" stroke="#16385d" stroke-linecap="round" stroke-linejoin="round" stroke-width="3.5"/><path d="M13.94,102.63S48.81,82.52,51.85,70.12c4-16.41-9.17-17.18-14.91-33.28C33,25.88,38.39,10.56,75.69,2.63" fill="none" stroke="#16385d" stroke-linecap="round" stroke-linejoin="round" stroke-width="3.5"/><polygon points="43.1 69.65 30.81 56.09 39.99 56.09 27.8 42.64 37.42 42.64 23.11 26.86 8.81 42.64 18.43 42.64 6.24 56.09 15.42 56.09 3.13 69.65 43.1 69.65" fill="#fff" stroke="#16385d" stroke-linejoin="round" stroke-width="3.5"/><rect x="18.35" y="69.65" width="9.54" height="13.59" fill="#fff" stroke="#16385d" stroke-linejoin="round" stroke-width="3.5"/></svg>