<svg xmlns="http://www.w3.org/2000/svg" width="141.06" height="93.6" viewBox="0 0 141.06 93.6"><rect x="3.2" y="3.11" width="134.64" height="87.5" fill="#fff" stroke="#16385d" stroke-linejoin="round" stroke-width="3.5"/><rect x="17.62" y="12.95" width="105.8" height="67.82" fill="#fff"/><polyline points="123.42 76.33 123.42 80.77 118.98 80.77" fill="none" stroke="#16385d" stroke-linejoin="round" stroke-width="2.5"/><line x1="110.17" y1="80.77" x2="26.47" y2="80.77" fill="none" stroke="#16385d" stroke-linejoin="round" stroke-width="2.5" stroke-dasharray="8.81 8.81"/><polyline points="22.06 80.77 17.62 80.77 17.62 76.33" fill="none" stroke="#16385d" stroke-linejoin="round" stroke-width="2.5"/><line x1="17.62" y1="67.91" x2="17.62" y2="21.6" fill="none" stroke="#16385d" stroke-linejoin="round" stroke-width="2.5" stroke-dasharray="8.42 8.42"/><polyline points="17.62 17.39 17.62 12.95 22.06 12.95" fill="none" stroke="#16385d" stroke-linejoin="round" stroke-width="2.5"/><line x1="30.87" y1="12.95" x2="114.57" y2="12.95" fill="none" stroke="#16385d" stroke-linejoin="round" stroke-width="2.5" stroke-dasharray="8.81 8.81"/><polyline points="118.98 12.95 123.42 12.95 123.42 17.39" fill="none" stroke="#16385d" stroke-linejoin="round" stroke-width="2.5"/><line x1="123.42" y1="25.81" x2="123.42" y2="72.12" fill="none" stroke="#16385d" stroke-linejoin="round" stroke-width="2.5" stroke-dasharray="8.42 8.42"/><polygon points="66.45 36.15 72.14 38.17 72.14 22.31 66.45 20.47 66.45 36.15" fill="#fff" stroke="#16385d" stroke-linejoin="round" stroke-width="1.55"/><polygon points="72.14 38.17 75.42 34.54 75.42 19.54 72.14 22.31 72.14 38.17" fill="#fff" stroke="#16385d" stroke-linejoin="round" stroke-width="1.55"/><polygon points="75.42 19.54 70.14 17.78 66.45 20.47 72.14 22.31 75.42 19.54" fill="#fff" stroke="#16385d" stroke-linejoin="round" stroke-width="1.55"/><polygon points="74.14 75.94 74.14 55.33 42.58 42.24 42.58 62.85 74.14 75.94" fill="#fff" stroke="#16385d" stroke-linejoin="round" stroke-width="2.33"/><polygon points="58.36 24.15 90.31 34.78 74.14 55.33 42.58 42.24 58.36 24.15" fill="#fff" stroke="#16385d" stroke-linejoin="round" stroke-width="2.33"/><polygon points="103.36 45.54 103.36 62.85 74.14 75.94 74.14 55.33 90.31 34.78 103.36 45.54" fill="#fff" stroke="#16385d" stroke-linejoin="round" stroke-width="2.33"/></svg>