<svg xmlns="http://www.w3.org/2000/svg" width="133.15" height="105.26" viewBox="0 0 133.15 105.26"><line x1="61.93" y1="2.63" x2="70.98" y2="2.63" fill="#fff" stroke="#16385d" stroke-linecap="round" stroke-linejoin="round" stroke-width="3.5"/><line x1="42.77" y1="2.63" x2="51.82" y2="2.63" fill="#fff" stroke="#16385d" stroke-linecap="round" stroke-linejoin="round" stroke-width="3.5"/><line x1="80.11" y1="2.63" x2="110.76" y2="2.63" fill="#fff" stroke="#16385d" stroke-linecap="round" stroke-linejoin="round" stroke-width="3.5"/><line x1="2.98" y1="2.63" x2="33.63" y2="2.63" fill="#fff" stroke="#16385d" stroke-linecap="round" stroke-linejoin="round" stroke-width="3.5"/><line x1="56.87" y1="4.26" x2="56.87" y2="99.35" fill="#fff" stroke="#16385d" stroke-linejoin="round" stroke-width="3.5"/><line x1="2.98" y1="102.63" x2="110.76" y2="102.63" fill="#fff" stroke="#16385d" stroke-linecap="round" stroke-linejoin="round" stroke-width="3.5"/><path d="M106.92,11.93h9.52a13.63,13.63,0,0,1,13.63,13.63v17.7a5.45,5.45,0,0,1-5.45,5.45h-17.7A13.63,13.63,0,0,1,93.29,35.09V25.57a13.63,13.63,0,0,1,13.63-13.63Z" transform="translate(142 -81.35) rotate(90)" fill="none" stroke="#16385d" stroke-linejoin="round" stroke-width="3.5"/><circle cx="111.68" cy="30.33" r="8.52" fill="none" stroke="#16385d" stroke-linejoin="round" stroke-width="3.5"/><path d="M98.85,48.72c4.38,2.32,5.81,7.9,4.82,13.1-1.82,9.67-8.9,8.93-12,21.93-.7,2.91.53,7.85,2,9.83" fill="none" stroke="#16385d" stroke-linecap="round" stroke-linejoin="round" stroke-width="3.5"/><polyline points="67.03 15.78 56.87 4.26 46.72 15.78" fill="none" stroke="#16385d" stroke-linecap="round" stroke-linejoin="round" stroke-width="3.5"/><polyline points="46.72 87.83 56.87 99.34 67.03 87.83" fill="none" stroke="#16385d" stroke-linecap="round" stroke-linejoin="round" stroke-width="3.5"/></svg>